<?xml version="1.0" encoding="UTF-8" standalone="no"?>
<!DOCTYPE svg PUBLIC "-//W3C//DTD SVG 1.1//EN" "http://www.w3.org/Graphics/SVG/1.1/DTD/svg11.dtd">
<svg xmlns="http://www.w3.org/2000/svg" xmlns:xlink="http://www.w3.org/1999/xlink" version="1.1" width="720pt" height="405pt" viewBox="0 0 720 405">
<g enable-background="new">
<g>
<clipPath id="cp24">
<path transform="matrix(.001968504,0,0,.001968504,0,0)" d="M 0 0 L 365760 0 L 365760 205740 L 0 205740 L 0 0 Z "/>
</clipPath>
<g clip-path="url(#cp24)">
<path transform="matrix(.001968504,0,0,.001968504,0,0)" d="M 0 0 L 365568 0 L 365568 205740 L 0 205740 Z " fill-opacity=".4431" fill-rule="evenodd"/>
<path transform="matrix(.001968504,0,0,.001968504,0,0)" d="M 46002 5478 L 319758 5478 L 319758 200262 L 46002 200262 Z " fill-opacity="0" fill-rule="evenodd"/>
<text fill="#ffffff" xml:space="preserve" transform="matrix(.75 0 0 .75 90.555118 10.783464)" font-size="32" font-family="DroidSerif"><tspan y="39.72" x="9 40.552003 57.672006 74.66401 93.35201 113.99201 132.45601 160.00801 177 207.20801 225.67201 240.74402 257.864 274.85603 292.84004 312.45603 330.92 351.208 362.47203 379.46403 407.01603 427.30403 445.28804 456.55204 473.54405 484.80805 505.09605 522.21609 539.20809 566.7601 585.22409 600.2961 610.21609 629.8321 646.8241 674.3761 692.3601 706.7921">Discuss among yourselves what the world was </tspan></text>
<text fill="#ffffff" xml:space="preserve" transform="matrix(.75 0 0 .75 90.555118 10.783464)" font-size="32" font-family="DroidSerif"><tspan y="77.72" x="9 18.92 29.128 47.176004 64.296009 74.504009 92.48801 104.296009 115.560009 132.68001 147.75202 157.96 177.576 194.696 213.16 232.776 242.696 259.816 270.02403 284.45603 295.72004 313.70405 328.77604 340.04005 357.16004 376.77604 386.98405 414.53605 429.60804 439.81605 451.08006 461.28807 481.92808 499.14408 507.14408 517.35208 536.9681 557.2561 568.5201 578.7281 599.3681 617.8321 629.09609 639.3041 657.8321 674.9521 690.0241 708.0721">like after people started writing, but not very </tspan></text>
<text fill="#ffffff" xml:space="preserve" transform="matrix(.75 0 0 .75 90.555118 10.783464)" font-size="32" font-family="DroidSerif"><tspan y="115.72" x="9 39.208 59.496004 75.240009 95.52801 103.81601 118.24801 138.53601 153.60802 172.13602 182.34403 200.87203 217.99202 237.60802 246.76001">much survived. </tspan></text>
<text fill="#ffffff" xml:space="preserve" transform="matrix(.75 0 0 .75 90.555118 10.783464)" font-size="32" font-family="DroidSerif"><tspan y="191.72" x="9 32.744005 53.384004 70.504009 94.47201 112.936008 124.744 148.712 159.97602 180.264 197.384 221.35199 251.56 270.024 284.456 295.72 319.688 329.896 360.104 379.72 398.184 413.25599 424.52 442.504 463.144 474.40803 498.376 525.928 541 551.208 562.472 572.68 593.32 610.536 624.968 648.93606 676.48806 694.47207 708.90408">One of the most important writings was </tspan></text>
<text fill="#ffffff" xml:space="preserve" transform="matrix(.75 0 0 .75 90.555118 10.783464)" font-size="32" font-family="DroidSerif"><tspan y="229.72" x="9 28.616002 38.824 53.256006 69.00001 87.464008 105.992008 123.11201 138.184 155.304 174.92 188.35999 207.33599 225.38399 238.82398 257.67198 272.74397 289.86396 310.50398 326.24797 346.53596 359.97596 374.40797 392.87196 402.79197 422.40797 432.61598 449.73597 464.80796 479.23997 492.67997 502.88798 523.52798 536.96798 548.23196 568.51998 585.63998 599.07998 626.63198 644.61599 654.53598 664.45596 677.89596 696.3599 708.1679">discovered by French soldiers in the wall of </tspan></text>
<text fill="#ffffff" xml:space="preserve" transform="matrix(.75 0 0 .75 90.555118 10.783464)" font-size="32" font-family="DroidSerif"><tspan y="267.72" x="9 26.568 45.032 60.104005 71.368007 97.32001 108.712009 129 138.92 149.12799 166.24799 186.88799 196.07199 222.02399 233.288 253.57599 270.69599 296.64799 317.60798 336.07197 350.50398 367.62397 378.88798 390.15199 408.136 434.08799 451.464 462.728 481.192 501.832 518.952 526.952 552.90408 563.11209 593.32009 612.9361 631.4001 646.4721 657.7361 675.7201 696.3601 707.6241">Fort Julien: the Rosetta Stone, important </tspan></text>
<text fill="#ffffff" xml:space="preserve" transform="matrix(.75 0 0 .75 90.555118 10.783464)" font-size="32" font-family="DroidSerif"><tspan y="305.72" x="9 28.616002 45.736 61.48 79.464008 99.75201 114.184009 131.304 149.704 159.91199 171.176 189.57599 217.12799 235.112 249.544 267.944 295.496 310.568 320.776 332.04 343.30403 360.424 381.06404 399.46403 409.67204 430.31205 448.71205 459.97605 480.26405 495.33604 512.45608 529.57608 547.9761 557.89608 575.88009 596.5201 613.7361 634.0241 652.0081 669.2241 686.3441 700.7761 708.7761">because it was written in three languages, </tspan></text>
<text fill="#ffffff" xml:space="preserve" transform="matrix(.75 0 0 .75 90.555118 10.783464)" font-size="32" font-family="DroidSerif"><tspan y="343.72" x="9 20.264 47.816 66.28 74.568 94.184009 109.256008 126.37601 144.904 155.112 173.576 193.864 208.296 218.216 236.264 244.552 264.84 285.48 296.74403 311.176 329.16 349.80003 364.23204 374.15205 392.13606 403.40007 421.38407 441.00007 450.92008 468.04008">two previously untranslatable.</tspan></text>
<text fill="#ffffff" xml:space="preserve" transform="matrix(.75 0 0 .75 90.555118 10.783464)" font-size="32" font-family="DroidSerif"><tspan y="419.72" x="9 31.560002 43.368005 54.632005 71.75201 86.824008 99.52801 117.51201 130.216 140.136 158.6 179.24 196.45601 209.16 223.59201 234.85602 249.92803 260.13603 280.77604 297.99205 310.69606 329.16004 340.96806 353.67207 373.96006 392.42405 413.06407 431.52806 446.60005 456.80805 468.61607 478.82408 494.56806 509.00007 521.7041 539.6881 560.3281 579.94418 592.6482 612.2642 629.3842 645.12826 660.20028 677.32028 694.44027 708.87228">After a long string of honorifics and decrees </tspan></text>
<text fill="#ffffff" xml:space="preserve" transform="matrix(.75 0 0 .75 90.555118 10.783464)" font-size="32" font-family="DroidSerif"><tspan y="457.72" x="9 26.984002 46.600004 65.064 85.352008 96.616008 107.72001 118.98401 136.96802 155.46402 172.58402 187.01602 198.12001 216.104 236.744 256.36003 267.46403 281.89604 302.18403 317.928 333.672 350.792 365.224 379.656 389.864 408.328 428.96803 436.96803 448.07203 458.28004 469.54405 480.64805 500.26405 517.38406 533.12808 543.04806 561.03207 576.10409 593.22409 607.65609 616.8401 627.9441 639.20809 659.4961 676.6161 691.6881 708.8081">about taxes and succession, it declares: there </tspan></text>
<text fill="#ffffff" xml:space="preserve" transform="matrix(.75 0 0 .75 90.555118 10.783464)" font-size="32" font-family="DroidSerif"><tspan y="495.72" x="9 23.432002 43.72 61.704004 71.624 81.544 89.832 109.448 126.568 134.856 152.84 161.12799 181.76799 198.88799 226.43999 234.72798 255.01598 273.47999 283.4 293.608 313.224 330.568 348.616">shall be a new holiday!</tspan></text>
</g>
</g>
</g>
</svg>
