<?xml version="1.0" encoding="UTF-8" standalone="no"?>
<!DOCTYPE svg PUBLIC "-//W3C//DTD SVG 1.1//EN" "http://www.w3.org/Graphics/SVG/1.1/DTD/svg11.dtd">
<svg xmlns="http://www.w3.org/2000/svg" xmlns:xlink="http://www.w3.org/1999/xlink" version="1.1" width="720pt" height="405pt" viewBox="0 0 720 405">
<g enable-background="new">
<g>
<clipPath id="cp2">
<path transform="matrix(.001968504,0,0,.001968504,0,0)" d="M 0 0 L 365760 0 L 365760 205740 L 0 205740 L 0 0 Z "/>
</clipPath>
<g clip-path="url(#cp2)">
<path transform="matrix(.001968504,0,0,.001968504,0,0)" d="M 12468 17801 L 353292 17801 L 353292 60881 L 12468 60881 Z " fill-opacity=".2291" fill-rule="evenodd"/>
<text xml:space="preserve" transform="matrix(.75 0 0 .75 24.543309 35.04134)" font-size="49.333333" font-family="ArialMT"><tspan y="56.359998" x="9 41.856 55.52133 66.473339 77.42534 88.37734 99.329349 132.18535 143.13735 154.08934 178.75601">Still Alive</tspan></text>
<text xml:space="preserve" transform="matrix(.75 0 0 .75 24.543309 35.04134)" font-size="26.666666" font-family="ArialMT"><tspan y="93.6" x="9 26.76 40.093336 47.48 60.81333 75.64 90.46667 105.293338 112.68 127.50667 142.33335 157.16 164.54668 183.80002 198.62668 213.45334 219.37334 226.76001 241.58667">By Jonathon Coulton</tspan></text>
<path transform="matrix(.001968504,0,0,.001968504,0,0)" d="M 22278 70330 L 343482 70330 L 343482 202066 L 22278 202066 Z " fill-opacity="0" fill-rule="evenodd"/>
<path transform="matrix(.001968504,0,0,.001968504,0,0)" stroke-width="381" stroke-linecap="butt" stroke-linejoin="round" fill="none" stroke="#0000ff" d="M 22278 70330 L 343482 70330 L 343482 202066 L 22278 202066 Z "/>
</g>
</g>
</g>
</svg>
