<?xml version="1.0" encoding="UTF-8" standalone="no"?>
<!DOCTYPE svg PUBLIC "-//W3C//DTD SVG 1.1//EN" "http://www.w3.org/Graphics/SVG/1.1/DTD/svg11.dtd">
<svg xmlns="http://www.w3.org/2000/svg" xmlns:xlink="http://www.w3.org/1999/xlink" version="1.1" width="720pt" height="405pt" viewBox="0 0 720 405">
<g enable-background="new">
<g>
<clipPath id="cp13">
<path transform="matrix(.001968504,0,0,.001968504,0,0)" d="M 0 0 L 365760 0 L 365760 205740 L 0 205740 L 0 0 Z "/>
</clipPath>
<g clip-path="url(#cp13)">
<path transform="matrix(.001968504,0,0,.001968504,0,0)" d="M 0 0 L 365568 0 L 365568 205740 L 0 205740 Z " fill-opacity=".4431" fill-rule="evenodd"/>
<path transform="matrix(.001968504,0,0,.001968504,0,0)" d="M 63882 10962 L 301878 10962 L 301878 194778 L 63882 194778 Z " fill-opacity="0" fill-rule="evenodd"/>
<text fill="#ffffff" xml:space="preserve" transform="matrix(.75 0 0 .75 125.75197 21.578742)" font-size="24" font-family="DroidSerif"><tspan y="32.04" x="9 17.808 24.024 46.68 59.52 67.968 74.184009 87.672008 93.88801 102.336009 113.16 126.648 140.544 153.384 160.824 168.264 181.104 192.408 198.62401 207.48001 218.78401 232.63202 255.28803 261.50404 274.99205 290.47206 296.68806 310.17607 325.65608 334.10408 341.76008 356.47209 371.68809 384.52809 390.74409 398.18409 411.6721 427.1521">I met a traveller from an antique land</tspan></text>
<text fill="#ffffff" xml:space="preserve" transform="matrix(.75 0 0 .75 125.75197 21.578742)" font-size="24" font-family="DroidSerif"><tspan y="61.04" x="9 34.104 49.32 63.168 69.384 80.20801 93.69601 101.352008 116.064 122.952 129.168 143.856 164.52 178.36801 184.58402 198.48001 211.96802 222.79203 231.24002 237.45603 250.94403 266.42405 281.13606 287.35206 295.80006 307.10408 322.32008 337.80009 351.81608 359.25608 372.09608 382.92008 393.74409 399.96009 407.4001 420.24009 433.15208 443.97608 450.19209 464.04008 472.89607 479.11207 489.93608 498.38407 512.23208 527.71206">Who said: Two vast and trunkless legs of stone</tspan></text>
<text fill="#ffffff" xml:space="preserve" transform="matrix(.75 0 0 .75 125.75197 21.578742)" font-size="24" font-family="DroidSerif"><tspan y="90.04" x="9 22.032002 30.480004 43.968004 59.448007 74.16 80.37601 88.032009 103.51201 109.72801 118.17601 133.39202 146.23201 152.44802 167.16002 180.00002 190.82402 203.66402 214.96802 223.41602 230.28002 236.49602 254.80802 267.648 281.13603 292.44 298.656 307.104 322.32 335.16 357.816 363.816 370.032 383.88 399.36003 405.57603 414.02403 429.24003 442.08003 448.29603 459.12004 472.60804 488.08805 502.80006 508.80006">Stand in the desert. Near them, on the sand, </tspan></text>
<text fill="#ffffff" xml:space="preserve" transform="matrix(.75 0 0 .75 125.75197 21.578742)" font-size="24" font-family="DroidSerif"><tspan y="119.04" x="9 28.008002 41.496004 48.936 57.792 64.008 74.832 90.048007 105.52801 119.54401 125.54401 131.76001 145.24802 151.46402 162.28803 177.50403 190.99204 199.44004 207.88803 220.72803 232.03203 244.87203 259.584 265.80003 279.696 287.35203 298.17604 311.66404 324.57603 337.41603 343.63203 351.07203 358.72804 371.56803 382.39204 388.39204 394.60804 415.27204 430.48805 444.33604 455.16004 468.00004 474.21604 483.07203 494.37605 508.22404 528.88809 544.36807">Half sunk, a shattered visage lies, whose frown,</tspan></text>
<text fill="#ffffff" xml:space="preserve" transform="matrix(.75 0 0 .75 125.75197 21.578742)" font-size="24" font-family="DroidSerif"><tspan y="148.04" x="9 25.920002 41.4 56.112005 62.328004 82.992008 94.296009 101.952 117.43201 131.44802 138.88802 151.72801 166.44002 172.65602 180.09603 187.75203 202.46404 208.46404 214.68004 228.16805 243.64804 258.36006 264.57606 275.40007 290.88008 303.72007 316.56007 327.86408 334.08009 347.92808 356.78407 363.00007 374.80809 388.65608 396.09608 410.80809 417.02409 428.8321 442.68009 465.3361 487.9921 501.4801 516.9601 531.67208">And wrinkled lip, and sneer of cold command,</tspan></text>
<text fill="#ffffff" xml:space="preserve" transform="matrix(.75 0 0 .75 125.75197 21.578742)" font-size="24" font-family="DroidSerif"><tspan y="177.04" x="9 22.992003 35.832 43.272 50.711999 56.927999 65.376 80.591999 94.079998 102.52799 108.743999 116.399997 124.84799 135.672 141.888 152.712 164.52 179.73601 187.17601 201.88802 210.33602 224.18402 235.48802 241.70403 262.36805 275.20805 282.64805 290.08805 296.30406 304.75205 319.96806 333.81605 344.64006 357.48005 363.69606 378.40806 391.89607 402.72007 413.54408 421.20008 435.04808 450.52809 461.35209 467.56809 478.87208 491.71208 505.20008">Tell that its sculptor well those passions read</tspan></text>
<text fill="#ffffff" xml:space="preserve" transform="matrix(.75 0 0 .75 125.75197 21.578742)" font-size="24" font-family="DroidSerif"><tspan y="206.04" x="9 34.104 49.32 56.975999 68.784 84 90.216 103.75201 116.59201 125.04001 131.25601 142.08002 157.29602 168.60002 182.49602 190.15203 204.04802 216.88802 222.88802 229.10402 239.92803 248.37602 261.864 284.52003 299.23204 312.07203 326.78404 333.00004 346.84803 362.32804 368.54405 376.99205 392.20805 405.04804 415.87205 428.71205 434.92805 442.36805 450.02406 458.88005 471.72004 479.16004 492.00004 502.82405 513.648 519.864 528.312 543.528 551.184 566.664 579.576 590.39999 596.39999">Which yet survive, stamped on these lifeless things, </tspan></text>
<text fill="#ffffff" xml:space="preserve" transform="matrix(.75 0 0 .75 125.75197 21.578742)" font-size="24" font-family="DroidSerif"><tspan y="235.04" x="9 23.688002 38.904 51.744 57.96 73.175998 86.663997 102.144 116.855998 123.072 131.52 146.73601 160.22402 168.67201 174.88802 197.54402 211.39203 223.20003 236.73604 249.57604 264.28804 270.50404 278.95204 294.16804 307.00804 329.66404 335.88005 349.36805 364.84806 379.56007 385.77607 394.22407 409.44007 422.28007 428.49607 443.71208 456.55207 470.04008 481.34407 489.79206 496.00807 504.45606 519.67208 533.16006 541.60806 547.82406 556.68008 569.5201 584.23208 591.12008">The hand that mocked them and the heart that fed: </tspan></text>
<text fill="#ffffff" xml:space="preserve" transform="matrix(.75 0 0 .75 125.75197 21.578742)" font-size="24" font-family="DroidSerif"><tspan y="264.04" x="9 25.920002 41.4 56.112005 62.328004 76.176 91.656009 97.87201 106.32001 121.53601 134.376 140.59201 155.30402 168.14402 182.85602 195.69602 206.52002 214.96802 228.45603 235.89603 242.11203 250.56003 265.77604 278.61604 289.44004 302.28004 308.49604 329.16004 343.00804 354.312 369.02403 379.84803 386.06404 399.55204 414.26405 428.97605 441.81605 455.30406 466.60804 473.49604">And on the pedestal these words appear: </tspan></text>
<text fill="#ffffff" xml:space="preserve" transform="matrix(.75 0 0 .75 125.75197 21.578742)" font-size="24" font-family="DroidSerif"><tspan y="293.04" x="9 19.8 42.288003 55.824 62.04 77.520008 91.008 113.664 126.504 132.72 140.376 151.20001 157.41602 175.22402 187.48802 201.02402 223.68003 237.16803 252.64803 267.36003 275.01603 288.50404 299.32804 305.32804 311.54405 325.56004 333.21604 348.69606 361.60804 367.82405 381.67204 390.528 396.74403 410.76 418.41603 433.89604 446.808 457.63203 464.52003">&#x201c;My name is Ozymandias, king of kings: </tspan></text>
<text fill="#ffffff" xml:space="preserve" transform="matrix(.75 0 0 .75 125.75197 21.578742)" font-size="24" font-family="DroidSerif"><tspan y="322.04" x="9 23.952 37.8 51.648 65.664 71.880008 85.728008 101.20801 107.42401 130.08002 143.61602 149.83202 170.49602 184.34403 195.64803 209.66403 220.48804 226.48804 232.70404 246.24004 259.08006 265.29606 287.78407 295.44007 308.35206 323.56806 332.01606 343.41609 349.41609 355.63209 369.1201 384.6001 399.3121 405.5281 420.2401 433.0801 443.9041 458.61613 472.10414 479.76014 491.06416 499.05616 509.85615">Look on my works, ye Mighty, and despair!&#x201d; </tspan></text>
<text fill="#ffffff" xml:space="preserve" transform="matrix(.75 0 0 .75 125.75197 21.578742)" font-size="24" font-family="DroidSerif"><tspan y="351.04" x="9 27.312 41.16 49.608 64.824008 72.48 87.96001 100.87201 107.08801 121.80001 134.64002 145.46402 153.12003 167.83203 180.67203 186.88803 198.19203 211.03203 233.68804 247.17604 254.83205 270.31205 281.13606 288.00007 294.21607 309.93608 323.78407 339.00007 354.48008 369.19209 375.40809 383.85609 399.07209 411.91209 418.12809 432.8401 445.68009 457.4881 470.4961 484.0321">Nothing beside remains. Round the decay </tspan></text>
<text fill="#ffffff" xml:space="preserve" transform="matrix(.75 0 0 .75 125.75197 21.578742)" font-size="24" font-family="DroidSerif"><tspan y="380.04" x="9 26.808 35.664 41.88 50.328004 65.54401 79.032009 87.48 93.69601 105.504009 119.352008 126.79201 140.64002 151.46402 162.28803 175.77603 183.21604 189.43204 210.09604 221.40004 234.24004 246.04804 260.06404 266.06404 272.28004 286.99205 300.84004 316.05604 331.53605 346.24806 353.68806 366.52806 377.35206 388.17607 394.39207 407.88008 423.36009 438.07209 444.2881 459.0001 472.4881 483.7921 496.6321">Of that colossal wreck, boundless and bare </tspan></text>
<text fill="#ffffff" xml:space="preserve" transform="matrix(.75 0 0 .75 125.75197 21.578742)" font-size="24" font-family="DroidSerif"><tspan y="409.04" x="9 23.688002 38.904 51.744 57.96 65.4 79.248 94.728008 107.56801 113.78401 127.27201 142.75202 157.46402 163.68003 171.12003 183.96002 197.85602 210.69602 218.13602 224.35202 235.17603 248.66403 264.14405 278.85606 289.68006 295.89607 306.72007 315.16807 326.47206 339.31205 347.76005 359.56806 374.78407 381.00007 389.85606 403.34407 414.64808 420.86408 434.35209 455.01609 468.02409">The lone and level sands stretch far away</tspan></text>
<text fill="#ffffff" xml:space="preserve" transform="matrix(.75 0 0 .75 125.75197 21.578742)" font-size="24" font-family="DroidSerif"><tspan y="467.04" x="9 15.216 39.216 45.432 59.928 72.768009 84.07201 95.880008 109.41601 115.63201 130.82402 144.36002 155.18402 166.00803 181.22403 194.06403 200.28003 213.31203 228.52803 241.36803 248.80803 256.24803 269.088 282.62403 288.84004 297.14405 310.56007 323.97608 337.3921 350.8081"> &#x2014; Percy Bysshe Shelley (1818)</tspan></text>
</g>
</g>
</g>
</svg>
