<?xml version="1.0" encoding="UTF-8" standalone="no"?>
<!DOCTYPE svg PUBLIC "-//W3C//DTD SVG 1.1//EN" "http://www.w3.org/Graphics/SVG/1.1/DTD/svg11.dtd">
<svg xmlns="http://www.w3.org/2000/svg" xmlns:xlink="http://www.w3.org/1999/xlink" version="1.1" width="720pt" height="405pt" viewBox="0 0 720 405">
<g enable-background="new">
<g>
<clipPath id="cp15">
<path transform="matrix(.001968504,0,0,.001968504,0,0)" d="M 0 0 L 365760 0 L 365760 205740 L 0 205740 L 0 0 Z "/>
</clipPath>
<g clip-path="url(#cp15)">
<path transform="matrix(.001968504,0,0,.001968504,0,0)" d="M 0 0 L 365568 0 L 365568 205740 L 0 205740 Z " fill-opacity=".4431" fill-rule="evenodd"/>
<path transform="matrix(.001968504,0,0,.001968504,0,0)" d="M 45906 10962 L 319662 10962 L 319662 194778 L 45906 194778 Z " fill-opacity="0" fill-rule="evenodd"/>
<text fill="#ffffff" xml:space="preserve" transform="matrix(.75 0 0 .75 90.36614 21.578742)" font-size="32" font-family="DroidSerif"><tspan y="153.72" x="9 28.584002 48.872 65.992008 105.48001 135.68802 153.67203 163.24002 181.70403 196.77603 206.98404 218.24805 236.29605 275.78407 294.24806 306.05607 345.54408 373.09608 388.16807 398.37608 409.64009 419.84809 440.4881 457.7041 497.1921 512.9361 531.4001 552.0401 566.4721 576.6801 591.1121 602.3761 619.4961 639.1121 678.60018 697.06417 708.87216">The majority of writing consisted of </tspan></text>
<text fill="#ffffff" xml:space="preserve" transform="matrix(.75 0 0 .75 90.36614 21.578742)" font-size="32" font-family="DroidSerif"><tspan y="191.72" x="9 26.216002 43.336004 63.976007 81.09601 99.56001 109.48001 127.944019 145.16002 155.36801 172.488 186.92002 194.92002 204.68001 214.6 231.72 248.936 266.92 276.84004 286.60005 302.34403 320.808 340.424 357.544 371.976 379.976 389.73603 407.72004 428.36006 447.97605 457.73603 469.54405 487.52806 508.16807 519.43209 537.4161 551.8481 563.11209 573.32009 589.0641 598.8241 613.2561 624.5201 642.9841 658.0561 668.2641 685.3841 699.8161 708.9681">geneologies, legal codes, and fantastic stories. </tspan></text>
<text fill="#ffffff" xml:space="preserve" transform="matrix(.75 0 0 .75 90.36614 21.578742)" font-size="32" font-family="DroidSerif"><tspan y="229.72" x="9 29.896002 50.184003 61.448 83.176 97.608 116.07201 146.28002 163.40001 185.128 212.68001 227.75202 237.96002 249.22403 259.43205 280.07206 297.28807 319.01606 334.08805 351.20805 370.82405 385.89604 403.01603 417.44804 434.56803 455.20805 466.47206 483.59205 503.20805 524.93606 544.55209 559.6241 578.0881 595.3041 610.3761 627.4961 641.9281 656.3601 678.08816 688.29617 708.93618">But some writing represented progress in </tspan></text>
<text fill="#ffffff" xml:space="preserve" transform="matrix(.75 0 0 .75 90.36614 21.578742)" font-size="32" font-family="DroidSerif"><tspan y="267.72" x="9 28.616002 48.904 59.112 69.032 87.496 101.928 120.392 140.008 159.65599 177.704 213.288 231.272 251.912 271.528 307.112 337.32 355.30403 366.56803 386.85603 403.976 434.18403 452.16804 463.43205 473.64006 489.38404 503.81605 511.81605 547.4001 564.5201 583.0481 600.1681 620.8081 632.0721 652.3601 670.3441 680.2641 690.1841 708.23208">philosophy and mathematics, eventually </tspan></text>
<text fill="#ffffff" xml:space="preserve" transform="matrix(.75 0 0 .75 90.36614 21.578742)" font-size="32" font-family="DroidSerif"><tspan y="305.72" x="9 24.744 45.031999 54.951997 85.159999 95.368 116.007999 133.992 145.25601 155.46402 176.10402 193.32003 205.32003 215.52802 236.16802 248.16802 259.432 279.72 296.84 308.84 319.048 339.68803 358.21604 375.33604 395.97605 407.24006 417.44807 435.91206 456.55207 468.55207 487.01606 498.82408 510.82408 522.0881 542.3761 559.4961 571.4961 585.9281 601.6721 611.8801 629.0001 649.64016 660.9041 671.1121 682.9201 693.1281 708.87216">culminating in the invention of the scientific </tspan></text>
<text fill="#ffffff" xml:space="preserve" transform="matrix(.75 0 0 .75 90.36614 21.578742)" font-size="32" font-family="DroidSerif"><tspan y="343.72" x="9 39.208 56.328004 67.592 87.880008 106.34401 125.96001">method.</tspan></text>
</g>
</g>
</g>
</svg>
