<svg version="1.1" viewBox="0.0 0.0 960.0 540.0" fill="none" stroke="none" stroke-linecap="square" stroke-miterlimit="10" xmlns:xlink="http://www.w3.org/1999/xlink" xmlns="http://www.w3.org/2000/svg"><clipPath id="g8f941cda4d_0_96.0"><path d="m0 0l960.0 0l0 540.0l-960.0 0l0 -540.0z" clip-rule="nonzero"/></clipPath><g clip-path="url(#g8f941cda4d_0_96.0)"><path fill="#000000" fill-opacity="0.2577" d="m0 0l959.49603 0l0 540.0l-959.49603 0z" fill-rule="evenodd"/><path fill="#000000" fill-opacity="0.0" d="m120.48819 28.771654l731.24414 0l0 53.291344l-731.24414 0z" fill-rule="evenodd"/><path fill="#ffffff" d="m237.56335 46.88978q0.46875 -0.921875 0.46875 -1.34375q0 -0.859375 -1.359375 -0.859375l-0.5625 0l0.1875 -1.015625l5.859375 0l-0.21875 1.015625l-0.453125 0q-0.78125 0 -1.21875 0.375q-0.4375 0.375 -1.0 1.484375l-7.078125 14.265625l-2.203125 0l-1.078125 -13.296875l-6.453125 13.296875l-2.1875 0l-1.25 -14.859375q-0.0625 -0.640625 -0.359375 -0.953125q-0.28125 -0.3125 -1.078125 -0.3125l-0.3125 0l0.21875 -1.015625l6.53125 0l-0.234375 1.015625l-0.546875 0q-1.71875 0 -1.71875 1.21875q0 0.484375 0.046875 0.8125l0.578125 7.6875q0.15625 2.1875 0.15625 4.046875q1.015625 -2.359375 1.96875 -4.3125l5.046875 -10.296875l1.734375 0l0.78125 10.390625q0.171875 2.359375 0.125 4.21875q1.0625 -2.453125 1.796875 -3.9375l3.8125 -7.625zm8.15625 4.078125q2.0 -3.234375 4.453125 -3.234375q2.5625 0 2.5625 2.65625q0 0.765625 -0.4375 2.640625l-0.625 2.828125q-0.3125 1.453125 -0.3125 2.53125q0 1.140625 0.84375 1.140625q0.6875 0 1.53125 -0.546875l0.4375 0.703125q-1.5625 1.359375 -2.921875 1.359375q-1.0 0 -1.59375 -0.640625q-0.59375 -0.65625 -0.59375 -1.75q0 -1.109375 0.453125 -3.25l0.5625 -2.484375q0.34375 -1.453125 0.34375 -2.234375q0 -1.421875 -1.09375 -1.421875q-1.34375 0 -2.765625 1.828125q-1.40625 1.8125 -1.78125 3.578125l-1.28125 6.140625l-2.234375 0l3.109375 -14.84375q0.21875 -1.046875 0.21875 -1.265625q0 -1.125 -1.6875 -1.125l-0.1875 0l0.21875 -1.0l4.421875 0l-0.9375 4.40625q-0.421875 1.96875 -0.953125 3.984375l0.25 0zm17.628906 6.21875l-0.15625 0q-1.71875 3.859375 -4.484375 3.859375q-1.46875 0 -2.28125 -1.15625q-0.8125 -1.15625 -0.8125 -3.234375q0 -3.296875 2.046875 -6.125q2.0625 -2.828125 5.109375 -2.828125q1.625 0 2.8125 0.875l1.046875 -0.609375l0.78125 0l-1.640625 7.6875q-0.359375 1.65625 -0.359375 2.65625q0 1.21875 0.78125 1.21875q0.6875 0 1.734375 -0.625l0.4375 0.703125q-1.71875 1.4375 -3.390625 1.4375q-1.875 0 -1.875 -2.0q0 -0.75 0.25 -1.859375zm1.359375 -7.53125q-0.546875 -0.875 -1.8125 -0.875q-2.046875 0 -3.4375 2.609375q-1.390625 2.609375 -1.390625 5.359375q0 2.78125 1.515625 2.78125q1.1875 0 2.5 -1.765625q1.3125 -1.765625 1.734375 -3.875l0.890625 -4.234375zm10.9921875 9.34375l0.40625 0.890625q-1.609375 1.15625 -3.234375 1.15625q-2.609375 0 -2.609375 -2.796875q0 -0.90625 0.234375 -2.015625l1.46875 -6.921875l-1.828125 0l0.21875 -0.953125q2.34375 0 3.671875 -3.375l1.09375 0l-0.609375 2.953125l2.90625 0l-0.296875 1.375l-2.90625 0l-1.453125 6.84375q-0.296875 1.390625 -0.296875 2.0625q0 1.3125 1.28125 1.3125q0.96875 0 1.953125 -0.53125zm13.2265625 -13.453125q-1.34375 0 -1.34375 -1.3125q0 -0.765625 0.390625 -1.21875q0.390625 -0.46875 1.046875 -0.46875q1.359375 0 1.359375 1.3125q0 0.828125 -0.40625 1.265625q-0.40625 0.421875 -1.046875 0.421875zm-3.890625 3.40625l0.21875 -1.015625l4.296875 0l-1.625 7.71875q-0.359375 1.71875 -0.359375 2.65625q0 1.21875 0.796875 1.21875q0.6875 0 1.71875 -0.625l0.4375 0.703125q-1.671875 1.4375 -3.25 1.4375q-0.890625 0 -1.453125 -0.640625q-0.546875 -0.65625 -0.546875 -1.640625q0 -1.078125 0.546875 -3.765625l0.921875 -4.40625q0.078125 -0.390625 0.078125 -0.640625q0 -1.0 -1.453125 -1.0l-0.328125 0zm14.503906 2.546875q0 -1.21875 -0.578125 -1.9375q-0.5625 -0.734375 -1.578125 -0.734375q-1.078125 0 -1.703125 0.59375q-0.625 0.578125 -0.625 1.46875q0 0.796875 0.59375 1.359375q0.59375 0.5625 1.84375 1.125q2.890625 1.28125 2.890625 3.71875q0 1.765625 -1.359375 2.859375q-1.359375 1.09375 -3.609375 1.09375q-1.8125 0 -2.890625 -0.734375q-1.078125 -0.734375 -1.078125 -1.96875q0 -0.78125 0.421875 -1.1875q0.4375 -0.40625 1.09375 -0.40625q0 1.5 0.71875 2.328125q0.71875 0.8125 2.03125 0.8125q2.578125 0 2.578125 -2.21875q0 -0.859375 -0.546875 -1.453125q-0.546875 -0.59375 -1.875 -1.203125q-1.71875 -0.8125 -2.3125 -1.6875q-0.59375 -0.875 -0.59375 -2.015625q0 -1.578125 1.28125 -2.578125q1.28125 -1.0 3.34375 -1.0q1.78125 0 2.765625 0.65625q0.984375 0.65625 0.984375 1.609375q0 1.5 -1.796875 1.5zm17.445312 5.6875l-0.15625 0q-1.71875 3.859375 -4.484375 3.859375q-1.46875 0 -2.28125 -1.15625q-0.8125 -1.15625 -0.8125 -3.234375q0 -3.296875 2.046875 -6.125q2.0625 -2.828125 5.109375 -2.828125q1.625 0 2.8125 0.875l1.046875 -0.609375l0.78125 0l-1.640625 7.6875q-0.359375 1.65625 -0.359375 2.65625q0 1.21875 0.78125 1.21875q0.6875 0 1.734375 -0.625l0.4375 0.703125q-1.71875 1.4375 -3.390625 1.4375q-1.875 0 -1.875 -2.0q0 -0.75 0.25 -1.859375zm1.359375 -7.53125q-0.546875 -0.875 -1.8125 -0.875q-2.046875 0 -3.4375 2.609375q-1.390625 2.609375 -1.390625 5.359375q0 2.78125 1.515625 2.78125q1.1875 0 2.5 -1.765625q1.3125 -1.765625 1.734375 -3.875l0.890625 -4.234375zm7.0703125 11.15625l-2.234375 0l2.015625 -9.640625q0.140625 -0.671875 0.140625 -1.078125q0 -1.140625 -1.6875 -1.140625l-0.1875 0l0.21875 -1.015625l4.4375 0l-0.640625 3.03125l0.234375 0q1.9375 -3.234375 4.375 -3.234375q2.5625 0 2.5625 2.65625q0 0.765625 -0.4375 2.640625l-0.625 2.828125q-0.3125 1.453125 -0.3125 2.53125q0 1.140625 0.84375 1.140625q0.6875 0 1.53125 -0.546875l0.4375 0.703125q-1.5625 1.359375 -2.921875 1.359375q-1.0 0 -1.59375 -0.640625q-0.59375 -0.65625 -0.59375 -1.75q0 -1.109375 0.453125 -3.25l0.5625 -2.484375q0.34375 -1.453125 0.34375 -2.234375q0 -1.421875 -1.09375 -1.421875q-1.34375 0 -2.75 1.8125q-1.390625 1.796875 -1.796875 3.59375l-1.28125 6.140625zm22.691406 -15.265625q-1.34375 0 -1.34375 -1.3125q0 -0.765625 0.390625 -1.21875q0.390625 -0.46875 1.046875 -0.46875q1.359375 0 1.359375 1.3125q0 0.828125 -0.40625 1.265625q-0.40625 0.421875 -1.046875 0.421875zm-3.890625 3.40625l0.21875 -1.015625l4.296875 0l-1.625 7.71875q-0.359375 1.71875 -0.359375 2.65625q0 1.21875 0.796875 1.21875q0.6875 0 1.71875 -0.625l0.4375 0.703125q-1.671875 1.4375 -3.25 1.4375q-0.890625 0 -1.453125 -0.640625q-0.546875 -0.65625 -0.546875 -1.640625q0 -1.078125 0.546875 -3.765625l0.921875 -4.40625q0.078125 -0.390625 0.078125 -0.640625q0 -1.0 -1.453125 -1.0l-0.328125 0zm9.113281 11.859375l-2.234375 0l2.015625 -9.640625q0.140625 -0.671875 0.140625 -1.078125q0 -1.140625 -1.6875 -1.140625l-0.1875 0l0.21875 -1.015625l4.4375 0l-0.640625 3.03125l0.234375 0q1.9375 -3.234375 4.375 -3.234375q2.5625 0 2.5625 2.65625q0 0.765625 -0.4375 2.640625l-0.625 2.828125q-0.3125 1.453125 -0.3125 2.53125q0 1.140625 0.84375 1.140625q0.6875 0 1.53125 -0.546875l0.4375 0.703125q-1.5625 1.359375 -2.921875 1.359375q-1.0 0 -1.59375 -0.640625q-0.59375 -0.65625 -0.59375 -1.75q0 -1.109375 0.453125 -3.25l0.5625 -2.484375q0.34375 -1.453125 0.34375 -2.234375q0 -1.421875 -1.09375 -1.421875q-1.34375 0 -2.75 1.8125q-1.390625 1.796875 -1.796875 3.59375l-1.28125 6.140625zm18.300781 -1.8125l0.40625 0.890625q-1.609375 1.15625 -3.234375 1.15625q-2.609375 0 -2.609375 -2.796875q0 -0.90625 0.234375 -2.015625l1.46875 -6.921875l-1.828125 0l0.21875 -0.953125q2.34375 0 3.671875 -3.375l1.09375 0l-0.609375 2.953125l2.90625 0l-0.296875 1.375l-2.90625 0l-1.453125 6.84375q-0.296875 1.390625 -0.296875 2.0625q0 1.3125 1.28125 1.3125q0.96875 0 1.953125 -0.53125zm11.2421875 -1.1875q0.25 0.15625 0.25 0.59375q0 0.96875 -1.140625 1.8125q-1.125 0.828125 -3.03125 0.828125q-2.09375 0 -3.390625 -1.328125q-1.28125 -1.328125 -1.28125 -3.625q0 -3.140625 2.03125 -5.765625q2.03125 -2.625 5.125 -2.625q1.515625 0 2.34375 0.734375q0.84375 0.71875 0.84375 2.03125q0 1.9375 -2.015625 3.390625q-2.015625 1.4375 -4.9375 1.4375l-0.40625 0q-0.21875 0 -0.4375 -0.03125q-0.046875 0.328125 -0.046875 1.015625q0 3.25 2.640625 3.25q2.046875 0 3.453125 -1.71875zm-5.828125 -3.640625l0.234375 0q2.125 0 3.5 -1.03125q1.375 -1.03125 1.375 -2.671875q0 -1.609375 -1.390625 -1.609375q-1.15625 0 -2.171875 1.46875q-1.0 1.453125 -1.546875 3.84375zm17.398438 -2.984375q0 -1.890625 -0.953125 -1.890625q-1.109375 0 -2.359375 2.1875q-1.25 2.1875 -1.84375 4.953125l-0.90625 4.375l-2.234375 0l2.015625 -9.640625q0.140625 -0.671875 0.140625 -1.078125q0 -1.140625 -1.921875 -1.140625l-0.1875 0l0.21875 -1.015625l4.234375 0l-0.5 3.46875l0.25 0q0.953125 -2.15625 1.890625 -2.921875q0.9375 -0.78125 2.1875 -0.78125q1.96875 0 1.96875 1.65625q0 1.828125 -2.0 1.828125zm11.4921875 6.625q0.25 0.15625 0.25 0.59375q0 0.96875 -1.140625 1.8125q-1.125 0.828125 -3.03125 0.828125q-2.09375 0 -3.390625 -1.328125q-1.28125 -1.328125 -1.28125 -3.625q0 -3.140625 2.03125 -5.765625q2.03125 -2.625 5.125 -2.625q1.515625 0 2.34375 0.734375q0.84375 0.71875 0.84375 2.03125q0 1.9375 -2.015625 3.390625q-2.015625 1.4375 -4.9375 1.4375l-0.40625 0q-0.21875 0 -0.4375 -0.03125q-0.046875 0.328125 -0.046875 1.015625q0 3.25 2.640625 3.25q2.046875 0 3.453125 -1.71875zm-5.828125 -3.640625l0.234375 0q2.125 0 3.5 -1.03125q1.375 -1.03125 1.375 -2.671875q0 -1.609375 -1.390625 -1.609375q-1.15625 0 -2.171875 1.46875q-1.0 1.453125 -1.546875 3.84375zm16.726562 -2.671875q0 -1.21875 -0.578125 -1.9375q-0.5625 -0.734375 -1.578125 -0.734375q-1.078125 0 -1.703125 0.59375q-0.625 0.578125 -0.625 1.46875q0 0.796875 0.59375 1.359375q0.59375 0.5625 1.84375 1.125q2.890625 1.28125 2.890625 3.71875q0 1.765625 -1.359375 2.859375q-1.359375 1.09375 -3.609375 1.09375q-1.8125 0 -2.890625 -0.734375q-1.078125 -0.734375 -1.078125 -1.96875q0 -0.78125 0.421875 -1.1875q0.4375 -0.40625 1.09375 -0.40625q0 1.5 0.71875 2.328125q0.71875 0.8125 2.03125 0.8125q2.578125 0 2.578125 -2.21875q0 -0.859375 -0.546875 -1.453125q-0.546875 -0.59375 -1.875 -1.203125q-1.71875 -0.8125 -2.3125 -1.6875q-0.59375 -0.875 -0.59375 -2.015625q0 -1.578125 1.28125 -2.578125q1.28125 -1.0 3.34375 -1.0q1.78125 0 2.765625 0.65625q0.984375 0.65625 0.984375 1.609375q0 1.5 -1.796875 1.5zm9.6640625 7.5l0.40625 0.890625q-1.609375 1.15625 -3.234375 1.15625q-2.609375 0 -2.609375 -2.796875q0 -0.90625 0.234375 -2.015625l1.46875 -6.921875l-1.828125 0l0.21875 -0.953125q2.34375 0 3.671875 -3.375l1.09375 0l-0.609375 2.953125l2.90625 0l-0.296875 1.375l-2.90625 0l-1.453125 6.84375q-0.296875 1.390625 -0.296875 2.0625q0 1.3125 1.28125 1.3125q0.96875 0 1.953125 -0.53125zm6.9921875 -13.453125q-1.34375 0 -1.34375 -1.3125q0 -0.765625 0.390625 -1.21875q0.390625 -0.46875 1.046875 -0.46875q1.359375 0 1.359375 1.3125q0 0.828125 -0.40625 1.265625q-0.40625 0.421875 -1.046875 0.421875zm-3.890625 3.40625l0.21875 -1.015625l4.296875 0l-1.625 7.71875q-0.359375 1.71875 -0.359375 2.65625q0 1.21875 0.796875 1.21875q0.6875 0 1.71875 -0.625l0.4375 0.703125q-1.671875 1.4375 -3.25 1.4375q-0.890625 0 -1.453125 -0.640625q-0.546875 -0.65625 -0.546875 -1.640625q0 -1.078125 0.546875 -3.765625l0.921875 -4.40625q0.078125 -0.390625 0.078125 -0.640625q0 -1.0 -1.453125 -1.0l-0.328125 0zm9.113281 11.859375l-2.234375 0l2.015625 -9.640625q0.140625 -0.671875 0.140625 -1.078125q0 -1.140625 -1.6875 -1.140625l-0.1875 0l0.21875 -1.015625l4.4375 0l-0.640625 3.03125l0.234375 0q1.9375 -3.234375 4.375 -3.234375q2.5625 0 2.5625 2.65625q0 0.765625 -0.4375 2.640625l-0.625 2.828125q-0.3125 1.453125 -0.3125 2.53125q0 1.140625 0.84375 1.140625q0.6875 0 1.53125 -0.546875l0.4375 0.703125q-1.5625 1.359375 -2.921875 1.359375q-1.0 0 -1.59375 -0.640625q-0.59375 -0.65625 -0.59375 -1.75q0 -1.109375 0.453125 -3.25l0.5625 -2.484375q0.34375 -1.453125 0.34375 -2.234375q0 -1.421875 -1.09375 -1.421875q-1.34375 0 -2.75 1.8125q-1.390625 1.796875 -1.796875 3.59375l-1.28125 6.140625zm21.644531 -12.34375q1.140625 -1.703125 2.59375 -1.703125q1.203125 0 1.203125 1.109375q0 1.484375 -1.421875 1.484375q0 -0.859375 -0.671875 -0.859375q-0.46875 0 -1.171875 0.546875q0.515625 0.75 0.515625 1.84375q0 2.015625 -1.515625 3.703125q-1.5 1.6875 -3.96875 1.6875q-0.5625 0 -0.765625 -0.046875q-1.71875 0.6875 -1.71875 1.5q0 0.609375 1.234375 0.71875l2.296875 0.25q3.734375 0.390625 3.734375 3.140625q0 2.234375 -1.6875 3.484375q-1.6875 1.25 -4.828125 1.25q-5.234375 0 -5.234375 -3.125q0 -1.296875 1.046875 -2.203125q1.046875 -0.90625 2.875 -1.265625q-1.15625 -0.5625 -1.15625 -1.640625q0 -0.75 0.46875 -1.265625q0.484375 -0.515625 1.8125 -1.1875q-1.6875 -0.78125 -1.6875 -2.84375q0 -2.015625 1.53125 -3.671875q1.53125 -1.671875 4.046875 -1.671875q1.53125 0 2.46875 0.765625zm-4.171875 6.65625q1.375 0 2.203125 -1.359375q0.84375 -1.375 0.84375 -2.984375q0 -1.96875 -1.65625 -1.96875q-1.40625 0 -2.234375 1.375q-0.828125 1.375 -0.828125 2.96875q0 1.96875 1.671875 1.96875zm0.1875 5.609375l-2.328125 -0.21875q-0.1875 -0.015625 -1.046875 0.234375q-0.859375 0.25 -1.484375 0.921875q-0.609375 0.671875 -0.609375 1.640625q0 2.078125 3.375 2.078125q2.109375 0 3.21875 -0.78125q1.109375 -0.765625 1.109375 -2.09375q0 -1.578125 -2.234375 -1.78125zm21.425781 -11.421875l-2.6875 0l-2.5 11.6875q-0.625 2.890625 -1.828125 4.234375q-1.1875 1.34375 -3.375 1.34375q-0.6875 0 -1.390625 -0.203125l0.21875 -1.09375q0.59375 0.15625 1.09375 0.15625q1.171875 0 1.84375 -1.0q0.65625 -0.984375 1.1875 -3.40625l2.515625 -11.71875l-2.171875 0l0.140625 -0.859375l2.3125 -0.515625l0.25 -1.3125q0.84375 -4.296875 4.5625 -4.296875q1.53125 0 2.3125 0.484375q0.78125 0.484375 0.78125 1.296875q0 1.5625 -2.0 1.5625q0 -2.234375 -1.21875 -2.234375q-0.875 0 -1.359375 0.734375q-0.484375 0.71875 -0.765625 2.234375l-0.3125 1.53125l2.65625 0l-0.265625 1.375zm7.9726562 7.875l-0.15625 0q-1.71875 3.859375 -4.484375 3.859375q-1.46875 0 -2.28125 -1.15625q-0.8125 -1.15625 -0.8125 -3.234375q0 -3.296875 2.046875 -6.125q2.0625 -2.828125 5.109375 -2.828125q1.625 0 2.8125 0.875l1.046875 -0.609375l0.78125 0l-1.640625 7.6875q-0.359375 1.65625 -0.359375 2.65625q0 1.21875 0.78125 1.21875q0.6875 0 1.734375 -0.625l0.4375 0.703125q-1.71875 1.4375 -3.390625 1.4375q-1.875 0 -1.875 -2.0q0 -0.75 0.25 -1.859375zm1.359375 -7.53125q-0.546875 -0.875 -1.8125 -0.875q-2.046875 0 -3.4375 2.609375q-1.390625 2.609375 -1.390625 5.359375q0 2.78125 1.515625 2.78125q1.1875 0 2.5 -1.765625q1.3125 -1.765625 1.734375 -3.875l0.890625 -4.234375zm13.3984375 8.15625q0.25 0.15625 0.25 0.59375q0 0.96875 -1.140625 1.8125q-1.125 0.828125 -3.03125 0.828125q-2.09375 0 -3.390625 -1.328125q-1.28125 -1.328125 -1.28125 -3.625q0 -3.140625 2.03125 -5.765625q2.03125 -2.625 5.125 -2.625q1.640625 0 2.5625 0.65625q0.9375 0.65625 0.9375 1.640625q0 0.734375 -0.578125 1.21875q-0.578125 0.46875 -1.5625 0.46875q0 -1.265625 -0.5 -2.046875q-0.484375 -0.78125 -1.34375 -0.78125q-1.671875 0 -2.921875 2.515625q-1.25 2.5 -1.25 4.90625q0 3.25 2.640625 3.25q2.09375 0 3.453125 -1.71875zm9.277344 1.1875l0.40625 0.890625q-1.609375 1.15625 -3.234375 1.15625q-2.609375 0 -2.609375 -2.796875q0 -0.90625 0.234375 -2.015625l1.46875 -6.921875l-1.828125 0l0.21875 -0.953125q2.34375 0 3.671875 -3.375l1.09375 0l-0.609375 2.953125l2.90625 0l-0.296875 1.375l-2.90625 0l-1.453125 6.84375q-0.296875 1.390625 -0.296875 2.0625q0 1.3125 1.28125 1.3125q0.96875 0 1.953125 -0.53125zm9.7734375 -8.765625q-0.203125 -0.703125 -0.578125 -0.984375q-0.359375 -0.296875 -1.078125 -0.296875l-0.234375 0l0.1875 -1.015625l3.5 0l1.875 6.484375q0.859375 3.015625 1.0 4.34375l0.078125 0q3.25 -4.921875 3.25 -7.96875q0 -1.296875 -1.1875 -1.296875q0 -0.8125 0.46875 -1.28125q0.46875 -0.484375 1.09375 -0.484375q1.640625 0 1.640625 2.015625q0 2.890625 -3.234375 8.140625q-3.234375 5.25 -5.1875 6.96875q-1.953125 1.71875 -5.140625 1.71875q-1.265625 0 -2.265625 -0.4375l0.359375 -1.203125q0.84375 0.265625 1.875 0.265625q3.4375 0 6.75 -4.359375l-3.171875 -10.609375zm18.933594 -2.53125q2.109375 0 3.328125 1.28125q1.21875 1.28125 1.21875 3.6875q0 3.203125 -1.953125 5.796875q-1.953125 2.578125 -5.140625 2.578125q-2.171875 0 -3.390625 -1.3125q-1.21875 -1.3125 -1.21875 -3.640625q0 -3.234375 1.96875 -5.8125q1.984375 -2.578125 5.1875 -2.578125zm-2.28125 12.171875q1.984375 0 3.15625 -2.34375q1.1875 -2.359375 1.1875 -5.21875q0 -3.34375 -2.34375 -3.34375q-1.96875 0 -3.171875 2.359375q-1.203125 2.359375 -1.203125 5.234375q0 3.3125 2.375 3.3125zm9.453125 -11.9375l4.46875 0l-1.578125 7.1875q-0.484375 2.1875 -0.484375 2.890625q0 1.46875 1.171875 1.46875q1.234375 0 2.65625 -1.765625q1.421875 -1.78125 1.859375 -3.796875l1.25 -5.984375l2.328125 0l-1.65625 7.71875q-0.359375 1.703125 -0.359375 2.65625q0 1.21875 0.796875 1.21875q0.671875 0 1.53125 -0.53125l0.4375 0.703125q-1.53125 1.34375 -3.046875 1.34375q-0.90625 0 -1.46875 -0.640625q-0.546875 -0.65625 -0.546875 -1.640625q0 -0.609375 0.109375 -1.40625l-0.1875 0q-1.296875 2.140625 -2.328125 2.90625q-1.015625 0.765625 -2.3125 0.765625q-2.5625 0 -2.5625 -2.671875q0 -0.765625 0.4375 -2.640625l0.9375 -4.203125q0.203125 -0.953125 0.203125 -1.421875q0 -1.140625 -1.671875 -1.140625l-0.1875 0l0.203125 -1.015625zm28.394531 3.25q0 -1.890625 -0.953125 -1.890625q-1.109375 0 -2.359375 2.1875q-1.25 2.1875 -1.84375 4.953125l-0.90625 4.375l-2.234375 0l2.015625 -9.640625q0.140625 -0.671875 0.140625 -1.078125q0 -1.140625 -1.921875 -1.140625l-0.1875 0l0.21875 -1.015625l4.234375 0l-0.5 3.46875l0.25 0q0.953125 -2.15625 1.890625 -2.921875q0.9375 -0.78125 2.1875 -0.78125q1.96875 0 1.96875 1.65625q0 1.828125 -2.0 1.828125zm11.4921875 6.625q0.25 0.15625 0.25 0.59375q0 0.96875 -1.140625 1.8125q-1.125 0.828125 -3.03125 0.828125q-2.09375 0 -3.390625 -1.328125q-1.28125 -1.328125 -1.28125 -3.625q0 -3.140625 2.03125 -5.765625q2.03125 -2.625 5.125 -2.625q1.515625 0 2.34375 0.734375q0.84375 0.71875 0.84375 2.03125q0 1.9375 -2.015625 3.390625q-2.015625 1.4375 -4.9375 1.4375l-0.40625 0q-0.21875 0 -0.4375 -0.03125q-0.046875 0.328125 -0.046875 1.015625q0 3.25 2.640625 3.25q2.046875 0 3.453125 -1.71875zm-5.828125 -3.640625l0.234375 0q2.125 0 3.5 -1.03125q1.375 -1.03125 1.375 -2.671875q0 -1.609375 -1.390625 -1.609375q-1.15625 0 -2.171875 1.46875q-1.0 1.453125 -1.546875 3.84375zm17.664062 3.640625q0.25 0.15625 0.25 0.59375q0 0.96875 -1.140625 1.8125q-1.125 0.828125 -3.03125 0.828125q-2.09375 0 -3.390625 -1.328125q-1.28125 -1.328125 -1.28125 -3.625q0 -3.140625 2.03125 -5.765625q2.03125 -2.625 5.125 -2.625q1.640625 0 2.5625 0.65625q0.9375 0.65625 0.9375 1.640625q0 0.734375 -0.578125 1.21875q-0.578125 0.46875 -1.5625 0.46875q0 -1.265625 -0.5 -2.046875q-0.484375 -0.78125 -1.34375 -0.78125q-1.671875 0 -2.921875 2.515625q-1.25 2.5 -1.25 4.90625q0 3.25 2.640625 3.25q2.09375 0 3.453125 -1.71875zm11.683594 0q0.25 0.15625 0.25 0.59375q0 0.96875 -1.140625 1.8125q-1.125 0.828125 -3.03125 0.828125q-2.09375 0 -3.390625 -1.328125q-1.28125 -1.328125 -1.28125 -3.625q0 -3.140625 2.03125 -5.765625q2.03125 -2.625 5.125 -2.625q1.515625 0 2.34375 0.734375q0.84375 0.71875 0.84375 2.03125q0 1.9375 -2.015625 3.390625q-2.015625 1.4375 -4.9375 1.4375l-0.40625 0q-0.21875 0 -0.4375 -0.03125q-0.046875 0.328125 -0.046875 1.015625q0 3.25 2.640625 3.25q2.046875 0 3.453125 -1.71875zm-5.828125 -3.640625l0.234375 0q2.125 0 3.5 -1.03125q1.375 -1.03125 1.375 -2.671875q0 -1.609375 -1.390625 -1.609375q-1.15625 0 -2.171875 1.46875q-1.0 1.453125 -1.546875 3.84375zm11.3359375 6.640625l-2.234375 0l2.015625 -9.640625q0.140625 -0.671875 0.140625 -1.078125q0 -1.140625 -1.6875 -1.140625l-0.1875 0l0.21875 -1.015625l4.4375 0l-0.640625 3.03125l0.234375 0q1.9375 -3.234375 4.375 -3.234375q2.5625 0 2.5625 2.65625q0 0.765625 -0.4375 2.640625l-0.625 2.828125q-0.3125 1.453125 -0.3125 2.53125q0 1.140625 0.84375 1.140625q0.6875 0 1.53125 -0.546875l0.4375 0.703125q-1.5625 1.359375 -2.921875 1.359375q-1.0 0 -1.59375 -0.640625q-0.59375 -0.65625 -0.59375 -1.75q0 -1.109375 0.453125 -3.25l0.5625 -2.484375q0.34375 -1.453125 0.34375 -2.234375q0 -1.421875 -1.09375 -1.421875q-1.34375 0 -2.75 1.8125q-1.390625 1.796875 -1.796875 3.59375l-1.28125 6.140625zm18.300781 -1.8125l0.40625 0.890625q-1.609375 1.15625 -3.234375 1.15625q-2.609375 0 -2.609375 -2.796875q0 -0.90625 0.234375 -2.015625l1.46875 -6.921875l-1.828125 0l0.21875 -0.953125q2.34375 0 3.671875 -3.375l1.09375 0l-0.609375 2.953125l2.90625 0l-0.296875 1.375l-2.90625 0l-1.453125 6.84375q-0.296875 1.390625 -0.296875 2.0625q0 1.3125 1.28125 1.3125q0.96875 0 1.953125 -0.53125zm4.0390625 -15.421875l0.21875 -1.0l4.53125 0l-2.78125 13.078125q-0.359375 1.703125 -0.359375 2.65625q0 1.21875 0.796875 1.21875q0.6875 0 1.71875 -0.625l0.4375 0.703125q-1.65625 1.4375 -3.25 1.4375q-0.859375 0 -1.421875 -0.625q-0.546875 -0.640625 -0.546875 -1.65625q0 -1.125 0.515625 -3.765625l1.96875 -9.21875q0.140625 -0.703125 0.140625 -1.078125q0 -1.125 -1.6875 -1.125l-0.28125 0zm6.8007812 6.65625q-0.203125 -0.703125 -0.578125 -0.984375q-0.359375 -0.296875 -1.078125 -0.296875l-0.234375 0l0.1875 -1.015625l3.5 0l1.875 6.484375q0.859375 3.015625 1.0 4.34375l0.078125 0q3.25 -4.921875 3.25 -7.96875q0 -1.296875 -1.1875 -1.296875q0 -0.8125 0.46875 -1.28125q0.46875 -0.484375 1.09375 -0.484375q1.640625 0 1.640625 2.015625q0 2.890625 -3.234375 8.140625q-3.234375 5.25 -5.1875 6.96875q-1.953125 1.71875 -5.140625 1.71875q-1.265625 0 -2.265625 -0.4375l0.359375 -1.203125q0.84375 0.265625 1.875 0.265625q3.4375 0 6.75 -4.359375l-3.171875 -10.609375zm19.402344 -6.65625l0.21875 -1.0l4.53125 0l-2.78125 13.078125q-0.359375 1.703125 -0.359375 2.65625q0 1.21875 0.796875 1.21875q0.6875 0 1.71875 -0.625l0.4375 0.703125q-1.65625 1.4375 -3.25 1.4375q-0.859375 0 -1.421875 -0.625q-0.546875 -0.640625 -0.546875 -1.65625q0 -1.125 0.515625 -3.765625l1.96875 -9.21875q0.140625 -0.703125 0.140625 -1.078125q0 -1.125 -1.6875 -1.125l-0.28125 0zm14.503906 14.234375q0.25 0.15625 0.25 0.59375q0 0.96875 -1.140625 1.8125q-1.125 0.828125 -3.03125 0.828125q-2.09375 0 -3.390625 -1.328125q-1.28125 -1.328125 -1.28125 -3.625q0 -3.140625 2.03125 -5.765625q2.03125 -2.625 5.125 -2.625q1.515625 0 2.34375 0.734375q0.84375 0.71875 0.84375 2.03125q0 1.9375 -2.015625 3.390625q-2.015625 1.4375 -4.9375 1.4375l-0.40625 0q-0.21875 0 -0.4375 -0.03125q-0.046875 0.328125 -0.046875 1.015625q0 3.25 2.640625 3.25q2.046875 0 3.453125 -1.71875zm-5.828125 -3.640625l0.234375 0q2.125 0 3.5 -1.03125q1.375 -1.03125 1.375 -2.671875q0 -1.609375 -1.390625 -1.609375q-1.15625 0 -2.171875 1.46875q-1.0 1.453125 -1.546875 3.84375zm16.804688 3.015625l-0.15625 0q-1.71875 3.859375 -4.484375 3.859375q-1.46875 0 -2.28125 -1.15625q-0.8125 -1.15625 -0.8125 -3.234375q0 -3.296875 2.046875 -6.125q2.0625 -2.828125 5.109375 -2.828125q1.625 0 2.8125 0.875l1.046875 -0.609375l0.78125 0l-1.640625 7.6875q-0.359375 1.65625 -0.359375 2.65625q0 1.21875 0.78125 1.21875q0.6875 0 1.734375 -0.625l0.4375 0.703125q-1.71875 1.4375 -3.390625 1.4375q-1.875 0 -1.875 -2.0q0 -0.75 0.25 -1.859375zm1.359375 -7.53125q-0.546875 -0.875 -1.8125 -0.875q-2.046875 0 -3.4375 2.609375q-1.390625 2.609375 -1.390625 5.359375q0 2.78125 1.515625 2.78125q1.1875 0 2.5 -1.765625q1.3125 -1.765625 1.734375 -3.875l0.890625 -4.234375zm13.1328125 1.53125q0 -1.890625 -0.953125 -1.890625q-1.109375 0 -2.359375 2.1875q-1.25 2.1875 -1.84375 4.953125l-0.90625 4.375l-2.234375 0l2.015625 -9.640625q0.140625 -0.671875 0.140625 -1.078125q0 -1.140625 -1.921875 -1.140625l-0.1875 0l0.21875 -1.015625l4.234375 0l-0.5 3.46875l0.25 0q0.953125 -2.15625 1.890625 -2.921875q0.9375 -0.78125 2.1875 -0.78125q1.96875 0 1.96875 1.65625q0 1.828125 -2.0 1.828125zm5.1640625 9.625l-2.234375 0l2.015625 -9.640625q0.140625 -0.671875 0.140625 -1.078125q0 -1.140625 -1.6875 -1.140625l-0.1875 0l0.21875 -1.015625l4.4375 0l-0.640625 3.03125l0.234375 0q1.9375 -3.234375 4.375 -3.234375q2.5625 0 2.5625 2.65625q0 0.765625 -0.4375 2.640625l-0.625 2.828125q-0.3125 1.453125 -0.3125 2.53125q0 1.140625 0.84375 1.140625q0.6875 0 1.53125 -0.546875l0.4375 0.703125q-1.5625 1.359375 -2.921875 1.359375q-1.0 0 -1.59375 -0.640625q-0.59375 -0.65625 -0.59375 -1.75q0 -1.109375 0.453125 -3.25l0.5625 -2.484375q0.34375 -1.453125 0.34375 -2.234375q0 -1.421875 -1.09375 -1.421875q-1.34375 0 -2.75 1.8125q-1.390625 1.796875 -1.796875 3.59375l-1.28125 6.140625zm20.707031 -3.0q0.25 0.15625 0.25 0.59375q0 0.96875 -1.140625 1.8125q-1.125 0.828125 -3.03125 0.828125q-2.09375 0 -3.390625 -1.328125q-1.28125 -1.328125 -1.28125 -3.625q0 -3.140625 2.03125 -5.765625q2.03125 -2.625 5.125 -2.625q1.515625 0 2.34375 0.734375q0.84375 0.71875 0.84375 2.03125q0 1.9375 -2.015625 3.390625q-2.015625 1.4375 -4.9375 1.4375l-0.40625 0q-0.21875 0 -0.4375 -0.03125q-0.046875 0.328125 -0.046875 1.015625q0 3.25 2.640625 3.25q2.046875 0 3.453125 -1.71875zm-5.828125 -3.640625l0.234375 0q2.125 0 3.5 -1.03125q1.375 -1.03125 1.375 -2.671875q0 -1.609375 -1.390625 -1.609375q-1.15625 0 -2.171875 1.46875q-1.0 1.453125 -1.546875 3.84375zm16.804688 3.015625l-0.15625 0q-1.71875 3.859375 -4.484375 3.859375q-1.46875 0 -2.28125 -1.15625q-0.8125 -1.15625 -0.8125 -3.234375q0 -3.296875 2.046875 -6.125q2.0625 -2.828125 5.109375 -2.828125q1.34375 0 2.34375 0.578125q0.1875 -1.09375 0.28125 -1.34375l0.234375 -1.15625q0.15625 -0.796875 0.15625 -1.078125q0 -1.125 -1.671875 -1.125l-0.1875 0l0.203125 -1.0l4.421875 0l-2.78125 13.078125q-0.359375 1.65625 -0.359375 2.65625q0 1.21875 0.78125 1.21875q0.6875 0 1.734375 -0.625l0.4375 0.703125q-1.71875 1.4375 -3.390625 1.4375q-1.875 0 -1.875 -2.0q0 -0.75 0.25 -1.859375zm1.359375 -7.53125q-0.546875 -0.875 -1.8125 -0.875q-2.046875 0 -3.4375 2.609375q-1.390625 2.609375 -1.390625 5.359375q0 2.78125 1.515625 2.78125q1.1875 0 2.5 -1.765625q1.3125 -1.765625 1.734375 -3.875l0.890625 -4.234375zm10.3984375 3.546875l-0.59375 2.78125l-1.46875 0l0.75 -3.546875q4.859375 -1.8125 4.859375 -5.203125q0 -1.171875 -0.640625 -1.875q-0.625 -0.71875 -1.671875 -0.71875q-2.484375 0 -2.984375 3.390625q-1.734375 0 -1.734375 -1.421875q0 -1.34375 1.34375 -2.25q1.34375 -0.921875 3.515625 -0.921875q4.53125 0 4.53125 3.984375q0 3.640625 -5.90625 5.78125zm-1.859375 7.796875q-1.5 0 -1.5 -1.46875q0 -0.828125 0.421875 -1.328125q0.4375 -0.515625 1.171875 -0.515625q0.703125 0 1.09375 0.40625q0.390625 0.390625 0.390625 1.0625q0 0.859375 -0.4375 1.359375q-0.421875 0.484375 -1.140625 0.484375z" fill-rule="nonzero"/><path fill="#000000" fill-opacity="0.2577" d="m28.28084 230.49869l911.77954 0l0 291.18112l-911.77954 0z" fill-rule="evenodd"/><path stroke="#0000ff" stroke-width="1.0" stroke-linejoin="round" stroke-linecap="butt" d="m28.28084 230.49869l911.77954 0l0 291.18112l-911.77954 0z" fill-rule="evenodd"/><path fill="#000000" fill-opacity="0.2577" d="m81.03674 82.062996l777.03937 0l0 137.13385l-777.03937 0z" fill-rule="evenodd"/><path stroke="#00ffff" stroke-width="1.0" stroke-linejoin="round" stroke-linecap="butt" d="m81.03674 82.062996l777.03937 0l0 137.13385l-777.03937 0z" fill-rule="evenodd"/></g></svg>
