<?xml version="1.0" encoding="UTF-8" standalone="no"?>
<!DOCTYPE svg PUBLIC "-//W3C//DTD SVG 1.1//EN" "http://www.w3.org/Graphics/SVG/1.1/DTD/svg11.dtd">
<svg xmlns="http://www.w3.org/2000/svg" xmlns:xlink="http://www.w3.org/1999/xlink" version="1.1" width="720pt" height="405pt" viewBox="0 0 720 405">
<g enable-background="new">
<g>
<clipPath id="cp17">
<path transform="matrix(.001968504,0,0,.001968504,0,0)" d="M 0 0 L 365760 0 L 365760 205740 L 0 205740 L 0 0 Z "/>
</clipPath>
<g clip-path="url(#cp17)">
<path transform="matrix(.001968504,0,0,.001968504,0,0)" d="M 0 0 L 365568 0 L 365568 205740 L 0 205740 Z " fill-opacity=".6275" fill-rule="evenodd"/>
<path transform="matrix(.001968504,0,0,.001968504,0,0)" d="M 45906 10962 L 319662 10962 L 319662 194778 L 45906 194778 Z " fill-opacity="0" fill-rule="evenodd"/>
<text fill="#ffffff" xml:space="preserve" transform="matrix(.75 0 0 .75 90.36614 21.578742)" font-size="32" font-family="DroidSerif"><tspan y="39.72" x="9 23.400002 42.728006 57.160005 74.504009 89.704 97.704 109.96001 121.768009 136.84001 147.048 164.168 184.808 204.424 216.68 246.664 264.648 279.72 290.984 301.19203 321.83204 329.83204 342.088 362.376 380.84 408.392 420.64799 450.856 468.84 488.84 506.888 519.14407 529.35208 559.56008 579.1761 594.2481 611.3681 625.8001 640.2321 650.4401 668.9041 689.5441 703.97616">&#x201c;Pray, friend Martin, how many impressions </tspan></text>
<text fill="#ffffff" xml:space="preserve" transform="matrix(.75 0 0 .75 90.36614 21.578742)" font-size="32" font-family="DroidSerif"><tspan y="77.72" x="9 24.744 42.728 63.368005 71.656009 91.272 108.392009 116.68001 146.88802 164.87201 184.488 201.608 209.896 228.872 246.92 255.208 266.472 286.75999 296.968 311.4 319.688 339.304 354.37599 371.49598 385.92799 400.36 408.64799 418.856 439.496 447.784 465.768 474.056 493.672 511.016 529.06399 545.06399 559.464">can be made by this press in a day?&#x201d; </tspan></text>
<text fill="#ffffff" xml:space="preserve" transform="matrix(.75 0 0 .75 90.36614 21.578742)" font-size="32" font-family="DroidSerif"><tspan y="153.72" x="9 21.192002 43.752004 63.368005 81.832 102.12 113.384 147.36801 158.63202 178.92002 193.99202 211.11202 228.23201 262.216 282.504 302.792 323.432 343.048 358.12 375.24 394.856 402.856 436.84 447.048 458.85603 492.84004 520.392 537.512 571.49606 599.04806 617.512 632.58407 651.27206 685.25607 695.46408 706.728">&#x201c;About three hundred, if we work it </tspan></text>
<text fill="#ffffff" xml:space="preserve" transform="matrix(.75 0 0 .75 90.36614 21.578742)" font-size="32" font-family="DroidSerif"><tspan y="191.72" x="9 24.744 43.208 63.848 78.28 89.544 107.528 128.168 139.432 149.352 164.552 173.70401">constantly.&#x201d;</tspan></text>
<text fill="#ffffff" xml:space="preserve" transform="matrix(.75 0 0 .75 90.36614 21.578742)" font-size="32" font-family="DroidSerif"><tspan y="267.72" x="9 23.400002 35.144 49.576005 58.632009 68.84001 80.10401 89.16001 108.77602 127.24002 141.67203 156.10404 166.31204 185.92804 195.84804 212.96804 223.62404 238.02404 247.08003 264.20005 282.69606 298.44004 308.36006 326.34407 336.55207 366.76008 383.88008 403.49607 412.55207 431.88008 449.00007 460.26408 477.38407 492.45606 501.60807 510.66407 525.0641 549.4801 567.9441 595.4961 604.5521 614.76016 635.40017 655.0162 672.13619 689.25619 708.8722">&#x201c;Is it possible!&#x201d; exclaimed Peter. &#x201c;Now indeed </tspan></text>
<text fill="#ffffff" xml:space="preserve" transform="matrix(.75 0 0 .75 90.36614 21.578742)" font-size="32" font-family="DroidSerif"><tspan y="305.72" x="9 36.552003 46.760004 56.68 66.6 81.48 101.09601 119.56001 138.02402 156.71202 171.14403 186.02402 216.23203 236.52002 246.44002 257.704 267.91203 287.528 297.44804 312.64805 321.80006 336.68006 370.15205 390.44004 408.42405 419.68806 434.56806 462.12007 472.32807 482.24809 492.1681 507.0481 518.3121 538.6001 555.7201 570.6001 590.2161 600.1361 618.6001 638.2161 657.83218 668.04019 688.6802 705.8962">will books multiply. What will the plodding </tspan></text>
<text fill="#ffffff" xml:space="preserve" transform="matrix(.75 0 0 .75 90.36614 21.578742)" font-size="32" font-family="DroidSerif"><tspan y="343.72" x="9 24.744 43.208 62.184003 80.232 90.44 104.872 116.136 130.56801 138.856 153.28801 170.632 188.68001 196.968 208.23201 226.69602 234.98401 246.24802 266.536 276.74403 291.17604 307.17604 321.57603">copyists say to this?&#x201d; </tspan></text>
<text fill="#ffffff" xml:space="preserve" transform="matrix(.75 0 0 .75 90.36614 21.578742)" font-size="32" font-family="DroidSerif"><tspan y="419.72" x="9 41 49.576 69.512 99.72 109.928 119.848 137.896 146.47199 166.08798 176.00798 193.12798 223.33599 240.45598 261.09599 275.52799 284.10398 303.43199 320.55198 338.53599 353.60798 368.03999 386.50398 407.14399 415.14399 423.71998 446.53599 466.82398 478.08799 495.20799 515.84799 535.464 552.584 567.656 584.872 593.44808 611.43209 632.0721 651.6881 660.26419 671.52816 691.81619 708.93618">&#x2014; Emily Clemens Pearson, Gutenberg and the </tspan></text>
<text fill="#ffffff" xml:space="preserve" transform="matrix(.75 0 0 .75 90.36614 21.578742)" font-size="32" font-family="DroidSerif"><tspan y="457.72" x="9 31.560002 46.632005 57.896005 66.184009 84.64801 96.45601 104.74401 124.072017 139.14402 149.35202 169.99202 181.25603 191.46402 212.10402 229.32003 237.60802 248.68003 266.56803 284.45603 302.34403 320.23204">Art of Printing (1870)</tspan></text>
</g>
</g>
</g>
</svg>
