<?xml version="1.0" encoding="UTF-8" standalone="no"?>
<!DOCTYPE svg PUBLIC "-//W3C//DTD SVG 1.1//EN" "http://www.w3.org/Graphics/SVG/1.1/DTD/svg11.dtd">
<svg xmlns="http://www.w3.org/2000/svg" xmlns:xlink="http://www.w3.org/1999/xlink" version="1.1" width="720pt" height="405pt" viewBox="0 0 720 405">
<g enable-background="new">
<g>
<clipPath id="cp18">
<path transform="matrix(.001968504,0,0,.001968504,0,0)" d="M 0 0 L 365760 0 L 365760 205740 L 0 205740 L 0 0 Z "/>
</clipPath>
<g clip-path="url(#cp18)">
<path transform="matrix(.001968504,0,0,.001968504,0,0)" d="M 0 0 L 365568 0 L 365568 205740 L 0 205740 Z " fill-opacity=".6275" fill-rule="evenodd"/>
<path transform="matrix(.001968504,0,0,.001968504,0,0)" d="M 45906 10962 L 319662 10962 L 319662 194778 L 45906 194778 Z " fill-opacity="0" fill-rule="evenodd"/>
<text fill="#ffffff" xml:space="preserve" transform="matrix(.75 0 0 .75 90.36614 21.578742)" font-size="32" font-family="DroidSerif"><tspan y="39.72" x="9 23.400002 43.656007 61.704008 70.216 81.48 101.768009 118.88801 127.40001 145.384 155.59201 175.20801 183.72 202.184 213.992 222.504 240.488 249 260.264 277.384 287.30403 304.424 318.85603 334.6 353.064 372.68 389.8 398.31199 416.296 436.296 454.344 462.856 481.31999 501.96 519.08 527.59207 557.80007 575.14407 593.192 601.70407 621.32009 638.44009 658.7281 677.1921 687.11209 706.7281">&#x201c;By the aid of a telescope any one may behold </tspan></text>
<text fill="#ffffff" xml:space="preserve" transform="matrix(.75 0 0 .75 90.36614 21.578742)" font-size="32" font-family="DroidSerif"><tspan y="77.72" x="9 20.264 40.552003 50.760004 65.192 77.768009 87.976009 108.616008 121.19201 139.17601 151.752 181.96 199.944 220.584 241.224 258.344 273.416 285.99198 313.54399 333.83198 344.03999 359.78398 380.07197 392.64796 407.07997 425.54396 438.11994 457.73594 467.94395 482.37596 493.63996 503.84797 524.488 540.232 551.496 561.41598 579.4639 592.04 610.024 629.64 649.25607 666.37606 684.36007 694.28 708.71206">this in a manner which so distinctly appeals </tspan></text>
<text fill="#ffffff" xml:space="preserve" transform="matrix(.75 0 0 .75 90.36614 21.578742)" font-size="32" font-family="DroidSerif"><tspan y="115.72" x="9 20.264 38.728 48.84 60.104 80.392 97.512 107.624 122.056 139.176 159.816 174.248 191.368 205.8 215.912 227.17601 247.464 265.448 276.712 286.824 304.808 314.72804 324.64805 334.76005 346.02406 366.31205 383.43205 393.54405 413.16004 423.36805 437.80006 457.41606 477.70405 488.96806 506.08805 520.52 530.632 558.184 578.47207 588.68008 604.4241 624.7121 634.8241 655.1121 673.0961 691.62417 708.74417">to the senses that all the disputes which have </tspan></text>
<text fill="#ffffff" xml:space="preserve" transform="matrix(.75 0 0 .75 90.36614 21.578742)" font-size="32" font-family="DroidSerif"><tspan y="153.72" x="9 20.264 38.728 53.800004 84.008 101.128009 121.768009 133.03202 150.15201 169.768 194.408 214.024 234.312 244.51999 254.43999 272.904 287.336 305.8 325.416 345.70399 362.82398 377.89598 392.32798 416.96797 428.23197 448.51997 463.59196 482.05595 502.34394 519.55996 539.84799 564.488 578.92 597.384 622.024 652.232 670.216 690.216 708.264">tormented philosophers through so many </tspan></text>
<text fill="#ffffff" xml:space="preserve" transform="matrix(.75 0 0 .75 90.36614 21.578742)" font-size="32" font-family="DroidSerif"><tspan y="191.72" x="9 26.984002 44.200006 61.320009 75.75201 84.93601 102.92001 117.99201 135.11202 144.296 161.416 179.912 199.528 209.448 227.912 247.528 264.648 284.264 293.448 311.432 322.696 331.88 350.344 370.984 386.728 403.848 413.03199 432.00798 450.05598 459.23997 470.50398 490.79197 507.91197 517.09597 527.30398 547.944 567.56 577.768 592.2 611.81607 632.10409 643.36807 661.35208 680.9681 690.88809 708.00808">ages are exploded at once by the indisputable </tspan></text>
<text fill="#ffffff" xml:space="preserve" transform="matrix(.75 0 0 .75 90.36614 21.578742)" font-size="32" font-family="DroidSerif"><tspan y="229.72" x="9 26.12 44.648004 54.856004 74.472 91.592 112.232 127.976009 145.09601 157.032 175.496 187.304 199.23999 217.704 237.99199 253.064 265 282.12 300.168 317.288 331.72 339.72 351.656 369.64 390.28004 409.89604 421.83204 449.38404 466.50404 478.44004 496.42405 511.49604 528.616 540.55209 552.36007 567.43209 584.55209 601.67208 621.2881 633.2241 645.0321 660.1041 678.5681 708.7761">evidence of our eyes, and we are freed from </tspan></text>
<text fill="#ffffff" xml:space="preserve" transform="matrix(.75 0 0 .75 90.36614 21.578742)" font-size="32" font-family="DroidSerif"><tspan y="267.72" x="9 36.552003 55.016004 70.088008 89.70401 107.752017 129.22402 148.84001 159.048 173.48001 193.09601 213.384 224.64801 241.768 256.2 277.672 297.96 317.576 336.03999 356.68 378.15199 389.416 409.70399 419.912 434.344 455.81599 470.248 490.53599 510.15199 519.72 536.83999 552.584 563.84799 571.84799 593.32 605.128 623.592 638.664 660.13607 671.4 691.68807 708.80807">wordy disputes upon this subject, for the </tspan></text>
<text fill="#ffffff" xml:space="preserve" transform="matrix(.75 0 0 .75 90.36614 21.578742)" font-size="32" font-family="DroidSerif"><tspan y="305.72" x="9 31.816002 49.800004 59.72 77.704 96.200008 114.248 145.128 155.336 169.768 200.648 221.288 239.752 251.016 271.30403 281.51203 302.15205 319.36805 350.24806 367.36805 377.28807 391.72007 408.84007 439.72007 459.33607 479.62406 490.88807 521.76809 539.7521 570.6321 600.8401 618.8241 633.2561 647.6881 678.5681 697.0321 708.8401">Galaxy is nothing else but a mass of </tspan></text>
<text fill="#ffffff" xml:space="preserve" transform="matrix(.75 0 0 .75 90.36614 21.578742)" font-size="32" font-family="DroidSerif"><tspan y="343.72" x="9 19.208 39.848 60.488 80.776 110.984 128.104 142.53601 160.52002 180.13602 190.05602 207.17601 245.48001 259.91203 271.17604 289.16004 304.23204 318.66404 356.96803 376.584 386.50404 404.48805 425.12806 436.39207 453.51206 473.12806 511.43205 522.69607 541.16006 558.37606 575.49606 586.76 607.04806 624.168 639.24008 677.54409 687.7521 708.3921">innumerable stars planted together in </tspan></text>
<text fill="#ffffff" xml:space="preserve" transform="matrix(.75 0 0 .75 90.36614 21.578742)" font-size="32" font-family="DroidSerif"><tspan y="381.72" x="9 24.744 34.664 54.952005 69.384 80.648 97.768009 112.840007 127.272 136.42401">clusters.&#x201d;</tspan></text>
<text fill="#ffffff" xml:space="preserve" transform="matrix(.75 0 0 .75 90.36614 21.578742)" font-size="32" font-family="DroidSerif"><tspan y="457.72" x="9 17.288 49.288003 57.576005 80.392009 98.37601 108.296009 118.504009 128.42401 145.544 164.00801 172.00801 180.296 199.88 220.168 237.288 245.57599 262.952 274.216 292.2 307.272 322.344 340.392 348.68 378.664 395.784 410.216 424.648 441.768 462.40803 479.62403 496.74403 511.816 520.104 531.176 549.064 566.952 584.84 602.728"> &#x2014; Galileo, The Starry Messenger (1610)</tspan></text>
</g>
</g>
</g>
</svg>
