<?xml version="1.0" encoding="UTF-8" standalone="no"?>
<!DOCTYPE svg PUBLIC "-//W3C//DTD SVG 1.1//EN" "http://www.w3.org/Graphics/SVG/1.1/DTD/svg11.dtd">
<svg xmlns="http://www.w3.org/2000/svg" xmlns:xlink="http://www.w3.org/1999/xlink" version="1.1" width="720pt" height="405pt" viewBox="0 0 720 405">
<g enable-background="new">
<g>
<clipPath id="cp19">
<path transform="matrix(.001968504,0,0,.001968504,0,0)" d="M 0 0 L 365760 0 L 365760 205740 L 0 205740 L 0 0 Z "/>
</clipPath>
<g clip-path="url(#cp19)">
<path transform="matrix(.001968504,0,0,.001968504,0,0)" d="M 0 0 L 365568 0 L 365568 205740 L 0 205740 Z " fill-opacity=".6275" fill-rule="evenodd"/>
<path transform="matrix(.001968504,0,0,.001968504,0,0)" d="M 45906 10962 L 319662 10962 L 319662 194778 L 45906 194778 Z " fill-opacity="0" fill-rule="evenodd"/>
<text fill="#ffffff" xml:space="preserve" transform="matrix(.75 0 0 .75 90.36614 21.578742)" font-size="32" font-family="DroidSerif"><tspan y="39.72" x="9 23.400002 43.656007 61.704008 85.51201 101.25601 119.24001 129.16002 144.90402 165.19202 175.11202 193.09601 204.36002 214.56803 233.03203 253.67203 268.10404 291.91203 306.34403 316.55204 346.76005 356.96806 366.88807 384.87208 399.94407 423.75205 435.01606 453.48005 477.28804 488.55204 508.84004 525.96 540.392 557.512 581.32009 611.5281 628.8721 646.92007 670.7281 690.3441 707.4641">&#x201c;By calculations similar to these may be </tspan></text>
<text fill="#ffffff" xml:space="preserve" transform="matrix(.75 0 0 .75 90.36614 21.578742)" font-size="32" font-family="DroidSerif"><tspan y="77.72" x="9 28.616002 45.736 57 74.12 89.192 119.4 129.608 150.248 167.368 186.984 211.11199 231.39998 252.03998 262.248 280.776 297.896 312.968 327.4 345.384 355.30403 365.22404 380.42405 388.42405 412.55204 440.10404 460.39204 478.37605 489.64006 513.76809 530.88809 549.38406 569.00009 586.12008 601.8641 613.12808 631.11209 642.37606 652.58407 671.04806 691.68807 706.12008">determined universally, what expectations </tspan></text>
<text fill="#ffffff" xml:space="preserve" transform="matrix(.75 0 0 .75 90.36614 21.578742)" font-size="32" font-family="DroidSerif"><tspan y="115.72" x="9 26.984002 42.056 59.176004 67.784008 95.336009 113.32001 128.39202 142.82402 160.80802 181.44802 192.71202 209.83202 229.44802 238.05602 257.032 275.08003 283.68803 301.67204 321.67204 339.72004 348.32804 365.44804 383.94404 403.56004 420.68003 435.752 445.96003 476.16804 493.28804 513.92807 525.192 539.624 547.624 556.23208 574.21609 589.9601 605.7041 624.1681 639.2401 658.85617 669.06417 689.70419 706.92019">are warranted by any experiments, according </tspan></text>
<text fill="#ffffff" xml:space="preserve" transform="matrix(.75 0 0 .75 90.36614 21.578742)" font-size="32" font-family="DroidSerif"><tspan y="153.72" x="9 20.264 38.728 56.648 67.912 88.200008 105.32001 123.24001 142.85602 153.06403 164.87203 176.68003 193.80002 208.87203 225.99202 246.63202 257.89604 275.816 296.45603 316.74403 346.95204 366.56803 383.68803 398.76 416.68 435.14399 446.952 464.87199 476.136 486.344 516.552 533.672 548.104 566.02407 576.23208 596.8721 614.7921 642.3441 662.63217 672.84017 688.58419 708.8722">to the different number of times in which </tspan></text>
<text fill="#ffffff" xml:space="preserve" transform="matrix(.75 0 0 .75 90.36614 21.578742)" font-size="32" font-family="DroidSerif"><tspan y="191.72" x="9 20.264 40.552003 57.672006 75.72 98.856 119.144008 137.128 155.656 172.776 195.912 210.34401 230.632 246.376 262.12 279.24 296.36 315.97599 333.09599 352.71199 375.84797 393.83198 414.472 434.08799 457.22398 469.03199 487.016 497.224 507.144 524.26406 543.88009 551.88009 575.0161 593.4801 608.5521 631.6882 659.2402 679.5282 697.5122 708.7762">they have succeeded and failed; or what </tspan></text>
<text fill="#ffffff" xml:space="preserve" transform="matrix(.75 0 0 .75 90.36614 21.578742)" font-size="32" font-family="DroidSerif"><tspan y="229.72" x="9 23.432002 43.72 62.184003 82.472 92.392 112.007999 122.631999 142.248 159.368 169.99199 181.256 201.54399 220.008 240.29599 257.512 277.8 289.064 299.688 318.15199 329.96 340.58399 351.848 372.136 389.25599 399.87998 419.49598 434.56797 453.03196 472.64796 490.63197 510.24797 520.45596 530.3759 540.5839 551.8479 569.8959 580.5199 591.7839 612.0719 630.0559 641.3199 651.9439 669.9279 689.9279 707.9759">should be thought of the probability that any </tspan></text>
<text fill="#ffffff" xml:space="preserve" transform="matrix(.75 0 0 .75 90.36614 21.578742)" font-size="32" font-family="DroidSerif"><tspan y="267.72" x="9 28.616002 46.600004 61.672006 72.936008 83.144008 98.88801 119.17601 129.09601 147.08002 162.15203 180.77602 196.52002 214.50403 234.79203 249.22403 266.34403 284.96803 295.17604 315.81605 334.44004 355.08006 373.06407 384.32807 404.61607 419.68806 436.80805 444.80805 463.43205 490.98405 501.19206 512.45608 532.7441 551.3681 578.9201 599.2081 609.41616 625.16018 645.4482 664.0722 691.6242 708.7442">particular cause in nature, with which we </tspan></text>
<text fill="#ffffff" xml:space="preserve" transform="matrix(.75 0 0 .75 90.36614 21.578742)" font-size="32" font-family="DroidSerif"><tspan y="305.72" x="9 29.288 47.272005 65.8 82.920009 99.78401 117.76801 137.76802 155.81603 172.68003 190.66403 206.40804 226.02404 246.31203 264.29603 274.50404 295.14405 306.40806 324.39207 345.03208 360.77607 377.89607 385.89607 402.76005 430.31205 440.52006 450.44007 460.36009 477.22407 495.68806 510.76005 527.624 555.176 565.38406 575.304 585.224 602.088 622.728 641.192 652.456 660.456 677.32 687.528 708.168">have any acquaintance, will or will not, in </tspan></text>
<text fill="#ffffff" xml:space="preserve" transform="matrix(.75 0 0 .75 90.36614 21.578742)" font-size="32" font-family="DroidSerif"><tspan y="343.72" x="9 26.984002 46.984 65.032 81.928 96.36 106.568 127.208 144.424 154.344 171.46399 188.35999 199.624 214.696 224.90399 242.888 252.808 260.80799 277.70399 297.31999 312.39198 330.85597 350.47196 370.75996 386.50395 403.62394 420.51994 438.50395 459.14396 476.03996 493.15995 504.96797 516.77597 533.89596 549.63998 560.90396 577.7999 589.0639 609.3519 627.33596 638.5999 655.4959 675.78396 693.76797 708.19998">any single trial, produce an effect that has </tspan></text>
<text fill="#ffffff" xml:space="preserve" transform="matrix(.75 0 0 .75 90.36614 21.578742)" font-size="32" font-family="DroidSerif"><tspan y="381.72" x="9 28.616002 45.736 62.856004 83.496 91.784008 107.52801 125.992008 146.632 156.20001 174.66402 184.87201 205.51201 222.632 242.248 250.536 278.088 288.29603 299.56004 319.84803 328.13603 338.34403 349.60804 358.76005 373.16004">been conjoined with it.&#x201d; </tspan></text>
<text fill="#ffffff" xml:space="preserve" transform="matrix(.75 0 0 .75 90.36614 21.578742)" font-size="29.333334" font-family="DroidSerif"><tspan y="455.16" x="9 38.333337 46.194669 65.408008 81.10134 96.06134 104.450679 112.31201 130.264 148.86135 165.78668 193.47736 209.96269 223.19203 231.05338 250.20804 266.1067 282.6507 298.34403 311.57337 318.9067 326.76805 347.44804 366.36805 374.22938 392.50404 405.73338 418.9627 434.86137 451.40538 459.2667 469.59205 486.51737 511.77339 528.2587 542.0747 560.056 573.28536 581.14669 594.376 611.30136 620.39468 637.37869 646.736 665.656 681.4373 689.29867 705.784">&#x2014; Rev. Thomas Bayes, An Essay towards solving a </tspan></text>
<text fill="#ffffff" xml:space="preserve" transform="matrix(.75 0 0 .75 90.36614 21.578742)" font-size="29.333334" font-family="DroidSerif"><tspan y="490.16" x="9 26.717335 40.533338 57.45867 75.44 84.53333 100.22667 127.91734 135.51468 144.87201 163.792 171.38935 181.71468 200.31201 216.00534 223.60268 244.92801 261.85334 276.28535 286.6107 300.4267 309.78404 328.70405 344.39738 351.9947 368.92 379.74403 387.34135 405.32267 423.91999 440.4053 459.32533 473.75733 489.45066 502.68 510.2773 520.42666 536.824 553.2213 569.61868 586.016">Problem in the Doctrine of Chances (1763)</tspan></text>
</g>
</g>
</g>
</svg>
