<?xml version="1.0" encoding="UTF-8" standalone="no"?>
<!DOCTYPE svg PUBLIC "-//W3C//DTD SVG 1.1//EN" "http://www.w3.org/Graphics/SVG/1.1/DTD/svg11.dtd">
<svg xmlns="http://www.w3.org/2000/svg" xmlns:xlink="http://www.w3.org/1999/xlink" version="1.1" width="720pt" height="405pt" viewBox="0 0 720 405">
<g enable-background="new">
<g>
<clipPath id="cp21">
<path transform="matrix(.001968504,0,0,.001968504,0,0)" d="M 0 0 L 365760 0 L 365760 205740 L 0 205740 L 0 0 Z "/>
</clipPath>
<g clip-path="url(#cp21)">
<path transform="matrix(.001968504,0,0,.001968504,0,0)" d="M 0 0 L 365568 0 L 365568 205740 L 0 205740 Z " fill-opacity=".6275" fill-rule="evenodd"/>
<path transform="matrix(.001968504,0,0,.001968504,0,0)" d="M 45906 10962 L 319662 10962 L 319662 194778 L 45906 194778 Z " fill-opacity="0" fill-rule="evenodd"/>
<text fill="#ffffff" xml:space="preserve" transform="matrix(.75 0 0 .75 90.36614 21.578742)" font-size="32" font-family="DroidSerif"><tspan y="77.72" x="9 23.400002 35.144 59.272 70.536 90.824008 107.94401 128.58402 152.712 167.14402 187.432 205.89601 226.184 237.44802 254.56801 274.18403 298.312 308.52003 329.16004 340.42405 358.88804 383.01603 394.28004 414.56803 431.68803 455.816 486.02403 504.488 524.776 536.04 556.328 575.94406 586.15206 603.27206 619.01608 636.13607 660.2641 671.5281 691.8161 708.9361">&#x201c;I then shouted into the mouthpiece the </tspan></text>
<text fill="#ffffff" xml:space="preserve" transform="matrix(.75 0 0 .75 90.36614 21.578742)" font-size="32" font-family="DroidSerif"><tspan y="115.72" x="9 20.808 39.272005 49.192 59.112 77.576007 105.128009 115.336009 135.97602 153.19202 163.08002 177.51203 194.63202 215.27202 226.53603 243.65602 264.29603 280.04 297.16 306.344 316.232 346.216 361.288 370.44 380.328 412.232 430.216 441.48 455.91203 474.376 495.01603 503.01603 512.904 532.52 550.984 581.192 598.312 608.2 628.48806 645.60806 660.68008 677.80007 685.80007 695.68807 707.43209">following sentence: Mr. Watson, Come here, I </tspan></text>
<text fill="#ffffff" xml:space="preserve" transform="matrix(.75 0 0 .75 90.36614 21.578742)" font-size="32" font-family="DroidSerif"><tspan y="153.72" x="9 36.552003 54.536005 75.176 86.44 98.56801 109.83201 128.296 140.424 154.856 171.976 189.096 201.22399 219.27199 237.736 258.024 267.176 279.304 297.96 316.42399 328.55198 358.75999 376.80799 388.93598 408.55198 425.67198 435.59199 445.8 463.016 483.304 494.568 506.69599 526.984 544.104 556.23208 571.9761 589.9601 620.1681 637.2881 649.41616 667.40017 688.04019 707.6562">want to see you. To my delight he came and </tspan></text>
<text fill="#ffffff" xml:space="preserve" transform="matrix(.75 0 0 .75 90.36614 21.578742)" font-size="32" font-family="DroidSerif"><tspan y="191.72" x="9 28.616002 45.736 61.48 71.4 89.384 104.456 121.576007 141.192 155.87999 167.144 187.43199 205.41599 216.68 231.36798 251.65598 268.77598 283.46397 303.75196 321.73597 341.35197 356.03996 376.32795 393.44795 411.43196 426.50395 446.11994 460.80793 478.79194 499.43196 519.048 533.736 554.02407 574.66409 594.2801 611.4001 626.4721 640.9041 652.1681 670.6321 689.09609 708.7121">declared that he had heard and understood </tspan></text>
<text fill="#ffffff" xml:space="preserve" transform="matrix(.75 0 0 .75 90.36614 21.578742)" font-size="32" font-family="DroidSerif"><tspan y="229.72" x="9 36.552003 56.840005 74.824008 86.088008 97.00001 108.74401 119.65601 134.08802 152.07202 162.28003 181.89603 191.04804 201.96002 213.70403 224.61602 242.6 257.032 275.08 292.19999 311.81599 322.72798 343.01597 353.22398 383.43199 394.34397 405.60798 424.07197 434.98396 450.05595 467.17594 486.79194 503.91194 521.89596 533.1599 544.07199 555.33596 575.62399 592.74398 603.656 631.208 649.672 664.744 684.36007 698.79208 707.94406">what I said. I asked him to repeat the words. </tspan></text>
<text fill="#ffffff" xml:space="preserve" transform="matrix(.75 0 0 .75 90.36614 21.578742)" font-size="32" font-family="DroidSerif"><tspan y="267.72" x="9 34.344 51.464006 68.87201 86.85601 107.49601 121.92801 149.48001 166.6 181.67201 198.792 218.408 226.408 243.816 258.216 276.008 294.472 314.75999 332.16798 346.59999 364.58399 374.792 394.408 402.408 419.81599 449.8 464.87199 474.024 491.43199 523.336 541.32 552.584 567.016 585.48 606.12 623.528 639.27206 657.736 687.94406 705.064">He answered, &#x201c;You said, Mr. Watson come </tspan></text>
<text fill="#ffffff" xml:space="preserve" transform="matrix(.75 0 0 .75 90.36614 21.578742)" font-size="32" font-family="DroidSerif"><tspan y="305.72" x="9 29.288 46.408 61.480005 78.600009 86.88801 98.63201 106.92001 134.47202 152.45603 173.09603 184.36003 192.64803 203.91204 222.37604 230.66403 245.09604 262.21604 279.33604 287.62403 305.67204 324.13603 344.424 353.57603">here I want to see you.&#x201d;</tspan></text>
<text fill="#ffffff" xml:space="preserve" transform="matrix(.75 0 0 .75 90.36614 21.578742)" font-size="32" font-family="DroidSerif"><tspan y="381.72" x="9 41 49.288003 71.84801 81.768009 98.88801 117.38401 135.36801 156.00801 175.62401 192.744 207.81601 216.104 238.92002 253.35202 271.33604 291.62403 309.60804 339.81605 348.10404 369.00004 386.12004 396.04005 405.96006 414.24806 425.32005 443.20805 461.09605 478.98405 496.87205">&#x2014; Alexander Graham Bell (1876)</tspan></text>
</g>
</g>
</g>
</svg>
