<?xml version="1.0" encoding="UTF-8" standalone="no"?>
<!DOCTYPE svg PUBLIC "-//W3C//DTD SVG 1.1//EN" "http://www.w3.org/Graphics/SVG/1.1/DTD/svg11.dtd">
<svg xmlns="http://www.w3.org/2000/svg" xmlns:xlink="http://www.w3.org/1999/xlink" version="1.1" width="720pt" height="405pt" viewBox="0 0 720 405">
<g enable-background="new">
<g>
<clipPath id="cp22">
<path transform="matrix(.001968504,0,0,.001968504,0,0)" d="M 0 0 L 365760 0 L 365760 205740 L 0 205740 L 0 0 Z "/>
</clipPath>
<g clip-path="url(#cp22)">
<path transform="matrix(.001968504,0,0,.001968504,0,0)" d="M 0 0 L 365568 0 L 365568 205740 L 0 205740 Z " fill-opacity=".6275" fill-rule="evenodd"/>
<path transform="matrix(.001968504,0,0,.001968504,0,0)" d="M 45906 10962 L 319662 10962 L 319662 194778 L 45906 194778 Z " fill-opacity="0" fill-rule="evenodd"/>
<text fill="#ffffff" xml:space="preserve" transform="matrix(.75 0 0 .75 90.36614 21.578742)" font-size="29.333334" font-family="DroidSerif"><tspan y="37.16" x="9 22.2 32.965337 45.696004 58.92534 76.90668 92.60001 109.08535 126.21602 138.94669 164.20269 173.56002 183.88535 202.48268 219.40802 238.00536 248.33069 261.06138 276.7547 293.70939 310.1947 325.97605 341.7574 357.4507 370.68006 387.16539 397.49073 406.84806 423.77339 442.6934 455.42405 480.68006 499.27738 514.9707 533.8907 546.6214 557.3867 570.11746 583.34677 599.2454 615.7894 628.52017 638.84548 657.4428 673.92819 684.2535 696.9842 707.7495">&#x201c;I speak without exaggeration when I say that I </tspan></text>
<text fill="#ffffff" xml:space="preserve" transform="matrix(.75 0 0 .75 90.36614 21.578742)" font-size="29.333334" font-family="DroidSerif"><tspan y="72.16" x="9 27.597334 44.08267 61.06667 76.76 102.632 117.064 133.98934 152.90933 166.13867 176.464 190.28 208.87734 223.30934 233.63468 249.328 267.30934 293.1813 309.57865 316.912 333.30934 349.70668 366.104 391.97599 409.9573 419.31465 430.13865 440.96266 456.65599 470.472 486.1653 505.08534 515.41067 541.28268 551.608 570.2053 585.8987 602.82406 616.64 625.9974 641.69076 654.92007 680.79208 690.1494 709.0694">have constructed 3,000 different theories in </tspan></text>
<text fill="#ffffff" xml:space="preserve" transform="matrix(.75 0 0 .75 90.36614 21.578742)" font-size="29.333334" font-family="DroidSerif"><tspan y="107.16" x="9 23.432002 40.357339 59.27734 78.19734 93.89068 108.32268 118.64801 128.00534 144.93068 163.85068 180.89334 206.14934 215.50667 225.832 244.42934 261.47203 271.79737 290.39469 306.088 323.13069 338.824 347.91734 363.61067 378.04267 388.368 402.18403 411.54136 425.97337 443.01603 452.10935 461.46669 477.24803 495.84535 506.1707 513.504 530.5467 546.24008 562.7254 577.1574 595.75479 612.7974 629.7228 648.64279 664.3361 681.3788 698.30416 709.1281">connection with the electric light, each one of </tspan></text>
<text fill="#ffffff" xml:space="preserve" transform="matrix(.75 0 0 .75 90.36614 21.578742)" font-size="29.333334" font-family="DroidSerif"><tspan y="142.16" x="9 19.325335 37.92267 53.616006 81.30667 90.13601 103.95201 119.64535 136.13068 149.36002 166.28536 185.20536 201.69069 219.67203 228.76537 244.4587 253.28803 269.77336 288.69337 306.67469 315.504 331.98933 349.97065 367.95198 384.4373 398.2533 413.94664 432.86665 443.192 452.2853 468.8293 477.65864 486.75196 496.10929 512.65328 528.3466 537.43997 553.98397 562.8133 573.1386 590.06399 598.8933 616.87466 632.568 641.39736 651.72268 665.53866 684.136 699.82937 708.2187">them reasonable and apparently likely to be true. </tspan></text>
<text fill="#ffffff" xml:space="preserve" transform="matrix(.75 0 0 .75 90.36614 21.578742)" font-size="29.333334" font-family="DroidSerif"><tspan y="177.16" x="9 25.309334 41.00267 51.328004 63.061338 79.98667 98.90668 108.00001 124.54401 136.27735 145.63468 164.55467 176.28801 186.61334 211.86934 228.79468 240.52802 254.96002 271.44535 284.67469 300.368 313.59736 325.33067 343.31199 352.6693 370.65065 382.38395 410.07463 426.61863 438.35194 454.04527 470.99995 488.98127 504.6746 518.4906 527.84799 555.53866 571.232 590.152 600.4773 613.7066 625.43997 643.42129 657.23727 674.1626 691.1466 706.83999">Yet only in two cases did my experiments prove </tspan></text>
<text fill="#ffffff" xml:space="preserve" transform="matrix(.75 0 0 .75 90.36614 21.578742)" font-size="29.333334" font-family="DroidSerif"><tspan y="212.16" x="9 19.325335 37.92267 53.616006 63.35467 73.68001 87.49601 106.093349 116.41868 135.016 144.75467 161.68001 172.50402 182.24268 209.93335 226.47736 236.21602 246.54135 265.13868 280.832 297.75733 311.57334 325.50669 333.89604 343.63468 371.12 387.664 397.40266 411.83467 430.43199 439.7893 455.48265 466.30665 476.0453 494.0266 503.38395 514.20797 525.0319 534.3893 548.8213 567.41867 576.51199 586.8373 603.3813 613.12 638.376 654.8613 668.09066 677.82937 687.1867 706.1067">the truth of my theory. My chief difficulty was in </tspan></text>
<text fill="#ffffff" xml:space="preserve" transform="matrix(.75 0 0 .75 90.36614 21.578742)" font-size="29.333334" font-family="DroidSerif"><tspan y="247.16" x="9 23.432002 40.357339 59.27734 72.506679 82.83201 96.64801 115.245349 129.67736 140.00269 149.36002 168.28002 184.06136 213.77603 224.10137 242.6987 258.39204 288.1067 302.5387 319.02403 332.84004 350.82136 367.74668 386.6667 416.38136 427.20536 436.56269 445.656 462.14134 489.832 505.52534 524.4453 534.7706 543.16 572.87466 581.264 589.6533 598.04269 627.7573 646.032 663.016 678.70938 692.5253 709.06936">constructing the carbon filament. ... Every </tspan></text>
<text fill="#ffffff" xml:space="preserve" transform="matrix(.75 0 0 .75 90.36614 21.578742)" font-size="29.333334" font-family="DroidSerif"><tspan y="282.16" x="9 26.981335 45.578668 62.064004 75.880008 86.20534 101.898677 115.714679 124.42668 141.35202 152.17603 160.88803 171.21337 189.8107 205.50403 214.21604 229.99738 239.09072 256.01606 273.99739 289.6907 298.40269 323.6587 340.144 353.37336 362.08534 375.31468 391.8 410.72 423.94935 440.43467 454.86668 471.41069 487.104 505.08534 513.79739 531.192 547.736 556.44808 584.13876 600.68276 609.3948 625.8801 641.66146 657.3548 676.2748 686.6001 699.8294 707.1627">quarter of the globe was ransacked by my agents, </tspan></text>
<text fill="#ffffff" xml:space="preserve" transform="matrix(.75 0 0 .75 90.36614 21.578742)" font-size="29.333334" font-family="DroidSerif"><tspan y="317.16" x="9 25.485335 44.405336 62.38667 72.330669 88.816 97.90933 107.00266 116.94666 130.176 147.10134 160.91733 171.24266 184.472 194.416 211.34134 222.16535 232.10935 242.43468 261.032 276.72535 286.66935 304.65068 323.248 338.9413 354.63465 368.45066 384.14399 397.37333 407.69868 417.64268 445.33335 461.81867 472.144 487.83735 501.65336 511.01069 527.49606 536.58938 549.81869 559.7627 578.36007 591.58938 607.2827 625.26406 632.59738 642.5414 661.13876 680.0587 690.38406 699.7414 708.8347">and all sorts of the queerest materials used, until </tspan></text>
<text fill="#ffffff" xml:space="preserve" transform="matrix(.75 0 0 .75 90.36614 21.578742)" font-size="29.333334" font-family="DroidSerif"><tspan y="352.16" x="9 19.824002 29.181336 48.101339 64.58667 73.68 82.77333 99.31733 111.344 121.669338 140.26667 155.95999 167.98667 181.216 199.81334 213.62934 229.32266 247.304 259.33067 276.25599 287.08 299.10664 317.08796 333.57328 361.26396 379.24528 396.1706 413.09593 420.42927 432.4559 451.37593 468.30125 493.55726 505.5839 524.1812 534.50656 543.8639 552.9572 562.3146 577.3039 592.99728 610.9786 623.00527 640.3999 656.9439 668.9706 687.56796 700.79727 708.13058">finally the shred of bamboo, now utilized by us, </tspan></text>
<text fill="#ffffff" xml:space="preserve" transform="matrix(.75 0 0 .75 90.36614 21.578742)" font-size="29.333334" font-family="DroidSerif"><tspan y="387.16" x="9 34.256006 50.74134 63.970678 71.56801 84.79734 100.49068 110.81601 121.14134 130.23468 145.92801 163.90935 171.50669 190.10402 208.08536 225.0107 243.9307 252.32003">was settled upon.&#x201d;</tspan></text>
<text fill="#ffffff" xml:space="preserve" transform="matrix(.75 0 0 .75 90.36614 21.578742)" font-size="29.333334" font-family="DroidSerif"><tspan y="457.16" x="9 16.597334 45.930669 53.528 71.48 90.07734 107.00267 134.69335 151.17868 164.40802 172.00536 190.28003 208.26137 217.6187 230.84804 247.77338 266.6934 274.2907 284.44004 300.83738 317.2347 333.63206 350.0294"> &#x2014; Thomas Edison (1890)</tspan></text>
</g>
</g>
</g>
</svg>
