<?xml version="1.0" encoding="UTF-8" standalone="no"?>
<!DOCTYPE svg PUBLIC "-//W3C//DTD SVG 1.1//EN" "http://www.w3.org/Graphics/SVG/1.1/DTD/svg11.dtd">
<svg xmlns="http://www.w3.org/2000/svg" xmlns:xlink="http://www.w3.org/1999/xlink" version="1.1" width="720pt" height="405pt" viewBox="0 0 720 405">
<g enable-background="new">
<g>
<clipPath id="cp24">
<path transform="matrix(.001968504,0,0,.001968504,0,0)" d="M 0 0 L 365760 0 L 365760 205740 L 0 205740 L 0 0 Z "/>
</clipPath>
<g clip-path="url(#cp24)">
<path transform="matrix(.001968504,0,0,.001968504,0,0)" d="M 0 0 L 365568 0 L 365568 205740 L 0 205740 Z " fill-rule="evenodd"/>
<path transform="matrix(.001968504,0,0,.001968504,0,0)" d="M 45906 10962 L 319662 10962 L 319662 194778 L 45906 194778 Z " fill-opacity="0" fill-rule="evenodd"/>
<text fill="#d9d9d9" xml:space="preserve" transform="matrix(.75 0 0 .75 90.36614 21.578742)" font-size="28" font-family="DroidSerif"><tspan y="35.879999" x="9 21.6 41.956 56.936 69.564 86.728008 95.66 105.51601 120.49601 136.34401 146.20001 163.95201 178.932 194.78 210.992 219.92401 232.55202 241.48403 257.64 275.7 291.54804 307.28404 325.34403 342.50804 358.35606 368.68806 384.42405 397.61204 410.24003 425.22004 440.20005 449.13206 467.19206 482.25605 498.10408 522.21206 531.14407 543.77206 560.93606 577.09207 603.52407 619.3721 635.5281 645.8601 661.7081 677.86416 695.61618 708.80416">&#x201c;Despite the vision and farseeing wisdom of our </tspan></text>
<text fill="#d9d9d9" xml:space="preserve" transform="matrix(.75 0 0 .75 90.36614 21.578742)" font-size="28" font-family="DroidSerif"><tspan y="69.88" x="9 33.108 48.844 62.032 71.888 80.82 107.252 122.232 133.20801 150.96 165.94 181.67601 198.84001 211.46802 222.44402 238.60002 248.93202 259.90803 272.536 282.392 298.128 307.98399 322.964 329.964 340.94 350.796 368.548 383.528 394.50404 411.66804 428.86006 444.65205 457.28004 466.21205 479.98805 488.92005 501.54804 511.40403 524.03207 535.00808 552.7601 568.4961 584.70809 599.68807 610.66409 620.9961 635.9761 644.65609 654.5121 665.4881 675.3441 693.0961 708.0761">wartime heads of state, the physicists have felt the </tspan></text>
<text fill="#d9d9d9" xml:space="preserve" transform="matrix(.75 0 0 .75 90.36614 21.578742)" font-size="28" font-family="DroidSerif"><tspan y="103.88" x="9 26.164002 41.144 54.920003 72.672008 81.352008 90.284008 106.020008 119.20801 127.88801 143.68001 152.248 161.18001 179.24 189.09601 198.02802 224.46002 240.19603 250.05204 265.03205 273.60008 286.78807 301.76808 314.39607 331.56007 347.71607 365.77607 378.40406 387.33607 404.50007 413.43208 422.11207 431.04408 440.90007 456.69206 465.26008 475.59208 491.74809 504.93608 513.504 526.132 543.88406 558.94808 574.0121 588.99209 601.62008 611.4761 620.4081 638.4681 653.5321 660.5321 669.1001 679.4321 695.58816 708.7761">peculiarly intimate responsibility for suggesting, for </tspan></text>
<text fill="#d9d9d9" xml:space="preserve" transform="matrix(.75 0 0 .75 90.36614 21.578742)" font-size="28" font-family="DroidSerif"><tspan y="137.88" x="9 21.628003 39.380006 56.544008 73.70801 89.864009 103.05201 112.90801 121.84001 139.90001 154.964 161.964 175.992 191.72801 209.78801 226.95201 240.98001 249.91202 267.97203 282.00004 291.85603 309.60804 324.58805 338.61607 353.59608 371.65608 388.82008 395.82008 409.84809 418.7801 436.8401 450.8681 459.5481 475.2841 488.47209 503.53608 518.51608 532.54409 558.9761 573.95608 589.6921 602.32009 620.0721 633.2601 648.24008 655.24008 669.26809 679.6001 695.7561 708.9441">supporting, and in the end, in large measure, for </tspan></text>
<text fill="#d9d9d9" xml:space="preserve" transform="matrix(.75 0 0 .75 90.36614 21.578742)" font-size="28" font-family="DroidSerif"><tspan y="171.88" x="9 24.736 38.512 56.264 65.196 80.176 96.388 105.32 123.380008 138.444 153.172 163.028 180.78 195.76 210.48799 223.676 238.65599 254.392 263.072 272.004 286.312 302.048 311.904 320.836 336.992 355.052 369.78004 385.93605 396.26805 410.99607 426.73207 436.58805 452.74406 479.17607 488.10807 501.88407 516.61209 540.7201 555.7001 571.4361 588.6001 604.7561 622.8161 635.4441 643.4521 658.1801 679.5441 695.70016 708.8881">achieving the realization of atomic weapons. Nor </tspan></text>
<text fill="#d9d9d9" xml:space="preserve" transform="matrix(.75 0 0 .75 90.36614 21.578742)" font-size="28" font-family="DroidSerif"><tspan y="205.88" x="9 22.776001 38.512 56.572004 68.836 92.944 107.924 120.188 130.52 146.67601 159.86402 174.92801 189.908 199.764 212.028 221.884 239.636 255.37201 265.228 277.492 287.348 305.1 320.08003 332.708 347.68803 359.95204 384.06004 399.04005 414.77604 431.94004 448.09605 466.15605 478.78404 491.04804 506.78404 519.41207 531.6761 541.5321 559.2841 574.2641 590.0561 602.3201 626.4281 641.4081 654.59609 669.57608 681.8401 690.7721 708.8321">can we forget that these weapons as they were in </tspan></text>
<text fill="#d9d9d9" xml:space="preserve" transform="matrix(.75 0 0 .75 90.36614 21.578742)" font-size="28" font-family="DroidSerif"><tspan y="239.88" x="9 19.332 35.068 48.844 58.700006 67.8 85.552 98.18 113.16 130.324 139.42401 156.58802 169.21602 184.95203 211.38404 227.12004 236.97605 245.90805 260.21607 275.19609 292.36009 301.46009 314.08808 330.24409 339.3441 365.7761 380.7561 393.9441 407.7201 416.6521 425.3321 440.3121 452.9401 465.56809 474.24809 490.04008 499.14009 508.99607 526.74807 541.728 550.82809 559.7601 577.82009 595.5721 613.3241 639.7561 655.4921 673.5521 682.48416 692.34017 708.13217">fact used dramatized so mercilessly the inhumanity </tspan></text>
<text fill="#d9d9d9" xml:space="preserve" transform="matrix(.75 0 0 .75 90.36614 21.578742)" font-size="28" font-family="DroidSerif"><tspan y="273.88" x="9 24.736 42.796 59.960004 67.912 82.892009 99.104007 108.036 116.716 124.668 140.824 151.156 159.108 185.54001 201.69602 218.86002 233.84001 247.02802 265.088 273.04005 297.14805 312.88404 326.07203 334.08003 342.03205 352.30805 370.36805 378.32008 390.94807 407.10408 433.53608 448.51609 456.4681 469.0961 485.2521 498.4401 508.29609 516.2481 532.4041 542.7361 550.6881 564.4641 577.6521 595.4041 612.5681 627.5481 635.5001 648.1281 663.1081 681.1681 693.7961 708.77609">and evil of modern war. In some sort of crude sense </tspan></text>
<text fill="#d9d9d9" xml:space="preserve" transform="matrix(.75 0 0 .75 90.36614 21.578742)" font-size="28" font-family="DroidSerif"><tspan y="307.88" x="9 33.108 50.86 59.792 73.568 91.32 107.252 125.312 141.468 157.4 173.612 191.364 200.044 215.108 230.84401 244.03202 252.96402 262.82 276.12 283.12 299.052 317.112 333.268 349.2 366.95204 384.70405 411.13606 427.29206 440.48005 447.48005 463.41206 481.47206 497.62806 513.56008 529.71609 545.92807 560.908 574.096 586.724 596.58 612.31607 622.17208 637.15206 663.58407 678.564 696.624 706.48007">which no vulgarity, no humor, no overstatement </tspan></text>
<text fill="#d9d9d9" xml:space="preserve" transform="matrix(.75 0 0 .75 90.36614 21.578742)" font-size="28" font-family="DroidSerif"><tspan y="341.88" x="9 22.776001 38.512 56.572004 65.084 82.248 100 108.932 118.788 133.768 142.28 157.26 173.444 183.3 192.23201 210.292 225.356 243.108 252.04001 264.668 282.42 289.42 297.93205 307.78804 325.54005 340.52006 349.03208 366.19609 383.3881 399.18009 411.80809 420.74009 434.51609 443.4481 456.07609 465.93208 478.56007 487.07209 504.8241 520.5601 536.7721 551.7521 560.2641 576.6161 594.6761 610.8321 634.94009 653.00009 661.5121 674.1401 683.0721 701.1321 708.1321">can quite extinguish, the physicists have known sin; </tspan></text>
<text fill="#d9d9d9" xml:space="preserve" transform="matrix(.75 0 0 .75 90.36614 21.578742)" font-size="28" font-family="DroidSerif"><tspan y="375.88" x="9 24.736 42.796 59.960004 67.212009 77.06801 94.82001 103.75201 116.380008 123.632 132.56401 145.19202 152.44402 168.18003 175.43202 191.78403 209.84403 226.00003 250.10803 258.78804 273.76805 290.93205 305.99604 320.97605 328.22807 352.33607 370.08808 379.02009 392.79609 410.5481 417.8001 427.6561 445.4081 460.38813 476.1801 483.43214 497.20814 512.94418 531.00418 549.06417 565.22018 575.0762 582.3282 591.0082 607.1642 619.7922 634.77218 642.78018 655.3801">and this is a knowledge which they cannot lose.&#x201d; </tspan></text>
<text fill="#d9d9d9" xml:space="preserve" transform="matrix(.75 0 0 .75 90.36614 21.578742)" font-size="28" font-family="DroidSerif"><tspan y="443.88" x="9 37 44.252 62.592 78.748 95.912 110.892009 124.08001 133.936 141.188 151.156 159.164 166.416 187.192 204.356 221.52 236.5 254.56 272.312 287.29203 296.22404 322.65605 337.63606 350.82405 358.07606 367.76405 383.41606 399.06806 414.72007 430.37208">&#x2014; Robert J. Oppenheimer (1947)</tspan></text>
</g>
</g>
</g>
</svg>
