<?xml version="1.0" encoding="UTF-8" standalone="no"?>
<!DOCTYPE svg PUBLIC "-//W3C//DTD SVG 1.1//EN" "http://www.w3.org/Graphics/SVG/1.1/DTD/svg11.dtd">
<svg xmlns="http://www.w3.org/2000/svg" xmlns:xlink="http://www.w3.org/1999/xlink" version="1.1" width="720pt" height="405pt" viewBox="0 0 720 405">
<g enable-background="new">
<g>
<clipPath id="cp25">
<path transform="matrix(.001968504,0,0,.001968504,0,0)" d="M 0 0 L 365760 0 L 365760 205740 L 0 205740 L 0 0 Z "/>
</clipPath>
<g clip-path="url(#cp25)">
<path transform="matrix(.001968504,0,0,.001968504,0,0)" d="M 0 0 L 365568 0 L 365568 205740 L 0 205740 Z " fill-opacity=".2577" fill-rule="evenodd"/>
<path transform="matrix(.001968504,0,0,.001968504,0,0)" d="M 45906 10962 L 324510 10962 L 324510 31266 L 45906 31266 Z " fill-opacity="0" fill-rule="evenodd"/>
<text fill="#ffffff" xml:space="preserve" transform="matrix(.75 0 0 .75 90.36614 21.578742)" font-size="24" font-family="DroidSerif" font-style="italic"><tspan y="32.04" x="38.100557 52.980558 67.35656 81.13256 89.96456 103.74056 117.084568 127.81257 141.70858 155.55658 169.93259 176.14859 188.79659 202.57259 216.9486 228.15659 234.37259 246.03659 259.9326 274.3086 288.2046 295.50059 307.33259 313.54859 327.44459 340.78858 354.68458 361.98057 376.35658 382.35658 388.57258 402.06059 416.43659 425.2686 431.4846 440.3166 454.6926 461.9886 473.1006 479.3166 488.1486 495.44459 516.92459 528.7566 534.9726 548.7486 563.1246 570.4206 583.0686 589.2846 598.1166 612.49258 624.3246 630.5406 638.14859 645.4446 659.3406 680.82058">Photograph your candle again, but this time only the flame</tspan></text>
<path transform="matrix(.001968504,0,0,.001968504,0,0)" d="M 70956 31266 L 294804 31266 L 294804 199302 L 70956 199302 Z " fill-opacity=".2577" fill-rule="evenodd"/>
<path transform="matrix(.001968504,0,0,.001968504,0,0)" stroke-width="381" stroke-linecap="butt" stroke-linejoin="round" fill="none" stroke="#00ffff" d="M 70956 31266 L 294804 31266 L 294804 199302 L 70956 199302 Z "/>
</g>
</g>
</g>
</svg>
