<?xml version="1.0" encoding="UTF-8" standalone="no"?>
<!DOCTYPE svg PUBLIC "-//W3C//DTD SVG 1.1//EN" "http://www.w3.org/Graphics/SVG/1.1/DTD/svg11.dtd">
<svg xmlns="http://www.w3.org/2000/svg" xmlns:xlink="http://www.w3.org/1999/xlink" version="1.1" width="720pt" height="405pt" viewBox="0 0 720 405">
<g enable-background="new">
<g>
<clipPath id="cp26">
<path transform="matrix(.001968504,0,0,.001968504,0,0)" d="M 0 0 L 365760 0 L 365760 205740 L 0 205740 L 0 0 Z "/>
</clipPath>
<g clip-path="url(#cp26)">
<path transform="matrix(.001968504,0,0,.001968504,0,0)" d="M 0 0 L 365568 0 L 365568 205740 L 0 205740 Z " fill-rule="evenodd"/>
<path transform="matrix(.001968504,0,0,.001968504,0,0)" d="M 45906 10962 L 319662 10962 L 319662 194778 L 45906 194778 Z " fill-opacity="0" fill-rule="evenodd"/>
<text fill="#d99a97" xml:space="preserve" transform="matrix(.75 0 0 .75 90.36614 21.578742)" font-size="32" font-family="DroidSerif"><tspan y="77.72" x="9 20.744 41.384004 60.552007 78.44 96.328 114.216 132.104 140.104 159.272 170.53601 190.824 207.944 227.112 242.856 261.32 271.24003 290.85603 310.02403 337.57603 355.56004 370.63203 389.80003 409.41603 426.536 437.80003 465.35203 482.47203 499.592 520.232 539.4 550.664 570.952 588.072 607.24008 630.15206 650.79208 661.00009 672.26406 689.38406 709.00009">In 1962, the cold war between the United </tspan></text>
<text fill="#d99a97" xml:space="preserve" transform="matrix(.75 0 0 .75 90.36614 21.578742)" font-size="32" font-family="DroidSerif"><tspan y="115.72" x="9 26.376002 37.640005 55.624006 66.88801 84.00801 98.44001 110.92001 128.90402 149.54402 169.16002 181.64002 192.90402 213.19202 230.31201 242.792 260.168 278.632 297.16 307.368 324.488 335.752 348.232 371.14399 391.784 401.992 420.456 441.096 453.576 468.64799 485.76799 503.75199 519.496 539.784 556.904 576.52 589.00009 606.9841 619.4641 635.2081 650.28018 660.48818 674.92019 685.1282 699.5602 708.71218">States and the Soviet Union reached a crisis. </tspan></text>
<text fill="#d99a97" xml:space="preserve" transform="matrix(.75 0 0 .75 90.36614 21.578742)" font-size="32" font-family="DroidSerif"><tspan y="153.72" x="9 31.912 49.288003 57.576005 77.192 94.312007 108.744 120.008 135.08 152.904 170.95201 188.072 203.14402 217.57602 225.86402 246.15201 266.79203 286.40803 303.528 318.6 326.888 345.352 360.42399 380.03999 397.15998 412.23197 426.66398 434.95198 446.21598 464.67997 472.96797 490.08796 510.72798 522.53598 540.99996 556.07199 571.816 588.936 597.224 615.208">US destroyers under orders to enforce a </tspan></text>
<text fill="#d99a97" xml:space="preserve" transform="matrix(.75 0 0 .75 90.36614 21.578742)" font-size="32" font-family="DroidSerif"><tspan y="153.72" x="624 644.64 662.624 681.15206 699.13607 709.056">naval </tspan></text>
<text fill="#d99a97" xml:space="preserve" transform="matrix(.75 0 0 .75 90.36614 21.578742)" font-size="32" font-family="DroidSerif"><tspan y="191.72" x="9 28.616002 48.904 66.888 81.32 99.304 119.944 131.20801 141.41602 162.05602 179.17601 197.25601 215.72002 227.52802 245.60802 265.22404 285.51203 305.12803 323.11204 341.19203 360.808 371.01603 390.63203 408.712 429.35203 447.816 459.08003 477.16 495.848 516.488 534.95199 562.50399 580.584 591.84799 612.136 630.12 641.384 659.464 670.72799 691.016 708.136">quarantine of Cuba did not know that the </tspan></text>
<text fill="#d99a97" xml:space="preserve" transform="matrix(.75 0 0 .75 90.36614 21.578742)" font-size="32" font-family="DroidSerif"><tspan y="229.72" x="9 23.432002 43.72 63.336004 93.54401 111.52801 126.600009 136.80802 157.44802 174.56801 189.00002 206.376 217.64002 237.92801 255.048 272.424 289.80003 308.264 326.79203 337.00004 354.12004 365.38404 379.81605 397.19206 417.48005 435.46406 455.08006 472.45606 486.88807 504.00807 524.6481 535.91207 553.2881 564.55209 583.01608 600.3921 620.0081 635.08016 653.5441 664.8081 681.9281 697.6721 708.9361">submarines the Soviets had sent to protect </tspan></text>
<text fill="#d99a97" xml:space="preserve" transform="matrix(.75 0 0 .75 90.36614 21.578742)" font-size="32" font-family="DroidSerif"><tspan y="267.72" x="9 20.264 40.552003 57.672006 67.880008 82.952 98.632 113.064 133.352 143.56 163.176 177.608 193.288 220.84 237.95999 253.032 270.152 285.832 301.576 319.56 334.632 349.70399 367.75199 377.96 398.6 415.816 431.496 452.13603 472.424 488.168 498.088 515.208 533.192 548.26406 563.9441 591.4961 608.6161 626.6001 646.2161 664.6801 685.3201 699.75216 708.9041">their ships were carrying nuclear weapons. </tspan></text>
<text fill="#d99a97" xml:space="preserve" transform="matrix(.75 0 0 .75 90.36614 21.578742)" font-size="32" font-family="DroidSerif"><tspan y="305.72" x="9 26.376002 44.840005 56.136007 67.40001 87.68801 104.808017 116.10402 138.66402 168.87203 185.99202 201.06403 211.27204 227.01604 245.00003 265.64006 280.07206 291.36805 310.98405 328.10404 345.32005 363.30406 383.94407 395.24006 407.04808 417.25608 432.32807 442.53608 463.1761 480.3921 491.68809 511.30409 528.4241 548.0401 559.3041 579.5921 590.8881 606.63217 626.92019 644.9042 659.9762 677.1922 694.3122 708.7442">So the Americans began firing depth charges </tspan></text>
<text fill="#d99a97" xml:space="preserve" transform="matrix(.75 0 0 .75 90.36614 21.578742)" font-size="32" font-family="DroidSerif"><tspan y="343.72" x="9 20.264 38.728 59.656 71.464 89.92799 104.99999 120.743999 137.864 158.79199 170.056 190.344 207.46399 228.39199 242.82399 263.112 282.728 312.936 330.92 345.992 356.2 376.84004 393.96003 408.39204 429.32005 440.58406 459.04804 479.97605 491.24006 511.52806 528.6481 549.5761 564.0081 584.29617 599.36819 611.17617 629.16018 644.9042 662.0242 670.0242 690.9522 708.9362">to force the submarines to the surface, a </tspan></text>
<text fill="#d99a97" xml:space="preserve" transform="matrix(.75 0 0 .75 90.36614 21.578742)" font-size="32" font-family="DroidSerif"><tspan y="381.72" x="9 39.208 57.672 76.200008 93.32001 103.94401 115.20801 135.496 152.616 163.23999 180.616 199.08 217.608 227.81601 244.936 256.2 270.63203 281.256 299.72 320.36003 330.984 350.6 369.064 387.048 402.12 421.736 432.36 442.568 463.208 474.47203 491.592 506.664 526.28 541.35208 558.47207 569.736 586.856 606.47207 617.09609 635.0801 649.5121 660.1361 671.4001 691.6881 708.8081">move the Soviets on board interpreted as the </tspan></text>
<text fill="#d99a97" xml:space="preserve" transform="matrix(.75 0 0 .75 90.36614 21.578742)" font-size="32" font-family="DroidSerif"><tspan y="419.72" x="9 23.432002 34.696004 52.680006 67.75201 79.01601 87.30401 105.768009 117.576007 125.864009 157.416 175.88 190.95201 200.87201 220.488 228.776 260.68 278.664 293.736 302.024 313.76799 325.51197 337.25596">start of World War III.</tspan></text>
</g>
</g>
</g>
</svg>
