<?xml version="1.0" encoding="UTF-8" standalone="no"?>
<!DOCTYPE svg PUBLIC "-//W3C//DTD SVG 1.1//EN" "http://www.w3.org/Graphics/SVG/1.1/DTD/svg11.dtd">
<svg xmlns="http://www.w3.org/2000/svg" xmlns:xlink="http://www.w3.org/1999/xlink" version="1.1" width="720pt" height="405pt" viewBox="0 0 720 405">
<g enable-background="new">
<g>
<clipPath id="cp27">
<path transform="matrix(.001968504,0,0,.001968504,0,0)" d="M 0 0 L 365760 0 L 365760 205740 L 0 205740 L 0 0 Z "/>
</clipPath>
<g clip-path="url(#cp27)">
<path transform="matrix(.001968504,0,0,.001968504,0,0)" d="M 0 0 L 365568 0 L 365568 205740 L 0 205740 Z " fill-rule="evenodd"/>
<path transform="matrix(.001968504,0,0,.001968504,0,0)" d="M 45906 10962 L 319662 10962 L 319662 194778 L 45906 194778 Z " fill-opacity="0" fill-rule="evenodd"/>
<text fill="#d97d74" xml:space="preserve" transform="matrix(.75 0 0 .75 90.36614 21.578742)" font-size="32" font-family="DroidSerif"><tspan y="153.72" x="9 23.400002 54.952005 72.07201 80.07201 95.144008 112.26401 123.336009 140.552 159.016 169.224 189.864 207.08 218.152 229.416 247.88 258.952 278.568 288.488 306.47203 320.90403 332.16804 343.24003 354.50404 374.79203 391.91203 422.12004 433.19203 453.83204 472.29603 499.84803 510.50404 521.57608 553.12808 570.24807 581.32009 608.8721 619.0801 629.00009 638.92007 649.99209 669.6081 679.8161 696.9361 704.9361">&#x201c;We&#x2019;re going to blast them now! We will die, </tspan></text>
<text fill="#d97d74" xml:space="preserve" transform="matrix(.75 0 0 .75 90.36614 21.578742)" font-size="32" font-family="DroidSerif"><tspan y="191.72" x="9 28.616002 48.904 60.168 84.904 112.456 129.576 154.312 181.864 192.07199 201.99199 211.91199 236.64798 251.07999 261.288 281.928 300.616 325.352 336.616 356.904 374.024 404.232 428.968 446.952 456.872 466.79203 475.94404 500.68003 532.23208 549.35208 574.0881 601.6401 611.8481 621.76809 631.68807 656.4241 677.0641 695.5281 706.79208">but we will sink them all. We will not </tspan></text>
<text fill="#d97d74" xml:space="preserve" transform="matrix(.75 0 0 .75 90.36614 21.578742)" font-size="32" font-family="DroidSerif"><tspan y="229.72" x="9 28.616002 38.824 53.256006 70.47201 84.90401 102.88801 118.63201 135.75202 144.04001 162.50402 182.792 197.86402 206.15201 226.792 244.776 263.30403 278.50404 286.50404 300.90403">disgrace our navy,&#x201d; </tspan></text>
<text fill="#d97d74" xml:space="preserve" transform="matrix(.75 0 0 .75 90.36614 21.578742)" font-size="29.333334" font-family="DroidSerif"><tspan y="303.16" x="9 38.333337 45.930669 63.912004 80.39734 98.37868 108.70401 125.18935 134.54668 153.46668 161.06401 179.07469 195.56003 204.65337 220.3467 239.2667 249.59203 258.94938 277.8694 285.4667 306.38139 320.1974 329.55473 345.33607 362.26139 376.0774 385.43473 401.12806 418.11207 427.4694 437.79475 452.22676 470.82408 478.4214 494.3494 510.83473 527.8187 537.1761 547.5014 560.7307 577.8614 594.4054 602.00277 612.1521 628.54946 644.9468 661.3441 677.74148">&#x2014; Captain Valentin Grigorievitch Savitsky (1962)</tspan></text>
</g>
</g>
</g>
</svg>
