<?xml version="1.0" encoding="UTF-8" standalone="no"?>
<!DOCTYPE svg PUBLIC "-//W3C//DTD SVG 1.1//EN" "http://www.w3.org/Graphics/SVG/1.1/DTD/svg11.dtd">
<svg xmlns="http://www.w3.org/2000/svg" xmlns:xlink="http://www.w3.org/1999/xlink" version="1.1" width="720pt" height="405pt" viewBox="0 0 720 405">
<g enable-background="new">
<g>
<clipPath id="cp28">
<path transform="matrix(.001968504,0,0,.001968504,0,0)" d="M 0 0 L 365760 0 L 365760 205740 L 0 205740 L 0 0 Z "/>
</clipPath>
<g clip-path="url(#cp28)">
<path transform="matrix(.001968504,0,0,.001968504,0,0)" d="M 0 0 L 365568 0 L 365568 205740 L 0 205740 Z " fill-rule="evenodd"/>
<path transform="matrix(.001968504,0,0,.001968504,0,0)" d="M 45906 10962 L 319662 10962 L 319662 104514 L 45906 104514 Z " fill-opacity="0" fill-rule="evenodd"/>
<text fill="#d94a4a" xml:space="preserve" transform="matrix(.75 0 0 .75 90.36614 21.578742)" font-size="32" font-family="DroidSerif"><tspan y="39.72" x="9 28.584002 48.872 65.992008 96.87201 106.79201 124.77601 145.06401 165.70401 181.44802 201.73601 232.616 251.08 262.888 293.768 305.032 325.32 342.44 373.32 387.752 408.04 427.656 457.864 475.84803 490.92 501.12803 521.768 538.888 545.32 559.752 590.632 611.27206 631.56008 647.3041 657.22409 674.34408 692.32809 707.4001">The launch of the submarine&#x2019;s nuclear </tspan></text>
<text fill="#d94a4a" xml:space="preserve" transform="matrix(.75 0 0 .75 90.36614 21.578742)" font-size="32" font-family="DroidSerif"><tspan y="77.72" x="9 20.264 38.728 53.800004 73.416 90.536 110.15201 128.61602 150.34401 165.41602 182.53601 202.15201 222.44 232.64801 247.72002 264.84004 284.45603 306.18403 317.44804 337.73603 354.85603 376.584 392.328 410.792 431.432 445.864 462.984 483.62403 494.88804 516.616 535.08 546.888 568.616 586.60006 596.52 606.44 628.168 639.432 659.72006 674.79208 691.91207 709.03207">torpedo required the consent of all three </tspan></text>
<text fill="#d94a4a" xml:space="preserve" transform="matrix(.75 0 0 .75 90.36614 21.578742)" font-size="32" font-family="DroidSerif"><tspan y="115.72" x="9 23.432002 40.552003 61.192 71.4 89.864 104.936 136.104 154.56801 166.376 178.184 188.392 204.136 221.256 236.328 250.76001 281.928 299.91203 319.528 337.992 355.976 371.048 390.664 399.848 431.016 450.632 468.616 488.232 499.496 517.48 527.688 548.328 579.49606 599.14407 617.12808 627.04806 644.168 664.80807 676.072 686.28 706.92007">senior officers aboard: Captain Valentin </tspan></text>
<text fill="#d94a4a" xml:space="preserve" transform="matrix(.75 0 0 .75 90.36614 21.578742)" font-size="32" font-family="DroidSerif"><tspan y="153.72" x="9 31.816002 46.888 57.096 74.312007 92.776 107.848 118.056 135.176 153.704 163.91199 175.176 190.92 211.208 228.872 246.248 264.232 282.76 292.96803 304.23204 318.66404 337.35203 352.55204 360.55204 378.21604 397.83204 416.29603 426.21604 436.42405 447.68806 457.89607 473.64006 491.62406 501.54408 519.20809 537.67208 549.48007 561.288 571.49606 587.24008 604.36007 619.43209 637.09609 648.8401 667.3681 685.3521 705.9921">Grigorievitch Savitsky, political officer Ivan </tspan></text>
<text fill="#d94a4a" xml:space="preserve" transform="matrix(.75 0 0 .75 90.36614 21.578742)" font-size="32" font-family="DroidSerif"><tspan y="191.72" x="9 26.376002 43.496004 73.704 92.168 112.808 131.272 149.8 160.008 175.752 196.04 204.04 218.53598 236.51999 257.16 276.776 291.272 305.704 322.824 338.568 357.03199 377.672 397.288 411.784 421.992 442.63203 457.12803 472.872 491.336 521.544 551.752 569.736 590.37606 609.99209 624.4881 644.1361 662.1201 676.5521 686.76016 696.6801 706.8881">Semonovich, and second in command Vasili </tspan></text>
<text fill="#d94a4a" xml:space="preserve" transform="matrix(.75 0 0 .75 90.36614 21.578742)" font-size="32" font-family="DroidSerif"><tspan y="229.72" x="9 31.560002 46.632005 65.32001 85.60801 95.81601 115.43201 133.89601 150.216">Arkhipov.</tspan></text>
<path transform="matrix(.001968504,0,0,.001968504,0,0)" d="M 85638 113134 L 277914 113134 L 277914 201466 L 85638 201466 Z " fill-rule="evenodd"/>
<path transform="matrix(.001968504,0,0,.001968504,0,0)" stroke-width="381" stroke-linecap="butt" stroke-linejoin="round" fill="none" stroke="#434343" d="M 85638 113134 L 277914 113134 L 277914 201466 L 85638 201466 Z "/>
<path transform="matrix(.001968504,0,0,.001968504,0,0)" d="M 30554.159 104514.04 L 90278.16 115254.04 L 74642.16 202194.05 L 14918.159 191454.05 Z " fill-rule="evenodd"/>
<path transform="matrix(.001968504,0,0,.001968504,0,0)" stroke-width="381" stroke-linecap="butt" stroke-linejoin="round" fill="none" stroke="#980000" d="M 30554.159 104514.04 L 90278.16 115254.04 L 74642.16 202194.05 L 14918.159 191454.05 Z "/>
<path transform="matrix(.001968504,0,0,.001968504,0,0)" d="M 274999.45 110277.089 L 334807.45 100029.089 L 349735.45 187089.08 L 289927.45 197337.08 Z " fill-rule="evenodd"/>
<path transform="matrix(.001968504,0,0,.001968504,0,0)" stroke-width="381" stroke-linecap="butt" stroke-linejoin="round" fill="none" stroke="#980000" d="M 274999.45 110277.089 L 334807.45 100029.089 L 349735.45 187089.08 L 289927.45 197337.08 Z "/>
</g>
</g>
</g>
</svg>
