<?xml version="1.0" encoding="UTF-8" standalone="no"?>
<!DOCTYPE svg PUBLIC "-//W3C//DTD SVG 1.1//EN" "http://www.w3.org/Graphics/SVG/1.1/DTD/svg11.dtd">
<svg xmlns="http://www.w3.org/2000/svg" xmlns:xlink="http://www.w3.org/1999/xlink" version="1.1" width="720pt" height="405pt" viewBox="0 0 720 405">
<g enable-background="new">
<g>
<clipPath id="cp38">
<path transform="matrix(.001968504,0,0,.001968504,0,0)" d="M 0 0 L 365760 0 L 365760 205740 L 0 205740 L 0 0 Z "/>
</clipPath>
<g clip-path="url(#cp38)">
<path transform="matrix(.001968504,0,0,.001968504,0,0)" d="M 0 0 L 365568 0 L 365568 205740 L 0 205740 Z " fill-rule="evenodd"/>
<path transform="matrix(.001968504,0,0,.001968504,0,0)" d="M 45906 10962 L 319662 10962 L 319662 194778 L 45906 194778 Z " fill-opacity="0" fill-rule="evenodd"/>
<text fill="#d90000" xml:space="preserve" transform="matrix(.75 0 0 .75 90.36614 21.578742)" font-size="32" font-family="DroidSerif"><tspan y="153.72" x="9 23.400002 53.384004 71.43201 85.35201 101.096019 119.56001 135.91202 153.96002 167.88002 185.86402 200.93602 231.14403 246.88803 267.17604 285.16004 295.36805 310.44004 324.36003 336.16804 353.28804 363.20805 374.47206 388.39204 398.31205 408.52006 426.56803 443.68803 457.608 475.592 489.512 504.58399 521.704 541.32 551.24 571.528 589.992 601.256 615.176 626.984 642.056 660.104 670.312 690.952 708.168">&#x201c;My cozy armchair felt like a red-hot frying </tspan></text>
<text fill="#d90000" xml:space="preserve" transform="matrix(.75 0 0 .75 90.36614 21.578742)" font-size="32" font-family="DroidSerif"><tspan y="191.72" x="9 28.616002 46.600004 67.240009 75.240009 93.54401 111.52801 132.16802 151.78401 170.08802 200.29602 218.34403 236.64803 246.56803 263.68803 280.90403 295.33604 313.64 341.19203 358.312 378.95204 390.21604 408.52003 418.44004 428.64805 458.85606 478.47206 487.62406 505.92805 524.23208 535.9761 554.2801 566.0881 583.20809 593.12808 604.392 622.69607 632.616 642.82406 660.872 677.992 696.296 708.04006">pan, and my legs went limp.  I felt like I </tspan></text>
<text fill="#d90000" xml:space="preserve" transform="matrix(.75 0 0 .75 90.36614 21.578742)" font-size="32" font-family="DroidSerif"><tspan y="229.72" x="9 24.744 43.208 63.496004 73.416 93.032 112.392 119.432 130.696 140.36 157.48 176.008 193.12799 213.76799 223.43199 237.864 249.128 267.112 287.752 307.368 317.032 337.32 356.936 366.088 375.752 385.41603 405.00004 425.28804 443.27204 454.53605 461.57606 476.00807 485.67207 505.96006 524.4241 551.9761 561.6401 582.2801 599.4001 614.4721 633.0001 651.4641 671.75216 686.18417 695.84817 707.59219">couldn't even stand up.  That's how nervous I </tspan></text>
<text fill="#d90000" xml:space="preserve" transform="matrix(.75 0 0 .75 90.36614 21.578742)" font-size="32" font-family="DroidSerif"><tspan y="267.72" x="9 36.552003 54.536005 68.968 77.256008 104.80801 125.09601 142.216 162.856 171.144 182.888 191.176 218.728 236.712 251.14402 259.432 289.64 307.62403 326.312 336.52003 357.16004 374.37605 382.66404 393.92805 414.21604 424.42405 438.85606 447.14405 466.76005 483.88005 499.62403 509.83204 524.26406 534.47207 552.93606 573.57608 582.728">was when I was making this decision.&#x201d;</tspan></text>
<text fill="#d90000" xml:space="preserve" transform="matrix(.75 0 0 .75 90.36614 21.578742)" font-size="32" font-family="DroidSerif"><tspan y="343.72" x="9 41 49.288003 66.664 77.928 95.912 116.552 126.76 141.192 151.112 169.09601 187.62401 195.912 215.24 232.36 243.62401 258.696 277.16">&#x2014; Stanislav Petrov</tspan></text>
</g>
</g>
</g>
</svg>
