<?xml version="1.0" encoding="UTF-8" standalone="no"?>
<!DOCTYPE svg PUBLIC "-//W3C//DTD SVG 1.1//EN" "http://www.w3.org/Graphics/SVG/1.1/DTD/svg11.dtd">
<svg xmlns="http://www.w3.org/2000/svg" xmlns:xlink="http://www.w3.org/1999/xlink" version="1.1" width="720pt" height="405pt" viewBox="0 0 720 405">
<g enable-background="new">
<g>
<clipPath id="cp39">
<path transform="matrix(.001968504,0,0,.001968504,0,0)" d="M 0 0 L 365760 0 L 365760 205740 L 0 205740 L 0 0 Z "/>
</clipPath>
<g clip-path="url(#cp39)">
<path transform="matrix(.001968504,0,0,.001968504,0,0)" d="M 0 0 L 365568 0 L 365568 205740 L 0 205740 Z " fill-rule="evenodd"/>
<path transform="matrix(.001968504,0,0,.001968504,0,0)" d="M 46002 89754 L 319758 89754 L 319758 115986 L 46002 115986 Z " fill-opacity="0" fill-rule="evenodd"/>
<text fill="#d90000" xml:space="preserve" transform="matrix(.75 0 0 .75 90.555118 176.68109)" font-size="32" font-family="DroidSerif" font-style="italic"><tspan y="39.72" x="226.54892 251.89292 270.26094 279.98893 298.51695 306.80494 323.66896 342.03697 361.20497 376.14897 384.43696 402.42097 417.36497 433.14097 451.66899 463.44499 482.61299">Hold your breath.</tspan></text>
</g>
</g>
</g>
</svg>
