<?xml version="1.0" encoding="UTF-8" standalone="no"?>
<!DOCTYPE svg PUBLIC "-//W3C//DTD SVG 1.1//EN" "http://www.w3.org/Graphics/SVG/1.1/DTD/svg11.dtd">
<svg xmlns="http://www.w3.org/2000/svg" xmlns:xlink="http://www.w3.org/1999/xlink" version="1.1" width="720pt" height="405pt" viewBox="0 0 720 405">
<g enable-background="new">
<g>
<clipPath id="cp9">
<path transform="matrix(.001968504,0,0,.001968504,0,0)" d="M 0 0 L 365760 0 L 365760 205740 L 0 205740 L 0 0 Z "/>
</clipPath>
<g clip-path="url(#cp9)">
<path transform="matrix(.001968504,0,0,.001968504,0,0)" d="M 0 0 L 365568 0 L 365568 205740 L 0 205740 Z " fill-opacity=".2577" fill-rule="evenodd"/>
<path transform="matrix(.001968504,0,0,.001968504,0,0)" d="M 45906 10962 L 319662 10962 L 319662 194778 L 45906 194778 Z " fill-opacity="0" fill-rule="evenodd"/>
<text fill="#ffffff" xml:space="preserve" transform="matrix(.75 0 0 .75 90.36614 21.578742)" font-size="32" font-family="DroidSerif"><tspan y="77.72" x="9 23.400002 35.144 46.408 60.904 76.648 93.768009 108.840007 120.104007 138.08802 148.29602 168.93602 178.85602 196.90402 211.40003 221.60803 236.04004 250.53604 271.17607 289.64006 300.90406 315.40007 333.38407 347.88008 359.14408 374.21607 394.50407 411.62406 426.12007 436.32807 456.96809 471.4001 482.6641 492.8721 513.5121 529.2561 540.5201 548.5201 563.0161 574.8241 593.2881 608.3601 622.85617 639.97616 658.50418 675.62417 690.69619 708.74417">&#x201c;It certainly is not a true instinct, for every </tspan></text>
<text fill="#ffffff" xml:space="preserve" transform="matrix(.75 0 0 .75 90.36614 21.578742)" font-size="32" font-family="DroidSerif"><tspan y="115.72" x="9 18.92 36.904 57.544 74.76 95.048007 113.032009 130.248 147.368 157.064 177.35199 195.336 209.768 219.464 230.72801 249.19202 258.888 278.504 295.624 305.31999 315.24 332.36 350.344 365.416 386.056 397.32 406.47203 416.168 427.912 439.176 448.87199 468.48799 478.69599 490.504 502.312 519.432 534.504 548.93606 556.93606 566.6321 586.9201 605.3841 632.9361 650.0561 668.5841 685.7041 700.7761 708.7761">language has to be learnt. It differs, however, </tspan></text>
<text fill="#ffffff" xml:space="preserve" transform="matrix(.75 0 0 .75 90.36614 21.578742)" font-size="32" font-family="DroidSerif"><tspan y="153.72" x="9 36.552003 46.760004 66.37601 83.49601 93.41601 111.464008 121.032009 132.84001 147.91202 166.37602 196.58403 206.15203 224.13602 234.05602 243.97602 253.544 272.008 287.08 306.69599 316.904 337.544 355.528 370.6 388.648 398.216 416.2 431.272 442.536 456.96803 464.96803 474.536 486.34403 504.808 519.88 529.44808 559.65609 577.6401 598.2801 607.84817 628.13619 646.1202 660.5522 670.12026 688.10427 708.74429">widely from all ordinary arts, for man has an </tspan></text>
<text fill="#ffffff" xml:space="preserve" transform="matrix(.75 0 0 .75 90.36614 21.578742)" font-size="32" font-family="DroidSerif"><tspan y="191.72" x="9 19.208 39.848 54.28 65.544 75.752 96.392 112.136 123.4 133.608 152.136 169.256 177.79999 189.064 206.18399 226.82399 246.43999 263.56 284.2 299.944 317.992 326.536 337.80003 356.264 364.808 379.24003 398.85603 415.976 433.96003 452.648 460.648 469.19203 487.17604 501.60804 510.15205 537.70407 554.82406 563.36807 577.80007 594.92007 612.04006 620.58407 630.79208 651.43209 659.9761 671.24008 691.5281 708.6481">instinctive tendency to speak, as we see in the </tspan></text>
<text fill="#ffffff" xml:space="preserve" transform="matrix(.75 0 0 .75 90.36614 21.578742)" font-size="32" font-family="DroidSerif"><tspan y="229.72" x="9 28.616002 46.600004 66.216 85.832 95.752 112.872 123.144008 141.608 153.416 163.68799 182.152 202.43999 217.512 227.78398 245.83199 264.296 284.58399 305.224 322.44 332.712 348.456 368.744 378.952 388.872 408.488 423.56 440.68 461.32 469.32 479.592 507.144 527.432 537.64 547.56 561.992 573.256 583.528 604.168 622.632 632.90408 648.6481 668.9361 679.1441 689.0641 708.6801">babble of our young children; whilst no child </tspan></text>
<text fill="#ffffff" xml:space="preserve" transform="matrix(.75 0 0 .75 90.36614 21.578742)" font-size="32" font-family="DroidSerif"><tspan y="267.72" x="9 29.288 47.272005 61.704004 72.552 90.536 111.176 122.024 132.232 152.872 167.304 178.56801 188.776 209.416 225.16 236.42401 246.63202 265.16004 282.28004 293.12803 304.39204 321.51203 342.15205 361.76805 378.88804 399.52806 415.27204 433.32005 444.16804 455.43205 473.89604 484.74403 504.36003 519.432 536.552 561.896 569.896 580.744 600.36007 618.34408 636.392 653.512 661.512 672.36007 690.82406 705.89608">has an instinctive tendency to brew, bake, or </tspan></text>
<text fill="#ffffff" xml:space="preserve" transform="matrix(.75 0 0 .75 90.36614 21.578742)" font-size="32" font-family="DroidSerif"><tspan y="305.72" x="9 36.552003 51.624 61.832 73.096 90.216 99.368007 113.768009">write.&#x201d; </tspan></text>
<text fill="#ffffff" xml:space="preserve" transform="matrix(.75 0 0 .75 90.36614 21.578742)" font-size="32" font-family="DroidSerif"><tspan y="381.72" x="9 41 49.288003 68.90401 89.19201 107.17601 122.24801 132.16802 149.28801 163.72002 172.00801 195.27202 213.25601 228.32802 255.88002 266.088 286.72804 294.72804 303.01603 326.28004 343.40003 357.83204 373.57603 390.696 411.33604 422.60005 430.88804 449.35203 461.16004 469.44804 499.43205 517.416 538.056 546.34408 557.4161 575.3041 593.1921 611.0801 628.9681">&#x2014; Charles Darwin, Descent of Man (1871)</tspan></text>
</g>
</g>
</g>
</svg>
