<?xml version="1.0" encoding="UTF-8" standalone="no"?>
<!DOCTYPE svg PUBLIC "-//W3C//DTD SVG 1.1//EN" "http://www.w3.org/Graphics/SVG/1.1/DTD/svg11.dtd">
<svg xmlns="http://www.w3.org/2000/svg" xmlns:xlink="http://www.w3.org/1999/xlink" version="1.1" width="720pt" height="405pt" viewBox="0 0 720 405">
<g enable-background="new">
<g>
<clipPath id="cp1">
<path transform="matrix(.001968504,0,0,.001968504,0,0)" d="M 0 0 L 365760 0 L 365760 205740 L 0 205740 L 0 0 Z "/>
</clipPath>
<g clip-path="url(#cp1)">
<path transform="matrix(.001968504,0,0,.001968504,0,0)" d="M 12468 17801 L 353292 17801 L 353292 60881 L 12468 60881 Z " fill-opacity=".2291" fill-rule="evenodd"/>
<text xml:space="preserve" transform="matrix(.75 0 0 .75 24.543309 35.04134)" font-size="49.333333" font-family="ArialMT"><tspan y="56.359998" x="9 41.856 52.808 88.42667 115.856 140.52268 165.18935 178.85468 206.28401 233.71335 261.14268 285.80934 299.47468 326.904 354.3333 367.99867 381.664 409.09333 436.52265 450.188 483.04399 499.472 510.42399 537.85336 565.28268 578.948 592.61337 625.46939 636.4214 663.8507 691.28 704.9454 732.3747 746.04006 759.7054 787.1347 798.08676 811.7521">Time Wrote the Rocks</tspan></text>
<path transform="matrix(.001968504,0,0,.001968504,0,0)" d="M 22278 70330 L 343482 70330 L 343482 202066 L 22278 202066 Z " fill-opacity="0" fill-rule="evenodd"/>
<path transform="matrix(.001968504,0,0,.001968504,0,0)" stroke-width="381" stroke-linecap="butt" stroke-linejoin="round" fill="none" stroke="#0000ff" d="M 22278 70330 L 343482 70330 L 343482 202066 L 22278 202066 Z "/>
</g>
</g>
</g>
</svg>
