<?xml version="1.0" encoding="UTF-8" standalone="no"?>
<!DOCTYPE svg PUBLIC "-//W3C//DTD SVG 1.1//EN" "http://www.w3.org/Graphics/SVG/1.1/DTD/svg11.dtd">
<svg xmlns="http://www.w3.org/2000/svg" xmlns:xlink="http://www.w3.org/1999/xlink" version="1.1" width="720pt" height="405pt" viewBox="0 0 720 405">
<g enable-background="new">
<g>
<clipPath id="cp0">
<path transform="matrix(.001968504,0,0,.001968504,0,0)" d="M 0 0 L 365760 0 L 365760 205740 L 0 205740 L 0 0 Z "/>
</clipPath>
<g clip-path="url(#cp0)">
<path transform="matrix(.001968504,0,0,.001968504,0,0)" d="M 0 0 L 365760 0 L 365760 205740 L 0 205740 Z " fill-rule="evenodd"/>
<path transform="matrix(.001968504,0,0,.001968504,0,0)" d="M 12468.334 29783 L 353292.35 29783 L 353292.35 111887 L 12468.334 111887 Z " fill-opacity="0" fill-rule="evenodd"/>
<text fill="#ffffff" xml:space="preserve" transform="matrix(.75 0 0 .75 24.543965 58.627954)" font-size="69.333339" font-family="ArialMT"><tspan y="190.05606" x="275.8171 321.9931 360.54246 379.74778 402.8358 441.38514 476.0518 495.2571 545.3158 583.8651">Petrov Day</tspan></text>
<path transform="matrix(.001968504,0,0,.001968504,0,0)" d="M 12468 113365 L 353292 113365 L 353292 145069 L 12468 145069 Z " fill-opacity="0" fill-rule="evenodd"/>
<text fill="#00ffff" xml:space="preserve" transform="matrix(.75 0 0 .75 24.543309 223.15946)" font-size="37.333333" font-family="ArialMT"><tspan y="44.839998" x="154.70188 179.56587 187.85387 196.14186 216.8992 237.65654 247.99788 274.95256 295.70988 314.37654 333.04319 343.38453 366.1952 386.9525 399.38453 418.05119 426.33918 447.0965 467.85383 478.19517 488.5365 513.4005 534.15786 552.8245 573.58187 594.3392 615.0965 625.4378 650.3018 671.05917 679.34719 689.6885 697.9765 718.7338">Slide Deck Version, Second Edition</tspan></text>
</g>
</g>
</g>
</svg>
