<?xml version="1.0" encoding="UTF-8" standalone="no"?>
<!DOCTYPE svg PUBLIC "-//W3C//DTD SVG 1.1//EN" "http://www.w3.org/Graphics/SVG/1.1/DTD/svg11.dtd">
<svg xmlns="http://www.w3.org/2000/svg" xmlns:xlink="http://www.w3.org/1999/xlink" version="1.1" width="720pt" height="405pt" viewBox="0 0 720 405">
<g enable-background="new">
<g>
<clipPath id="cp14">
<path transform="matrix(.001968504,0,0,.001968504,0,0)" d="M 0 0 L 365760 0 L 365760 205740 L 0 205740 L 0 0 Z "/>
</clipPath>
<g clip-path="url(#cp14)">
<path transform="matrix(.001968504,0,0,.001968504,0,0)" d="M 0 0 L 365568 0 L 365568 205740 L 0 205740 Z " fill-opacity=".2577" fill-rule="evenodd"/>
<path transform="matrix(.001968504,0,0,.001968504,0,0)" d="M 45906 10962 L 319662 10962 L 319662 194778 L 45906 194778 Z " fill-opacity="0" fill-rule="evenodd"/>
<text fill="#ffffff" xml:space="preserve" transform="matrix(.75 0 0 .75 90.36614 21.578742)" font-size="32" font-family="DroidSerif"><tspan y="39.72" x="9 28.936 46.920003 67.560009 84.77601 105.06401 123.04801 140.264 157.384 169.864 180.07199 194.504 206.984 218.248 238.536 255.65599 268.136 279.944 290.152 305.224 319.656 330.92 343.4 361.44798 378.56797 396.61598 409.09596 420.35997 438.82395 451.30393 462.56794 479.68794 495.43193 515.7199 536.3599 554.8239 564.7439 583.2079 600.4239 618.47189 626.47189 638.9519 666.5039 676.7119 687.9759 708.2639">Language is the first key to technology; with </tspan></text>
<text fill="#ffffff" xml:space="preserve" transform="matrix(.75 0 0 .75 90.36614 21.578742)" font-size="32" font-family="DroidSerif"><tspan y="77.72" x="9 19.208 30.472 38.472 90.44 107.560009 125.54401 140.61602 150.53601 168.58402 220.552 240.84 261.128 291.336 309.32 329.96003 344.39204 396.36003 412.104 430.568 450.856 460.776 480.392 532.36 550.344 566.088 581.83206 602.12008 632.32809 652.6161 662.5361 680.5201 691.78408 708.90408">it, early humans could accumulate </tspan></text>
<text fill="#ffffff" xml:space="preserve" transform="matrix(.75 0 0 .75 90.36614 21.578742)" font-size="32" font-family="DroidSerif"><tspan y="115.72" x="9 27.688002 48.328004 66.79201 94.34401 104.26401 121.38401 141.00002 158.21602 175.33602 183.33602 204.968 225.608 244.072 255.33602 276.96803 286.536 306.824 321.256 332.52003 354.152 364.36003 385.00004 406.63203 423.84803 440.96803 461.60804 478.72804 493.16004 501.16004 522.79208 542.4081 562.6961 573.9601 595.5921 613.5761 623.4961 637.9281 656.3921 678.0241 688.2321 708.87216">knowledge, not just in genes, but also in </tspan></text>
<text fill="#ffffff" xml:space="preserve" transform="matrix(.75 0 0 .75 90.36614 21.578742)" font-size="32" font-family="DroidSerif"><tspan y="153.72" x="9 23.432002 40.776 58.824 69.032 89.672 106.888 121.32 129.608 147.59201 168.23201 187.848 196.136 207.40001 221.83202 239.81601 259.432 269.64 280.90403 291.11204 309.57603 330.21604 344.64805 353.80006">sayings and traditions. </tspan></text>
<text fill="#ffffff" xml:space="preserve" transform="matrix(.75 0 0 .75 90.36614 21.578742)" font-size="32" font-family="DroidSerif"><tspan y="229.72" x="9 28.584002 48.872 65.992008 84.04001 104.36001 121.57601 139.56002 158.08802 175.20801 195.528 216.168 234.15201 264.36003 281.48 295.91203 316.23204 327.49604 345.96003 366.28004 385.89604 403.01603 421.48 441.096 451.01603 468.13603 488.45603 506.44004 521.512 539.976 560.26406 580.90408 600.5201 620.8401 632.10409 652.3921 669.5121 699.7201 708.8721">They gave names to people around them. </tspan></text>
<text fill="#ffffff" xml:space="preserve" transform="matrix(.75 0 0 .75 90.36614 21.578742)" font-size="32" font-family="DroidSerif"><tspan y="267.72" x="9 28.584002 48.872 65.992008 84.04001 99.08001 116.29601 134.28002 152.80802 169.92801 184.968 205.608 223.59201 253.80002 270.92 285.35203 300.39204 311.65605 330.12004 345.16004 359.59205 379.20805 396.32804 412.07203 422.28004 439.40003 453.83204 468.87205 487.33604 499.14405 514.184 532.168 552.80807 563.01608 593.22409 611.20809 621.12808 635.56008 650.6001 668.5841 689.2241 708.84017">They gave names to species of animals and </tspan></text>
<text fill="#ffffff" xml:space="preserve" transform="matrix(.75 0 0 .75 90.36614 21.578742)" font-size="32" font-family="DroidSerif"><tspan y="305.72" x="9 28.616002 38.536005 56.520006 77.16 88.424 102.856 112.008 129.73601 149.32 169.608 186.728 204.776 222.504 239.72 257.704 276.23204 293.35203 311.08003 331.72004 349.70405 379.91206 397.03205 411.46406 429.19206 440.45606 458.92005 476.64805 494.63206 510.37605 521.64 531.848 550.312 570.952 585.38406 603.11209 621.09609 641.7361 661.3521 679.08016 690.3441 708.8081">plants. They gave names to actions and to </tspan></text>
<text fill="#ffffff" xml:space="preserve" transform="matrix(.75 0 0 .75 90.36614 21.578742)" font-size="32" font-family="DroidSerif"><tspan y="343.72" x="9 28.616002 38.536005 56.520006 72.26401 89.38401 103.81601 116.10401 134.08802 154.72801 174.34401 186.632 197.89601 216.36002 228.64801 243.08002 254.34403 268.776 286.76 298.02403 315.144 332.36003 342.56803 359.68803 374.12004 383.27204 395.56004 415.14405 435.43205 452.55204 470.60005 482.88804 498.63203 516.616 526.536 536.456 553.576 573.192 585.48007 599.91207 618.37606 648.58407 665.70407 677.99209 696.45608 708.26406">places and to strategies. They called some of </tspan></text>
<text fill="#ffffff" xml:space="preserve" transform="matrix(.75 0 0 .75 90.36614 21.578742)" font-size="32" font-family="DroidSerif"><tspan y="381.72" x="9 20.264 40.552003 57.672006 72.104007 89.22401 108.296009 125.51201 143.97602 162.44002 182.05602 190.05602 209.128 227.112 247.752 267.368 286.44 302.184 320.168 330.088 340.00804 357.12803 376.74403 395.816 410.24803 428.712 458.92 476.04 495.112 513.576 525.384 544.456 555.72 576.008 593.128 623.336 642.408 662.02407 680.00808 699.6241 708.77609">these good, and called some of them bad. </tspan></text>
<text fill="#ffffff" xml:space="preserve" transform="matrix(.75 0 0 .75 90.36614 21.578742)" font-size="32" font-family="DroidSerif"><tspan y="419.72" x="9 28.584002 48.872 65.992008 84.04001 98.40801 108.32801 125.44801 143.432 158.50402 179.14402 196.264 215.88 230.248 241.51201 259.976 274.344 288.776 309.064 327.048 342.12 359.24 373.60798 384.87199 405.15998 422.27998 432.48799 447.55998 461.92796 480.61595 501.25596 519.72 547.272 557.19198 574.31198 593.928 611.144 628.264 636.264 650.632 668.616 689.25607 708.8721">They learned to share their knowledge, and </tspan></text>
<text fill="#ffffff" xml:space="preserve" transform="matrix(.75 0 0 .75 90.36614 21.578742)" font-size="32" font-family="DroidSerif"><tspan y="457.72" x="9 20.264 40.552003 57.672006 75.72 84.520008 94.44 111.560009 129.544 144.61602 165.25601 182.376 201.992 210.79199 222.056 240.52 249.31999 268.936 286.056 301.8 318.91999 329.128 347.656 364.776 373.576 390.69599 408.68 424.42399 444.71199 453.51197 471.97596 483.23997 503.52796 520.64797 535.72 544.87197 553.672 573.256 593.544 610.664 628.712 637.512 657.12808 677.4161 687.6241 697.54409 708.80807">they learned to deceive each other. They built </tspan></text>
<text fill="#ffffff" xml:space="preserve" transform="matrix(.75 0 0 .75 90.36614 21.578742)" font-size="32" font-family="DroidSerif"><tspan y="495.72" x="9 20.808 38.792 69 79.208 89.128 99.336 116.456 130.888 139.176 157.16 177.8 197.416 205.704 221.448 239.912 270.12 300.328 320.616 341.256 351.46403 362.72804 372.93605 390.05604 404.48805">families and communities.</tspan></text>
</g>
</g>
</g>
</svg>
