<?xml version="1.0" encoding="UTF-8" standalone="no"?>
<!DOCTYPE svg PUBLIC "-//W3C//DTD SVG 1.1//EN" "http://www.w3.org/Graphics/SVG/1.1/DTD/svg11.dtd">
<svg xmlns="http://www.w3.org/2000/svg" xmlns:xlink="http://www.w3.org/1999/xlink" version="1.1" width="720pt" height="405pt" viewBox="0 0 720 405">
<g enable-background="new">
<g>
<clipPath id="cp16">
<path transform="matrix(.001968504,0,0,.001968504,0,0)" d="M 0 0 L 365760 0 L 365760 205740 L 0 205740 L 0 0 Z "/>
</clipPath>
<g clip-path="url(#cp16)">
<path transform="matrix(.001968504,0,0,.001968504,0,0)" d="M 0 0 L 365568 0 L 365568 205740 L 0 205740 Z " fill-opacity=".2577" fill-rule="evenodd"/>
<path transform="matrix(.001968504,0,0,.001968504,0,0)" d="M 45906 10962 L 319662 10962 L 319662 194778 L 45906 194778 Z " fill-opacity="0" fill-rule="evenodd"/>
<text fill="#ffffff" xml:space="preserve" transform="matrix(.75 0 0 .75 90.36614 21.578742)" font-size="32" font-family="DroidSerif"><tspan y="115.72" x="9 28.584002 48.872 65.992008 84.04001 96.36001 115.97601 133.09601 150.31201 168.29602 188.93602 201.25601 212.52002 232.80802 249.92801 262.24803 272.16804 290.63203 311.27204 328.48805 336.48805 348.80805 363.24006 373.16007 391.62406 419.17607 431.49607 451.11207 466.18406 484.64805 500.39204 517.512 531.94406 546.37606 558.69607 577.16006 588.968 601.288 612.552 630.536 660.744 670.952 691.59207 708.80807">They began the long, slow process of taming </tspan></text>
<text fill="#ffffff" xml:space="preserve" transform="matrix(.75 0 0 .75 90.36614 21.578742)" font-size="32" font-family="DroidSerif"><tspan y="153.72" x="9 20.264 40.552003 57.672006 76.200008 103.75201 113.96001 123.880008 143.496 160.616 175.688 196.328 213.448 227.88 242.31201 251.46402 269.992 289.57603 309.864 326.984 337.19203 352.264 370.792 382.056 397.128 407.336 426.952 444.072 458.504 477.03199 494.248 509.31999 526.44 553.992 572.52 583.784 602.248 620.776 636.52 646.728 657.992 668.2 685.32 699.752 708.904">the wilderness. Their tribes grew to cities. </tspan></text>
<text fill="#ffffff" xml:space="preserve" transform="matrix(.75 0 0 .75 90.36614 21.578742)" font-size="32" font-family="DroidSerif"><tspan y="191.72" x="9 42.472 62.760004 80.744 92.008 100.296009 119.912 137.032 152.776 170.76001 200.96802 218.08802 226.376 244.84001 256.648 264.936 276.2 296.488 313.608 343.816 359.816">What became of them? </tspan></text>
<text fill="#ffffff" xml:space="preserve" transform="matrix(.75 0 0 .75 90.36614 21.578742)" font-size="32" font-family="DroidSerif" font-style="italic"><tspan y="267.72" x="9 27.656002 46.184007 63.72001 79.49601 105.000019 116.77602 135.94402 151.72002 177.22402 192.04001 207.81601 223.36801 241.73601 260.90403 279.43205 304.93605 320.48805 339.01606 358.18406 376.71208 386.44007 402.21607 410.21607 435.72007 461.89607 481.06407 490.79206 506.34407 525.5121 551.0161 565.9601 581.7361 600.2001 615.14407 630.92007 645.736 661.512 680.68008 692.45608 707.27206">Take the second candle, which represents </tspan></text>
<text fill="#ffffff" xml:space="preserve" transform="matrix(.75 0 0 .75 90.36614 21.578742)" font-size="32" font-family="DroidSerif" font-style="italic"><tspan y="305.72" x="9 18.728 37.256006 56.424005 74.216 93.384 111.912 129.70401 145.48001 154.63202 176.68001 200.00801 214.824 230.6 252.648 262.376 274.152 296.2 307.976 326.34403 348.39204 358.12004 367.84803 385.64 404.808 416.584 438.63203 450.40803 469.57603 485.35203 507.40003 519.176 538.34408 548.0721 563.0161 581.5441 603.59219 619.14419 637.6722 656.8402 675.3682 685.09628 700.87228 708.87228">language. Use it to light the third candle, </tspan></text>
<text fill="#ffffff" xml:space="preserve" transform="matrix(.75 0 0 .75 90.36614 21.578742)" font-size="32" font-family="DroidSerif" font-style="italic"><tspan y="343.72" x="9 35.176004 54.344 64.07201 79.62401 98.79201 107.08001 122.02401 137.80002 156.26403 171.20803 186.98403 201.80002 217.57602 236.74402 248.52002 263.33604 271.62403 290.15205 307.94404 322.88804 332.61604 348.16804 367.33604 377.06404 388.84004 408.00804 422.95204">which represents agriculture</tspan></text>
</g>
</g>
</g>
</svg>
