<?xml version="1.0" encoding="UTF-8" standalone="no"?>
<!DOCTYPE svg PUBLIC "-//W3C//DTD SVG 1.1//EN" "http://www.w3.org/Graphics/SVG/1.1/DTD/svg11.dtd">
<svg xmlns="http://www.w3.org/2000/svg" xmlns:xlink="http://www.w3.org/1999/xlink" version="1.1" width="720pt" height="405pt" viewBox="0 0 720 405">
<g enable-background="new">
<g>
<clipPath id="cp18">
<path transform="matrix(.001968504,0,0,.001968504,0,0)" d="M 0 0 L 365760 0 L 365760 205740 L 0 205740 L 0 0 Z "/>
</clipPath>
<g clip-path="url(#cp18)">
<path transform="matrix(.001968504,0,0,.001968504,0,0)" d="M 0 0 L 365568 0 L 365568 205740 L 0 205740 Z " fill-opacity=".2577" fill-rule="evenodd"/>
<path transform="matrix(.001968504,0,0,.001968504,0,0)" d="M 45906 10962 L 319662 10962 L 319662 194778 L 45906 194778 Z " fill-opacity="0" fill-rule="evenodd"/>
<text fill="#ffffff" xml:space="preserve" transform="matrix(.75 0 0 .75 90.36614 21.578742)" font-size="26.666666" font-family="DroidSerif"><tspan y="34.6" x="9 21 37.32 54.226667 68.49333 78.68 95.026668 110.41333 133.37334 147.64 160.2 170.38666 185.77333 195.61333 205.79999 222.14665 237.53333 253.87999 270.78666 279.0533 294.03999 303.42665 311.9333 327.31996 344.51997 354.70664 363.2133 375.23997 385.42665 397.4533 412.83998 423.02665 435.0533 451.96 468.30668 482.57334 495.13334 503.63999 519.0267 531.5867 541.7734 551.16006 566.5467 576.7334 586.12008 603.02676 617.2934 627.4801 643.8268 659.21347 682.17349 696.4401 709.0001">&#x201c;The power of population is so superior to the power </tspan></text>
<text fill="#ffffff" xml:space="preserve" transform="matrix(.75 0 0 .75 90.36614 21.578742)" font-size="26.666666" font-family="DroidSerif"><tspan y="66.6" x="9 24.386668 34.22667 51.480005 60.86667 77.77333 92.04 109.293338 123.560009 138.54668 151.10668 160.49335 177.40001 194.65334 204.04001 219.42668 236.68001 253.02667 265.58668 280.97334 297.32 314.22669 327.34669 341.61335 358.8667 370.89338 387.80006 404.14674 416.1734 424.68006 436.70674 446.09339 460.36006 477.56007 490.68006 504.94673 522.2001 532.0401 547.42678 559.98678 577.2401 602.41348 617.40017 634.60018 641.26687 658.5202 667.90689 684.81356 699.80026 709.1869">of the earth to produce subsistence for man, that </tspan></text>
<text fill="#ffffff" xml:space="preserve" transform="matrix(.75 0 0 .75 90.36614 21.578742)" font-size="26.666666" font-family="DroidSerif"><tspan y="98.6" x="9 25.346667 37.906667 52.173334 77.346668 92.33333 101.71999 118.62666 131.18666 145.45333 153.23999 169.58666 183.85332 198.83998 208.22666 225.13332 232.91999 258.09333 275 287.02668 296.41334 304.2 312.70668 329.90669 337.69337 349.72004 365.1067 390.28004 404.5467 412.33338 424.36006 441.26673 456.2534 472.60008 486.86674 494.6534 510.04008 522.6001 530.3868 545.77346 555.1601 572.0668 586.33346 598.89346 606.6801 622.1201 630.6268 642.65347 651.1601 660.54678 668.33346 677.7201 694.6268 708.89346">premature death must in some shape or other visit the </tspan></text>
<text fill="#ffffff" xml:space="preserve" transform="matrix(.75 0 0 .75 90.36614 21.578742)" font-size="26.666666" font-family="DroidSerif"><tspan y="130.6" x="9 25.906666 42.81333 67.986667 82.97333 100.173328 108.52 120.54666 135.53333 148.65332 162.91999 170.54665 178.89331 195.21332 212.11998 226.38665 234.7333 250.17331 258.67997 271.79997 286.06663 298.0933 306.43998 321.82664 331.66664 340.0133 365.18666 380.1733 397.37333 412.94667 421.4533 438.65333 455 463.34669 478.33335 490.89335 505.16 513.50668 528.49337 541.61337 551 559.50668 574.94668 589.2133 597.56 612.5467 629.7467 646.0934 654.44009 669.42678 685.77346 694.0401 708.30679">human race. The vices of mankind are active and able </tspan></text>
<text fill="#ffffff" xml:space="preserve" transform="matrix(.75 0 0 .75 90.36614 21.578742)" font-size="26.666666" font-family="DroidSerif"><tspan y="162.6" x="9 34.173334 42.68 59.88 68.386669 80.41333 89.799999 104.066669 116.62666 128.65334 138.62667 154.01334 163.85334 173.82666 190.17333 204.43999 220.78665 236.17333 252.51999 269.42668 277.69334 292.68 302.06666 310.5733 325.95997 343.15998 350.78666 360.76 377.08003 393.9867 408.25337 423.29338 433.26673 448.2534 460.8134 475.08006 485.0534 494.44007 511.34675 525.6134 535.58676 551.9334 564.4934 578.7601 591.88009 608.78677 621.34677 633.3734 648.7601 661.32009 673.34677 683.32009 691.8267 709.02676">ministers of depopulation. They are the precursors in </tspan></text>
<text fill="#ffffff" xml:space="preserve" transform="matrix(.75 0 0 .75 90.36614 21.578742)" font-size="26.666666" font-family="DroidSerif"><tspan y="194.6" x="9 18.386668 35.293336 49.56 64.706668 79.05333 91.61333 105.88 120.86667 130.25334 145.40001 160.38668 172.94667 198.12001 213.16 228.30667 243.69335 253.53334 268.68 285.02668 299.29335 311.32 320.70668 333.26667 350.17335 363.29335 372.68 381.18666 396.5733 413.77333 420.43998 435.58665 450.5733 467.77333 484.12 499.26667 514.6533 524.49337 533.88 548.14669 565.3467 580.49337 590.3334 598.84 616.04006 624.5467 636.57339 653.48007 668.6267 678.01339 694.92007 709.1867">the great army of destruction, and often finish the </tspan></text>
<text fill="#ffffff" xml:space="preserve" transform="matrix(.75 0 0 .75 90.36614 21.578742)" font-size="26.666666" font-family="DroidSerif"><tspan y="226.6" x="9 25.346667 37.906667 52.173334 67.16 83.50667 93.346668 110.25333 118.51999 127.90666 150.86667 166.25334 178.81334 194.38668 203.77333 213.16 230.06667 244.33333 269.50666 281.53334 295.8 304.06666 319.50666 333.77333 345.8 353.42668 362.81336 380.22669 397.13337 406.52003 415.9067 427.93339 444.84007 460.2267 477.1334 485.40007 501.74674 511.13343 520.5201 537.42678 551.6934 566.7334 576.12008 585.9601 600.9468 609.4534 617.7201 627.10678 635.6134 652.8134 662.2001 671.58676 688.4934 697.00009 709.02676">dreadful work themselves. But should they fail in this </tspan></text>
<text fill="#ffffff" xml:space="preserve" transform="matrix(.75 0 0 .75 90.36614 21.578742)" font-size="26.666666" font-family="DroidSerif"><tspan y="258.6" x="9 31.960001 46.94667 59.50667 84.14667 99.53333 109.37334 134.01334 148.28 163.69333 173.08 187.34667 199.90666 225.08 233.58667 250.78667 265.77336 275.16 283.66667 299.0533 316.25334 322.91999 347.56 359.58668 368.09333 381.21333 396.78666 405.0533 420.09333 444.73335 456.76 471.02668 486.01335 498.04 513.4267 530.6267 542.6534 549.32009 573.9601 588.22677 604.5734 613.0801 629.42678 643.6934 668.86679 677.3734 690.4934 702.5201 709.18679">war of extermination, sickly seasons, epidemics, </tspan></text>
<text fill="#ffffff" xml:space="preserve" transform="matrix(.75 0 0 .75 90.36614 21.578742)" font-size="26.666666" font-family="DroidSerif"><tspan y="290.6" x="9 25.346667 39.613336 51.640005 61.026674 69.53334 77.8 92.06667 109.26668 122.38668 136.65335 143.32003 155.58669 170.57335 187.77335 204.12001 216.38668 232.73334 241 255.98667 270.33335 287.24003 301.50669 313.77336 328.76 345.1067 360.5467 375.53337 392.73338 405.85337 420.12004 432.3867 440.89335 458.09336 470.36003 479.74668 494.01335 506.57334 519.13339 527.64 537.48007 545.9867 559.1067 571.37338 586.36007 598.92007 610.9467 625.4001 638.0667 644.7334 657.00009 671.98678 689.18679 705.53347">pestilence, and plague advance in terrific array, and </tspan></text>
<text fill="#ffffff" xml:space="preserve" transform="matrix(.75 0 0 .75 90.36614 21.578742)" font-size="26.666666" font-family="DroidSerif"><tspan y="322.6" x="9 21.026669 43.98667 58.253339 72.520008 88.86667 107.00001 122.38667 132.22667 142.06667 160.2 169.58667 186.49333 200.76 209.26667 221.82666 239.95999 249.34667 266.25334 281.63999 298.54667 310.57334 325.56 342.76 359.1067 371.13337 389.2667 404.25337 421.45338 437.80006 455.93339 465.32005 479.5867 496.7867 508.8134 526.9467 542.3334 552.1734 570.30679 579.6934 596.6001 611.98678 628.89346 640.9201 655.9068 673.1068 689.4535 701.48019 709.1068">sweep off their thousands and tens of thousands. </tspan></text>
<text fill="#ffffff" xml:space="preserve" transform="matrix(.75 0 0 .75 90.36614 21.578742)" font-size="26.666666" font-family="DroidSerif"><tspan y="354.6" x="9 23.48 40.386667 55.77333 72.67999 80.946659 97.29332 108.14665 120.17332 137.07999 150.19998 163.31998 177.58664 189.61331 201.63999 212.49332 228.83998 243.10665 253.95998 265.98664 275.3733 283.87995 292.1466 300.41328 311.2666 319.77326 336.97328 350.09327 365.47993 390.65327 406.99995 415.2666 429.53327 438.91993 453.18659 459.85325 470.70658 485.05326 493.5599 507.9066 522.89328 540.09329 549.4799 557.9866 571.10659 581.9599 590.46658 607.66659 621.9332 637.3732 645.8799 655.26657 670.25326 686.5999 694.8666 709.13327">Should success be still incomplete, gigantic inevitable </tspan></text>
<text fill="#ffffff" xml:space="preserve" transform="matrix(.75 0 0 .75 90.36614 21.578742)" font-size="26.666666" font-family="DroidSerif"><tspan y="386.6" x="9 18.84 33.826669 59 67.50667 84.706668 98.973339 110.62667 122.653339 132.04001 147.02667 155.29334 170.86667 182.89334 194.54668 203.05335 220.25334 231.90668 241.29335 258.2 272.46669 284.12004 296.68003 310.9467 325.93336 338.49336 345.16 356.81336 371.80003 389.00004 405.3467 417.00007 439.96006 448.4667 457.85337 474.76005 486.4134 501.80006 519.00009 533.2667 544.92007 570.0934 578.60006 592.9467 609.8534 619.24008 634.28 645.93338 662.28 670.5467 685.93338 708.8934">famine stalks in the rear, and with one mighty blow </tspan></text>
<text fill="#ffffff" xml:space="preserve" transform="matrix(.75 0 0 .75 90.36614 21.578742)" font-size="26.666666" font-family="DroidSerif"><tspan y="418.6" x="9 17.266667 31.533333 46.973337 61.24 69.50667 81.53333 88.44 97.82667 114.73334 129 135.90666 152.25333 167.64 183.98667 200.89333 209.15999 224.14665 233.53333 242.04 257.42668 274.62669 281.53337 304.49336 313 322.38667 339.29335 346.2 355.58668 372.49336 386.76 393.6667 403.50669 418.89335 434.28 450.62669 457.53337 472.92 482.76 489.6667 499.05335 515.96 530.2267 537.13339 560.0934 575.48007 588.04006 596.3067 612.6534 620.28 632.28">levels the population with the food of the world.&#x201d; </tspan></text>
<text fill="#ffffff" xml:space="preserve" transform="matrix(.75 0 0 .75 90.36614 21.578742)" font-size="26.666666" font-family="DroidSerif"><tspan y="482.6" x="9 35.666666 42.57333 58.893335 75.8 91.18667 116.36 131.34667 143.37334 150.28 175.26667 190.25333 198.51999 207.90666 224.81333 241.71999 253.74666 260.65333 269.87998 284.78666 299.69334 314.6 329.50669">&#x2014; Thomas Malthus (1798)</tspan></text>
</g>
</g>
</g>
</svg>
