<?xml version="1.0" encoding="UTF-8" standalone="no"?>
<!DOCTYPE svg PUBLIC "-//W3C//DTD SVG 1.1//EN" "http://www.w3.org/Graphics/SVG/1.1/DTD/svg11.dtd">
<svg xmlns="http://www.w3.org/2000/svg" xmlns:xlink="http://www.w3.org/1999/xlink" version="1.1" width="720pt" height="405pt" viewBox="0 0 720 405">
<g enable-background="new">
<g>
<clipPath id="cp19">
<path transform="matrix(.001968504,0,0,.001968504,0,0)" d="M 0 0 L 365760 0 L 365760 205740 L 0 205740 L 0 0 Z "/>
</clipPath>
<g clip-path="url(#cp19)">
<path transform="matrix(.001968504,0,0,.001968504,0,0)" d="M 0 0 L 365568 0 L 365568 205740 L 0 205740 Z " fill-opacity=".4431" fill-rule="evenodd"/>
<path transform="matrix(.001968504,0,0,.001968504,0,0)" d="M 45906 10962 L 319662 10962 L 319662 194778 L 45906 194778 Z " fill-opacity="0" fill-rule="evenodd"/>
<text fill="#ffffff" xml:space="preserve" transform="matrix(.75 0 0 .75 90.36614 21.578742)" font-size="32" font-family="DroidSerif"><tspan y="115.72" x="9 38.984 56.968004 77.608 96.296009 106.504009 127.144008 146.76001 182.408 192.328 202.53601 221.06401 238.184 257.80003 293.448 303.656 324.29603 359.94404 377.06404 396.68003 416.96803 427.17604 437.09605 447.30406 466.92005 481.99205 492.20005 512.48806 542.69607 578.34408 597.9601 615.0801 626.34408 653.89608 671.01608 688.13607 708.77609">Mankind lived in equilibrium between </tspan></text>
<text fill="#ffffff" xml:space="preserve" transform="matrix(.75 0 0 .75 90.36614 21.578742)" font-size="32" font-family="DroidSerif"><tspan y="153.72" x="9 26.216002 41.288003 59.752004 87.304 98.568 118.856 133.51201 151.496 172.136 191.752 206.40799 222.152 240.616 250.536 260.456 278.44 298.056 312.488 329.608 337.608 352.264 370.952 391.592 410.056 437.608 447.528 464.648 484.264 501.48 518.60006 533.25607 550.47207 568.45608 578.66409 599.3041 616.4241 636.0401 650.6961 668.6801 689.3201 708.93618">growth and collapse, knowledge gained and </tspan></text>
<text fill="#ffffff" xml:space="preserve" transform="matrix(.75 0 0 .75 90.36614 21.578742)" font-size="32" font-family="DroidSerif"><tspan y="191.72" x="9 27.688002 48.328004 66.79201 94.34401 104.26401 121.38401 141.00002 158.21602 175.33602 193.41602 205.22402 223.68802 238.76003 255.97603 274.44004 285.70405 296.96806 314.08805 334.72807 343.88008 361.96006 373.70405 394.34407 412.42405 423.68806 443.97605 461.96006 473.22407 491.30406 518.8561 537.32009 552.3921 562.3121 581.9281 589.9281 608.0081 622.4401 633.7041 652.1681 667.2401 677.4481 694.5681 709.0001">knowledge forgotten. In that world, stories </tspan></text>
<text fill="#ffffff" xml:space="preserve" transform="matrix(.75 0 0 .75 90.36614 21.578742)" font-size="32" font-family="DroidSerif"><tspan y="229.72" x="9 36.552003 55.016004 75.304 85.224 104.84 140.712 150.632 168.616 183.048 194.31201 230.184 248.64801 269.28804 279.20805 297.25605 333.12806 351.11207 365.54408 401.41609 411.3361 429.80009 450.4401 467.6561 503.5281 521.5121 535.9441 571.8161 602.0241 619.1441 649.3521 667.8161 682.8881 698.0881 706.0881">would last only as long as memory, </tspan></text>
<text fill="#ffffff" xml:space="preserve" transform="matrix(.75 0 0 .75 90.36614 21.578742)" font-size="32" font-family="DroidSerif"><tspan y="267.72" x="9 39.208 57.672 78.312007 98.600009 128.80802 145.92801 166.56801 177.83202 192.26403 208.77602 227.24002 247.88002 257.80003 275.84803 292.36003 310.34403 324.77604 341.28804 351.20805 369.67204 390.31205 407.52806 424.04005 442.02406 456.45606 472.96806 500.52006 518.9841 537.44808 557.0641 566.21609 582.7281 600.2961 618.7601 633.8321 650.3441 661.6081 689.1601 707.6241">monuments only as long as wood. For two </tspan></text>
<text fill="#ffffff" xml:space="preserve" transform="matrix(.75 0 0 .75 90.36614 21.578742)" font-size="32" font-family="DroidSerif"><tspan y="305.72" x="9 29.288 49.576 70.216 89.832 104.904 122.024 141.64 157.064 168.328 188.616 207.08 227.368 241.8 259.784 280.424 300.04 315.464 333.512 350.632 368.616 383.688 398.12 406.12 421.54399 442.184 460.64799 471.912 492.19999 502.408 523.048 540.264 555.688 575.304 595.59207 606.856 622.28 639.49606 656.616 677.25607 694.37606 708.80807">hundred thousand years, nothing but genes </tspan></text>
<text fill="#ffffff" xml:space="preserve" transform="matrix(.75 0 0 .75 90.36614 21.578742)" font-size="32" font-family="DroidSerif"><tspan y="343.72" x="9 23.432002 43.72 58.792 77.32 87.528 106.056 123.176 142.792">survived.</tspan></text>
<text fill="#ffffff" xml:space="preserve" transform="matrix(.75 0 0 .75 90.36614 21.578742)" font-size="32" font-family="DroidSerif" font-style="italic"><tspan y="419.72" x="152.1036 172.03961 189.47962 201.25562 210.98361 230.15161 247.94362 267.11164 276.83964 291.65565 310.82365 319.11164 330.88764 350.05564 365.83164 374.11964 393.70365 412.87165 422.59965 437.54365 456.07167 464.35966 484.39167 502.91969 522.0877 540.6157 550.34378">Extinguish the Third Candle</tspan></text>
</g>
</g>
</g>
</svg>
