<?xml version="1.0" encoding="UTF-8" standalone="no"?>
<!DOCTYPE svg PUBLIC "-//W3C//DTD SVG 1.1//EN" "http://www.w3.org/Graphics/SVG/1.1/DTD/svg11.dtd">
<svg xmlns="http://www.w3.org/2000/svg" xmlns:xlink="http://www.w3.org/1999/xlink" version="1.1" width="720pt" height="405pt" viewBox="0 0 720 405">
<g enable-background="new">
<g>
<clipPath id="cp20">
<path transform="matrix(.001968504,0,0,.001968504,0,0)" d="M 0 0 L 365760 0 L 365760 205740 L 0 205740 L 0 0 Z "/>
</clipPath>
<g clip-path="url(#cp20)">
<path transform="matrix(.001968504,0,0,.001968504,0,0)" d="M 0 0 L 365568 0 L 365568 205740 L 0 205740 Z " fill-opacity=".4431" fill-rule="evenodd"/>
<path transform="matrix(.001968504,0,0,.001968504,0,0)" d="M 45906 10962 L 319662 10962 L 319662 194778 L 45906 194778 Z " fill-opacity="0" fill-rule="evenodd"/>
<text fill="#ffffff" xml:space="preserve" transform="matrix(.75 0 0 .75 90.36614 21.578742)" font-size="32" font-family="DroidSerif"><tspan y="39.72" x="9 29.896002 50.184003 61.448 73.736 85 105.288 123.272 134.53601 146.824 174.376 192.36002 206.79203 219.08002 236.20001 256.84004 275.30403 295.592 312.808 333.096 342.24803 354.536 374.12004 394.40803 412.872 433.16 450.376 470.664 482.952 494.216 514.504 531.624 549.672 561.96 577.70407 596.168 616.45608 626.37606 645.99209 658.2801 678.9201 697.3841 708.6481">But that was enough. Though they could not </tspan></text>
<text fill="#ffffff" xml:space="preserve" transform="matrix(.75 0 0 .75 90.36614 21.578742)" font-size="32" font-family="DroidSerif"><tspan y="77.72" x="9 28.616002 43.688005 60.808008 75.240009 92.36001 107.43201 125.96001 143.08 161.95999 180.648 201.288 219.752 247.304 257.224 274.344 293.96 311.176 328.296 347.176 365.63999 384.168 401.288 416.36 435.24 452.456 469.576 490.216 507.336 521.768 539.752 551.016 561.224 579.688 600.328 614.76 622.76 641.64 652.904 673.192 690.312 708.36">preserve knowledge over generations, they </tspan></text>
<text fill="#ffffff" xml:space="preserve" transform="matrix(.75 0 0 .75 90.36614 21.578742)" font-size="32" font-family="DroidSerif"><tspan y="115.72" x="9 24.744 43.208 63.496004 73.416 93.032 124.712 144.328 159.40001 176.52 190.95201 208.072 223.14402 241.67201 258.79203 290.47203 310.088 328.552 358.76 375.88 390.312 401.57603 411.78404 427.528 445.51203 456.77604 473.89604 493.51203 525.192 544.80807 554.728 572.71206 593.35208 604.616 619.04806 650.7281 668.7121 689.3521 708.96817">could preserve domesticated plants and </tspan></text>
<text fill="#ffffff" xml:space="preserve" transform="matrix(.75 0 0 .75 90.36614 21.578742)" font-size="32" font-family="DroidSerif"><tspan y="153.72" x="9 26.984002 47.624 57.832 88.04 106.024 115.944 130.376 139.52802 156.936 176.52 196.808 213.928 231.976 249.38399 263.81599 281.8 300.328 317.448 337.064 354.472 365.736 386.024 403.14399 420.55198 440.16798 457.28797 471.71998 482.98399 490.98399 508.39198 526.376 547.016 566.632 584.04006 593.96 604.168 615.432 626.696 636.61599 653.73599 671.144 690.12 708.16799">animals. They saved the best, and little by </tspan></text>
<text fill="#ffffff" xml:space="preserve" transform="matrix(.75 0 0 .75 90.36614 21.578742)" font-size="32" font-family="DroidSerif"><tspan y="191.72" x="9 18.92 29.128 40.392004 51.656003 61.576005 78.69601 86.69601 99.08001 110.34401 130.632 147.752 160.13599 187.68799 206.152 221.224 231.144 250.76 263.144 280.36003 298.824 310.088 322.47203 339.592 357.57603 372.00804 382.21604 399.33604 414.40803 423.56004 435.94404 458.50404 479.14405 498.76005 511.14405 522.408 542.69607 559.81607 580.45608 592.8401 610.8241 623.2081 637.64016 654.76016 664.6801 681.8001 697.5441 708.8081">little, the world got easier. And then a select </tspan></text>
<text fill="#ffffff" xml:space="preserve" transform="matrix(.75 0 0 .75 90.36614 21.578742)" font-size="32" font-family="DroidSerif"><tspan y="229.72" x="9 20.808 37.928 65.48 102.632 122.920009 143.20801 173.41602 191.40003 212.04003 226.47203 263.62403 278.05604 289.32005 307.30406 322.37605 333.64006 350.76005 370.37605 407.52806 435.08006 450.15205 460.36006 471.62406 481.83207 502.47209 519.68807 527.68807 564.8401 582.8241 603.4641 623.08016 660.2322 671.49618 691.7842 708.9042">few humans started writing, and the </tspan></text>
<text fill="#ffffff" xml:space="preserve" transform="matrix(.75 0 0 .75 90.36614 21.578742)" font-size="32" font-family="DroidSerif"><tspan y="267.72" x="9 26.12 45.736 66.024 76.232 86.152 96.36 115.976 131.048 141.25601 161.544 191.75202 204.104 223.72 240.84 252.104 279.656 296.776 313.896 334.536 346.888 356.808 373.928 391.91203 406.984 427.62403 437.83204 458.47206 475.68806 488.04005 506.02406 526.66409 546.2801 558.63217 570.4401 588.9041 603.97616 621.19216 638.31216 649.5761 660.8401 671.0481 691.6881 708.9041">equilibrium between learning and forgetting </tspan></text>
<text fill="#ffffff" xml:space="preserve" transform="matrix(.75 0 0 .75 90.36614 21.578742)" font-size="32" font-family="DroidSerif"><tspan y="305.72" x="9 36.552003 54.536005 68.968 100.45601 112.26401 122.47201 143.11202 161.09601 171.016 180.936 198.98401 230.472 250.088 265.16 283.624 301.67198 318.79197 339.43199 348.58399 380.072 403.81599 415.624 447.112 458.376 478.664 496.648 507.91203 539.4 557.38406 574.60006 591.72006 599.72006 631.20809 658.7601 679.0481 697.0321 708.2961">was finally broken. Of that age, what </tspan></text>
<text fill="#ffffff" xml:space="preserve" transform="matrix(.75 0 0 .75 90.36614 21.578742)" font-size="32" font-family="DroidSerif"><tspan y="343.72" x="9 39.208 56.328004 86.536 105 120.072 130.28 147.4 161.832 170.12 185.192 202.312 232.52 250.504 260.712 281.35203 297.35203">memories remain? </tspan></text>
<text fill="#ffffff" xml:space="preserve" transform="matrix(.75 0 0 .75 90.36614 21.578742)" font-size="24" font-family="DroidSerif" font-style="italic"><tspan y="412.04" x="9 26.496 37.608 44.904005 59.280008 72.62401 83.85601 92.68801 107.06401 118.89601 130.12802 141.24002 153.07202 164.73603 178.51203 192.88803 206.78403 218.01604 229.68004 243.57604 257.95204 271.84803 279.144 290.976 296.976 308.208 327.84 342.216 349.512 361.176 375.552 386.784 397.992 409.824 423.672 434.88 446.712 457.824 469.656 484.032 492.864 503.976 515.208 522.504 536.4 550.776 564.12 578.496 592.39199 605.73599 617.568 623.568 634.8 646.008 657.83999 665.136 672.432 685.776 700.152 708.984">Using the second candle, which represents language, relight </tspan></text>
<text fill="#ffffff" xml:space="preserve" transform="matrix(.75 0 0 .75 90.36614 21.578742)" font-size="24" font-family="DroidSerif" font-style="italic"><tspan y="441.04" x="9 17.832 32.208 44.04 50.256 59.088 73.464008 80.76 91.968 105.864009 112.08001 123.74401 137.64002 152.01602 165.91202 173.20803 185.04003 191.25603 200.08803 213.86403 220.08003 231.28803 243.12003 256.96803 268.17604 280.00804 291.12004 302.95204 317.32804 326.16004 332.37605 341.20805 355.58406 367.41606 373.63206 380.92805 395.30406 408.21604 420.04804 434.42405 443.25605 450.55204 464.32804 478.70405 484.92005 498.69606 506.30406 512.52 532.15206 543.36007 550.65609 559.48806 566.78408 581.16006">the third candle to represent the invention of writing</tspan></text>
</g>
</g>
</g>
</svg>
