<?xml version="1.0" encoding="UTF-8" standalone="no"?>
<!DOCTYPE svg PUBLIC "-//W3C//DTD SVG 1.1//EN" "http://www.w3.org/Graphics/SVG/1.1/DTD/svg11.dtd">
<svg xmlns="http://www.w3.org/2000/svg" xmlns:xlink="http://www.w3.org/1999/xlink" version="1.1" width="720pt" height="405pt" viewBox="0 0 720 405">
<g enable-background="new">
<g>
<clipPath id="cp1">
<path transform="matrix(.001968504,0,0,.001968504,0,0)" d="M 0 0 L 365760 0 L 365760 205740 L 0 205740 L 0 0 Z "/>
</clipPath>
<g clip-path="url(#cp1)">
<path transform="matrix(.001968504,0,0,.001968504,0,0)" d="M 0 0 L 365568 0 L 365568 205740 L 0 205740 Z " fill-opacity=".2577" fill-rule="evenodd"/>
<path transform="matrix(.001968504,0,0,.001968504,0,0)" d="M 45906 7584 L 319662 7584 L 319662 198156 L 45906 198156 Z " fill-opacity="0" fill-rule="evenodd"/>
<text fill="#ffffff" xml:space="preserve" transform="matrix(.75 0 0 .75 90.36614 14.929134)" font-size="32" font-family="DroidSerif"><tspan y="77.72" x="9 28.584002 48.872 59.08 73.512 81.8 101.416 118.76 133.95999 141.95999 150.24799 167.624 184.74399 204.35999 215.624 232.74399 262.952 282.568 299.688 314.75999 323.04798 340.93598 358.82398 366.82398 375.11198 385.31999 399.75199 408.03999 427.36799 444.48799 455.75199 470.82398 489.28797 507.81599 516.104 539.368 556.712 571.9119">This day, September 26, is Petrov Day.</tspan></text>
<text fill="#ffffff" xml:space="preserve" transform="matrix(.75 0 0 .75 90.36614 14.929134)" font-size="32" font-family="DroidSerif"><tspan y="153.72" x="9 20.744 41.384004 52.904005 70.79201 88.68001 106.56801 124.45601 132.45601 143.976 155.24 175.528 192.648 204.16799 218.59999 229.864 248.328 263.4 281.448 292.968 311.43199 323.24 334.75999 355.04798 375.33598 405.54399 423.52799 444.168 454.376 465.64 483.68803 495.208 515.848 532.968 550.952 566.02407 575.94406 593.992 605.512 622.632 643.27206 662.88809 680.00808 699.6241 708.77609">In 1983, the story of humanity nearly ended. </tspan></text>
<text fill="#ffffff" xml:space="preserve" transform="matrix(.75 0 0 .75 90.36614 14.929134)" font-size="32" font-family="DroidSerif"><tspan y="191.72" x="9 40.552003 57.672006 65.672008 80.744 97.864009 128.23201 145.44802 163.432 174.69602 194.98401 212.104 227.17601 244.296 263.91203 294.28004 314.56803 331.68803 346.76 363.88 394.248 405.512 423.97599 454.344 469.416 486.53599 516.74398 533.86398 564.07199 583.688 600.808 615.88 646.24807 657.512 677.80007 695.78408 707.04806">We&#x2019;re gathered here to remember that </tspan></text>
<text fill="#ffffff" xml:space="preserve" transform="matrix(.75 0 0 .75 90.36614 14.929134)" font-size="32" font-family="DroidSerif"><tspan y="229.72" x="9 39.208 57.672 87.880008 105.00001 125.64001 136.904 144.904 153.192 171.176 191.816 211.43199 219.71999 238.18399 249.448 269.736 286.856 301.92799 316.36 324.64799 334.568 344.776 362.82398 379.94398 388.23197 398.43998 409.70399">moment, and others like it.</tspan></text>
<text fill="#ffffff" xml:space="preserve" transform="matrix(.75 0 0 .75 90.36614 14.929134)" font-size="32" font-family="DroidSerif"><tspan y="305.72" x="9 29.896002 50.184003 61.448 82.664 93.928 112.392 133.608 148.68001 165.8 183.784 193.704 203.624 221.672 242.88799 254.69599 271.81599 288.93598 298.856 320.072 331.336 351.624 368.744 389.96 420.168 438.152 455.368 476.00804 486.21604 497.48005 517.76809 537.3841 554.5041 575.7201 594.1841 605.99209 627.20809 638.47207 658.7601 677.22409 691.65609 708.77609">But to really feel the magnitude of those </tspan></text>
<text fill="#ffffff" xml:space="preserve" transform="matrix(.75 0 0 .75 90.36614 14.929134)" font-size="32" font-family="DroidSerif"><tspan y="343.72" x="9 26.12 44.648004 61.768007 82.408008 93.672008 108.104007 116.104007 127.43201 154.98401 172.104 183.43199 204.07199 221.19199 238.31198 257.92799 269.25599 280.52 298.98399 310.31199 328.84 339.048 353.48 363.68803 374.95204 386.28004 397.54405 417.83204 434.95204 465.16004 476.48805 486.69606 507.33607 518.66409 529.92807 550.21609 567.33609 577.54409 592.6161 603.9441 623.5601 638.63217 657.0961 676.71218 693.83218 708.9042">events, we need to visit them in their proper </tspan></text>
<text fill="#ffffff" xml:space="preserve" transform="matrix(.75 0 0 .75 90.36614 14.929134)" font-size="32" font-family="DroidSerif"><tspan y="381.72" x="9 24.744 43.208 63.848 75.112 92.232 110.728008 121.992008 131.14402 151.75202 171.68802 188.80802 200.07202 220.68003 240.96802 255.40003 276.00804 295.62403 312.74403 329.96003 340.16804 360.80805 381.41606 392.68006 412.96806 430.08805 450.69606 465.12806 476.39207 494.85606 509.92805 527.976 548.58407 567.04806 578.856 599.46408 619.7521 640.0401 670.2481 688.2321 708.87216">context. Let us begin the story of human </tspan></text>
<text fill="#ffffff" xml:space="preserve" transform="matrix(.75 0 0 .75 90.36614 14.929134)" font-size="32" font-family="DroidSerif"><tspan y="419.72" x="9 29.288 39.496004 53.928 65.192 83.656009 98.728008">history</tspan></text>
<text fill="#ffffff" xml:space="preserve" transform="matrix(.75 0 0 .75 90.36614 14.929134)" font-size="32" font-family="TimesNewRomanPSMT"><tspan y="419.72" x="116.875">&#x2026;</tspan></text>
</g>
</g>
</g>
</svg>
