<?xml version="1.0" encoding="UTF-8" standalone="no"?>
<!DOCTYPE svg PUBLIC "-//W3C//DTD SVG 1.1//EN" "http://www.w3.org/Graphics/SVG/1.1/DTD/svg11.dtd">
<svg xmlns="http://www.w3.org/2000/svg" xmlns:xlink="http://www.w3.org/1999/xlink" version="1.1" width="720pt" height="405pt" viewBox="0 0 720 405">
<g enable-background="new">
<g>
<clipPath id="cp1">
<path transform="matrix(.001968504,0,0,.001968504,0,0)" d="M 0 0 L 365760 0 L 365760 205740 L 0 205740 L 0 0 Z "/>
</clipPath>
<g clip-path="url(#cp1)">
<path transform="matrix(.001968504,0,0,.001968504,0,0)" d="M 0 0 L 365760 0 L 365760 205740 L 0 205740 Z " fill-rule="evenodd"/>
<path transform="matrix(.001968504,0,0,.001968504,0,0)" d="M 46002 7740 L 319758 7740 L 319758 198000 L 46002 198000 Z " fill-opacity="0" fill-rule="evenodd"/>
<text fill="#ffffff" xml:space="preserve" transform="matrix(.75 0 0 .75 90.555118 15.23622)" font-size="24" font-family="DroidSerif" font-style="italic"><tspan y="32.04" x="9 31.488 45.384004 54.216005 66.048007 77.256008 84.552 98.448009 105.744 111.96001 126.98401 140.76001 162.24 176.08802 189.86402 204.24002 216.07202 230.44803 239.28003 250.39203">Material Components:</tspan></text>
<text fill="#ffffff" xml:space="preserve" transform="matrix(.75 0 0 .75 90.555118 15.23622)" font-size="24" font-family="DroidSerif" font-style="italic"><tspan y="90.04" x="9 22.176003 35.952005 47.160005 53.376005 65.20801 79.10401 90.76801 105.14401 111.360019 125.208019 139.10402 150.31201 159.14402 166.44002 178.10402 185.40003 199.24803 213.14403 227.52004 236.35204">For each participant:</tspan></text>
<text fill="#ffffff" xml:space="preserve" transform="matrix(.75 0 0 .75 90.555118 15.23622)" font-size="24" font-family="Arial" font-style="italic"><tspan y="119.04" x="18.503907">&#x25cf;</tspan></text>
<text fill="#ffffff" xml:space="preserve" transform="matrix(.75 0 0 .75 90.555118 15.23622)" font-size="24" font-family="DroidSerif" font-style="italic"><tspan y="119.04" x="57 71.688 91.32001 105.09601 111.31201 118.60801 132.98401 146.88 158.712 171.792 178.00801 189.67201 203.56801 214.776 228.672">Two index cards</tspan></text>
<text fill="#ffffff" xml:space="preserve" transform="matrix(.75 0 0 .75 90.555118 15.23622)" font-size="24" font-family="Arial" font-style="italic"><tspan y="148.04" x="18.503907">&#x25cf;</tspan></text>
<text fill="#ffffff" xml:space="preserve" transform="matrix(.75 0 0 .75 90.555118 15.23622)" font-size="24" font-family="DroidSerif" font-style="italic"><tspan y="148.04" x="57 71.88 83.712 98.088 104.304 118.08 129.288 135.504 149.352 161.184 175.56002 187.22402 194.52002">Pen or pencil</tspan></text>
<text fill="#ffffff" xml:space="preserve" transform="matrix(.75 0 0 .75 90.555118 15.23622)" font-size="24" font-family="Arial" font-style="italic"><tspan y="177.04" x="18.503907">&#x25cf;</tspan></text>
<text fill="#ffffff" xml:space="preserve" transform="matrix(.75 0 0 .75 90.555118 15.23622)" font-size="24" font-family="DroidSerif" font-style="italic"><tspan y="177.04" x="57 73.92 88.296 94.512 108.888 123.264 130.56 137.856 146.688 152.904 164.56801 178.464 192.84001 206.73601 214.03202">An unlit candle</tspan></text>
<text fill="#ffffff" xml:space="preserve" transform="matrix(.75 0 0 .75 90.555118 15.23622)" font-size="24" font-family="Arial" font-style="italic"><tspan y="206.04" x="18.503907">&#x25cf;</tspan></text>
<text fill="#ffffff" xml:space="preserve" transform="matrix(.75 0 0 .75 90.555118 15.23622)" font-size="24" font-family="DroidSerif" font-style="italic"><tspan y="206.04" x="57 71.88 83.088 96.864 105.696 117.528 129.192 138.024 145.32 159.09601 173.47202 179.47202 185.68802 192.98403 200.59203 206.80803 220.70403 232.53603 243.64803 250.94403 262.15205 273.98405 287.88005 293.88005 300.09605 307.70405 321.48005 332.68806 338.90406 353.28007 367.05607 374.35206 388.24806 395.54405 409.92005 423.26405 429.48005 438.31205 452.68806 466.58406 475.41606 481.63206 493.29606 507.19206 521.56808 535.46408 542.7601 554.59207 560.80807 580.44009 594.81607 602.11209 609.4081 621.2401 627.4561 634.75216 642.04818">Protection, if desired, for holding that candle while lit</tspan></text>
<text fill="#ffffff" xml:space="preserve" transform="matrix(.75 0 0 .75 90.555118 15.23622)" font-size="24" font-family="Arial" font-style="italic"><tspan y="235.04" x="18.503907">&#x25cf;</tspan></text>
<text fill="#ffffff" xml:space="preserve" transform="matrix(.75 0 0 .75 90.555118 15.23622)" font-size="24" font-family="DroidSerif" font-style="italic"><tspan y="235.04" x="57 73.92 80.136 91.248 112.728008 126.62401 133.92002 141.21602 147.43202 159.09603 173.47203 187.32004 193.53604 207.31204 214.92005 221.13605 235.03205 248.88005 262.72807 270.02406 281.85606 288.07206 299.73606 307.03205 320.92805 332.76005">A small cup of apple cider</tspan></text>
<text fill="#ffffff" xml:space="preserve" transform="matrix(.75 0 0 .75 90.555118 15.23622)" font-size="24" font-family="Arial" font-style="italic"><tspan y="264.04" x="18.503907">&#x25cf;</tspan></text>
<text fill="#ffffff" xml:space="preserve" transform="matrix(.75 0 0 .75 90.555118 15.23622)" font-size="24" font-family="DroidSerif" font-style="italic"><tspan y="264.04" x="57 73.439998 87.336 99.168 112.608 126.984 140.88 149.712 161.544 167.76001 187.39202 201.28801 210.12001 221.95201">Adequate water</tspan></text>
<text fill="#ffffff" xml:space="preserve" transform="matrix(.75 0 0 .75 90.555118 15.23622)" font-size="24" font-family="DroidSerif" font-style="italic"><tspan y="322.04" x="9 22.176003 35.952005 47.160005 53.376005 62.208005 76.58401 88.41601 94.63201 107.97601 119.18401 132.96 147.33602 161.18402">For the group:</tspan></text>
<text fill="#ffffff" xml:space="preserve" transform="matrix(.75 0 0 .75 90.555118 15.23622)" font-size="24" font-family="Arial" font-style="italic"><tspan y="351.04" x="18.503907">&#x25cf;</tspan></text>
<text fill="#ffffff" xml:space="preserve" transform="matrix(.75 0 0 .75 90.555118 15.23622)" font-size="24" font-family="DroidSerif" font-style="italic"><tspan y="351.04" x="57 71.952 79.248 92.592 106.968 115.8 122.01601 136.39202 150.76802 158.06403 165.36003 174.19203 180.40804 192.07204 205.96804 220.34404 234.24004 241.53604 253.36804 264.48005 270.48005 276.69606 290.59205 301.80006 312.52806 326.42405 340.80006 354.14405 365.97605 379.87205 386.08805 393.38404 400.68003 415.05604 426.88804 440.78404 451.99205 459.28804">Eight unlit candles, arranged linearly</tspan></text>
<text fill="#ffffff" xml:space="preserve" transform="matrix(.75 0 0 .75 90.555118 15.23622)" font-size="24" font-family="Arial" font-style="italic"><tspan y="380.04" x="18.503907">&#x25cf;</tspan></text>
<text fill="#ffffff" xml:space="preserve" transform="matrix(.75 0 0 .75 90.555118 15.23622)" font-size="24" font-family="DroidSerif" font-style="italic"><tspan y="380.04" x="57 72.024 85.920009 100.296009 114.19201 121.48801 133.32 147.69602 161.47202 168.76802 182.66402 194.49602 205.70401 216.81601 223.03202 236.80802 248.01602 254.23203 261.528 268.824 283.2 295.032 308.928 320.13603 326.35203 338.01603 351.91203 366.28804 380.18403 392.01603 399.312 413.208 426.696 437.424">Candleholders or linear candelabra</tspan></text>
<text fill="#ffffff" xml:space="preserve" transform="matrix(.75 0 0 .75 90.555118 15.23622)" font-size="24" font-family="Arial" font-style="italic"><tspan y="409.04" x="18.503907">&#x25cf;</tspan></text>
<text fill="#ffffff" xml:space="preserve" transform="matrix(.75 0 0 .75 90.555118 15.23622)" font-size="24" font-family="DroidSerif" font-style="italic"><tspan y="409.04" x="57 73.92 80.136 91.248 105.024 119.4 130.608 142.272 154.104 160.32 174.09601 181.70401 187.92002 195.52802 202.82402 216.72002 238.20001">A source of flame</tspan></text>
<text fill="#ffffff" xml:space="preserve" transform="matrix(.75 0 0 .75 90.555118 15.23622)" font-size="24" font-family="Arial" font-style="italic"><tspan y="438.04" x="18.503907">&#x25cf;</tspan></text>
<text fill="#ffffff" xml:space="preserve" transform="matrix(.75 0 0 .75 90.555118 15.23622)" font-size="24" font-family="DroidSerif" font-style="italic"><tspan y="438.04" x="57 73.92 80.136 91.8 105.576007 127.05601 140.904 154.8 166.464 175.296 181.51201 192.62401 199.92002 207.21602 221.11202 232.94402 240.38402 254.28002 268.17604 281.088 294.984 309.36003 321.02403 332.85603 344.06404 350.06404 356.28004 367.39204 381.76805 393.43205 407.80805 414.02406 427.92005 439.03205 445.24806 459.14405 465.36006 484.99205 492.28804 503.49604 515.328 522.624 534.45608 545.56808 556.68008 562.89608 584.37606 598.15206 612.528 623.64">A compact slide-advancer, such as a wireless mouse</tspan></text>
<text fill="#ffffff" xml:space="preserve" transform="matrix(.75 0 0 .75 90.555118 15.23622)" font-size="24" font-family="Arial" font-style="italic"><tspan y="467.04" x="18.503907">&#x25cf;</tspan></text>
<text fill="#ffffff" xml:space="preserve" transform="matrix(.75 0 0 .75 90.555118 15.23622)" font-size="24" font-family="DroidSerif" font-style="italic"><tspan y="467.04" x="57 73.92 80.136 87.744 95.04 106.248 118.08 124.296009 136.128 149.20801 158.04001 165.33602 179.71202 193.05603 207.43204 214.72805 225.84004 240.21605 252.04805 263.25605 269.47206 283.24806 294.45606 300.67207 311.78407 319.08006 340.56007 347.85606 355.15205 369.04804">A fire extinguisher or similar</tspan></text>
<text fill="#ffffff" xml:space="preserve" transform="matrix(.75 0 0 .75 90.555118 15.23622)" font-size="24" font-family="Arial" font-style="italic"><tspan y="496.04" x="18.503907">&#x25cf;</tspan></text>
<text fill="#ffffff" xml:space="preserve" transform="matrix(.75 0 0 .75 90.555118 15.23622)" font-size="24" font-family="DroidSerif" font-style="italic"><tspan y="496.04" x="57 73.92 80.136 101.616008 115.992008 127.104007 134.40001 146.06401 153.50402 167.35202 174.64803 188.06403 200.71202 208.00803 222.38404 235.72803 241.94403 253.05603 265.70405 276.81605 285.64805 297.48005 318.96006 324.96006 331.17607 338.47206 346.08006 352.29606 366.19206 378.02406 389.13606 396.43205 407.64006 419.47206">A music-playing system, if desired</tspan></text>
<path transform="matrix(.001968504,0,0,.001968504,0,0)" d="M 213610 43846 L 507262 43846 L 507262 78106 L 213610 78106 Z " fill-opacity="0" fill-rule="evenodd"/>
</g>
</g>
</g>
</svg>
