<?xml version="1.0" encoding="UTF-8" standalone="no"?>
<!DOCTYPE svg PUBLIC "-//W3C//DTD SVG 1.1//EN" "http://www.w3.org/Graphics/SVG/1.1/DTD/svg11.dtd">
<svg xmlns="http://www.w3.org/2000/svg" xmlns:xlink="http://www.w3.org/1999/xlink" version="1.1" width="720pt" height="405pt" viewBox="0 0 720 405">
<g enable-background="new">
<g>
<clipPath id="cp32">
<path transform="matrix(.001968504,0,0,.001968504,0,0)" d="M 0 0 L 365760 0 L 365760 205740 L 0 205740 L 0 0 Z "/>
</clipPath>
<g clip-path="url(#cp32)">
<path transform="matrix(.001968504,0,0,.001968504,0,0)" d="M 0 0 L 365568 0 L 365568 205740 L 0 205740 Z " fill-opacity=".4431" fill-rule="evenodd"/>
<path transform="matrix(.001968504,0,0,.001968504,0,0)" d="M 45906 10962 L 319662 10962 L 319662 194778 L 45906 194778 Z " fill-opacity="0" fill-rule="evenodd"/>
<text fill="#ffffff" xml:space="preserve" transform="matrix(.75 0 0 .75 90.36614 21.578742)" font-size="32" font-family="DroidSerif"><tspan y="77.72" x="9 23.400002 53.384004 71.368007 82.632 102.920009 120.04001 150.24802 168.23203 179.49604 189.70404 205.44805 219.88005 242.88805 253.09604 267.52806 290.53605 301.80006 322.08805 339.20805 362.21604 379.43205 397.41606 408.68006 425.80006 448.80805 466.79206 487.43208 507.04808 530.056 548.104 565.224 583.272 606.27999 624.74398 636.55197 659.55996 670.8239 691.11196 708.23196">&#x201c;Mathematics is the gate and key of the </tspan></text>
<text fill="#ffffff" xml:space="preserve" transform="matrix(.75 0 0 .75 90.36614 21.578742)" font-size="32" font-family="DroidSerif"><tspan y="115.72" x="9 23.432002 39.176004 49.384004 66.504009 87.144008 102.88801 120.00801 134.44002 143.59201 152.74402 161.89603 190.18402 214.60002 231.72002 248.93602 258.85603 275.976 291.72 302.984 331.272 349.736 361.544 389.832 420.04 438.02403 449.28804 469.57603 486.696 516.904 534.888 546.152 556.36 572.104 586.536 614.82406 642.37606 660.84 675.91207 694.60006 709.03207">sciences... Neglect of mathematics works </tspan></text>
<text fill="#ffffff" xml:space="preserve" transform="matrix(.75 0 0 .75 90.36614 21.578742)" font-size="32" font-family="DroidSerif"><tspan y="153.72" x="9 19.208 39.848 49.416 69.704 84.776 102.824008 125.352008 136.61602 155.08002 177.60802 195.59201 205.51201 215.432 237.96 256.648 277.28804 295.752 323.30403 333.22404 350.34403 369.96003 387.17604 404.29603 412.29603 434.824 449.256 459.46403 480.10404 495.84803 512.968 535.49606 555.78408 572.90408 595.43209 622.9841 643.2721 661.7361 684.2641 694.4721 708.9041">injury to all knowledge, since he who is </tspan></text>
<text fill="#ffffff" xml:space="preserve" transform="matrix(.75 0 0 .75 90.36614 21.578742)" font-size="32" font-family="DroidSerif"><tspan y="191.72" x="9 19.208 36.424005 57.064004 75.528 89.96 107.944 128.584 139.848 149.896 168.36 180.168 190.21599 200.42398 211.68799 221.73598 237.47998 255.46399 276.104 296.74403 315.208 326.47203 336.52003 355.208 375.84803 394.312 421.864 431.91203 443.17604 463.46403 480.584 490.63203 509.096 520.36 540.648 557.768 572.84 582.88809 597.32009 613.0641 623.2721 640.3921 661.0321 676.7761 693.8961 708.3281">ignorant of it cannot know the other sciences </tspan></text>
<text fill="#ffffff" xml:space="preserve" transform="matrix(.75 0 0 .75 90.36614 21.578742)" font-size="32" font-family="DroidSerif"><tspan y="229.72" x="9 27.464 42.536005 64.136 75.4 95.688 112.80801 134.408 145.67201 165.96 176.168 196.808 214.024 228.45601 250.056 268.52 280.328 301.928 313.19203 333.48 343.68803 358.12004 379.72004 407.27204 425.73603 440.808 450.72804 470.34403 479.49604 501.09605 523.65609 544.2961 563.9121 585.51217 613.06417 633.3522 651.3362 662.60018 684.2002 694.4082 708.8402">or the things of this world. And what is </tspan></text>
<text fill="#ffffff" xml:space="preserve" transform="matrix(.75 0 0 .75 90.36614 21.578742)" font-size="32" font-family="DroidSerif"><tspan y="267.72" x="9 36.552003 55.016004 70.088008 84.520008 101.64001 109.64001 118.37601 148.58402 165.70401 186.34401 195.08 222.632 242.92 261.384 270.12 288.104 303.176 320.296 329.03199 340.296 360.58399 380.87199 395.304 404.03999 414.248 431.464 452.104 470.568 484.99998 502.98399 523.62399 534.88796 543.62399 561.608 576.68 593.8 602.536 622.82406 643.46408 661.44808 681.0641 690.9841 708.10409">worse, men who are thus ignorant are unable </tspan></text>
<text fill="#ffffff" xml:space="preserve" transform="matrix(.75 0 0 .75 90.36614 21.578742)" font-size="32" font-family="DroidSerif"><tspan y="305.72" x="9 20.264 38.728 47.016 66.632 83.75201 98.824008 114.56801 131.688 141.896 160.424 177.54399 185.83199 197.096 217.38399 234.50399 244.71198 259.78398 268.07197 286.53596 314.08796 334.72798 343.01597 353.22398 370.43998 391.08 409.54399 423.97596 441.95997 462.59999 478.34397 495.46397 503.75196 521.73599 542.376 561.992 570.28 584.71206 603.176 611.46408 631.0801 649.54409 657.8321 678.4721 696.9361 708.2001">to perceive their own ignorance and so do not </tspan></text>
<text fill="#ffffff" xml:space="preserve" transform="matrix(.75 0 0 .75 90.36614 21.578742)" font-size="32" font-family="DroidSerif"><tspan y="343.72" x="9 23.432002 40.552003 57.672006 76.36001 84.64801 102.63201 110.92001 125.99201 143.11202 173.32003 190.44002 210.05602 225.25601 234.40802 248.80802">seek a remedy.&#x201d; </tspan></text>
<text fill="#ffffff" xml:space="preserve" transform="matrix(.75 0 0 .75 90.36614 21.578742)" font-size="32" font-family="DroidSerif"><tspan y="419.72" x="9 41 49.288003 70.248 88.712009 105.92801 123.04801 138.12001 146.408 167.304 185.288 201.032 219.496 240.136 248.136 256.424 280.168 299.784 320.072 334.504 342.792 372.776 390.76 400.328 420.616 435.048 443.336 454.408 472.296 490.184 508.072 525.95999">&#x2014; Roger Bacon, Opus Majus (1266)</tspan></text>
</g>
</g>
</g>
</svg>
