<?xml version="1.0" encoding="UTF-8" standalone="no"?>
<!DOCTYPE svg PUBLIC "-//W3C//DTD SVG 1.1//EN" "http://www.w3.org/Graphics/SVG/1.1/DTD/svg11.dtd">
<svg xmlns="http://www.w3.org/2000/svg" xmlns:xlink="http://www.w3.org/1999/xlink" version="1.1" width="720pt" height="405pt" viewBox="0 0 720 405">
<g enable-background="new">
<g>
<clipPath id="cp34">
<path transform="matrix(.001968504,0,0,.001968504,0,0)" d="M 0 0 L 365760 0 L 365760 205740 L 0 205740 L 0 0 Z "/>
</clipPath>
<g clip-path="url(#cp34)">
<path transform="matrix(.001968504,0,0,.001968504,0,0)" d="M 0 0 L 365568 0 L 365568 205740 L 0 205740 Z " fill-opacity=".5196" fill-rule="evenodd"/>
<path transform="matrix(.001968504,0,0,.001968504,0,0)" d="M 45906 10962 L 319662 10962 L 319662 194778 L 45906 194778 Z " fill-opacity="0" fill-rule="evenodd"/>
<text fill="#ffffff" xml:space="preserve" transform="matrix(.75 0 0 .75 90.36614 21.578742)" font-size="32" font-family="DroidSerif"><tspan y="115.72" x="9 28.584002 48.872 65.992008 75.464008 89.896 105.64001 115.84801 132.968 153.608 164.87201 175.08002 186.88802 197.09601 212.84001 222.31201 252.52002 269.64 280.90403 301.19203 319.656 339.272 347.272 356.744 372.48799 390.95198 421.15998 440.77598 450.98399 471.624 488.744 508.36 517.83206 545.38406 555.59207 566.856 587.14407 596.6161 624.1681 639.2401 649.4481 660.7121 670.9201 691.5601 708.7761">The scientific method, combined with writing </tspan></text>
<text fill="#ffffff" xml:space="preserve" transform="matrix(.75 0 0 .75 90.36614 21.578742)" font-size="32" font-family="DroidSerif"><tspan y="153.72" x="9 26.984002 47.624 67.240009 79.59201 97.57601 109.92802 130.21602 150.85602 161.06403 179.59203 196.71202 211.78403 226.21604 236.42404 247.68805 265.73606 278.08805 292.52006 310.56806 325.00007 336.26408 353.38407 383.59208 391.59208 403.94407 434.15208 452.13609 467.20808 485.25605 502.37605 521.99209 534.3441 545.6081 565.8961 583.0161 595.36819 609.8002 621.06417 639.04818 654.1202 665.38418 677.7362 696.2002 708.0082">and a university system, marked the start of </tspan></text>
<text fill="#ffffff" xml:space="preserve" transform="matrix(.75 0 0 .75 90.36614 21.578742)" font-size="32" font-family="DroidSerif"><tspan y="191.72" x="9 26.984002 47.624 67.272 85.256008 101.00001 116.74401 137.03202 167.24002 187.52802 197.44802 215.432 226.69602 236.90402 255.36803 276.00804 295.656 314.12 325.928 345.576 364.26399 384.904 403.36799 430.91999 440.84 457.96 477.576 494.792 511.912 521.06399 540.712 560.29598 580.584 590.792 605.224 624.872 640.616 659.08 679.36807 689.288 708.90408">an accumulation of knowledge. This could </tspan></text>
<text fill="#ffffff" xml:space="preserve" transform="matrix(.75 0 0 .75 90.36614 21.578742)" font-size="32" font-family="DroidSerif"><tspan y="229.72" x="9 29.288 47.272005 65.8 82.920009 113.992008 144.20001 162.18402 177.25603 195.30403 212.42403 232.04003 263.11204 274.37605 294.66404 311.78404 342.85603 362.47203 379.592 396.808 407.01603 427.65605 448.29606 458.50407 479.14408 496.36009 527.43209 545.89608 557.70407 588.77609 606.7601 637.8321 652.2641 662.1841 680.6481 708.2001">have marked the beginning of a slow </tspan></text>
<text fill="#ffffff" xml:space="preserve" transform="matrix(.75 0 0 .75 90.36614 21.578742)" font-size="32" font-family="DroidSerif"><tspan y="267.72" x="9 20.264 34.696 52.68 73.32 87.752 97.96 109.224 119.432 137.896 158.536 175.784 185.992 206.632 217.89601 236.36002 253.60802 264.872 285.16 302.28 319.52799 349.736 368.19999 387.81599 404.93598 420.00798 440.64799 457.89598 475.01597 489.44795 507.43196 516.5839 533.832 545.576 566.216 580.648 591.912 609.032 627.016 646.632 654.632 671.88009 689.76809 707.65609">transition into the modern era. Instead, 81 </tspan></text>
<text fill="#ffffff" xml:space="preserve" transform="matrix(.75 0 0 .75 90.36614 21.578742)" font-size="32" font-family="DroidSerif"><tspan y="305.72" x="9 27.048 44.168 62.152 77.224 91.656 101.48 119.464008 131.272 142.53601 159.656 174.72801 184.552 205.51201 223.97602 241.19202 258.312 273.384 283.208 304.104 322.088 337.832 356.296 376.936 384.936 394.76 415.048 425.256 439.68803 450.95204 469.41603 484.488 502.536 512.36 539.912 557.896 572.328 582.15206 601.76809 618.88809 633.32009 651.3041 661.5121 671.43209 688.55209 708.1681">years after Roger Bacon, history was derailed </tspan></text>
<text fill="#ffffff" xml:space="preserve" transform="matrix(.75 0 0 .75 90.36614 21.578742)" font-size="32" font-family="DroidSerif"><tspan y="343.72" x="9 27.976002 46.024003 54.312005 72.296009 80.58401 97.80001 112.87201 129.992 147.97602 159.24002 167.52802 187.14402 197.06401 215.048 232.264 252.552 269.672">by a great plague.</tspan></text>
</g>
</g>
</g>
</svg>
