<?xml version="1.0" encoding="UTF-8" standalone="no"?>
<!DOCTYPE svg PUBLIC "-//W3C//DTD SVG 1.1//EN" "http://www.w3.org/Graphics/SVG/1.1/DTD/svg11.dtd">
<svg xmlns="http://www.w3.org/2000/svg" xmlns:xlink="http://www.w3.org/1999/xlink" version="1.1" width="720pt" height="405pt" viewBox="0 0 720 405">
<g enable-background="new">
<g>
<clipPath id="cp35">
<path transform="matrix(.001968504,0,0,.001968504,0,0)" d="M 0 0 L 365760 0 L 365760 205740 L 0 205740 L 0 0 Z "/>
</clipPath>
<g clip-path="url(#cp35)">
<path transform="matrix(.001968504,0,0,.001968504,0,0)" d="M 0 0 L 365568 0 L 365568 205740 L 0 205740 Z " fill-opacity=".6275" fill-rule="evenodd"/>
<path transform="matrix(.001968504,0,0,.001968504,0,0)" d="M 45906 10962 L 319662 10962 L 319662 194778 L 45906 194778 Z " fill-opacity="0" fill-rule="evenodd"/>
<text fill="#ffffff" xml:space="preserve" transform="matrix(.75 0 0 .75 90.36614 21.578742)" font-size="21.333334" font-family="DroidSerif" font-style="italic"><tspan y="29.48" x="9 21.437335 33.789339 45.480005 55.997339 62.22667 70.07734 82.856 93.37334 99.60267 106.36533 118.610668 131.38933 141.35199 149.20265 161.98133 168.21065 178.57865 190.93065 203.70932 216.06133 222.54666 233.064 238.39733 244.62665 262.07734 274.856 281.3413 291.70933 304.48799 310.71733 320.68 331.19734 343.50666 353.46934 363.98667 373.864 384.38136 397.16 405.01069 414.888 421.11735 428.96803 441.74668 452.264 458.49336 470.80268 480.76536 493.01069 504.872 514.83468 525.352 535.2293 545.1066 551.33596 563.5813 570.344 576.5733 586.4506 596.8186 603.30398 613.8213 626.6 636.96798 647.4853 653.5866 659.8159 676.7119 688.9573 695.4426 707.7946">Take the fourth candle, which represents the progress of science. Hold </tspan></text>
<text fill="#ffffff" xml:space="preserve" transform="matrix(.75 0 0 .75 90.36614 21.578742)" font-size="21.333334" font-family="DroidSerif" font-style="italic"><tspan y="55.48" x="9 15.485334 23.336003 28.669337 40.872007 58.322675 71.10134 77.58668 84.072017 94.58935 106.79202 114.64269 127.42136 133.9067 143.78403 155.9867 162.47203 172.34937 184.55204 194.5147 205.03203 217.38404 229.73604 235.8587 248.06137 260.26405 272.4667 284.66938 296.87205 309.0747 321.27738 333.48005 345.6827 357.88539 370.08805 382.2907 394.49339 406.69606 418.8987 431.10139 443.30406 455.5067 467.70939 479.91206 492.11473 504.31739 516.52">it, while this is read:                        </tspan></text>
<text xml:space="preserve" transform="matrix(.75 0 0 .75 90.36614 21.578742)" font-size="21.333334" font-family="DroidSerif" font-style="italic"><tspan y="55.48" x="529.6024 541.80508 554.0077 566.2103 578.41299 590.6156 602.81826 615.0209 627.2235 639.42617 651.6288 663.8314 676.03408 688.2367 700.43936 705.77267">              , </tspan></text>
<text fill="#ffffff" xml:space="preserve" transform="matrix(.75 0 0 .75 90.36614 21.578742)" font-size="28" font-family="DroidSerif"><tspan y="113.88" x="9 21.6 38.736 56.488 71.468 79.952 92.58 107.560009 123.772 138.752 156.812 166.668 184.42 192.90399 208.69599 223.67598 239.41199 252.59999 261.08399 276.81999 287.15199 297.00798 311.98799 325.17597 333.65998 342.59199 352.44798 360.93199 378.09599 393.076 408.13999 423.87599 441.93598 448.93598 457.41999 466.352 476.20799 484.692 498.468 514.204 540.636 555.61599 564.1 573.956 590.112 598.596 616.04006 634.10006 649.16409 657.84408 673.5801 691.6401 708.8041">&#x201c;The seventh year after it began, it came to England </tspan></text>
<text fill="#ffffff" xml:space="preserve" transform="matrix(.75 0 0 .75 90.36614 21.578742)" font-size="28" font-family="DroidSerif"><tspan y="147.88" x="9 24.736 42.796 59.960004 72.700008 83.032009 91.964008 105.15201 117.78001 127.63601 140.37602 157.54003 172.52002 187.58402 203.32003 221.38002 234.12003 243.05204 261.11204 273.85206 283.70805 301.46006 316.44007 329.18009 339.03608 355.19209 379.30009 397.36009 409.98808 422.7281 438.46409 456.52409 473.68809 486.4281 503.5921 519.7481 532.9361 542.7921 555.4201 568.1601 576.5321 592.6881 601.6201 619.6801 628.6121 646.6721 661.73617 674.47616 690.63217 708.69216">and first began in the towns and ports joining on </tspan></text>
<text fill="#ffffff" xml:space="preserve" transform="matrix(.75 0 0 .75 90.36614 21.578742)" font-size="28" font-family="DroidSerif"><tspan y="181.88" x="9 18.856 36.608 51.588 68.472 81.1 96.08 111.816 125.592 141.748 157.48401 170.11202 179.96802 192.59603 199.59603 216.48003 225.41204 243.47203 260.35603 280.712 296.868 310.056 322.684 337.664 347.52 360.14799 377.9 386.832 400.02 415 422 438.884 462.992 480.74403 495.72404 508.91203 523.892 530.892 547.77609 563.5121 576.1401 593.0241 601.9561 620.0161 636.90017 653.05618 662.9122 680.6642 695.64419 708.83218">the seacoasts, in Dorsetshire, where, as in other </tspan></text>
<text fill="#ffffff" xml:space="preserve" transform="matrix(.75 0 0 .75 90.36614 21.578742)" font-size="28" font-family="DroidSerif"><tspan y="215.88" x="9 22.776001 38.932 56.684 74.744 84.600009 93.532009 108.51201 121.14001 128.14002 154.82402 163.75603 173.61203 200.29604 226.72805 242.46405 259.62806 274.60807 301.29209 311.14808 328.9001 343.8801 370.56413 384.34013 400.49613 418.24815 436.30815 446.16413 459.3521 475.1441 501.82814 518.9921 536.74417 545.67617 555.53219 570.51217 597.19619 613.40817 629.56417 638.49618 655.66018 682.3442 698.5002 708.83218">counties, it made the country quite void of </tspan></text>
<text fill="#ffffff" xml:space="preserve" transform="matrix(.75 0 0 .75 90.36614 21.578742)" font-size="28" font-family="DroidSerif"><tspan y="249.88" x="9 17.932 35.992 53.744005 69.48 86.644008 95.576007 105.43201 121.16801 139.22801 149.08402 161.71202 179.80002 192.42803 208.58403 226.67203 236.52803 254.28003 270.01603 279.872 297.96003 307.816 325.56803 340.54804 353.73603 368.71604 386.80406 410.91206 425.89207 439.08006 454.06007 472.14808 487.88407 496.56407 522.99606 539.15206 551.78 561.63607 579.72409 597.78408 613.94009 632.00009 646.98007 665.06808 673.74807 688.728 699.06008 708.9161">inhabitants so that there were almost none left </tspan></text>
<text fill="#ffffff" xml:space="preserve" transform="matrix(.75 0 0 .75 90.36614 21.578742)" font-size="28" font-family="DroidSerif"><tspan y="283.88" x="9 24.736 33.416 42.348 58.56 73.54 81.548007 96.66801 104.67601 112.68401 120.69202 135.81201 154.09601 171.848 181.70401 196.824 212.56002 222.41602 237.53601 246.216 261.196 279.256 294.32 304.176 321.928 337.04804 345.98005 355.83604 370.95606 384.73207 400.46806 426.90007 441.88008 457.0001 466.85609 483.0121 498.1321 518.0961 526.7761 542.9321 560.68417 574.46017 589.4401 602.0681 611.92416 626.9041 640.0921 647.0921 662.2121 678.0041 692.9841 708.7201">alive. ... But at length it came to Gloucester, yea </tspan></text>
<text fill="#ffffff" xml:space="preserve" transform="matrix(.75 0 0 .75 90.36614 21.578742)" font-size="28" font-family="DroidSerif"><tspan y="317.88" x="9 23.98 40.192 55.172 73.232 82.332 92.188 108.344 117.444 138.22 154.404 164.73601 180.89202 194.08002 211.24402 220.34403 236.08003 254.14003 271.30403 280.40403 290.26 306.41603 315.51603 332.96003 349.11604 367.17604 384.34004 400.49604 418.55604 425.55604 434.65605 450.39204 468.45204 485.61604 494.71604 505.04804 513.98007 532.04006 547.77609 556.45608 565.13607 580.92807 590.0281 598.9601 608.8161 617.91616 630.5441 647.7081 660.8961 675.8761 691.6121 708.7761">even to Oxford and to London, and finally it spread </tspan></text>
<text fill="#ffffff" xml:space="preserve" transform="matrix(.75 0 0 .75 90.36614 21.578742)" font-size="28" font-family="DroidSerif"><tspan y="351.88" x="9 25.156 41.368005 56.348005 69.536 86.644008 102.380008 111.060009 119.740009 136.848 154.292 172.352 187.416 196.09601 211.83202 229.89202 247.05602 264.164 279.9 297.96 315.124 332.232 344.86 361.016 378.124 402.232 417.968 430.59599 440.45198 455.43199 472.59599 489.70399 499.55998 517.31198 532.29196 549.39999 566.56399 581.54397 597.69998 614.86398 623.54397 638.5239 655.63198 665.488 683.24 698.976 708.83206">over all England and so wasted the people that </tspan></text>
<text fill="#ffffff" xml:space="preserve" transform="matrix(.75 0 0 .75 90.36614 21.578742)" font-size="28" font-family="DroidSerif"><tspan y="385.88" x="9 21.628003 35.404005 51.140005 64.328 78.104007 93.08401 100.336009 110.19201 127.94401 142.92401 150.17601 160.03202 175.01201 193.072 202.92801 220.68001 227.932 245.09601 260.07603 273.264 285.892 302.048 320.108 327.36003 343.51603 353.84803 361.10005 376.83604 394.33604 410.12803 417.38005 430.00804 446.16404 459.35203 469.208 476.46003 500.56803 516.304 528.932 536.184 544.864 559.844 570.176 580.03207 587.28408 603.0201 611.7001 620.6321 636.84408 651.82406 659.83206">scarce the tenth person of any sort was left alive.&#x201d;</tspan></text>
<text fill="#ffffff" xml:space="preserve" transform="matrix(.75 0 0 .75 90.36614 21.578742)" font-size="28" font-family="DroidSerif"><tspan y="419.88" x="9 37 44.252 64.216 79.19601 95.352008 105.684009 116.01601 129.20401 144.184 159.97602 167.22801 177.08402 194.83602 209.81601 217.06801 235.352 251.08802 266.88 281.86003 295.048 302.048 309.30003 326.46403 344.21604 357.40403 373.56004 391.62004 400.55204 414.32804 430.48405 448.54405 455.79606 475.53605 493.59605 508.66004 517.34 526.27206 542.00808 556.98806 564.24008 573.92807 589.58 605.232 620.884 636.53598">&#x2014; Geoffrey the Baker, Chronicon Angliae (1360)</tspan></text>
<text fill="#ffffff" xml:space="preserve" transform="matrix(.75 0 0 .75 90.36614 21.578742)" font-size="26.666666" font-family="DroidSerif"><tspan y="419.88" x="646.71096"> </tspan></text>
<text fill="#ffffff" xml:space="preserve" transform="matrix(.75 0 0 .75 90.36614 21.578742)" font-size="21.333334" font-family="DroidSerif" font-style="italic"><tspan y="476.48" x="9 22.930668 29.416003 41.661336 59.112005 64.63734 76.88267 89.66133 97.512 103.03734 110.88801 123.66667 134.184 139.70934 150.07733 162.42934 175.20801 187.56002 194.04535 204.56269 210.66402 216.18935 229.24535 242.02402 252.54135 265.32 270.84535 280.808 291.32536 299.17604 311.95469 321.91737 334.696 340.22135 346.70668 354.55735 360.08268 367.93336 380.17869 385.704 392.18934 400.04 409.91737 415.4427 427.752 434.23735 446.58934 456.95735 467.47468 473 485.24534 498.024 503.54933 511.4 524.17868 534.696 540.2213 550.5893 562.9413 575.72 588.07199 598.5893 605.07467 617.42666 629.41598 639.3786 652.1573 671.2506">Blow out the candle. Then return it to its place on the candelabrum.</tspan></text>
</g>
</g>
</g>
</svg>
