<?xml version="1.0" encoding="UTF-8" standalone="no"?>
<!DOCTYPE svg PUBLIC "-//W3C//DTD SVG 1.1//EN" "http://www.w3.org/Graphics/SVG/1.1/DTD/svg11.dtd">
<svg xmlns="http://www.w3.org/2000/svg" xmlns:xlink="http://www.w3.org/1999/xlink" version="1.1" width="720pt" height="405pt" viewBox="0 0 720 405">
<g enable-background="new">
<g>
<clipPath id="cp36">
<path transform="matrix(.001968504,0,0,.001968504,0,0)" d="M 0 0 L 365760 0 L 365760 205740 L 0 205740 L 0 0 Z "/>
</clipPath>
<g clip-path="url(#cp36)">
<path transform="matrix(.001968504,0,0,.001968504,0,0)" d="M 0 0 L 365568 0 L 365568 205740 L 0 205740 Z " fill-opacity=".6275" fill-rule="evenodd"/>
<path transform="matrix(.001968504,0,0,.001968504,0,0)" d="M 45906 10962 L 319662 10962 L 319662 194778 L 45906 194778 Z " fill-opacity="0" fill-rule="evenodd"/>
<text fill="#ffffff" xml:space="preserve" transform="matrix(.75 0 0 .75 90.36614 21.578742)" font-size="32" font-family="DroidSerif"><tspan y="115.72" x="9 28.584002 48.872 65.992008 74.856 94.472 104.392 122.376 139.592 159.87999 176.99999 185.86399 204.55199 214.75998 224.67998 234.59998 251.71997 271.33598 280.19996 298.18397 317.79997 336.26396 356.55195 367.81596 376.67994 396.96794 414.95195 424.87196 436.67997 445.54396 456.80796 477.09596 494.21595 503.07994 522.6959 541.1599 560.77597 581.06399 590.98397 608.96798 620.23196 630.43997 648.90396 669.54397 678.40798 696.87197 708.67996">The plague killed about half the population of </tspan></text>
<text fill="#ffffff" xml:space="preserve" transform="matrix(.75 0 0 .75 90.36614 21.578742)" font-size="32" font-family="DroidSerif"><tspan y="153.72" x="9 28.936 49.224 64.296 82.759998 102.37599 119.495998 142.28 161.896 182.18399 197.256 207.46399 228.10399 245.31999 268.10398 286.08799 308.87199 320.68 339.14399 359.43199 374.50398 384.42399 402.472 419.59199 437.576 452.64799 475.43199 495.04798 512.16799 527.24 537.448 555.912 575.528 583.528 606.312 624.296 644.93606 664.55209 687.33609 697.54409 708.80807">Europe during a four-year period, and it </tspan></text>
<text fill="#ffffff" xml:space="preserve" transform="matrix(.75 0 0 .75 90.36614 21.578742)" font-size="32" font-family="DroidSerif"><tspan y="191.72" x="9 24.072 41.192 56.936 77.224 92.296 107.368 124.488 144.104 172.328 187.40001 204.52 224.136 241.256 259.24 270.504 287.624 307.24 317.16 335.208 363.432 374.696 394.984 410.056 428.52 448.80799 466.024 486.31199 504.77598 525.06399 536.32797 564.55197 575.8159 596.10397 613.22396 641.44796 662.08798 679.20797 697.7039 708.9679">recurred repeatedly throughout the next </tspan></text>
<text fill="#ffffff" xml:space="preserve" transform="matrix(.75 0 0 .75 90.36614 21.578742)" font-size="32" font-family="DroidSerif"><tspan y="229.72" x="9 20.264 40.552003 55.624 72.744 89.864009 155.52802 171.27202 188.39202 209.03202 220.29602 240.58402 255.65602 265.864 282.984 297.41603 363.08003 381.768 391.976 401.89604 411.81605 422.02406 442.66407 459.88008 525.54409 545.1601 563.6241 583.9121 603.52816 613.4481 630.5681 640.4881 660.1041 670.31216 687.52816 697.73617 709.0001">three centuries killing double-digit </tspan></text>
<text fill="#ffffff" xml:space="preserve" transform="matrix(.75 0 0 .75 90.36614 21.578742)" font-size="32" font-family="DroidSerif"><tspan y="267.72" x="9 28.616002 45.736 60.808 76.552 93.672008 114.312007 125.576007 143.56 160.776 177.896 192.328 216.744 235.20801 247.016 271.432 282.696 302.984 320.104 344.52 364.136 382.59999 402.21598 422.50398 432.42399 450.408 461.672 471.88 490.344 510.984 535.4 552.52 570.504 586.24807 606.5361 630.9521 642.21609 652.4241 682.6321 699.7521 708.90408">percentages of the population each time. </tspan></text>
<text fill="#ffffff" xml:space="preserve" transform="matrix(.75 0 0 .75 90.36614 21.578742)" font-size="32" font-family="DroidSerif"><tspan y="305.72" x="9 29.896002 47.016004 58.280004 85.832 102.952 120.07201 140.712 158.92 178.536 188.456 206.44 223.656 243.944 261.064 275.496 283.496 301.704 329.256 347.24003 362.312 376.74403 384.74403 402.95204 420.93605 441.57606 461.19206 479.40007 491.20808 509.19209 539.4001 549.6081 570.2481 587.3681 601.8001 609.8001 628.0081 639.2721 659.5601 676.6801 691.75216 708.87216">Between plagues, wars, and famines, there </tspan></text>
<text fill="#ffffff" xml:space="preserve" transform="matrix(.75 0 0 .75 90.36614 21.578742)" font-size="32" font-family="DroidSerif"><tspan y="343.72" x="9 36.552003 54.536005 68.968 106.37601 116.296009 126.504009 137.768 149.03202 158.95201 176.072 213.48 224.744 234.952 265.16 282.28 319.688 330.952 349.416 386.82398 406.43998 426.72798 436.93598 446.856 466.472 503.87998 522.344 537.416 574.82406 594.44009 609.5121 626.6321 641.0641 658.1841 673.2561 691.7841 708.9041">was little time to build or preserve </tspan></text>
<text fill="#ffffff" xml:space="preserve" transform="matrix(.75 0 0 .75 90.36614 21.578742)" font-size="32" font-family="DroidSerif"><tspan y="381.72" x="9 27.688002 48.328004 66.79201 94.34401 104.26401 121.38401 141.00002 158.21602 175.33602">knowledge.</tspan></text>
</g>
</g>
</g>
</svg>
