<?xml version="1.0" encoding="UTF-8" standalone="no"?>
<!DOCTYPE svg PUBLIC "-//W3C//DTD SVG 1.1//EN" "http://www.w3.org/Graphics/SVG/1.1/DTD/svg11.dtd">
<svg xmlns="http://www.w3.org/2000/svg" xmlns:xlink="http://www.w3.org/1999/xlink" version="1.1" width="720pt" height="405pt" viewBox="0 0 720 405">
<g enable-background="new">
<g>
<clipPath id="cp2">
<path transform="matrix(.001968504,0,0,.001968504,0,0)" d="M 0 0 L 365760 0 L 365760 205740 L 0 205740 L 0 0 Z "/>
</clipPath>
<g clip-path="url(#cp2)">
<path transform="matrix(.001968504,0,0,.001968504,0,0)" d="M 0 0 L 365760 0 L 365760 205740 L 0 205740 Z " fill-rule="evenodd"/>
<path transform="matrix(.001968504,0,0,.001968504,0,0)" d="M 46002 7740 L 339654 7740 L 339654 198000 L 46002 198000 Z " fill-opacity="0" fill-rule="evenodd"/>
<text fill="#ffffff" xml:space="preserve" transform="matrix(.75 0 0 .75 90.555118 15.23622)" font-size="24" font-family="DroidSerif" font-style="italic"><tspan y="32.04" x="9 23.880002 35.088 46.920003 60.768 74.664 85.392 99.288 108.12 115.416 129.192 143.56801 154.68001">Preparations:</tspan></text>
<text fill="#ffffff" xml:space="preserve" transform="matrix(.75 0 0 .75 90.555118 15.23622)" font-size="24" font-family="Arial" font-style="italic"><tspan y="90.04" x="18.503907">&#x25cf;</tspan></text>
<text fill="#ffffff" xml:space="preserve" transform="matrix(.75 0 0 .75 90.555118 15.23622)" font-size="24" font-family="DroidSerif" font-style="italic"><tspan y="90.04" x="57 73.92 87.815998 100.464 114.24 128.616 140.448 148.272 167.904 182.28002 196.05602 203.88002 225.36002 232.65602 246.00003 260.37605 269.20805 277.03205 296.66404 310.56004 324.93605 333.76805 341.59205 350.42405 364.20005 372.02406 386.40007 397.51206 409.34407 417.16807 426.00007 440.37608 452.20808 460.03208 473.52009 487.41609 496.24809 510.62409 521.8321 535.6081 549.3841 570.8641 578.68807 585.9841 600.36007 608.184 617.016 631.39199 643.224 651.048 665.42398 677.256 690.336 699.16799 706.99197 721.3679 735.1439 749.5199 760.7279">Anyone who might want to use the bathroom in the next hour </tspan></text>
<text fill="#ffffff" xml:space="preserve" transform="matrix(.75 0 0 .75 90.555118 15.23622)" font-size="24" font-family="DroidSerif" font-style="italic"><tspan y="119.04" x="57 68.112 82.488 96.264 110.64 117.936 131.832 138.048 152.42401 163.53601 175.36801 181.58402 188.88002 197.71202 203.92803 218.30403 232.08003">should use it now</tspan></text>
<text fill="#ffffff" xml:space="preserve" transform="matrix(.75 0 0 .75 90.555118 15.23622)" font-size="24" font-family="Arial" font-style="italic"><tspan y="148.04" x="18.503907">&#x25cf;</tspan></text>
<text fill="#ffffff" xml:space="preserve" transform="matrix(.75 0 0 .75 90.555118 15.23622)" font-size="24" font-family="DroidSerif" font-style="italic"><tspan y="148.04" x="57 73.92 87.815998 100.464 114.24 128.616 140.448 148.92 168.552 182.92801 196.70401 207.81601 219.64801 228.12001 242.49602 256.39204 270.76805 284.66404 295.77604 304.24806 318.14405 329.35206 341.18406 349.65608 364.03208 377.80809 386.64009 395.1121 406.7761 414.07209 425.90409 439.80009 454.1761 462.6481 474.4801 488.8561 502.6321 517.0081 530.3521 544.7281 553.2001 562.0321 575.8081 584.2801 596.11209 610.00808 618.8401 627.3121 646.9441 654.2401 663.07217 677.4481 685.9201 697.0321 711.4081 725.1841 739.56008 746.8561 760.7521">Anyone whose hands are not clean enough to eat with should </tspan></text>
<text fill="#ffffff" xml:space="preserve" transform="matrix(.75 0 0 .75 90.555118 15.23622)" font-size="24" font-family="DroidSerif" font-style="italic"><tspan y="177.04" x="57 76.632 90.52801 101.64001 116.01601 122.23201 131.06401 145.44002 157.27202">wash them</tspan></text>
<text fill="#ffffff" xml:space="preserve" transform="matrix(.75 0 0 .75 90.555118 15.23622)" font-size="24" font-family="Arial" font-style="italic"><tspan y="206.04" x="18.503907">&#x25cf;</tspan></text>
<text fill="#ffffff" xml:space="preserve" transform="matrix(.75 0 0 .75 90.555118 15.23622)" font-size="24" font-family="DroidSerif" font-style="italic"><tspan y="206.04" x="57 73.92 81.215999 88.51199 94.728 102.023998 109.31999 122.759998 137.136 144.432 158.328 169.44 175.656 186.768 201.14402 214.92002 229.29602 236.59203 250.48802 256.704 270.19203 282.02403 288.24003 302.088 309.384 323.28 334.944 346.776 360.672 366.888 386.52 393.81599 402.64799 417.024 423.24 444.72 452.016 466.392 473.688 495.168 509.064 516.36 522.576 536.208 550.584 564.36 576.024 589.656 596.952 611.328 624.672 632.112 645.888 658.8 670.63198 681.83999 688.05599 699.264 706.56 717.672">All liquids should be placed with minimal knocking-over risk</tspan></text>
<text fill="#ffffff" xml:space="preserve" transform="matrix(.75 0 0 .75 90.555118 15.23622)" font-size="24" font-family="Arial" font-style="italic"><tspan y="235.04" x="18.503907">&#x25cf;</tspan></text>
<text fill="#ffffff" xml:space="preserve" transform="matrix(.75 0 0 .75 90.555118 15.23622)" font-size="24" font-family="DroidSerif" font-style="italic"><tspan y="235.04" x="57 71.952 84.864009 96.69601 107.90401 120.55201 134.328 148.70401 160.53601 172.68001 183.792 198.16802 211.94402 226.32003 233.61603 247.51203 259.65605 274.03205 287.92805 300.84004 312.67204 324.81605 338.71205 350.85606 362.52006 369.81605 381.64805 395.54405 406.75205 418.89607 431.80805 439.10404 450.93605 470.56803 482.71205 496.48805 504.09605 516.24008 525.072 539.448 551.28 563.424 577.27206 588.48007 602.25607 609.24008 621.072 632.736 641.568 648.864 662.64 677.016 689.16 700.272 711.936 723.144 734.97598 746.808 761.18399">Everyone should have a clear view of the projection screen </tspan></text>
<text fill="#ffffff" xml:space="preserve" transform="matrix(.75 0 0 .75 90.555118 15.23622)" font-size="24" font-family="DroidSerif" font-style="italic"><tspan y="264.04" x="57 76.632 83.928 92.76 107.136 120.912 135.28801 144.12001 150.33602 159.16802 178.80002 186.09603 197.20803 206.04003 213.33603 227.71204 241.05603 247.27204 256.10404 270.48005 282.31205 289.60804 300.81605 307.03205 321.40806 333.24006 344.90406 358.53605">without twisting their necks</tspan></text>
<text fill="#ffffff" xml:space="preserve" transform="matrix(.75 0 0 .75 90.555118 15.23622)" font-size="24" font-family="Arial" font-style="italic"><tspan y="293.04" x="18.503907">&#x25cf;</tspan></text>
<text fill="#ffffff" xml:space="preserve" transform="matrix(.75 0 0 .75 90.555118 15.23622)" font-size="24" font-family="DroidSerif" font-style="italic"><tspan y="293.04" x="57 71.952 84.864009 96.69601 107.90401 120.55201 134.328 148.70401 160.53601 172.00801 183.12001 197.49602 211.27202 225.64803 232.94403 246.84003 258.31205 271.94404 286.32005 300.09605 319.72804 331.20005 350.83204 365.20805 378.98405 390.45606 402.12007 415.89607 437.37608 449.20808 460.32008 471.79209 485.2801 497.1121 504.7201 518.4961 529.7041 541.53616 553.0081 566.9041 581.2801 595.1761 606.6481 620.54409 628.15206 636.984 648.81607 660.02407 671.49606 680.328 694.704 706.536 728.016 739.488 746.784 761.16">Everyone should know who comes before and after them in </tspan></text>
<text fill="#ffffff" xml:space="preserve" transform="matrix(.75 0 0 .75 90.555118 15.23622)" font-size="24" font-family="DroidSerif" font-style="italic"><tspan y="322.04" x="57 68.208 80.04 93.936008 107.83201 115.128009 129.50402 142.84803 149.06403 162.84003 174.04804 187.94403 199.77603 210.98404 217.20005 228.31204 242.68805 254.35205 268.72807 274.94407 283.77607 298.15208 312.04808 320.88008 327.09608 341.47209 355.24809 361.46409 375.24009 389.6161 401.4481 407.6641 414.96009 426.07209 432.2881 443.4001 457.03208 464.32807 478.17607 492.02406 503.85606">reading order such that no one is skipped</tspan></text>
<text fill="#ffffff" xml:space="preserve" transform="matrix(.75 0 0 .75 90.555118 15.23622)" font-size="24" font-family="Arial" font-style="italic"><tspan y="351.04" x="18.503907">&#x25cf;</tspan></text>
<text fill="#ffffff" xml:space="preserve" transform="matrix(.75 0 0 .75 90.555118 15.23622)" font-size="24" font-family="DroidSerif" font-style="italic"><tspan y="351.04" x="57 73.92 82.752 88.968 96.264 108.096 121.992008 133.104 141.936 148.15201 161.92801 176.30402 188.13602 194.35202 208.20003 220.03203 231.24002 242.35202 256.12803 270.50404 276.72004 287.83204 302.20805 315.98405 330.36006 337.65605 351.55204 357.76805 372.14405 386.04005 398.95204 410.78404 417.00004 428.83204 442.72804 453.84004 466.48805 472.70405 486.60005 498.26405 509.92805 521.76 532.872 543.984 550.2 559.032 572.808 579.024 587.85598 602.23196 614.06399 620.27999 631.944 645.83999 660.21597 674.11196 681.40798 693.24">At least one person should have easy access to the candles</tspan></text>
<text fill="#ffffff" xml:space="preserve" transform="matrix(.75 0 0 .75 90.555118 15.23622)" font-size="24" font-family="Arial" font-style="italic"><tspan y="380.04" x="18.503907">&#x25cf;</tspan></text>
<text fill="#ffffff" xml:space="preserve" transform="matrix(.75 0 0 .75 90.555118 15.23622)" font-size="24" font-family="DroidSerif" font-style="italic"><tspan y="380.04" x="57 73.92 82.752 99.264 106.56 118.392 132.288 143.4 152.232 168.744 182.52 196.89601 208.72801 225.24002 239.08803 250.92003 262.12803 273.24003 287.01603 301.39204 317.90403 329.01603 343.39204 357.16804 371.54405 378.84004 392.73603 409.24803 423.62403 437.52003 450.432 462.264 478.776 490.608 504.504 515.616 528.26406 544.77609 558.67208 570.33609 582.00009 593.83206 604.94406 616.056 632.56808 641.4 655.176 671.68807 680.52 694.896 706.728 723.24008 730.848 738.14407 749.35208 761.1841">At least one person should have easy access to the fire </tspan></text>
<text fill="#ffffff" xml:space="preserve" transform="matrix(.75 0 0 .75 90.555118 15.23622)" font-size="24" font-family="DroidSerif" font-style="italic"><tspan y="409.04" x="57 68.832 81.912 90.744 98.04 112.416 125.76 140.136 147.432 158.544 172.92002 184.75202">extinguisher</tspan></text>
<text fill="#ffffff" xml:space="preserve" transform="matrix(.75 0 0 .75 90.555118 15.23622)" font-size="24" font-family="Arial" font-style="italic"><tspan y="438.04" x="18.503907">&#x25cf;</tspan></text>
<text fill="#ffffff" xml:space="preserve" transform="matrix(.75 0 0 .75 90.555118 15.23622)" font-size="24" font-family="DroidSerif" font-style="italic"><tspan y="438.04" x="57 65.808 74.64 86.256008 97.368007 111.744 125.520008 139.89601 147.19202 161.08802 172.70401 186.19202 198.02402 209.64002 221.47202 232.58402 241.41602 255.31201 268.80003 276.096 283.392 294.504 308.88 320.712 334.608 346.224 365.856 380.232 392.064 400.896 415.272 427.104 438.312 449.928 458.76 473.13603 484.96803 496.584 507.696 514.992 522.288 536.184 548.016 555.456 569.352 583.248 596.16 610.05599 624.43197 636.09597 647.928 659.136 670.752 678.04806 689.16006 700.77609 714.26406 726.09609 733.3921 747.76809 761.11209">It should be established whether the slide-advancer is being </tspan></text>
<text fill="#ffffff" xml:space="preserve" transform="matrix(.75 0 0 .75 90.555118 15.23622)" font-size="24" font-family="DroidSerif" font-style="italic"><tspan y="467.04" x="57 70.848 84.744 95.856 106.968 118.8 132.696 138.696 144.912 158.688 169.896 175.896 182.112 189.408 197.016 203.23201 217.60802 231.38402 240.21602 246.21602 252.43202 272.06404 286.44004 300.21604 306.43205 313.72804 324.84004 331.05604 342.26405 354.09605 365.20805 379.05604 392.83204 407.20805 418.32005 425.61604 439.10404 446.40003 458.23204 464.44804 472.05604 485.83204 497.04005 503.25605 510.55204">passed, or, if not, who is responsible for it</tspan></text>
<path transform="matrix(.001968504,0,0,.001968504,0,0)" d="M 213610 43846 L 507262 43846 L 507262 78106 L 213610 78106 Z " fill-opacity="0" fill-rule="evenodd"/>
</g>
</g>
</g>
</svg>
