<?xml version="1.0" encoding="UTF-8" standalone="no"?>
<!DOCTYPE svg PUBLIC "-//W3C//DTD SVG 1.1//EN" "http://www.w3.org/Graphics/SVG/1.1/DTD/svg11.dtd">
<svg xmlns="http://www.w3.org/2000/svg" xmlns:xlink="http://www.w3.org/1999/xlink" version="1.1" width="720pt" height="405pt" viewBox="0 0 720 405">
<g enable-background="new">
<g>
<clipPath id="cp40">
<path transform="matrix(.001968504,0,0,.001968504,0,0)" d="M 0 0 L 365760 0 L 365760 205740 L 0 205740 L 0 0 Z "/>
</clipPath>
<g clip-path="url(#cp40)">
<path transform="matrix(.001968504,0,0,.001968504,0,0)" d="M 0 0 L 365568 0 L 365568 205740 L 0 205740 Z " fill-opacity=".6275" fill-rule="evenodd"/>
<path transform="matrix(.001968504,0,0,.001968504,0,0)" d="M 45906 10962 L 319662 10962 L 319662 194778 L 45906 194778 Z " fill-opacity="0" fill-rule="evenodd"/>
<text fill="#ffffff" xml:space="preserve" transform="matrix(.75 0 0 .75 90.36614 21.578742)" font-size="29.333334" font-family="DroidSerif"><tspan y="37.16" x="9 22.2 49.685335 66.17067 76.496 86.821338 102.51467 116.33067 129.56002 143.52269 153.84803 172.44536 188.9307 199.25603 213.2187 230.2027 245.89603 262.8507 278.54405 296.52537 310.488 320.81336 339.41069 355.104 369.06666 396.75733 406.11466 425.03468 443.016 456.24534 470.20799 487.1333 497.9573 511.91996 528.4053 547.32528 561.75729 571.1146 586.808 605.72799 616.0533 630.016 643.2453 658.93869 674.632 688.448 701.6773 709.0106">&#x201c;Matters that vexed the minds of ancient seers, </tspan></text>
<text fill="#ffffff" xml:space="preserve" transform="matrix(.75 0 0 .75 90.36614 21.578742)" font-size="29.333334" font-family="DroidSerif"><tspan y="72.16" x="9 25.485335 44.405336 62.38667 71.89067 82.71467 99.64 113.456 122.96001 139.88535 158.48268 172.29868 181.80268 190.89601 206.58934 223.07468 236.89067 255.81067 271.504 289.48533 298.98933 316.97065 333.89598 348.32798 358.65333 375.57865 389.39466 402.624 412.128 429.0533 439.87733 450.20268 465.896 484.816 494.32 503.41334 519.1067 537.088 546.59207 556.91738 573.8427 583.34677 592.44009 609.3654 627.96279 645.9441 655.4481 671.9335 690.85348 708.8348">and for our learned doctors often led to loud and </tspan></text>
<text fill="#ffffff" xml:space="preserve" transform="matrix(.75 0 0 .75 90.36614 21.578742)" font-size="29.333334" font-family="DroidSerif"><tspan y="107.16" x="9 25.984002 42.469339 51.82667 70.74667 84.18134 98.61334 115.53868 134.45868 144.78401 160.47734 179.39734 189.72267 199.08 216.00534 234.92534 242.25867 255.69333 274.61335 291.53868 316.79469 330.22935 346.71467 360.53068 376.224 389.65867 402.888 418.58134 434.27467 453.19468 466.62934 475.98667 494.90669 508.34135 522.15737 537.8507 554.33609 567.56539 584.4907 603.4107 609.3067 622.536 635.9707 645.064 654.4214 670.2027 688.80007 699.12539 707.544">vain contention, now are seen in reason&#x2019;s light: </tspan></text>
<text fill="#ffffff" xml:space="preserve" transform="matrix(.75 0 0 .75 90.36614 21.578742)" font-size="29.333334" font-family="DroidSerif"><tspan y="142.16" x="9 19.325335 37.92267 53.616006 76.52534 90.95734 100.05067 116.976 135.57334 153.55467 166.78401 189.69335 206.61869 217.44269 240.35202 249.70935 265.4907 284.4107 301.33604 314.56538 331.0507 349.9707 364.4027 380.09605 403.00538 420.9867 430.34403 443.57337 461.5547 477.24803 486.34135 495.43467 511.128 529.1093 552.0187 568.504 578.82937 601.7387 610.83206 627.3174 640.5467 650.872 673.7814 691.176 707.72006">the clouds of ignorance dispelled at last by </tspan></text>
<text fill="#ffffff" xml:space="preserve" transform="matrix(.75 0 0 .75 90.36614 21.578742)" font-size="29.333334" font-family="DroidSerif"><tspan y="177.16" x="9 22.229336 36.66134 46.018674 61.712007 80.632 95.064 110.75734 119.146678 129.56002 147.51201 166.10935 183.03469 196.26403 211.95735 222.37068 239.29602 258.21604 268.62937 293.88539 312.4827 329.40803 357.0987 367.51203 385.49336 401.18669 410.28 428.87733 442.10667 451.464 468.3893 487.30934 497.72267 512.15469 528.64 541.8693 552.19467 562.608 571.96536 582.29067 595.51998 605.9333 621.7146 630.8079 647.7333 664.6586 692.3493 708.8933">science. Those on whom delusion cast its gloomy </tspan></text>
<text fill="#ffffff" xml:space="preserve" transform="matrix(.75 0 0 .75 90.36614 21.578742)" font-size="29.333334" font-family="DroidSerif"><tspan y="212.16" x="9 26.981335 43.466669 52.56 61.653337 77.992008 94.91734 105.74134 122.08001 140.06134 156.98668 175.58402 193.56536 203.89069 211.22402 227.56269 246.16002 264.14137 282.12269 299.048 312.864 331.78404 347.47737 363.816 382.73603 399.66136 424.91737 441.256 458.18135 477.10136 493.44 503.76536 522.3627 538.056 554.3947 579.6507 589.00808 607.92807 623.70938 636.93869 653.27737 663.60269 682.2 698.68539 709.0107">pall of doubt, upborne now on the wings that </tspan></text>
<text fill="#ffffff" xml:space="preserve" transform="matrix(.75 0 0 .75 90.36614 21.578742)" font-size="29.333334" font-family="DroidSerif"><tspan y="247.16" x="9 24.781334 40.47467 59.394674 68.75201 87.34934 100.578678 111.842678 120.936008 136.62934 155.54933 173.53067 186.76001 194.09334 205.35735 233.04802 248.94669 265.4907 276.75468 294.736 310.42933 329.34934 345.04267 355.368 368.59736 385.08268 395.40803 411.10136 422.36534 432.69068 451.288 466.98133 478.2453 505.93598 522.4213 541.3413 554.5706 563.928 580.85336 599.7733 613.0026 624.26669 641.192 652.016 663.28 673.60537 692.2027 707.89608">genius lends, may penetrate the mansions of the </tspan></text>
<text fill="#ffffff" xml:space="preserve" transform="matrix(.75 0 0 .75 90.36614 21.578742)" font-size="29.333334" font-family="DroidSerif"><tspan y="282.16" x="9 24.781334 41.70667 59.688005 72.917339 87.02667 103.51201 122.43201 140.41335 154.52268 167.75202 182.18402 198.66936 207.7627 223.45603 237.56536 247.89069 266.488 282.18135 296.29066 314.88798 330.5813 339.93864 355.71998 374.3173 384.64265 397.87199 411.9813 428.90663 439.73063 453.83995 472.43727 488.13059 504.6159 521.5999 537.2933 556.21328 564.6026 578.712 600.4773 614.5867 642.27737 659.2027 673.0187 683.344 699.82937 708.92269">gods and scale the heights of heaven. O mortal </tspan></text>
<text fill="#ffffff" xml:space="preserve" transform="matrix(.75 0 0 .75 90.36614 21.578742)" font-size="29.333334" font-family="DroidSerif"><tspan y="317.16" x="9 36.69067 52.384004 71.304 78.63734 92.688 113.368007 127.184009 136.54134 149.77068 165.464 175.23201 189.28269 209.96269 228.88269 246.86403 254.19736 268.24803 282.68003 299.16535 312.39469 322.72004 332.07737 350.99739 366.77873 380.82939 397.7547 408.5787 419.4027 433.45338 449.99739 466.9227 485.52003 499.33604 513.38668 529.08 545.56539 559.38137 569.70669 588.304 597.39736 613.94137 627.992 642.424 658.90939 672.72537 688.4187 701.648 708.9813">men, Arise! And, casting off your earthly cares, </tspan></text>
<text fill="#ffffff" xml:space="preserve" transform="matrix(.75 0 0 .75 90.36614 21.578742)" font-size="29.333334" font-family="DroidSerif"><tspan y="352.16" x="9 18.093335 33.786668 50.272005 64.088008 83.00801 99.75735 116.301349 131.99468 148.74402 159.06935 177.66669 193.36002 210.10935 228.09069 245.01602 255.34136 271.0347 289.9547 304.38673 320.93074 337.68006 354.60539 365.42939 382.1787 400.77604 416.46937 432.95469 449.9387 465.63203 484.55204 493.64537 511.62669 528.552 542.368 561.28799 578.0373 605.72799 615.0853 634.0053 651.98666 659.31997 676.0693 685.42666 695.75198 708.98129">learn ye the potency of heaven-born mind, its </tspan></text>
<text fill="#ffffff" xml:space="preserve" transform="matrix(.75 0 0 .75 90.36614 21.578742)" font-size="29.333334" font-family="DroidSerif"><tspan y="387.16" x="9 19.325335 37.92267 54.848005 73.445339 89.22667 107.824008 118.14934 125.74667 142.23201 161.15201 179.13335 186.73069 195.82402 205.18135 216.00536 231.69869 239.29602 250.12003 266.60536 280.42137 288.01869 298.84269 312.6587 329.584 357.2747 364.872 375.19737 393.79469 409.488 417.08534 435.68266 451.37599 465.192 483.1733 490.77064 516.0266 525.384 535.7093 554.30667 572.28799 585.5173 602.0026 627.2586 646.1786 655.9466">thought and life far from the herd withdrawn!&#x201d;</tspan></text>
<text fill="#ffffff" xml:space="preserve" transform="matrix(.75 0 0 .75 90.36614 21.578742)" font-size="29.333334" font-family="DroidSerif"><tspan y="422.16" x="9"> </tspan></text>
<text fill="#ffffff" xml:space="preserve" transform="matrix(.75 0 0 .75 90.36614 21.578742)" font-size="29.333334" font-family="DroidSerif"><tspan y="457.16" x="9 38.333337 49.01067 67.28534 85.26668 112.95735 131.55469 150.47469 168.45603 179.13336 202.36536 218.8507 227.94403 237.03737 252.7307 266.66404 273.99739 284.67469 302.656 316.47203 332.16535 342.98936 359.47468 373.90669 389.6 400.2773 410.60267 427.52799 438.2053 460.58665 476.27998 501.53599 511.86134 528.7867 547.70669 553.60269 566.832 577.50936 595.2267 609.04269 618.4 637.32 651.752 661.1094 679.0907 688.44808 704.9334">&#x2014; Edmund Halley, preface to Newton&#x2019;s Principia </tspan></text>
<text fill="#ffffff" xml:space="preserve" transform="matrix(.75 0 0 .75 90.36614 21.578742)" font-size="29.333334" font-family="DroidSerif"><tspan y="492.16" x="9 36.485338 52.970674 63.296007 81.89334 97.58668 125.27734 141.76268 152.08802 161.44535 175.87735 192.36269 199.96002 210.10936 226.5067 242.90404 259.30137 275.6987">Mathematica (1687)</tspan></text>
</g>
</g>
</g>
</svg>
