<?xml version="1.0" encoding="UTF-8" standalone="no"?>
<!DOCTYPE svg PUBLIC "-//W3C//DTD SVG 1.1//EN" "http://www.w3.org/Graphics/SVG/1.1/DTD/svg11.dtd">
<svg xmlns="http://www.w3.org/2000/svg" xmlns:xlink="http://www.w3.org/1999/xlink" version="1.1" width="720pt" height="405pt" viewBox="0 0 720 405">
<g enable-background="new">
<g>
<clipPath id="cp42">
<path transform="matrix(.001968504,0,0,.001968504,0,0)" d="M 0 0 L 365760 0 L 365760 205740 L 0 205740 L 0 0 Z "/>
</clipPath>
<g clip-path="url(#cp42)">
<path transform="matrix(.001968504,0,0,.001968504,0,0)" d="M 0 0 L 365568 0 L 365568 205740 L 0 205740 Z " fill-opacity=".6275" fill-rule="evenodd"/>
<path transform="matrix(.001968504,0,0,.001968504,0,0)" d="M 45906 10962 L 319662 10962 L 319662 194778 L 45906 194778 Z " fill-opacity="0" fill-rule="evenodd"/>
<text fill="#ffffff" xml:space="preserve" transform="matrix(.75 0 0 .75 90.36614 21.578742)" font-size="26.666666" font-family="DroidSerif"><tspan y="34.6" x="9 21 30.786667 41.053335 64.013339 79 91.026668 101.293338 110.68 127.58667 136.09334 153.29334 168.86667 177.37334 194.57334 208.92 219.18666 236.09333 252.43999 267.82667 285.02668 295.29335 304.68 321.58668 335.85334 346.12 360.38667 377.58668 391.93336 400.44 417.64 431.90669 442.17335 457.16 466.54667 476.81333 486.19999 503.10667 517.37338 527.64 537.0267 545.5333 570.70669 584.9733 591.64 601.9067 616.8934 634.0934 650.44009 660.7067 677.6134 692.6001 708.9468">&#x201c;I was thinking upon the engine at the time, and had </tspan></text>
<text fill="#ffffff" xml:space="preserve" transform="matrix(.75 0 0 .75 90.36614 21.578742)" font-size="26.666666" font-family="DroidSerif"><tspan y="66.6" x="9 23.346669 38.733339 55.93334 70.200008 81.426677 96.413349 108.44001 119.66668 129.50669 144.49335 157.05335 168.28002 183.26668 195.29335 206.52002 215.9067 232.81336 247.08002 258.30668 275.21336 289.48 302.04 318.3867 323.74668 335.77336 347.00004 363.9067 379.29338 396.20005 408.2267 422.49339 429.16004 440.38673 463.3467 480.2534 494.52006 511.72007 522.9467 532.3334 549.24008 563.5067 574.7334 583.24008 599.58676 613.8534 628.8401 640.0668 653.18679 668.17349 693.3468 707.61349">gone as far as the herd&#x2019;s house, when the idea came </tspan></text>
<text fill="#ffffff" xml:space="preserve" transform="matrix(.75 0 0 .75 90.36614 21.578742)" font-size="26.666666" font-family="DroidSerif"><tspan y="98.6" x="9 17.506667 34.706666 44.09333 59.479997 73.96 99.13333 114.17333 128.65334 153.82668 162.33335 179.53334 195.88 210.36 219.74668 236.65334 251.64 261.02668 275.50669 290.49336 302.52003 317.00004 329.0267 338.41337 352.68003 367.6667 392.84004 407.32005 430.28004 445.2667 457.29338 471.77339 486.76005 503.96006 518.44009 532.7067 540.9734 555.9601 567.98678 577.3734 585.88009 599.00009 613.48007 629.8267 645.2134 661.56008 676.60006 691.08 699.5867 708.9733">into my mind that as steam was an elastic body it </tspan></text>
<text fill="#ffffff" xml:space="preserve" transform="matrix(.75 0 0 .75 90.36614 21.578742)" font-size="26.666666" font-family="DroidSerif"><tspan y="130.6" x="9 31.960001 47.34667 64.253337 72.520008 88.86667 102.013339 114.57333 131.48 143.50667 160.41333 173.56 182.06667 199.26667 208.65334 224.04001 237.18668 252.17334 265.32 280.76 295.74668 308.86668 325.77336 342.68003 367.85337 374.52003 387.6667 402.65336 419.85337 436.20005 449.3467 457.85337 467.69337 480.84004 495.8267 508.97337 522.0934 537.48007 562.6534 587.8267 604.7334 621.9334 630.44009 643.56008 658.54678 667.9334 676.44009 691.8267 709.02676">would rush into a vacuum, and if a communication </tspan></text>
<text fill="#ffffff" xml:space="preserve" transform="matrix(.75 0 0 .75 90.36614 21.578742)" font-size="26.666666" font-family="DroidSerif"><tspan y="162.6" x="9 31.960001 46.22667 58.78667 73.05334 87.26667 112.44 127.42667 143.77333 158.04 172.25333 188.59999 202.86666 212.25333 235.21334 249.48 263.74668 280.9467 295.16004 304.5467 321.45338 335.72004 349.93339 363.05339 378.09339 386.36006 394.8667 412.0667 428.4134 442.68006 455.24006 469.4534 484.44007 501.64009 517.98678 532.2001 547.18679 564.3868 578.6001 592.86679 608.2801 625.18679 640.17349 657.08016 669.1068 678.49349 692.76016 709.1068">were made between the cylinder and an exhausted </tspan></text>
<text fill="#ffffff" xml:space="preserve" transform="matrix(.75 0 0 .75 90.36614 21.578742)" font-size="26.666666" font-family="DroidSerif"><tspan y="194.6" x="9 24.440003 38.70667 50.733339 62.760007 77.02667 85.293338 104.36001 112.86668 122.25334 141.32 164.28002 179.66669 196.57335 204.84001 221.18668 240.25334 252.81334 269.72 281.74668 298.65336 317.72004 326.22669 343.4267 352.81336 368.2 387.2667 395.77336 405.16 411.82667 430.89335 445.88 463.08003 479.4267 498.49339 523.6667 532.17337 546.52 563.4267 572.81338 591.88 608.2267 622.49337 641.56 650.94668 667.85336 682.12 694.68 708.94668">vessel it would rush into it, and might be there </tspan></text>
<text fill="#ffffff" xml:space="preserve" transform="matrix(.75 0 0 .75 90.36614 21.578742)" font-size="26.666666" font-family="DroidSerif"><tspan y="226.6" x="9 22.119999 37.506669 54.70667 71.05334 85.32001 102.520008 114.54667 128.81334 145.16 159.64 182.6 191.10668 200.49335 217.40001 232.78668 249.69335 259.08003 273.56004 286.68003 302.06669 317.45335 325.72 334.22666 351.42668 365.77336 380.25337 389.64 406.5467 420.81336 435.29338 448.41337 463.45338 471.72004 480.22669 497.4267 513.7734 528.04006 540.60006 548.2267 562.70669 572.49337 586.9733 596.36 613.26669 627.5333 644.73336 659.2133 671.24 686.2267 709.1867">condensed without cooling the cylinder. I then saw </tspan></text>
<text fill="#ffffff" xml:space="preserve" transform="matrix(.75 0 0 .75 90.36614 21.578742)" font-size="26.666666" font-family="DroidSerif"><tspan y="258.6" x="9 18.386668 35.293336 50.280004 59.66667 79.053348 88.84001 108.226688 133.40003 150.30669 162.33336 171.72003 191.10669 205.45336 219.72002 229.10669 248.49335 261.05335 269.56 285.90669 305.29338 320.68003 330.52003 349.9067 359.29338 376.20005 390.4667 409.8534 422.9734 438.36006 455.56007 471.90675 486.1734 503.3734 515.4001 529.66677 546.0134 565.4001 577.42678 586.8134 601.0801 616.0668 641.2401 660.6268 675.61349 692.8135 709.16018">that I must get rid of the condensed steam and </tspan></text>
<text fill="#ffffff" xml:space="preserve" transform="matrix(.75 0 0 .75 90.36614 21.578742)" font-size="26.666666" font-family="DroidSerif"><tspan y="290.6" x="9 17.506667 34.706666 42.68 56.946668 70.066669 79.45333 87.96 103.346668 120.54666 128.81333 151.77333 166.76 176.14667 190.41333 202.97333 210.12 218.62667 228.46666 235.61333 245.4 252.54666 269.45335 281.48 295.74668 312.09336 319.24003 334.22669 341.37336 349.34669 363.61335 373 380.14668 395.13334 407.16 414.30668 422.81333 440.01335 447.16 467.50669 481.77336 504.73335 517.85336 533.24 558.4133 572.68 589.88 595.24008 607.2667 614.4134 628.68008 645.88009 660.22677 668.7334 685.9334 700.2001 707.8267">injection-water if I used a jet as in Newcomen&#x2019;s engine. </tspan></text>
<text fill="#ffffff" xml:space="preserve" transform="matrix(.75 0 0 .75 90.36614 21.578742)" font-size="26.666666" font-family="DroidSerif"><tspan y="322.6" x="9 25.320002 48.280004 63.66667 75.26668 98.22668 112.680019 127.72002 139.74669 151.34668 166.73336 176.57335 188.17334 204.52 219.90668 228.41335 245.61334 259.96003 271.56004 280.9467 297.85337 306.36003 318.3867 329.9867 345.37336 358.49336 371.61335 388.52003 401.08003 413.64 427.90669 444.25337 455.85337 465.24003 480.62669 492.22669 517.4 531.6667 539.29336 550.8934 558.52 566.14669 573.7733 585.37338 595.16006 606.7601 623.66677 638.65347 655.0001 666.60018 683.8002 699.1868 708.5735">Two ways of doing this occurred to me. ... I had not </tspan></text>
<text fill="#ffffff" xml:space="preserve" transform="matrix(.75 0 0 .75 90.36614 21.578742)" font-size="26.666666" font-family="DroidSerif"><tspan y="354.6" x="9 31.960001 46.94667 55.213338 70.25334 84.52001 100.86668 114.70668 124.54668 139.53334 152.09334 161.48001 178.38668 192.65334 205.21334 219.05333 228.44 245.34667 260.33335 277.53337 291.37336 300.76 317.6667 331.93336 345.77336 360.12004 375.50669 383.77336 393.61335 401.88 418.78669 434.17335 451.08003 463.1067 477.37336 491.21336 514.17337 531.08 545.3467 562.5467 576.3867 585.7734 602.68008 616.9467 630.78677 653.74679 670.65347 686.0401 694.30679 708.5734">walked farther than the golf-house when the whole </tspan></text>
<text fill="#ffffff" xml:space="preserve" transform="matrix(.75 0 0 .75 90.36614 21.578742)" font-size="26.666666" font-family="DroidSerif"><tspan y="386.6" x="9 18.386668 35.293336 43.800004 61.000005 75.34667 82.25334 105.21334 120.20001 132.22669 139.13335 154.12001 166.68001 178.70667 193.69333 210.89333 225.23999 239.50666 255.85332 262.75999 271.26664 288.46665 295.37333 320.54667 335.58668 342.49336 367.6667 376.17335 393.37336 409.72004 417.3467 429.3467">thing was arranged in my mind.&#x201d; </tspan></text>
<text fill="#ffffff" xml:space="preserve" transform="matrix(.75 0 0 .75 90.36614 21.578742)" font-size="26.666666" font-family="DroidSerif"><tspan y="450.6" x="9 35.666666 42.57333 52.06666 67.05333 92.22666 106.49333 118.52 125.42667 152.01334 167 176.38668 185.77335 192.68001 201.90668 216.81334 231.72 246.62667 261.53334">&#x2014; James Watt (1765)</tspan></text>
</g>
</g>
</g>
</svg>
