<?xml version="1.0" encoding="UTF-8" standalone="no"?>
<!DOCTYPE svg PUBLIC "-//W3C//DTD SVG 1.1//EN" "http://www.w3.org/Graphics/SVG/1.1/DTD/svg11.dtd">
<svg xmlns="http://www.w3.org/2000/svg" xmlns:xlink="http://www.w3.org/1999/xlink" version="1.1" width="720pt" height="405pt" viewBox="0 0 720 405">
<g enable-background="new">
<g>
<clipPath id="cp43">
<path transform="matrix(.001968504,0,0,.001968504,0,0)" d="M 0 0 L 365760 0 L 365760 205740 L 0 205740 L 0 0 Z "/>
</clipPath>
<g clip-path="url(#cp43)">
<path transform="matrix(.001968504,0,0,.001968504,0,0)" d="M 0 0 L 365568 0 L 365568 205740 L 0 205740 Z " fill-opacity=".6275" fill-rule="evenodd"/>
<path transform="matrix(.001968504,0,0,.001968504,0,0)" d="M 45906 10962 L 319662 10962 L 319662 194778 L 45906 194778 Z " fill-opacity="0" fill-rule="evenodd"/>
<text fill="#ffffff" xml:space="preserve" transform="matrix(.75 0 0 .75 90.36614 21.578742)" font-size="32" font-family="DroidSerif"><tspan y="115.72" x="9 23.400002 35.144 46.024 60.456 78.44 105.992008 116.87201 127.08001 147.72002 158.6 176.58402 187.464 207.08 222.15201 239.272 257.256 287.46403 298.34403 316.32804 327.20805 338.47206 356.45606 376.07206 385.99208 403.11207 413.99208 441.54408 461.83207 478.95207 494.02406 511.14405 522.02407 540.00808 549.92807 559.848 570.728 587.848 597.768 614.888 645.096 662.216 682.856 694.12 708.552">&#x201c;I saw in a dream a table where all elements </tspan></text>
<text fill="#ffffff" xml:space="preserve" transform="matrix(.75 0 0 .75 90.36614 21.578742)" font-size="32" font-family="DroidSerif"><tspan y="153.72" x="9 20.808 37.928 47.848 57.767999 81.448 91.656 112.296 123.56 142.024 165.704 185.31999 195.23999 213.224 228.968 246.088 269.768 287.752 302.18403 325.864 340.936 358.056 377.672 397.96 408.168 423.24 440.36 459.97599 469.128 492.80799 514.44 541.992 559.976 578.024 595.144 615.784 625.992 646.632 663.848 671.848 695.5281 707.2721">fell into place as required. Awakening, I </tspan></text>
<text fill="#ffffff" xml:space="preserve" transform="matrix(.75 0 0 .75 90.36614 21.578742)" font-size="32" font-family="DroidSerif"><tspan y="191.72" x="9 19.208 49.416 79.624 96.744 116.36 126.568 144.552 155.81601 172.936 182.856 200.904 221.416 248.968 264.04 282.504 293.768 310.888 331.4 341.608 352.872 373.384 393 411.464 439.016 459.656 480.168 498.632 519.272 539.784 557.768 578.28 597.89608 608.10409 625.22409 640.9681 658.0881 678.6001 697.0641 708.8721">immediately wrote it down on a piece of </tspan></text>
<text fill="#ffffff" xml:space="preserve" transform="matrix(.75 0 0 .75 90.36614 21.578742)" font-size="32" font-family="DroidSerif"><tspan y="229.72" x="9 28.616002 46.600004 66.216 83.336009 98.408008 106.408008 115.30401 133.768 154.408 164.328 182.376 191.272 201.48001 222.12001 231.016 249.48001 270.12004 287.24003 296.13603 315.752 325.67204 343.65605 359.40003 376.52003 385.41603 405.032 415.24003 434.85603 443.752 461.73603 470.63203 486.376 504.84 519.912 534.984 552.104 567.848 579.112 589.32 607.784 628.424 637.32 647.24 665.224 676.488 693.608 708.68">paper, only in one place did a correction later </tspan></text>
<text fill="#ffffff" xml:space="preserve" transform="matrix(.75 0 0 .75 90.36614 21.578742)" font-size="32" font-family="DroidSerif"><tspan y="267.72" x="9 23.432002 40.552003 57.672006 87.880008 96.16801 116.80801 133.92801 149.67201 166.792 181.22402 195.65602 213.64002 228.71202 243.91202 253.06403 267.46403">seem necessary.&#x201d; </tspan></text>
<text fill="#ffffff" xml:space="preserve" transform="matrix(.75 0 0 .75 90.36614 21.578742)" font-size="32" font-family="DroidSerif"><tspan y="343.72" x="9 41 49.288003 72.552 102.76 112.968 124.232 139.304 149.512 157.79999 187.784 204.90399 225.54399 245.15999 262.28 272.2 289.32 306.44 324.96803 333.256 344.328 362.216 380.104 397.992 415.88">&#x2014; Dmitri Mendeleev (1864)</tspan></text>
</g>
</g>
</g>
</svg>
