<?xml version="1.0" encoding="UTF-8" standalone="no"?>
<!DOCTYPE svg PUBLIC "-//W3C//DTD SVG 1.1//EN" "http://www.w3.org/Graphics/SVG/1.1/DTD/svg11.dtd">
<svg xmlns="http://www.w3.org/2000/svg" xmlns:xlink="http://www.w3.org/1999/xlink" version="1.1" width="720pt" height="405pt" viewBox="0 0 720 405">
<g enable-background="new">
<g>
<clipPath id="cp46">
<path transform="matrix(.001968504,0,0,.001968504,0,0)" d="M 0 0 L 365760 0 L 365760 205740 L 0 205740 L 0 0 Z "/>
</clipPath>
<g clip-path="url(#cp46)">
<path transform="matrix(.001968504,0,0,.001968504,0,0)" d="M 0 0 L 365568 0 L 365568 205740 L 0 205740 Z " fill-opacity=".7176" fill-rule="evenodd"/>
<path transform="matrix(.001968504,0,0,.001968504,0,0)" d="M 45906 10962 L 319662 10962 L 319662 194778 L 45906 194778 Z " fill-opacity="0" fill-rule="evenodd"/>
<text fill="#ffffff" xml:space="preserve" transform="matrix(.75 0 0 .75 90.36614 21.578742)" font-size="32" font-family="DroidSerif"><tspan y="39.72" x="9 27.656002 45.640005 63.688005 80.80801 99.880008 117.864009 136.936 167.14402 177.35202 197.99202 218.28002 229.54402 246.66402 265.73603 277.00004 295.46403 314.536 335.17604 353.64 364.90403 375.11204 390.85603 407.976 427.048 438.312 458.6 475.72 494.792 506.056 516.264 546.472 563.592 582.664 597.096 612.84 630.82406 640.744 657.864 676.93606 695.4 707.208">Take a minute to notice the time scale of </tspan></text>
<text fill="#ffffff" xml:space="preserve" transform="matrix(.75 0 0 .75 90.36614 21.578742)" font-size="32" font-family="DroidSerif"><tspan y="77.72" x="9 20.264 40.552003 57.672006 72.104007 89.22401 119.49601 139.11202 149.32 163.75202 179.49602 197.96002 216.48802 233.60802 248.68003 258.88804 276.00804 290.44004 299.59205 329.86405 349.80006 367.78407 383.52806 403.81605 434.08805 452.55204 473.19206 490.31205 520.58407 535.01608 545.22409 562.44009 583.0801 593.2881 605.09609 615.3041 631.0481 649.0321 669.6721 680.9361 690.8561 708.90408">these discoveries. Each one significantly </tspan></text>
<text fill="#ffffff" xml:space="preserve" transform="matrix(.75 0 0 .75 90.36614 21.578742)" font-size="32" font-family="DroidSerif"><tspan y="115.72" x="9 24.744 45.031999 63.016 83.656 100.872 117.992008 137.608 146.12 160.552 179.016 194.76001 204.96802 222.08802 233.35202 248.55202 256.552 265.064 283.048 303.68803 323.30403 331.816 348.936 366.92 382.664 402.952 411.464 427.20799 447.49598 465.47999 486.12 503.336 520.456 528.968 556.52 574.504 588.93606 597.44808 615.43209 626.69607 635.20809 645.12808 662.24807 680.23208 694.66409 705.92807">changed society, and each change was at least </tspan></text>
<text fill="#ffffff" xml:space="preserve" transform="matrix(.75 0 0 .75 90.36614 21.578742)" font-size="32" font-family="DroidSerif"><tspan y="153.72" x="9 39.208 57.672 72.104007 83.368007 93.288 111.336 119.624 131.432 149.89601 164.96802 173.25601 184.52002 204.80802 221.92801 230.216 249.832 266.952 278.216 289.48 306.6 321.672">mostly for the better.</tspan></text>
<text fill="#d9d9d9" xml:space="preserve" transform="matrix(.75 0 0 .75 90.36614 21.578742)" font-size="24" font-family="DroidSerif" font-style="italic"><tspan y="213.04" x="57 81 87.216 104.328 118.22401 125.520008 132.81601 140.11202 151.94402 165.72002 171.93602 180.24002 193.65602 207.07202 220.48802 233.90402">&#x2014; Galileo (1610)</tspan></text>
<text fill="#d9d9d9" xml:space="preserve" transform="matrix(.75 0 0 .75 90.36614 21.578742)" font-size="24" font-family="DroidSerif" font-style="italic"><tspan y="242.04" x="57 81 87.216 96.024 107.136 121.032009 134.92801 146.59201 152.80802 171.12001 182.95201 202.58402 211.41602 225.19202 239.56803 245.78403 254.08803 267.50404 280.92005 294.33607 307.75209">&#x2014; Isaac Newton (1687)</tspan></text>
<text fill="#d9d9d9" xml:space="preserve" transform="matrix(.75 0 0 .75 90.36614 21.578742)" font-size="24" font-family="DroidSerif" font-style="italic"><tspan y="271.04" x="57 81 87.216 101.90401 116.28001 130.056 151.536 165.43199 176.54399 182.76 198.43199 211.84799 224.49599 236.32799 247.43999 255.74399 269.15998 282.576 295.992 309.40803">&#x2014; Thomas Bayes(1763)</tspan></text>
<text fill="#d9d9d9" xml:space="preserve" transform="matrix(.75 0 0 .75 90.36614 21.578742)" font-size="24" font-family="DroidSerif" font-style="italic"><tspan y="300.04" x="57 81 87.216 95.76 109.656009 131.136 142.968 154.08 160.296 184.17601 198.072 206.904 215.73601 221.95201 230.25601 243.67201 257.088 270.50404 283.92005">&#x2014; James Watt (1765)</tspan></text>
<text fill="#d9d9d9" xml:space="preserve" transform="matrix(.75 0 0 .75 90.36614 21.578742)" font-size="24" font-family="DroidSerif" font-style="italic"><tspan y="329.04" x="57 81 87.216 104.616008 126.09601 133.39202 142.22402 153.432 160.72801 166.94402 189.43202 201.26403 215.64003 229.53603 241.36803 248.66403 260.49604 272.32804 285.24003 291.45603 299.76 313.17604 326.59205 340.00807 353.42408">&#x2014; Dmitri Mendeleev (1864)</tspan></text>
<text fill="#d9d9d9" xml:space="preserve" transform="matrix(.75 0 0 .75 90.36614 21.578742)" font-size="24" font-family="DroidSerif" font-style="italic"><tspan y="358.04" x="57 81 87.216 104.136 111.432 123.264 136.344 150.23999 164.616 178.512 190.344 201.552 207.768 224.88 235.60802 249.50402 263.88 277.776 299.256 305.47203 321.144 332.976 340.272 347.568 353.784 362.088 375.50404 388.92005 402.33607 415.75209">&#x2014; Alexander Graham Bell (1876)</tspan></text>
<text fill="#d9d9d9" xml:space="preserve" transform="matrix(.75 0 0 .75 90.36614 21.578742)" font-size="24" font-family="DroidSerif" font-style="italic"><tspan y="387.04" x="57 81 87.216 101.90401 116.28001 130.056 151.536 165.43199 176.54399 182.76 197.71199 211.60799 218.90399 230.01599 243.79199 258.168 264.384 272.688 286.104 299.52003 312.93605 326.35206">&#x2014; Thomas Edison (1890)</tspan></text>
<text fill="#d9d9d9" xml:space="preserve" transform="matrix(.75 0 0 .75 90.36614 21.578742)" font-size="26.666666" font-family="DroidSerif" font-style="italic"><tspan y="447.6" x="9 28.44 40.786668 48.893335 64.86667 79.69334 86.600009 96.41334 112.38667 125.53334 132.44 140.89334 156.20001 172.17334 184.62668 194.44002 210.41335 217.32 230.28002 245.72002 261.69337 277.13337 285.24003 298.3867 305.05335 311.96003 333.77336 349.74668 357.85334 370.81333 386.78666 393.69334 406.14668 419.29335 434.68 447.13334 460.28 472.62669 485.77336 501.74668 511.56 523.9067 530.81338 543.16006 556.12008 564.22677 577.3734 593.34677 606.30679 619.4534 626.1201 633.0268 641.1335 649.2402 664.06686 680.04019 689.8535">Using the fourth candle, which represents science, light </tspan></text>
<text fill="#d9d9d9" xml:space="preserve" transform="matrix(.75 0 0 .75 90.36614 21.578742)" font-size="26.666666" font-family="DroidSerif" font-style="italic"><tspan y="479.6" x="9 18.813334 34.786668 47.933336 54.84 63.293336 71.4 79.85333 89.666667 105.64 112.54667 125.50667 140.94667 156.92 172.36 180.46668 193.61334 200.52 210.33335 225.64002 232.54668 245.00002 258.14668 273.53334 285.98667 299.13334 311.48 324.62669 340.6 350.41334 357.32 365.42668 381.4 396.84 412.81333 425.16 434.97334 447.42668 455.53334 470.97334 479.08 487.18666 500.81333 516.2533 526.06668 534.17337 549.48 565.4533">the fifth candle to represent industrialization.</tspan></text>
</g>
</g>
</g>
</svg>
