<?xml version="1.0" encoding="UTF-8" standalone="no"?>
<!DOCTYPE svg PUBLIC "-//W3C//DTD SVG 1.1//EN" "http://www.w3.org/Graphics/SVG/1.1/DTD/svg11.dtd">
<svg xmlns="http://www.w3.org/2000/svg" xmlns:xlink="http://www.w3.org/1999/xlink" version="1.1" width="720pt" height="405pt" viewBox="0 0 720 405">
<g enable-background="new">
<g>
<clipPath id="cp3">
<path transform="matrix(.001968504,0,0,.001968504,0,0)" d="M 0 0 L 365760 0 L 365760 205740 L 0 205740 L 0 0 Z "/>
</clipPath>
<g clip-path="url(#cp3)">
<path transform="matrix(.001968504,0,0,.001968504,0,0)" d="M 0 0 L 365760 0 L 365760 205740 L 0 205740 Z " fill-rule="evenodd"/>
<path transform="matrix(.001968504,0,0,.001968504,0,0)" d="M 46002 29712 L 319758 29712 L 319758 176028 L 46002 176028 Z " fill-opacity="0" fill-rule="evenodd"/>
<text fill="#ffffff" xml:space="preserve" transform="matrix(.75 0 0 .75 90.555118 58.48819)" font-size="24" font-family="DroidSerif" font-style="italic"><tspan y="32.04" x="9 22.992003 34.824007 47.904008 56.736009 62.952009 70.24801 84.62401 90.84001 98.13601 106.96801 120.86401 128.16002 135.45603 147.12003 158.23203 164.44803 172.75203 180.04804 187.34404 200.49605 212.32805 218.54405 227.37606 241.75206 249.04807 260.16007 268.46406 274.68006 281.97605 293.08805 299.30406 310.41606 319.24806 333.14405 346.48805 358.32005 364.53605 378.43205 385.72804 396.93605 408.76805 420.43205 429.26405 436.56004 450.33604 464.71205 475.82405">Text in italics (like this) is stage directions.</tspan></text>
<text fill="#ffffff" xml:space="preserve" transform="matrix(.75 0 0 .75 90.555118 58.48819)" font-size="24" font-family="DroidSerif" font-style="italic"><tspan y="90.04" x="9 25.920002 33.216005 40.512006 46.728006 60.504007 69.336009 83.712009 95.54401 106.75201 112.96801 121.80001 133.63202 146.71202 155.54402 161.76003 169.05603 180.16803 186.38404 195.21604 208.99204 215.20804 228.69605 240.52805 246.74405 257.95207 269.78407 283.68006 297.57606 303.79206 317.68806 324.98405 338.76005 353.13606 367.03205">All other text is to be read aloud.</tspan></text>
<text fill="#ffffff" xml:space="preserve" transform="matrix(.75 0 0 .75 90.555118 58.48819)" font-size="24" font-family="DroidSerif" font-style="italic"><tspan y="148.04" x="9 23.952 37.848 49.512 63.888 84.216 98.064 111.96001 123.16801 132 139.296 150.96 158.25601 172.10402 186.00002 200.37602 209.20803 229.53603 240.64803 255.02404 268.80003 283.17604 290.47203 304.368 324.696 335.90403 347.73603 361.63203 375.528 395.85603 409.63203 424.00804 435.84004 456.16804 467.28004 474.57603 481.872 495.768 507.6 513.6 533.928 542.76 557.136 568.968 583.344 603.672 617.52 631.416 642.528 653.64 673.968 682.80007 697.176 709.00808">Each participant should read one slide, then pass the </tspan></text>
<text fill="#ffffff" xml:space="preserve" transform="matrix(.75 0 0 .75 90.555118 58.48819)" font-size="24" font-family="DroidSerif" font-style="italic"><tspan y="177.04" x="9 20.112 27.408 34.704004 48.600008 60.432008 67.87201 81.76801 95.66402 108.57602 122.47202 136.84803 148.51203 155.80803 170.18404 183.52805 189.74405 203.64005 215.47205 228.38405 235.68006 247.34406 259.17607 265.17607 271.39207 283.22407 296.30406 307.96806 319.80006 333.64805 342.48005 348.69606 368.32804 382.70405 394.53605 405.74406 417.57606 423.79206 431.08805 445.46406 459.36006 466.65605 478.32005 492.21604 501.04804 512.88 526.776">slide-advancing device, except where indicated.</tspan></text>
<text fill="#ffffff" xml:space="preserve" transform="matrix(.75 0 0 .75 90.555118 58.48819)" font-size="24" font-family="DroidSerif" font-style="italic"><tspan y="235.04" x="9 24.024003 37.920007 52.296007 66.19201 73.48801 85.32001 92.52001 114.000019 127.89602 142.27202 149.56803 163.41603 177.79204 185.08805 198.98404 207.81604 215.11205 228.88805 243.26406 250.46405 257.76005 268.87205 276.07206 284.90406 298.68006 305.88008 319.36808 331.20008 338.4001 352.29609 366.07209 380.4481 392.2801 399.4801 412.4881 425.1361 432.33613 451.9681 466.34413 480.12013 491.95213 504.8641 516.6961 527.9041 535.1041 542.40017 553.51217 560.71218 572.37619 579.6722 593.4482 604.5602 616.3922 627.5042 636.3362 643.5362 652.36819 666.14419 673.3442 682.17617 696.5521 708.38418">Candle manipulation is to be done by whoever is closest to the </tspan></text>
<text fill="#ffffff" xml:space="preserve" transform="matrix(.75 0 0 .75 90.555118 58.48819)" font-size="24" font-family="DroidSerif" font-style="italic"><tspan y="264.04" x="9 20.664002 34.560007 48.936006 62.83201 70.128009 81.96001 93.07201 99.07201 105.28801 124.92001 132.21602 141.04802 155.42403 169.20003 183.57604 192.40804 198.62404 209.83203 221.66403 235.00803 248.90402 260.11204 274.00804 280.22404 287.83204 301.60804 312.81605 319.03205 330.24006 342.07206 355.96806 369.86405 377.16004 391.53605 404.88005 411.09605 424.87205 436.08006 449.97605 461.80805 473.01606">candles, without regard for reading order.</tspan></text>
<text fill="#ffffff" xml:space="preserve" transform="matrix(.75 0 0 .75 90.555118 58.48819)" font-size="24" font-family="DroidSerif" font-style="italic"><tspan y="322.04" x="9 26.808 41.184003 52.848005 64.68001 70.89601 84.792018 92.08801 99.38401 105.60001 112.89601 124.00801 130.22402 141.432 153.264 167.16 181.056 191.568 197.568 203.784 214.896 223.728 237.624 248.832 257.664 263.88 272.712 287.088 298.92 305.13603 326.61604 340.99205 352.10404 359.40003 371.06404 377.28004 384.57603 392.18403 398.40003 412.29603 424.12803 435.24003 442.536 453.74403 465.57603 479.47203 485.47203 491.68803 505.584 519.48007 532.392 546.288 560.664 572.328 584.16006 590.37606 599.208 612.984 619.2 628.032 642.40798 654.24">Once all is ready, start the music if desired, advance to the </tspan></text>
<text fill="#ffffff" xml:space="preserve" transform="matrix(.75 0 0 .75 90.555118 58.48819)" font-size="24" font-family="DroidSerif" font-style="italic"><tspan y="322.04" x="661.04299 675.41897 687.251 700.331 709.16299">next </tspan></text>
<text fill="#ffffff" xml:space="preserve" transform="matrix(.75 0 0 .75 90.555118 58.48819)" font-size="24" font-family="DroidSerif" font-style="italic"><tspan y="351.04" x="9 17.832 25.128003 33.960004 41.256006 53.088006 59.304006 70.41601 77.712009 85.008 98.90401 110.73601 116.95201 130.848 145.22402 159.12001 165.33602 184.96802 198.86402 206.16002 214.99202 221.20803 228.81603 242.59203 253.80002 260.01603 271.68003 285.57603 292.872 314.35203 320.35203 326.56803 335.40003 349.77604 361.60804 375.98405 382.20005 396.04804 407.25605 421.03205 432.69606 444.52806 456.36006 470.25605">title slide and wait for calm, then proceed.</tspan></text>
<path transform="matrix(.001968504,0,0,.001968504,0,0)" d="M 213610 43846 L 507262 43846 L 507262 78106 L 213610 78106 Z " fill-opacity="0" fill-rule="evenodd"/>
</g>
</g>
</g>
</svg>
