<?xml version="1.0" encoding="UTF-8" standalone="no"?>
<!DOCTYPE svg PUBLIC "-//W3C//DTD SVG 1.1//EN" "http://www.w3.org/Graphics/SVG/1.1/DTD/svg11.dtd">
<svg xmlns="http://www.w3.org/2000/svg" xmlns:xlink="http://www.w3.org/1999/xlink" version="1.1" width="720pt" height="405pt" viewBox="0 0 720 405">
<g enable-background="new">
<g>
<clipPath id="cp3">
<path transform="matrix(.001968504,0,0,.001968504,0,0)" d="M 0 0 L 365760 0 L 365760 205740 L 0 205740 L 0 0 Z "/>
</clipPath>
<g clip-path="url(#cp3)">
<path transform="matrix(.001968504,0,0,.001968504,0,0)" d="M 0 0 L 365568 0 L 365568 205740 L 0 205740 Z " fill-opacity=".2577" fill-rule="evenodd"/>
<path transform="matrix(.001968504,0,0,.001968504,0,0)" d="M 45906 10962 L 319662 10962 L 319662 194778 L 45906 194778 Z " fill-opacity="0" fill-rule="evenodd"/>
<text fill="#ffffff" xml:space="preserve" transform="matrix(.75 0 0 .75 90.36614 21.578742)" font-size="32" font-family="DroidSerif"><tspan y="115.72" x="9 28.936 46.056 57.32 63.752 78.184 96.232 108.04 126.024 140.45601 151.72002 169.768 181.576 200.04001 215.11202 242.66402 260.648 275.72 295.336 313.384 331.848 350.376 367.496 382.568 400.616 411.88 432.168 449.288 467.336 478.6 498.888 509.096 524.168 535.432 552.552 569.672 590.312 608.36007 627.9761 638.1841 648.10409 658.02407 668.23208 686.69607 707.33609">Let&#x2019;s fast forward over the thirteen billion </tspan></text>
<text fill="#ffffff" xml:space="preserve" transform="matrix(.75 0 0 .75 90.36614 21.578742)" font-size="32" font-family="DroidSerif"><tspan y="153.72" x="9 27.048 44.168 62.152 77.224 85.512 95.432 113.895999 134.536 151.752 160.04 179.65599 194.728 211.84799 231.46399 251.75199 268.87199 278.792">year long prequel.</tspan></text>
<text fill="#ffffff" xml:space="preserve" transform="matrix(.75 0 0 .75 90.36614 21.578742)" font-size="32" font-family="DroidSerif"><tspan y="229.72" x="9 32.744005 53.032007 68.104007 78.12 92.552 103.816 122.28 137.352 155.40001 165.416 185.032 202.152 219.368 229.57599 250.21599 264.64799 274.66398 284.87199 305.512 315.52799 326.792 347.08 364.19999 374.21598 392.19999 409.416 426.53599 436.55198 455.01597 466.82398 476.83998 507.04798 525.09597 536.3599 556.64797 564.64797 574.664 593.128 604.936 614.952 626.76 645.224 659.656 674.088 684.296 694.216 708.648">Our story begins in the age of myth, of fossils </tspan></text>
<text fill="#ffffff" xml:space="preserve" transform="matrix(.75 0 0 .75 90.36614 21.578742)" font-size="32" font-family="DroidSerif"><tspan y="267.72" x="9 26.984002 47.624 67.240009 75.52801 85.448009 102.56801 119.78401 136.904 157.544 177.16 191.59201 200.74402">and legends. </tspan></text>
<text fill="#ffffff" xml:space="preserve" transform="matrix(.75 0 0 .75 90.36614 21.578742)" font-size="32" font-family="DroidSerif"><tspan y="343.72" x="9 20.744 32.008 40.295999 54.727998 65.992 83.976 99.048 110.312 124.743999 133.032 160.584 170.79199 182.056 202.344 210.63199 221.896 242.18399 259.304 267.59199 277.8 298.44 316.96803 334.088 354.72804 365.99205 376.20005 394.66404 415.30406 423.59205 442.05604 453.86405 462.15205 473.96006 484.16807 499.24006 516.36007">It starts with the invention of fire.</tspan></text>
<path transform="matrix(.001968504,0,0,.001968504,0,0)" d="M 213610 43846 L 507262 43846 L 507262 78106 L 213610 78106 Z " fill-opacity="0" fill-rule="evenodd"/>
</g>
</g>
</g>
</svg>
