<?xml version="1.0" encoding="UTF-8" standalone="no"?>
<!DOCTYPE svg PUBLIC "-//W3C//DTD SVG 1.1//EN" "http://www.w3.org/Graphics/SVG/1.1/DTD/svg11.dtd">
<svg xmlns="http://www.w3.org/2000/svg" xmlns:xlink="http://www.w3.org/1999/xlink" version="1.1" width="720pt" height="405pt" viewBox="0 0 720 405">
<g enable-background="new">
<g>
<clipPath id="cp47">
<path transform="matrix(.001968504,0,0,.001968504,0,0)" d="M 0 0 L 365760 0 L 365760 205740 L 0 205740 L 0 0 Z "/>
</clipPath>
<g clip-path="url(#cp47)">
<path transform="matrix(.001968504,0,0,.001968504,0,0)" d="M 0 0 L 365568 0 L 365568 205740 L 0 205740 Z " fill-opacity=".7686" fill-rule="evenodd"/>
<path transform="matrix(.001968504,0,0,.001968504,0,0)" d="M 45906 10962 L 319662 10962 L 319662 194778 L 45906 194778 Z " fill-opacity="0" fill-rule="evenodd"/>
<text fill="#ffffff" xml:space="preserve" transform="matrix(.75 0 0 .75 90.36614 21.578742)" font-size="32" font-family="DroidSerif"><tspan y="39.72" x="9 23.400002 35.144 46.952005 64.712009 92.26401 109.38401 127.14401 142.88802 161.35202 181.99202 193.25603 203.46402 224.10402 244.39202 262.376 272.29603 282.21604 300.26405 318.02406 332.45606 350.44007 380.64808 400.26408 410.18409 427.30409 445.0641 456.8721 471.9441 490.40809 520.6161 538.3761 549.6401 569.9281 587.0481 604.8081 625.0961 640.16818 660.80819 678.5682 697.03219 708.84017">&#x201c;If we continually sample from the urn of </tspan></text>
<text fill="#ffffff" xml:space="preserve" transform="matrix(.75 0 0 .75 90.36614 21.578742)" font-size="32" font-family="DroidSerif"><tspan y="77.72" x="9 28.616002 47.08 61.512 75.944 86.152 105.768009 115.688 132.808 167.176 178.44 195.56 211.304 231.592 252.232 270.69599 280.616 299.08 316.296 326.504 342.248 360.232 370.152 404.52003 424.13603 434.34403 448.77604 464.52003 482.984 501.51203 518.632 533.70407 543.91207 561.03207 575.46408 609.8321 629.4481 646.5681 658.3761 676.8401 691.9121 709.0321">possible technological discoveries before </tspan></text>
<text fill="#ffffff" xml:space="preserve" transform="matrix(.75 0 0 .75 90.36614 21.578742)" font-size="32" font-family="DroidSerif"><tspan y="115.72" x="9 19.208 49.416 69.032 78.951999 96.072 126.28 143.4 164.04 175.304 185.512 206.152 223.368 256.168 273.288 285.096 296.90403 314.02403 329.768 341.032 351.24003 369.76805 386.88804 419.68803 449.89604 467.01603 485.00004 505.64006 520.072 552.8721 571.33609 583.14407 615.9441 633.1601 643.0801 661.54409 681.1601 699.1441 709.0641">implementing effective means of global </tspan></text>
<text fill="#ffffff" xml:space="preserve" transform="matrix(.75 0 0 .75 90.36614 21.578742)" font-size="32" font-family="DroidSerif"><tspan y="153.72" x="9 24.744 43.208 61.672 76.744 96.36 106.568 127.208 145.192 156.45601 166.664 185.128 205.768 213.768 227.016 241.44802 261.73603 276.808 295.33604 312.45603 322.66404 332.58406 342.50407 360.48808 381.12809 396.87208 413.99208 421.99208 435.24006 453.22407 473.86408 493.48008 502.69609 521.1601 536.2321 549.48019 564.5522 581.6722 596.1042 607.36819 622.4402 632.6482 648.3922 659.6562 669.8642 688.3282 708.9682">coordination, surveillance, and/or restriction </tspan></text>
<text fill="#ffffff" xml:space="preserve" transform="matrix(.75 0 0 .75 90.36614 21.578742)" font-size="32" font-family="DroidSerif"><tspan y="191.72" x="9 27.464 39.272005 59.880006 79.496 97.96001 109.22401 126.34401 146.98401 158.24802 168.45603 186.44004 196.36003 206.28003 224.32804 244.93604 265.22404 283.20805 299.56004 317.54405 332.61604 352.23204 370.696 390.984 405.41603 426.02403 436.23204 456.87205 468.68006 487.14405 502.21604 532.424 550.408 561.672 571.88 590.344 610.984 618.984 639.59207 650.856 671.14407 688.26406 708.90408">of potentially hazardous information, then </tspan></text>
<text fill="#ffffff" xml:space="preserve" transform="matrix(.75 0 0 .75 90.36614 21.578742)" font-size="32" font-family="DroidSerif"><tspan y="229.72" x="9 36.552003 53.672006 68.296009 83.368007 93.576007 108.008 126.69601 141.32 158.44 176.968 194.088 214.728 225.992 246.28 264.264 274.18403 284.10404 302.15205 316.77604 336.39204 350.824 368.808 396.36003 406.56803 427.20805 444.42405 459.04804 477.03205 491.65605 511.27204 521.192 539.176 554.92007 573.60806 588.23208 607.8481 625.8321 635.7521 645.67208 654.8561 669.4801 687.4641 708.1041">we risk eventually drawing a black ball: an </tspan></text>
<text fill="#ffffff" xml:space="preserve" transform="matrix(.75 0 0 .75 90.36614 21.578742)" font-size="32" font-family="DroidSerif"><tspan y="267.72" x="9 26.12 44.104005 58.536005 76.584 86.504 97.768 116.231998 126.15199 156.36 174.344 192.392 209.512 258.472 268.68 289.32 300.584 317.704 332.776 351.30403 368.424 389.06404 400.32804 410.53605 429.00004 449.64006 498.60005 509.86405 530.15206 548.13607 559.4 608.36007 624.10409 642.0881 662.3761 676.8081 693.9281 708.3601">easy-to-make intervention that causes </tspan></text>
<text fill="#ffffff" xml:space="preserve" transform="matrix(.75 0 0 .75 90.36614 21.578742)" font-size="32" font-family="DroidSerif"><tspan y="305.72" x="9 26.12 44.616 55.88 70.952 88.07201 118.28001 135.40001 145.32 163.36801 192.264 219.81601 230.02402 249.64002 266.76 281.19203 300.808 315.88 333 350.984 370.6 399.496 419.784 437.768 452.84 483.048 511.944 529.928 550.568 570.184 599.0801 617.0641 634.2801 652.2641 662.4721 683.1121 697.5441 708.8081">extremely widespread harm and against </tspan></text>
<text fill="#ffffff" xml:space="preserve" transform="matrix(.75 0 0 .75 90.36614 21.578742)" font-size="32" font-family="DroidSerif"><tspan y="343.72" x="9 36.552003 56.840005 67.048007 82.79201 103.08001 111.36801 128.488 140.296 152.104 169.224 184.968 196.23201 206.44 224.968 242.088 250.37599 269.992 287.112 298.92 316.04 336.68003 351.11204 368.23204 376.52003 386.72804 401.16004 409.44804 419.65605 440.29606 452.10408 469.22407 487.20808 501.64009 511.84809 531.4641 541.3841 558.5041 567.65609 582.0561">which effective defense is infeasible.&#x201d; </tspan></text>
<text fill="#ffffff" xml:space="preserve" transform="matrix(.75 0 0 .75 90.36614 21.578742)" font-size="32" font-family="DroidSerif"><tspan y="419.72" x="9 41 49.288003 73.704 83.912 99.656009 118.34401 126.63201 147.52802 165.99202 180.42403 191.68804 206.76004 225.22405 255.43206 263.72007 274.79206 292.68006 310.56806 328.45606 346.34407">&#x2014; Nick Bostrom (2013)</tspan></text>
</g>
</g>
</g>
</svg>
