<?xml version="1.0" encoding="UTF-8" standalone="no"?>
<!DOCTYPE svg PUBLIC "-//W3C//DTD SVG 1.1//EN" "http://www.w3.org/Graphics/SVG/1.1/DTD/svg11.dtd">
<svg xmlns="http://www.w3.org/2000/svg" xmlns:xlink="http://www.w3.org/1999/xlink" version="1.1" width="720pt" height="405pt" viewBox="0 0 720 405">
<g enable-background="new">
<g>
<clipPath id="cp48">
<path transform="matrix(.001968504,0,0,.001968504,0,0)" d="M 0 0 L 365760 0 L 365760 205740 L 0 205740 L 0 0 Z "/>
</clipPath>
<g clip-path="url(#cp48)">
<path transform="matrix(.001968504,0,0,.001968504,0,0)" d="M 0 0 L 365568 0 L 365568 205740 L 0 205740 Z " fill-opacity=".8157" fill-rule="evenodd"/>
<path transform="matrix(.001968504,0,0,.001968504,0,0)" d="M 45906 10962 L 319662 10962 L 319662 194778 L 45906 194778 Z " fill-opacity="0" fill-rule="evenodd"/>
<text fill="#ffffff" xml:space="preserve" transform="matrix(.75 0 0 .75 90.36614 21.578742)" font-size="32" font-family="DroidSerif"><tspan y="115.72" x="9 31.560002 45.992006 58.056009 85.60801 102.72801 114.792018 131.91202 152.55202 163.81603 180.93602 196.00803 208.07202 219.33603 239.62403 256.74403 268.808 280.07203 300.36003 310.56803 325.64 336.90403 347.11204 364.23204 378.66404 390.72804 408.71205 429.35206 448.96806 461.03205 472.84007 491.30406 506.37605 517.64 527.848 544.968 559.4 567.4 579.46408 609.67208 627.65609 647.65609 665.70407 677.76809 696.23208 708.04006">As we enter the thirties and forties, many of </tspan></text>
<text fill="#ffffff" xml:space="preserve" transform="matrix(.75 0 0 .75 90.36614 21.578742)" font-size="32" font-family="DroidSerif"><tspan y="153.72" x="9 20.264 40.552003 57.672006 71.240009 86.312007 106.600009 116.520008 133.64 148.072 161.64 180.104 200.744 214.312 241.864 262.152 272.36003 288.104 308.392 321.96 342.248 362.53599 392.744 410.728 431.368 444.936 459.368 477.832 493.576 503.784 520.904 532.16799 550.21597 563.784 591.336 609.32 623.752 637.32009 656.9361 677.2241 687.4321 697.3521 708.6161">the rules on which human society was built </tspan></text>
<text fill="#ffffff" xml:space="preserve" transform="matrix(.75 0 0 .75 90.36614 21.578742)" font-size="32" font-family="DroidSerif"><tspan y="191.72" x="9 29.288 47.272005 65.8 82.920009 91.880008 109.09601 119.30401 137.83202 154.95201 175.59201 184.552 212.104 229.44802 247.49602 256.45603 267.72004 286.18403 295.144 309.57603 325.32 335.528 352.648 373.28804 389.032 406.152 415.112 433.096 453.73603 473.35203 482.312 492.52003 513.16006 532.77609 553.0641 567.4961 578.7601 593.8321 609.03207 618.184 627.14407 646.47207 661.54409 671.7521 690.21609 705.2881">have given way to science and industry. Prior </tspan></text>
<text fill="#ffffff" xml:space="preserve" transform="matrix(.75 0 0 .75 90.36614 21.578742)" font-size="32" font-family="DroidSerif"><tspan y="229.72" x="9 20.264 38.728 48.424 59.688 79.976 90.184 104.616 114.312 133.928 152.392 162.6 183.24 194.50402 202.50402 212.20001 223.46402 240.58402 256.328 276.616 297.256 315.72 325.64 344.104 361.32 371.528 387.272 405.256 415.17604 424.872 444.488 459.56 478.024 495.24 510.31199 527.432 541.864 556.296 565.99209 596.2001 614.66409 633.1921 650.3121 669.9281 679.62417 697.60818 708.87216">to this point, technological progress moved at </tspan></text>
<text fill="#ffffff" xml:space="preserve" transform="matrix(.75 0 0 .75 90.36614 21.578742)" font-size="32" font-family="DroidSerif"><tspan y="267.72" x="9 20.264 40.552003 57.672006 69.8 84.232 103.84801 120.96801 138.08802 157.70401 169.832 188.296 200.104 212.232 227.976 238.18399 256.712 266.92 276.84004 287.04804 303.40003 321.38404 332.64805 342.85606 361.32005 381.96006 389.96006 402.08805 420.07206 440.71208 460.32807 472.45606 482.66407 493.92808 508.36009 520.4881 537.6081 549.4161 561.22409 578.34408 594.0881 605.35208 619.78408 631.9121 659.4641 676.5841 691.6561 708.7761">the speed of civilization, and its effects were </tspan></text>
<text fill="#ffffff" xml:space="preserve" transform="matrix(.75 0 0 .75 90.36614 21.578742)" font-size="32" font-family="DroidSerif"><tspan y="305.72" x="9 39.208 57.192 67.4 88.04 97.96 116.007999 131.048 148.168 159.976 171.784 188.90399 204.648 215.912 230.34401 245.384 263.848 284.488 299.528 313.96003 332.424 348.168 358.376 375.496 386.76 396.96803 414.088 428.52003 437.67204 452.71205 472.64805 490.63206 506.37605 526.66409 541.7041 552.9681 570.0881 585.8321 606.1201 626.76016 645.2241 655.1441 673.6081 690.8241 708.8721">mainly effects on societies. Each technology </tspan></text>
<text fill="#ffffff" xml:space="preserve" transform="matrix(.75 0 0 .75 90.36614 21.578742)" font-size="32" font-family="DroidSerif"><tspan y="343.72" x="9 29.288 47.272005 61.704004 71.976009 89.96001 100.23201 120.87201 138.85602 169.06403 186.18402 196.45601 214.44 225.70401 236.96802 254.95203 270.696 290.984 308.104 327.72 335.72 345.992 365.608 385.896 397.16 407.432 418.696 438.984 457.448 471.88 489 499.272 519.912 537.896 568.104 585.224 599.656 609.92807 629.54409 648.00808 658.2801 678.9201 697.3841 708.6481">has a name attached, but those names do not </tspan></text>
<text fill="#ffffff" xml:space="preserve" transform="matrix(.75 0 0 .75 90.36614 21.578742)" font-size="32" font-family="DroidSerif"><tspan y="381.72" x="9 39.208 57.192 68.456 79.72 96.840007 111.912 120.200008 150.408 170.696 186.44 206.728">matter much.</tspan></text>
</g>
</g>
</g>
</svg>
