<?xml version="1.0" encoding="UTF-8" standalone="no"?>
<!DOCTYPE svg PUBLIC "-//W3C//DTD SVG 1.1//EN" "http://www.w3.org/Graphics/SVG/1.1/DTD/svg11.dtd">
<svg xmlns="http://www.w3.org/2000/svg" xmlns:xlink="http://www.w3.org/1999/xlink" version="1.1" width="720pt" height="405pt" viewBox="0 0 720 405">
<g enable-background="new">
<g>
<clipPath id="cp49">
<path transform="matrix(.001968504,0,0,.001968504,0,0)" d="M 0 0 L 365760 0 L 365760 205740 L 0 205740 L 0 0 Z "/>
</clipPath>
<g clip-path="url(#cp49)">
<path transform="matrix(.001968504,0,0,.001968504,0,0)" d="M 0 0 L 365568 0 L 365568 205740 L 0 205740 Z " fill-opacity=".8784" fill-rule="evenodd"/>
<path transform="matrix(.001968504,0,0,.001968504,0,0)" d="M 45906 10962 L 319662 10962 L 319662 194778 L 45906 194778 Z " fill-opacity="0" fill-rule="evenodd"/>
<text fill="#ffffff" xml:space="preserve" transform="matrix(.75 0 0 .75 90.36614 21.578742)" font-size="28" font-family="DroidSerif"><tspan y="35.879999" x="9 21.6 38.736 56.488 72.644 85.271999 100.252 110.808 137.24 152.97602 162.83202 177.81201 191.00002 199.93202 215.66803 224.34803 234.90402 243.83603 261.89604 278.10804 293.08805 311.14805 321.00404 329.93605 346.09205 364.15205 376.78004 383.78004 394.33604 411.50004 426.48005 441.54405 450.47605 468.53605 486.59605 495.52806 513.5881 528.6521 539.2081 563.31619 572.24819 582.1042 599.8562 610.41226 620.26828 638.02029 653.00027 663.5563 681.3083 693.9363 708.91629">&#x201c;Those material inventions, beginning with the use </tspan></text>
<text fill="#ffffff" xml:space="preserve" transform="matrix(.75 0 0 .75 90.36614 21.578742)" font-size="28" font-family="DroidSerif"><tspan y="69.88" x="9 25.156 35.488 70.236 82.864 92.72 108.876 126.936008 141.916 154.544 189.292 205.02802 217.65602 252.40402 276.51203 291.49205 307.22804 324.39204 340.54804 358.60804 371.23603 378.23603 412.98405 437.09205 454.84407 463.77607 477.55207 495.30409 530.0521 538.7321 553.7121 570.8761 605.62417 615.48019 631.63619 666.38418 676.2402 693.9922 708.97219">of stones as weapons, which led to the </tspan></text>
<text fill="#ffffff" xml:space="preserve" transform="matrix(.75 0 0 .75 90.36614 21.578742)" font-size="28" font-family="DroidSerif"><tspan y="103.88" x="9 26.164002 42.32 68.752 83.732 96.36 106.216 115.148 128.924 144.66 154.516 163.44802 179.60402 197.66402 208.19202 224.34803 234.68003 245.20803 260.94404 279.00404 287.93605 314.36805 330.10404 338.78404 351.41203 358.41203 368.94004 378.79603 396.54804 411.52806 422.05607 439.22007 452.40806 468.56407 485.72807 503.48008 517.25607 527.11209 536.04409 552.2001 570.2601 580.7881 596.9441 607.2761 617.80416 628.1361 637.0681 650.2561 665.2361 675.7641 692.3681 708.1601">domestication of animals, the production of fire by </tspan></text>
<text fill="#ffffff" xml:space="preserve" transform="matrix(.75 0 0 .75 90.36614 21.578742)" font-size="28" font-family="DroidSerif"><tspan y="137.88" x="9 24.736 37.924 47.78 56.711999 67.044 75.976 89.752 98.684 114.42 123.1 132.20001 158.63202 173.61202 189.34803 207.40802 220.03603 227.03603 236.13603 253.30004 269.45603 293.56404 311.62403 320.72404 330.58003 346.73603 355.83604 365.69203 383.44404 398.42405 407.49607 433.92808 449.66407 462.85206 479.06407 494.04408 502.72407 511.40406 527.56008 545.3121 557.94009 567.0401 575.9721 594.0321 610.2441 625.22409 643.28408 653.1401 662.0721 678.2281 696.2881 708.9161">artificial means, down to the marvellous inventions </tspan></text>
<text fill="#ffffff" xml:space="preserve" transform="matrix(.75 0 0 .75 90.36614 21.578742)" font-size="28" font-family="DroidSerif"><tspan y="171.88" x="9 25.156 35.488 49.656 65.812 83.563999 96.752 110.92 127.076 151.18399 169.24399 183.41199 200.57599 215.752 231.544 244.17201 251.17201 265.34004 277.96803 295.72004 311.87605 335.98405 350.15205 363.92805 372.60804 387.58805 403.32405 416.51203 425.19203 440.984 455.15205 465.00804 482.76005 498.49604 508.35203 522.52 538.25607 556.31607 570.4841 579.4161 597.4761 614.6401 623.5721 639.78408 648.71609 665.88009 683.6321 699.3681 708.0481">of our own days, show clearly that an individual </tspan></text>
<text fill="#ffffff" xml:space="preserve" transform="matrix(.75 0 0 .75 90.36614 21.578742)" font-size="28" font-family="DroidSerif"><tspan y="205.88" x="9 33.108 48.844 61.472005 78.46801 88.32401 106.07601 121.056018 138.05202 154.20803 167.39603 176.32804 191.39203 200.32404 218.38404 234.12004 243.97605 260.13206 273.32005 290.31605 299.24806 317.30805 334.30406 349.28407 365.02006 378.79606 396.54808 413.54408 427.32008 443.05607 455.68406 470.66407 478.67207 495.66807 512.8041 530.5561 545.5361 562.5321 580.5921 595.5721 611.3081 624.4961 639.4761 652.66409 669.6601 693.76809 708.74807">was the originator in each case. The nearer we </tspan></text>
<text fill="#ffffff" xml:space="preserve" transform="matrix(.75 0 0 .75 90.36614 21.578742)" font-size="28" font-family="DroidSerif"><tspan y="239.88" x="9 22.776001 38.932 65.364 80.344 89.92 99.776 115.932 125.507999 141.664 159.416 172.604 182.18001 198.33602 222.44402 240.50402 250.08002 259.936 268.868 295.30003 310.28004 319.85606 335.59205 353.65205 370.81605 380.39207 390.24806 408.00007 422.98008 432.5561 458.9881 475.1441 488.3321 503.3121 512.8881 521.8201 548.25216 565.41616 581.57217 594.76016 604.61618 620.3522 638.4122 648.2682 657.8442 673.5802 691.6402 708.8042">come to our own time and the more important and </tspan></text>
<text fill="#ffffff" xml:space="preserve" transform="matrix(.75 0 0 .75 90.36614 21.578742)" font-size="28" font-family="DroidSerif"><tspan y="273.88" x="9 22.188 37.168 53.38 69.536 78.216 95.968 105.824008 114.756008 130.912 148.972 164.70801 177.89601 193.68802 215.08002 224.93602 242.68802 257.66804 279.06007 287.99208 306.05207 322.26408 337.24409 355.30409 365.16007 374.09208 390.24809 408.30809 420.93608 442.3281 459.4921 474.4721 488.2481 504.4041 530.8361 545.8161 552.8161 574.2081 584.06417 601.81619 616.79617 638.1882 664.6202 680.7762 693.9642 708.94418">revolutionary the inventions become, the more </tspan></text>
<text fill="#ffffff" xml:space="preserve" transform="matrix(.75 0 0 .75 90.36614 21.578742)" font-size="28" font-family="DroidSerif"><tspan y="307.88" x="9 22.776001 31.456002 46.436 62.172 75.36 84.04 99.832 109.352 126.516 142.672 152.192 176.3 191.28 200.8 213.988 228.968 242.744 258.9 273.964 292.024 300.956 315.264 330.24403 339.76405 349.62004 367.37205 382.35206 391.87208 401.72807 414.91606 432.66807 442.52406 460.27607 469.79609 485.9521 496.2841 505.8041 515.6601 533.4121 549.14816 559.00418 568.5242 581.15219 591.0082 606.7442 616.6002 631.5802 658.0122 672.9922 691.0522 700.9082 708.9162">clearly do we recognize the truth of that statement. </tspan></text>
<text fill="#ffffff" xml:space="preserve" transform="matrix(.75 0 0 .75 90.36614 21.578742)" font-size="28" font-family="DroidSerif"><tspan y="341.88" x="9 28.740002 37.420003 46.100004 55.144 65 82.752 97.732 106.776 133.20801 148.94402 158.80002 173.78002 186.96802 195.90003 211.63603 220.31604 229.36005 238.29206 256.35206 272.56407 287.54408 305.60408 315.46006 324.39207 340.54808 358.60807 371.23606 380.28007 404.38807 422.14009 431.07209 444.84809 462.6001 471.6441 495.7521 510.73213 519.7761 532.4041 547.3841 562.3641 571.4081 587.1441 600.3321 616.4881 634.2401 652.3001 669.4641 678.5081 696.26016 708.8881">All the material inventions which we see around us </tspan></text>
<text fill="#ffffff" xml:space="preserve" transform="matrix(.75 0 0 .75 90.36614 21.578742)" font-size="28" font-family="DroidSerif"><tspan y="375.88" x="9 26.752 42.488004 58.700006 73.68001 89.41601 106.58001 121.56001 136.54001 154.6 170.336 187.5 200.688 216.84401 234.00801 251.76001 265.536 280.51603 297.68003 313.41606 330.02006 345.81205 361.54808 371.40406 389.15608 404.13609 419.8721 433.6481 446.8361 461.8161 477.5521 487.40809 496.3401 512.55209 527.53207 543.26809 560.43209 576.5881 600.69607 615.676 628.864 641.492 657.228 672.96408 691.02407 708.18807">have been produced by the creative powers and </tspan></text>
<text fill="#ffffff" xml:space="preserve" transform="matrix(.75 0 0 .75 90.36614 21.578742)" font-size="28" font-family="DroidSerif"><tspan y="409.88" x="9 22.776001 38.512 55.676004 71.412 88.576007 97.508 106.188 115.12 124.976009 133.908 148.888 161.516 168.768 184.92401 195.25601 202.50801 211.44002 229.50002 246.66402 255.59603 271.808 280.74003 297.90403 315.65605 331.39204 340.07203 352.7 360.708">capabilities of individuals.&#x201d;</tspan></text>
</g>
</g>
</g>
</svg>
