<?xml version="1.0" encoding="UTF-8" standalone="no"?>
<!DOCTYPE svg PUBLIC "-//W3C//DTD SVG 1.1//EN" "http://www.w3.org/Graphics/SVG/1.1/DTD/svg11.dtd">
<svg xmlns="http://www.w3.org/2000/svg" xmlns:xlink="http://www.w3.org/1999/xlink" version="1.1" width="720pt" height="405pt" viewBox="0 0 720 405">
<g enable-background="new">
<g>
<clipPath id="cp50">
<path transform="matrix(.001968504,0,0,.001968504,0,0)" d="M 0 0 L 365760 0 L 365760 205740 L 0 205740 L 0 0 Z "/>
</clipPath>
<g clip-path="url(#cp50)">
<path transform="matrix(.001968504,0,0,.001968504,0,0)" d="M 0 0 L 365568 0 L 365568 205740 L 0 205740 Z " fill-rule="evenodd"/>
<path transform="matrix(.001968504,0,0,.001968504,0,0)" d="M 45906 10962 L 319662 10962 L 319662 194778 L 45906 194778 Z " fill-opacity="0" fill-rule="evenodd"/>
<text fill="#ffffff" xml:space="preserve" transform="matrix(.75 0 0 .75 90.36614 21.578742)" font-size="28" font-family="DroidSerif"><tspan y="137.88" x="9 26.444 42.18 55.956 73.708 87.96 104.116 114.448 128.7 138.556 156.308 171.288 185.54 194.472 212.532 228.744 243.724 261.784 271.63999 287.796 300.98399 313.61198 327.86399 354.296 369.276 387.336 397.192 406.124 422.28 440.34 455.32 472.484 486.73603 499.364 515.52 529.77206 540.104 555.84 569.028 583.28 601.03207 616.76809 629.39608 643.6481 660.8121 675.79208 690.77206 708.83206">Each of the inventors mentioned so far has been </tspan></text>
<text fill="#ffffff" xml:space="preserve" transform="matrix(.75 0 0 .75 90.36614 21.578742)" font-size="28" font-family="DroidSerif"><tspan y="171.88" x="9 26.164002 41.9 54.528005 63.460004 77.236 92.972 101.652 110.332 126.124 136.06401 151.80002 161.74002 176.80402 192.96002 209.11603 226.28003 236.22003 253.38404 268.36405 281.55204 294.18003 310.33604 328.39604 335.39604 345.33604 354.26805 372.32804 382.18403 397.16404 410.35203 425.33204 437.96003 447.816 462.79603 479.96003 489.90003 498.83204 516.892 526.83206 537.16409 546.09609 564.15609 581.32009 590.2521 608.3121 623.3761 633.3161 643.1721 656.3601 674.1121 683.96817 701.72018 708.72018">basically a good person, interested in finding truth, </tspan></text>
<text fill="#ffffff" xml:space="preserve" transform="matrix(.75 0 0 .75 90.36614 21.578742)" font-size="28" font-family="DroidSerif"><tspan y="205.88" x="9 17.932 44.364 61.528 74.716 90.872 107.084 116.016 134.076 149.14 162.216 174.84401 191.00002 204.77602 213.70803 228.68802 238.54402 254.33603 267.41206 283.56806 296.75605 303.75605 316.83207 332.56806 342.42405 355.50007 379.60807 395.76408 408.95207 421.58006 431.43605 438.43605 451.51206 477.94407 493.68006 510.03205 518.96408 537.02407 552.0881 565.16409 580.9001 593.9761 611.1401 628.8921 641.5201 650.4521 668.5121 683.49209 696.12008 708.74807">improving society or, at worst, making a business </tspan></text>
<text fill="#ffffff" xml:space="preserve" transform="matrix(.75 0 0 .75 90.36614 21.578742)" font-size="28" font-family="DroidSerif"><tspan y="239.88" x="9 19.332 35.488 48.676 74.016 83.872 101.624 116.604007 143.03601 155.66402 170.64402 179.324 189.656 197.664 223.004 244.368 259.348 283.456 293.31199 309.468 327.52799 352.868 379.30003 395.036 407.664 417.52 432.5 445.688 460.668 477.832 503.17204 516.948 532.684 541.364 555.14 572.892 581.572 599.32406 611.952 618.952 644.29208 672.20809 687.9441 697.8001 707.6561">for themself. Newton mastered calculus; Watt </tspan></text>
<text fill="#ffffff" xml:space="preserve" transform="matrix(.75 0 0 .75 90.36614 21.578742)" font-size="28" font-family="DroidSerif"><tspan y="273.88" x="9 35.432 51.168 63.796 73.652 88.632 101.82001 116.80001 133.96402 167.03202 179.66002 189.51602 204.49602 220.23203 246.66403 253.66403 286.73207 304.17607 321.34007 330.27207 342.90007 359.05607 377.11607 410.18409 436.6161 452.35209 464.98008 474.83607 489.81608 503.00407 517.9841 535.1481 568.21609 583.19607 591.87606 606.856 620.632 630.48806 643.676 652.60806 666.38406 675.31607 685.17208 698.47207 706.48007">mastered steam; Edison mastered electricity. </tspan></text>
<text fill="#ffffff" xml:space="preserve" transform="matrix(.75 0 0 .75 90.36614 21.578742)" font-size="28" font-family="DroidSerif"><tspan y="307.88" x="9 31.176003 40.108 52.736005 62.592004 78.748 91.936008 107.728008 116.184009 140.292 156.02802 168.65602 177.11202 190.88802 208.64002 224.37602 242.43602 257.50004 272.48005 289.64405 298.10008 314.70408 330.49607 338.9521 348.80809 366.5601 381.5401 390.4721 403.6601 412.11613 421.04814 439.10813 455.32014 470.30015 488.36015 498.21614 507.14814 523.30416 541.36416 553.9921 560.9921 569.4481 586.6121 604.36416 614.22018 622.67617 640.73617 656.89218 666.74819 675.20419 691.80819 707.60018">History was changed by their inventions, but not by </tspan></text>
<text fill="#ffffff" xml:space="preserve" transform="matrix(.75 0 0 .75 90.36614 21.578742)" font-size="28" font-family="DroidSerif"><tspan y="341.88" x="9 18.856 36.608 51.588 60.52 73.708 80.96 94.736 112.488 128.224 140.852 156.58802 170.36402 180.22002 195.20001 208.38802 221.01602 229.02402">their characters. </tspan></text>
</g>
</g>
</g>
</svg>
