<?xml version="1.0" encoding="UTF-8" standalone="no"?>
<!DOCTYPE svg PUBLIC "-//W3C//DTD SVG 1.1//EN" "http://www.w3.org/Graphics/SVG/1.1/DTD/svg11.dtd">
<svg xmlns="http://www.w3.org/2000/svg" xmlns:xlink="http://www.w3.org/1999/xlink" version="1.1" width="720pt" height="405pt" viewBox="0 0 720 405">
<g enable-background="new">
<g>
<clipPath id="cp51">
<path transform="matrix(.001968504,0,0,.001968504,0,0)" d="M 0 0 L 365760 0 L 365760 205740 L 0 205740 L 0 0 Z "/>
</clipPath>
<g clip-path="url(#cp51)">
<path transform="matrix(.001968504,0,0,.001968504,0,0)" d="M 0 0 L 365568 0 L 365568 205740 L 0 205740 Z " fill-rule="evenodd"/>
<path transform="matrix(.001968504,0,0,.001968504,0,0)" d="M 45906 10962 L 319662 10962 L 319662 194778 L 45906 194778 Z " fill-opacity="0" fill-rule="evenodd"/>
<text fill="#f3f3f3" xml:space="preserve" transform="matrix(.75 0 0 .75 90.36614 21.578742)" font-size="28" font-family="DroidSerif"><tspan y="137.88" x="9 27.284003 45.036005 54.892007 65.560009 74.492008 92.552 103.22 118.872 134.524 150.176 165.828 172.828 183.496 196.12401 212.28002 238.71202 253.69202 269.84803 287.90803 302.88804 313.55604 323.88804 332.82005 347.88404 365.63606 378.82405 393.80406 410.96806 421.63606 437.79206 455.54408 465.40007 476.06806 493.23207 509.38807 533.4961 548.4761 561.66409 572.3321 581.0121 591.6801 615.7881 633.5401 649.2761 659.13217 669.8002 693.9082 708.8882">But in 1939, someone figured out power - what we </tspan></text>
<text fill="#f3f3f3" xml:space="preserve" transform="matrix(.75 0 0 .75 90.36614 21.578742)" font-size="28" font-family="DroidSerif"><tspan y="171.88" x="9 33.108 49.264 67.016 75.696 92.86 102.072 120.132 136.28801 160.39601 169.60802 183.38402 199.12003 207.80002 216.48001 225.69202 242.85602 259.01203 267.69203 276.62403 286.48 295.41203 309.18803 324.924 333.604 342.816 355.444 369.22 378.152 393.13203 411.19203 424.96803 439.94804 447.95603 457.16804 479.34403 494.32405 503.53605 512.21609 527.19607 542.93209 556.12008 574.18008 589.16006 606.32406 615.5361 633.2881 649.4441 673.5521 682.76419 692.6202 708.7762">would now call political science. He learned how to </tspan></text>
<text fill="#f3f3f3" xml:space="preserve" transform="matrix(.75 0 0 .75 90.36614 21.578742)" font-size="28" font-family="DroidSerif"><tspan y="205.88" x="9 23.98 34.312 44.644 59.624 73.4 83.256008 92.188 108.40001 123.38001 132.06002 147.85202 155.88802 173.64002 186.26802 201.24802 209.28401 219.61602 228.54802 237.22803 263.66004 271.69606 287.43205 305.49205 322.65605 330.69206 343.32005 359.05604 376.22004 385.15205 401.30805 409.34407 419.67607 435.83207 449.02006 457.05607 474.22007 487.40806 503.56407 520.728 536.46408 551.5281 567.2641 585.3241 602.4881 618.2241 625.2241 633.26016 657.36819 675.1202 690.10018 708.16018">effectively use film and radio for propaganda, when </tspan></text>
<text fill="#f3f3f3" xml:space="preserve" transform="matrix(.75 0 0 .75 90.36614 21.578742)" font-size="28" font-family="DroidSerif"><tspan y="239.88" x="9 18.856 36.608 51.588 64.216 79.19601 92.524 116.632 131.612 144.8 159.78 173.108 191.168 206.148 228.32399 236.33199 249.65999 269.4 287.46 304.624 317.952 327.80799 345.56 354.492 367.12 380.448 390.304 399.236 425.668 440.648 447.648 460.976 469.90803 479.764 493.092 519.524 535.26 545.116 554.97207 569.952 583.14 595.768 609.096 624.83206 638.16006 653.22409 666.41207 681.392 697.12808 706.9841">these were new. And this time, it matters a great </tspan></text>
<text fill="#f3f3f3" xml:space="preserve" transform="matrix(.75 0 0 .75 90.36614 21.578742)" font-size="28" font-family="DroidSerif"><tspan y="273.88" x="9 26.164002 41.144 56.88 65.56 81.52 105.628 123.38 139.536 155.496 173.248 188.228 204.18799 228.29599 244.032 256.66 264.668 280.62803 302.80403 317.78404 333.74406 357.85206 373.58805 386.21604 402.17607 412.03205 429.78407 444.76408 460.7241 484.8321 498.02009 506.9521 516.8081 531.7881 544.9761 560.9361 577.0921 587.4241 603.3841 613.2401 630.9921 645.9721 661.9321 670.6121 686.34817 698.97616 708.83218">deal who he was. He was the writer of the last </tspan></text>
<text fill="#f3f3f3" xml:space="preserve" transform="matrix(.75 0 0 .75 90.36614 21.578742)" font-size="28" font-family="DroidSerif"><tspan y="307.88" x="9 26.164002 43.916 60.072 69.928 84.908008 92.91601 105.908008 125.64801 143.70801 160.87201 173.86402 191.61602 206.59601 219.58802 228.52002 241.14803 254.14003 272.20005 288.35606 312.46406 325.45606 349.56407 358.49607 375.66007 390.64009 399.32008 415.11207 428.10408 441.88008 458.03608 476.09608 488.72407 497.65608 514.82009 529.80007 542.98806 557.968 575.132 588.124 597.98007 615.73208 630.71206 643.70407 670.13607 686.29208 698.92007 708.77609">quote. And he is now widely considered the most </tspan></text>
<text fill="#f3f3f3" xml:space="preserve" transform="matrix(.75 0 0 .75 90.36614 21.578742)" font-size="28" font-family="DroidSerif"><tspan y="341.88" x="9 23.98 40.192 49.124 57.804 65.056 91.488 107.224 125.284 132.536 147.51599 163.728 178.708 191.896 199.148 209.004 225.16 232.412 250.164 265.9 282.112 297.092 304.34403 313.02403 321.95603 338.16804 353.14805 370.31205">evil man ever to have lived.</tspan></text>
</g>
</g>
</g>
</svg>
