<?xml version="1.0" encoding="UTF-8" standalone="no"?>
<!DOCTYPE svg PUBLIC "-//W3C//DTD SVG 1.1//EN" "http://www.w3.org/Graphics/SVG/1.1/DTD/svg11.dtd">
<svg xmlns="http://www.w3.org/2000/svg" xmlns:xlink="http://www.w3.org/1999/xlink" version="1.1" width="720pt" height="405pt" viewBox="0 0 720 405">
<g enable-background="new">
<g>
<clipPath id="cp52">
<path transform="matrix(.001968504,0,0,.001968504,0,0)" d="M 0 0 L 365760 0 L 365760 205740 L 0 205740 L 0 0 Z "/>
</clipPath>
<g clip-path="url(#cp52)">
<path transform="matrix(.001968504,0,0,.001968504,0,0)" d="M 0 0 L 365568 0 L 365568 205740 L 0 205740 Z " fill-rule="evenodd"/>
<path transform="matrix(.001968504,0,0,.001968504,0,0)" d="M 45906 10962 L 319662 10962 L 319662 194778 L 45906 194778 Z " fill-opacity="0" fill-rule="evenodd"/>
<text fill="#efefef" xml:space="preserve" transform="matrix(.75 0 0 .75 90.36614 21.578742)" font-size="28" font-family="DroidSerif"><tspan y="103.88" x="9 21.6 31.876 44.812 57.440004 75.192 91.348 109.1 117.78 134.944 147.88 156.56 165.492 181.28401 196.264 209.20001 219.05602 235.21202 248.14803 261.924 277.66 286.34 295.02 307.956 323.692 333.54798 343.40397 358.38398 376.44398 386.29997 395.23197 411.38798 429.44798 442.38398 452.23997 468.39598 481.33198 491.18797 508.93998 523.92 536.856 547.188 562.924 576.7 586.556 599.49209 609.3481 627.1001 642.8361 652.69216 665.6282 675.4842 693.2362 708.2162">&#x201c;I should like to call attention to the fact that the </tspan></text>
<text fill="#efefef" xml:space="preserve" transform="matrix(.75 0 0 .75 90.36614 21.578742)" font-size="28" font-family="DroidSerif"><tspan y="137.88" x="9 26.164002 39.352 48.284 66.344 80.12 89.052 106.216 114.896 129.876 144.884 161.04001 171.37201 186.38 203.544 219.28002 232.46802 241.14801 250.08002 265.816 292.24803 307.22804 325.28804 335.144 350.88 364.068 373 388.736 406.796 421.80403 438.96803 453.94804 480.38005 496.53605 510.31205 522.94009 538.6761 552.4521 565.7521 572.7521 587.7601 611.86807 629.62008 644.60006 657.788 672.768 689.372 705.164">principle of parliamentarian democracy, whereby </tspan></text>
<text fill="#efefef" xml:space="preserve" transform="matrix(.75 0 0 .75 90.36614 21.578742)" font-size="28" font-family="DroidSerif"><tspan y="171.88" x="9 26.164002 41.144 54.920003 63.852 76.48 85.412 101.568 119.628009 132.25601 139.84401 155.58002 168.76802 183.74802 191.33602 206.31601 224.376 240.11202 253.88802 263.74403 278.72404 295.88804 303.47605 313.33204 331.08406 344.27204 360.42805 378.18006 393.24406 410.99607 418.58409 428.44007 446.19209 461.1721 468.7601 495.1921 510.9281 519.3001 535.4561 548.6441 557.5761 567.4321 583.2241 590.81216 607.0241 623.1801 633.03616 648.0161 655.0161 662.6041 680.35617 696.09219 708.72018">decisions are enacted through the majority vote, has </tspan></text>
<text fill="#efefef" xml:space="preserve" transform="matrix(.75 0 0 .75 90.36614 21.578742)" font-size="28" font-family="DroidSerif"><tspan y="205.88" x="9 27.060002 43.216005 53.072008 60.324007 76.060009 84.740009 108.84801 124.02401 139.81601 152.44402 159.69602 172.88402 190.63602 199.31601 214.296 231.46 238.712 248.56801 266.32 281.30003 288.55204 312.66004 328.81605 342.00404 350.68403 367.84803 375.85603 383.10804 403.88404 421.94404 429.19606 439.05204 456.80406 471.78407 479.03608 492.81208 508.96809 527.0281 536.8841 549.5121 565.2481 578.4361 591.7361 598.7361 605.9881 630.09609 645.07608">not always ruled the world. On the contrary, we </tspan></text>
<text fill="#efefef" xml:space="preserve" transform="matrix(.75 0 0 .75 90.36614 21.578742)" font-size="28" font-family="DroidSerif"><tspan y="205.88" x="652.8906 663.22268 672.15469 690.21469 707.37869">find </tspan></text>
<text fill="#efefef" xml:space="preserve" transform="matrix(.75 0 0 .75 90.36614 21.578742)" font-size="28" font-family="DroidSerif"><tspan y="239.88" x="9 17.932 27.788 42.908 60.072004 73.26 88.240009 104.45201 120.18801 128.86801 143.848 161.908 171.764 186.884 203.04001 221.1 229.78 245.57199 260.692 277.856 295.608 308.796 317.728 335.788 350.852 365.97203 378.6 396.35203 412.50804 425.696 435.552 450.67204 467.83604 482.81605 496.00404 504.93605 521.09207 538.25607 550.88406 566.004 582.16006 592.49209 607.61209 625.3641 634.2961 646.9241 656.7801 672.9361 686.1241 699.4241 706.4241">it prevalent only during short periods of history, </tspan></text>
<text fill="#efefef" xml:space="preserve" transform="matrix(.75 0 0 .75 90.36614 21.578742)" font-size="28" font-family="DroidSerif"><tspan y="273.88" x="9 24.736 42.796 59.960004 73.036 82.892009 100.644008 116.8 129.42801 144.408 157.48401 175.23601 190.97202 207.18402 222.16402 235.24002 250.97603 259.65605 283.76405 298.94004 314.73204 327.36003 340.43605 357.60005 372.58006 387.56007 405.62007 418.69609 435.86009 450.8401 464.02809 472.96009 489.1161 506.2801 518.9081 531.9841 548.1401 558.47207 571.54806 588.71206 603.692 617.468 626.148 635.08 653.14 668.12 681.196 690.128 708.188">and those have always been periods of decline in </tspan></text>
<text fill="#efefef" xml:space="preserve" transform="matrix(.75 0 0 .75 90.36614 21.578742)" font-size="28" font-family="DroidSerif"><tspan y="307.88" x="9 27.060002 42.796 52.652 61.584 77.74 95.8 108.428 115.68 131.416 149.476 166.64 173.892 189.096 198.952 214.688 224.544 239.524 252.15201 260.16 272.76">nations and States.&#x201d; </tspan></text>
<text fill="#efefef" xml:space="preserve" transform="matrix(.75 0 0 .75 90.36614 21.578742)" font-size="28" font-family="DroidSerif"><tspan y="375.88" x="9 37 44.252 63.432 80.596 96.752 105.432 115.764 123.016 145.192 154.12401 163.98001 172.66 187.64 200.828 207.828 215.08 241.31601 256.29603 265.22804 283.28804 290.54005 310.14006 325.87605 352.30805 369.47206 379.80406 387.05607 396.74406 412.39607 428.04808 443.70008 459.35209">&#x2014; Adolf Hitler, Mein Kampf (1926)</tspan></text>
</g>
</g>
</g>
</svg>
