<?xml version="1.0" encoding="UTF-8" standalone="no"?>
<!DOCTYPE svg PUBLIC "-//W3C//DTD SVG 1.1//EN" "http://www.w3.org/Graphics/SVG/1.1/DTD/svg11.dtd">
<svg xmlns="http://www.w3.org/2000/svg" xmlns:xlink="http://www.w3.org/1999/xlink" version="1.1" width="720pt" height="405pt" viewBox="0 0 720 405">
<g enable-background="new">
<g>
<clipPath id="cp53">
<path transform="matrix(.001968504,0,0,.001968504,0,0)" d="M 0 0 L 365760 0 L 365760 205740 L 0 205740 L 0 0 Z "/>
</clipPath>
<g clip-path="url(#cp53)">
<path transform="matrix(.001968504,0,0,.001968504,0,0)" d="M 0 0 L 365568 0 L 365568 205740 L 0 205740 Z " fill-rule="evenodd"/>
<path transform="matrix(.001968504,0,0,.001968504,0,0)" d="M 45906 10962 L 319662 10962 L 319662 194778 L 45906 194778 Z " fill-opacity="0" fill-rule="evenodd"/>
<text fill="#d9d9d9" xml:space="preserve" transform="matrix(.75 0 0 .75 90.36614 21.578742)" font-size="28" font-family="DroidSerif"><tspan y="35.879999" x="9 24.204003 34.060007 49.796007 62.984006 72.840007 81.772 99.832 114.896 127.972 136.904 154.964 168.04001 183.69202 199.34403 214.99604 230.64804 243.72405 259.46006 277.52006 294.68406 307.76008 321.53608 337.69209 355.75209 365.60807 374.54008 392.60008 410.35209 419.2841 437.3441 452.40809 465.4841 483.2361 501.2961 511.1521 520.0841 528.7641 541.8401 557.49209 573.14407 588.796 604.448 611.448 624.524 652.132 668.288 681.476 690.156 707.32">Starting in 1939 and continuing until 1945, World </tspan></text>
<text fill="#d9d9d9" xml:space="preserve" transform="matrix(.75 0 0 .75 90.36614 21.578742)" font-size="28" font-family="DroidSerif"><tspan y="69.88" x="9 36.916 52.652 65.840007 78.272 93.924 106.356 122.70801 131.64002 140.32 149 163.98 181.144 193.57599 209.312 226.476 242.632 260.384 270.24 282.672 298.324 313.976 326.40803 352.84004 361.77204 370.45204 379.13203 388.06404 404.22004 422.28004 434.71205 451.87605 466.85606 483.01206 500.17607 508.85606 523.83609 531.84408 544.27609 566.4521 582.1881 599.3521 611.7841 620.7161 630.57217 643.00418 658.0682 674.2242 692.2842 707.26419">War 2 killed about 60 million people. Had it gone </tspan></text>
<text fill="#d9d9d9" xml:space="preserve" transform="matrix(.75 0 0 .75 90.36614 21.578742)" font-size="28" font-family="DroidSerif"><tspan y="103.88" x="9 26.164002 35.096 45.428 55.760004 70.740009 83.92801 98.90801 116.96802 126.82402 135.50403 148.80402 155.80402 170.05602 178.98802 188.84403 194.47203 207.10004 221.35204 230.03205 238.96405 254.75606 269.73606 278.41606 294.20805 308.46006 318.31605 336.06806 351.80406 361.66004 375.91206 385.76805 403.52006 418.50007 432.75209 447.7321 465.79209 475.64808 484.58009 497.76808 512.74807 527.00009 551.10806 567.26406 580.452 589.132 606.296 620.54806 644.656 660.812 678.564 687.244 704.408">differently, it&#x2019;s likely that the entire world would </tspan></text>
<text fill="#d9d9d9" xml:space="preserve" transform="matrix(.75 0 0 .75 90.36614 21.578742)" font-size="28" font-family="DroidSerif"><tspan y="137.88" x="9 26.752 42.488004 58.700006 73.68001 84.34801 94.68001 110.41601 119.09601 127.77601 142.75601 160.81601 171.48401 189.23601 207.296 224.46 239.44 252.628 263.296 279.03199 289.69999 302.32798 311.25999 329.31999 344.38398 353.06398 368.04399 378.71199 388.56797 404.72398 414.57997 430.31596 438.99595 447.92796 457.78395 473.51994 486.70793 495.63993 511.37593 529.4359 540.10397 553.29196 568.2719 583.33596 592.26797 618.69998 633.67996 641.6879 652.35598 669.49197 687.24398 696.17599 708.80398">have fallen under a single totalitarian regime. This </tspan></text>
<text fill="#d9d9d9" xml:space="preserve" transform="matrix(.75 0 0 .75 90.36614 21.578742)" font-size="28" font-family="DroidSerif"><tspan y="171.88" x="9 33.108 49.264 67.016 75.696 92.86 104.423999 122.48399 138.64 148.496 160.06 177.812 193.548 209.76001 224.74 236.304 262.736 277.716 293.452 311.512 321.36799 332.932 350.68403 368.43605 394.86805 410.60404 428.66404 440.22807 455.20808 471.39207 481.24806 490.18006 508.24006 522.01608 531.8721 540.8041 556.9601 575.0201 582.0201 593.5841 608.5641 624.7481 640.48416 654.26016 664.11618 672.79617 688.58816 700.15219 708.83218">would not have meant human extinction, exactly - </tspan></text>
<text fill="#d9d9d9" xml:space="preserve" transform="matrix(.75 0 0 .75 90.36614 21.578742)" font-size="28" font-family="DroidSerif"><tspan y="205.88" x="9 26.164002 43.916 53.772005 61.500005 70.43201 80.28801 88.01601 112.12401 128.28002 146.03202 154.712 171.876 179.604 206.03601 222.19202 234.82003 244.67603 252.40402 261.084 270.01603 285.808 300.78804 309.46803 325.26 332.98805 359.42005 374.40007 390.13606 408.19606 415.92408 425.78007 443.53208 458.5121 466.2401 474.9201 491.0761 503.7041 516.3321 524.0601 540.2161 550.5481 558.2761 576.02816 593.78018 620.21218 635.9482 654.0082 662.9402 672.7962 688.5882 694.2162 706.8442">but it would most likely mean the loss of humanity&#x2019;s </tspan></text>
<text fill="#d9d9d9" xml:space="preserve" transform="matrix(.75 0 0 .75 90.36614 21.578742)" font-size="28" font-family="DroidSerif"><tspan y="239.88" x="9 26.164002 42.32 52.176004 67.156009 85.216 95.07201 104.004009 119.740009 128.42002 136.42801">potential. </tspan></text>
<text fill="#d9d9d9" xml:space="preserve" transform="matrix(.75 0 0 .75 90.36614 21.578742)" font-size="28" font-family="DroidSerif"><tspan y="307.88" x="9 28.740002 46.800004 63.964006 71.832 84.46 100.616 108.48399 118.34 136.092 151.07199 158.93999 183.04799 199.204 212.392 221.07199 238.236 243.864 256.492 264.36003 279.424 292.612 307.592 323.328 333.184 348.164 360.792 370.64799 378.516 404.948 413.88 431.94 449.104 461.732 469.6 486.764 501.74403 510.424 519.356 534.336 550.548 565.52798 582.69198 590.56 600.416 618.168 633.148 648.94 656.80807 674.56008 690.2961 707.4601">And so the world&#x2019;s greatest minds believed they had </tspan></text>
<text fill="#d9d9d9" xml:space="preserve" transform="matrix(.75 0 0 .75 90.36614 21.578742)" font-size="28" font-family="DroidSerif"><tspan y="341.88" x="9 27.060002 43.216005 53.940004 67.716 85.468 101.624 110.556 124.332 139.312 147.31999 158.04399 175.18 192.93199 207.91199 223.70398 234.42798 252.17998 267.916 285.08 295.80403 305.66 321.816 332.54005 347.60404 363.34004 373.196 390.94804 405.92805 419.11604 429.84004 438.77204 456.83204 467.55604 480.18403 495.16404 508.94004 522.12808 537.10806 546.96408 553.96408 564.68807 580.4241 598.4841 615.6481 626.3721 640.1481 653.33609 668.31607 684.05209 693.9081 708.88809">no choice. They had to gather in secret, and create </tspan></text>
<text fill="#d9d9d9" xml:space="preserve" transform="matrix(.75 0 0 .75 90.36614 21.578742)" font-size="28" font-family="DroidSerif"><tspan y="375.88" x="9 18.856 36.608 51.588 60.072 75.808 85.664 101.82 128.252 137.184 150.96 159.444 176.608 192.764 219.19602 236.36002 244.84401 253.52402 262.00804 277.74403 286.22804 310.33604 325.31605 341.05204 358.21604 374.37205 392.43205 400.91606 410.77204 426.92805 435.41206 452.57606 467.55607 480.18406 490.04005 503.22804 518.82406 534.616 543.10006 556.87606 565.80807 575.66409 584.59609 599.57608 612.20407 619.20407 627.68807 643.84408 657.03207 665.51608 675.3721 693.1241 708.10409">the atomic bomb - a weapon to destroy cities, or the </tspan></text>
<text fill="#d9d9d9" xml:space="preserve" transform="matrix(.75 0 0 .75 90.36614 21.578742)" font-size="28" font-family="DroidSerif"><tspan y="409.88" x="9 33.108 50.86 67.016 75.696 90.676 97.928 122.036 138.192 151.38 160.06 177.224">whole world.</tspan></text>
</g>
</g>
</g>
</svg>
