<?xml version="1.0" encoding="UTF-8" standalone="no"?>
<!DOCTYPE svg PUBLIC "-//W3C//DTD SVG 1.1//EN" "http://www.w3.org/Graphics/SVG/1.1/DTD/svg11.dtd">
<svg xmlns="http://www.w3.org/2000/svg" xmlns:xlink="http://www.w3.org/1999/xlink" version="1.1" width="720pt" height="405pt" viewBox="0 0 720 405">
<g enable-background="new">
<g>
<clipPath id="cp56">
<path transform="matrix(.001968504,0,0,.001968504,0,0)" d="M 0 0 L 365760 0 L 365760 205740 L 0 205740 L 0 0 Z "/>
</clipPath>
<g clip-path="url(#cp56)">
<path transform="matrix(.001968504,0,0,.001968504,0,0)" d="M 97.3595 0 L 365662.6 0 L 365662.6 205739.99 L 97.3595 205739.99 Z " fill-opacity="0" fill-rule="evenodd"/>
<clipPath id="cp57">
<path transform="matrix(.001968504,0,0,.001968504,0,0)" d="M 97.3595 0 L 365662.6 0 L 365662.6 205739.99 L 97.3595 205739.99 Z " fill-rule="evenodd"/>
</clipPath>
<path transform="matrix(.001968504,0,0,.001968504,0,0)" d="M 0 0 L 365568 0 L 365568 205740 L 0 205740 Z " fill-rule="evenodd"/>
<path transform="matrix(.001968504,0,0,.001968504,0,0)" d="M 16176 6360 L 349392 6360 L 349392 199380 L 16176 199380 Z " fill-opacity="0" fill-rule="evenodd"/>
<text fill="#d9d9d9" xml:space="preserve" transform="matrix(.75 0 0 .75 31.842518 12.519685)" font-size="28" font-family="DroidSerif"><tspan y="69.88" x="9 28.740002 39.072004 48.928 63.908 77.096 84.348 94.204 111.956 126.936008 134.188 158.296 174.03202 187.22002 194.22002 201.47202 211.32802 229.08002 238.01203 256.07203 271.13603 283.764 291.01603 303.644 318.62403 328.48 338.336 347.016 361.996 379.16 386.41203 403.57603 419.73204 443.84004 461.90003 469.15205 477.83204 485.08406 502.24806 520.00009 529.8561 537.1081 546.9641 564.7161 579.6961 586.9481 604.1121 619.84817 633.62417 648.6041 655.85617 669.63217 685.78817 703.84817 713.70419 722.63619 740.69619 758.4482 773.42819 790.59219">After the war, things settled down - but the pace continued:</tspan></text>
<text fill="#d9d9d9" xml:space="preserve" transform="matrix(.75 0 0 .75 31.842518 12.519685)" font-size="28" font-family="DroidSerif"><tspan y="137.88" x="9 19.276001 37.336004 44.588 60.24 75.892 91.544 107.196 114.196 121.448 131.304 149.056 164.036 171.288 181.62 190.552 203.74 216.36801 226.22402 233.47602 243.33202 255.96002 271.696 289.756 302.384 311.316 323.944 333.8 349.956 363.14399 371.15199">In 1951, the first transistor. </tspan></text>
<text fill="#d9d9d9" xml:space="preserve" transform="matrix(.75 0 0 .75 31.842518 12.519685)" font-size="28" font-family="DroidSerif"><tspan y="171.88" x="9 19.276001 37.336004 44.588 60.24 75.892 91.544 107.196 114.196 121.448 131.304 149.056 164.036 171.288 181.62 190.552 203.74 216.36801 226.22402 233.47602 250.66802 266.46003 283.62403 296.812 312.96803 328.032 343.01203 361.07203 368.32405 385.48805 401.64405 428.07606 445.24006 453.24806">In 1952, the first hydrogen bomb. </tspan></text>
<text fill="#d9d9d9" xml:space="preserve" transform="matrix(.75 0 0 .75 31.842518 12.519685)" font-size="28" font-family="DroidSerif"><tspan y="205.88" x="9 19.276001 37.336004 44.588 60.24 75.892 91.544 107.196 114.196 121.448 131.304 149.056 164.036 171.288 188.452 197.384 210.01201 223.78801 239.94402 256.156 271.13603 284.324 300.116 307.368 323.52403 333.85603 341.10804 361.46403 382.82804 400.63603 406.264 418.892 426.144 438.772 448.628 461.81599 479.568 493.344 503.19999 520.95199 534.13998 549.11996 557.1279">In 1953, the discovery of DNA&#x2019;s structure. </tspan></text>
<text fill="#d9d9d9" xml:space="preserve" transform="matrix(.75 0 0 .75 31.842518 12.519685)" font-size="28" font-family="DroidSerif"><tspan y="239.88" x="9 19.276001 37.336004 44.588 60.24 75.892 91.544 107.196 114.196 121.448 131.304 149.056 164.036 171.288 181.62 190.552 203.74 216.36801 226.22402 233.47602 246.10402 262.26 270.94 286.676 299.86399 307.116 320.892 335.872 344.552 353.232 360.232 367.484 393.91603 410.07203 427.23603 442.21604 450.89604 458.14805 471.33604 487.49205 501.26805 517.06008 532.04006 541.89608 548.89608 556.1481 571.8841 589.9441 607.1081 614.3601 632.4201 650.1721 663.9481 672.6281 687.6081 703.3441 716.5321">In 1954, the first solar cell, model rocket, and nuclear </tspan></text>
<text fill="#d9d9d9" xml:space="preserve" transform="matrix(.75 0 0 .75 31.842518 12.519685)" font-size="28" font-family="DroidSerif"><tspan y="273.88" x="9 21.628003 39.380006 56.544008 82.976009 98.712009 111.90001 120.83201 138.89202 153.87201 161.88">submarine. </tspan></text>
<text fill="#d9d9d9" xml:space="preserve" transform="matrix(.75 0 0 .75 31.842518 12.519685)" font-size="28" font-family="DroidSerif"><tspan y="307.88" x="9 19.276001 37.336004 44.588 60.24 75.892 91.544 107.196 114.196 121.448 131.304 149.056 164.036 171.288 188.2 204.356 213.03601 221.96802 238.12403 245.37602 261.588 277.324 291.1 304.876 313.808 331.868 346.84803 354.85603">In 1955, the Polio vaccine. </tspan></text>
<text fill="#d9d9d9" xml:space="preserve" transform="matrix(.75 0 0 .75 31.842518 12.519685)" font-size="28" font-family="DroidSerif"><tspan y="341.88" x="9 19.276001 37.336004 44.588 60.24 75.892 91.544 107.196 114.196 121.448 131.304 149.056 164.036 171.288 181.62 190.552 203.74 216.36801 226.22402 233.47602 247.25202 263.40803 289.84004 316.27204 331.25205 344.44004 358.21604 367.14805 382.88404 391.56404 398.81605 416.87605 434.62806 448.40406 457.08406 472.06407 487.80006 500.98805 508.24006 525.40408 541.56008 565.6681 580.6481 593.83609 601.0881 613.71609 623.5721 639.3081 649.1641 658.0961 674.25216 692.31216 700.3201">In 1956, the first commercial nuclear power station. </tspan></text>
<text fill="#d9d9d9" xml:space="preserve" transform="matrix(.75 0 0 .75 31.842518 12.519685)" font-size="28" font-family="DroidSerif"><tspan y="375.88" x="9 19.276001 37.336004 44.588 60.24 75.892 91.544 107.196 114.196 121.448 136.652 153.816 171.568 181.424 199.484 208.416 224.768 231.768 239.02 248.876 266.62803 281.60804 288.86006 299.19206 308.12406 321.31205 333.94004 343.79603 351.04804 367.20405 380.39204 397.55604 406.48805 416.34403 432.08003 440.76 448.01203 460.64 477.80403 493.54 507.316 522.296 529.54806 539.88 548.56 557.492 572.556 590.30807 600.16409 608.17208">In 1957, Sputnik, the first orbital space flight. </tspan></text>
<text fill="#d9d9d9" xml:space="preserve" transform="matrix(.75 0 0 .75 31.842518 12.519685)" font-size="28" font-family="DroidSerif"><tspan y="409.88" x="9 19.276001 37.336004 44.588 60.24 75.892 91.544 107.196 114.196 121.448 131.304 149.056 164.036 171.288 181.62 190.552 203.74 216.36801 226.22402 233.47602 242.40802 260.46803 270.324 285.30403 300.368 312.996 328.732 338.58799 353.568 370.732 377.984 391.76 400.69203 413.88 427.656 445.40803 454.34004 464.196 472.204">In 1958, the first integrated circuit. </tspan></text>
<text fill="#d9d9d9" xml:space="preserve" transform="matrix(.75 0 0 .75 31.842518 12.519685)" font-size="28" font-family="DroidSerif"><tspan y="443.88" x="9 19.276001 37.336004 44.588 60.24 75.892 91.544 107.196 114.196 121.448 138.892 156.644 174.704 183.636 199.988 207.24 222.892 229.892 237.144 247 264.752 279.73204 286.98405 297.31605 306.24806 319.43605 332.06404 341.92 349.17204 361.80003 377.536 387.392 402.372 411.052 419.732 428.664 438.52 453.5 460.752 470.608 486.764 494.01603 507.204 522.184 537.92007 551.69607 569.44808 576.7001 586.5561 604.3081 619.2881 626.5401 652.9721 669.1281 685.2841 703.3441">In 1959, Lunik 2, the first satellite to reach the moon.</tspan></text>
</g>
</g>
</g>
</svg>
