<?xml version="1.0" encoding="UTF-8" standalone="no"?>
<!DOCTYPE svg PUBLIC "-//W3C//DTD SVG 1.1//EN" "http://www.w3.org/Graphics/SVG/1.1/DTD/svg11.dtd">
<svg xmlns="http://www.w3.org/2000/svg" xmlns:xlink="http://www.w3.org/1999/xlink" version="1.1" width="720pt" height="405pt" viewBox="0 0 720 405">
<g enable-background="new">
<g>
<clipPath id="cp4">
<path transform="matrix(.001968504,0,0,.001968504,0,0)" d="M 0 0 L 365760 0 L 365760 205740 L 0 205740 L 0 0 Z "/>
</clipPath>
<g clip-path="url(#cp4)">
<path transform="matrix(.001968504,0,0,.001968504,0,0)" d="M 0 0 L 365568 0 L 365568 205740 L 0 205740 Z " fill-opacity=".2577" fill-rule="evenodd"/>
<path transform="matrix(.001968504,0,0,.001968504,0,0)" d="M 45906 10962 L 319662 10962 L 319662 194778 L 45906 194778 Z " fill-opacity="0" fill-rule="evenodd"/>
<text fill="#ffffff" xml:space="preserve" transform="matrix(.75 0 0 .75 90.36614 21.578742)" font-size="32" font-family="DroidSerif"><tspan y="39.72" x="9 23.400002 35.144 43.144 61.672006 78.79201 101.41601 121.70401 141.992 162.632 173.89601 191.016 210.632 233.256 252.872 271.336 298.888 319.528 342.152 360.13603 380.77604 400.39204 423.01603 437.44804 448.71205 467.17604 477.09605 494.21604 514.856 522.856 545.48007 555.68807 576.32809 590.7601 600.9681 620.5841 637.7041 660.3281 671.5921 691.8801 709.0001">&#x201c;I&#x2019;ve hunted down and stolen, inside the </tspan></text>
<text fill="#ffffff" xml:space="preserve" transform="matrix(.75 0 0 .75 90.36614 21.578742)" font-size="32" font-family="DroidSerif"><tspan y="77.72" x="9 29.288 47.752 57.671998 67.591999 86.056 113.608 126.888 145.352 157.16 170.44 188.42401 201.70401 213.51201 230.632 251.272 271.91203 289.032 298.95204 305.38404 319.81605 333.09605 347.52806 358.79206 376.77607 386.69609 405.38407 413.38407 426.66407 437.92808 458.21607 475.33607 488.61607 503.04808 520.1681 537.2881 556.9041 570.18417 588.64816 600.4561 613.73617 625.5441 635.75216 650.82418 667.94418 675.94418 689.2242 707.2082">hollow of a fennel&#x2019;s stalk, the seed of fire, a </tspan></text>
<text fill="#ffffff" xml:space="preserve" transform="matrix(.75 0 0 .75 90.36614 21.578742)" font-size="32" font-family="DroidSerif"><tspan y="115.72" x="9 26.216002 36.424005 48.232004 59.496004 69.672008 80.936008 101.22401 119.20801 130.47202 140.64801 160.936 178.92002 193.35202 203.52802 223.14402 238.21602 256.68003 275.20805 292.32804 312.96806 323.14405 333.35206 344.61607 359.04808 376.16807 386.08808 397.8961 408.07209 419.3361 437.80009 447.97608 467.59208 484.71208 494.88807 506.15208 526.44009 543.56008 553.7361 565.00009 582.12008 600.10409 615.8481 636.1361 653.2561 668.3281 678.50418 696.96817 708.7761">gift that has proven itself to be the teacher of </tspan></text>
<text fill="#ffffff" xml:space="preserve" transform="matrix(.75 0 0 .75 90.36614 21.578742)" font-size="32" font-family="DroidSerif"><tspan y="153.72" x="9 26.12 44.648004 61.768007 76.840007 94.888 117.416 133.16 147.59201 165.57602 177.38402 188.64803 211.17603 229.16004 249.80004 269.41606 291.94404 303.20805 323.49604 340.61604 363.144 380.36003 395.432 412.552 430.536 441.80003 458.92 473.35203 484.61604 507.144 522.216 539.336 553.768 572.232 592.52 607.59207 623.33609 640.45608 662.9841 674.79208 693.25607 708.32809">every craft and the greatest resource for </tspan></text>
<text fill="#ffffff" xml:space="preserve" transform="matrix(.75 0 0 .75 90.36614 21.578742)" font-size="32" font-family="DroidSerif"><tspan y="191.72" x="9 29.288 49.576 79.784008 97.768009 118.408008 132.84001 141.992 153.64 171.016 191.304 207.048 227.336 238.984 249.19199 263.624 275.27198 286.53599 306.82398 323.94398 335.59196 351.33595 366.40794 376.61595 406.82395 423.94395 435.59193 447.3359 458.9839 479.27189 497.2559 515.7839 532.9039 544.5519 560.2959 578.7599 608.9679 639.1759 649.3839 660.6479 671.91189 689.03189 708.6479">humans. Such is the crime I have committed </tspan></text>
<text fill="#ffffff" xml:space="preserve" transform="matrix(.75 0 0 .75 90.36614 21.578742)" font-size="32" font-family="DroidSerif"><tspan y="229.72" x="9 26.984002 47.624 67.240009 79.75201 91.01601 111.30401 121.51201 135.94402 148.45601 158.664 173.09601 185.608 196.87201 217.16 234.28 246.79199 266.408 283.52799 304.168 322.152 332.07203 343.33604 361.38404 373.89604 385.64 398.152 416.13603 446.34403 458.85603 470.12004 488.584 501.096 515.528 535.81607 547.624 559.432 576.552 591.624 600.80807 613.32009 633.9601 651.9441 662.1521 672.0721 689.1921 708.8081">and this is the penalty I am to suffer: nailed </tspan></text>
<text fill="#ffffff" xml:space="preserve" transform="matrix(.75 0 0 .75 90.36614 21.578742)" font-size="32" font-family="DroidSerif"><tspan y="267.72" x="9 26.984002 47.624 67.240009 82.69601 98.44001 118.72801 136.712 146.92002 167.56002 184.68001 204.296 219.752 238.216 258.85603 274.312 285.57603 305.864 316.07203 330.50404 345.96003 361.032 379.496 395.24 413.92799 429.38398 448.99998 466.11997 486.75999 503.87998 521.86398 533.1279 553.41598 568.872 580.136 600.424 617.544 633.00009 651.46408 671.0801 688.2001 708.8401">and chained on this rock beneath the open </tspan></text>
<text fill="#ffffff" xml:space="preserve" transform="matrix(.75 0 0 .75 90.36614 21.578742)" font-size="32" font-family="DroidSerif"><tspan y="305.72" x="9 23.432002 42.120004 57.320005 66.472">sky.&#x201d;</tspan></text>
<text fill="#ffffff" xml:space="preserve" transform="matrix(.75 0 0 .75 90.36614 21.578742)" font-size="32" font-family="DroidSerif"><tspan y="381.72" x="9 17.288 49.288003 57.576005 76.90401 91.976009 110.44 140.64801 157.768 169.03202 189.32 206.44 226.728 241.16 249.448 270.344 288.80799 309.09599 329.736"> &#x2014; Prometheus Bound</tspan></text>
<text fill="#ffffff" xml:space="preserve" transform="matrix(.75 0 0 .75 90.36614 21.578742)" font-size="24" font-family="DroidSerif" font-style="italic"><tspan y="450.04" x="31.457123 46.409124 53.705125 67.049129 81.425128 90.257129 96.47313 105.30513 119.68113 131.51313 137.72913 145.02513 156.85713 164.46514 173.29714 180.73714 202.21714 215.99314 227.10514 235.93714 242.15314 253.81714 267.71315 282.08915 295.98515 303.28114 315.11314 321.11314 327.32914 336.16114 349.93714 356.15315 367.36116 379.19316 393.04115 404.24916 416.08116 427.19316 439.02516 453.40116 462.23316 468.44917 477.28117 491.65718 503.48918 509.70518 517.00119 531.37716 544.2891 556.1211 570.4971 579.3291 586.6251 600.4011 614.7771 620.9931 634.7691 642.3771 648.5931 656.20108 663.4971 674.7051">Light the left-most candle, to represent the invention of fire</tspan></text>
<path transform="matrix(.001968504,0,0,.001968504,0,0)" d="M 213610 43846 L 507262 43846 L 507262 78106 L 213610 78106 Z " fill-opacity="0" fill-rule="evenodd"/>
</g>
</g>
</g>
</svg>
