<?xml version="1.0" encoding="UTF-8" standalone="no"?>
<!DOCTYPE svg PUBLIC "-//W3C//DTD SVG 1.1//EN" "http://www.w3.org/Graphics/SVG/1.1/DTD/svg11.dtd">
<svg xmlns="http://www.w3.org/2000/svg" xmlns:xlink="http://www.w3.org/1999/xlink" version="1.1" width="720pt" height="405pt" viewBox="0 0 720 405">
<g enable-background="new">
<g>
<clipPath id="cp59">
<path transform="matrix(.001968504,0,0,.001968504,0,0)" d="M 0 0 L 365760 0 L 365760 205740 L 0 205740 L 0 0 Z "/>
</clipPath>
<g clip-path="url(#cp59)">
<path transform="matrix(.001968504,0,0,.001968504,0,0)" d="M 0 0 L 365568 0 L 365568 205740 L 0 205740 Z " fill-rule="evenodd"/>
<path transform="matrix(.001968504,0,0,.001968504,0,0)" d="M 45906 10962 L 319662 10962 L 319662 194778 L 45906 194778 Z " fill-opacity="0" fill-rule="evenodd"/>
<text fill="#d9d9d9" xml:space="preserve" transform="matrix(.75 0 0 .75 90.36614 21.578742)" font-size="32" font-family="DroidSerif"><tspan y="39.72" x="9 31.560002 45.992006 58.440008 76.90401 97.19201 112.26401 124.71201 135.97602 153.09601 168.84001 189.128 209.768 228.23201 238.15201 256.616 273.832 291.88 304.328 315.592 334.056 352.52 371.20799 383.65599 402.11997 413.92799 425.736 438.184 448.104 460.552 472.36003 482.56803 499.78404 520.072 534.504 552.48806 563.752 573.96 592.48806 609.60806 619.528 637.576 650.024 668.008 688.648 708.26406">As our technology took off - figuratively and </tspan></text>
<text fill="#d9d9d9" xml:space="preserve" transform="matrix(.75 0 0 .75 90.36614 21.578742)" font-size="32" font-family="DroidSerif"><tspan y="77.72" x="9 18.92 29.128 40.392004 57.512 71.944 89.928 99.848 109.768 127.815998 140.58399 150.50399 163.27198 183.91197 202.37598 215.14397 233.60797 254.24797 271.36799 284.136 302.82398 323.464 340.58399 368.136 380.904 408.456 428.744 446.728 457.992 470.76 498.312 515.432 528.2 555.752 574.216 594.504 604.424 624.04006 636.80807 648.616 658.82406 679.46408 699.0801 708.23208">literally - no one knew what we would find. </tspan></text>
<text fill="#d9d9d9" xml:space="preserve" transform="matrix(.75 0 0 .75 90.36614 21.578742)" font-size="32" font-family="DroidSerif"><tspan y="115.72" x="9 28.328001 43.4 60.520006 80.136 90.344 106.088008 117.352008 127.560009 148.20001 165.41602 191.56002 202.82402 223.11202 240.23201 266.376 278.18403 298.47203 309.73603 330.02403 345.096 362.216 388.36 415.912 433.896 448.328 474.472 484.392 501.512 513.32 524.584 550.728 580.93606 599.4 613.83206 625.096 635.016 653.06399 679.208 690.472 708.936">Predicting the future was left mostly to </tspan></text>
<text fill="#d9d9d9" xml:space="preserve" transform="matrix(.75 0 0 .75 90.36614 21.578742)" font-size="32" font-family="DroidSerif"><tspan y="153.72" x="9 23.432002 39.176004 49.384004 66.504009 87.144008 102.88801 120.00801 133.448 145.256 155.46399 171.208 182.472 192.68 211.144 231.784 245.224 272.776 287.848 298.056 309.32 326.44 341.512 355.944 363.944 377.384 395.368 416.00804 435.62403 449.06404 460.32804 480.61604 497.73603 507.94404 523.01608 536.45608 556.0721 571.1441 588.2641 607.8801 618.08816 633.83218 645.0961 655.30416 673.7681 694.40817 708.84017">science fiction writers, and their predictions </tspan></text>
<text fill="#d9d9d9" xml:space="preserve" transform="matrix(.75 0 0 .75 90.36614 21.578742)" font-size="32" font-family="DroidSerif"><tspan y="191.72" x="9 36.552003 53.672006 68.744 85.864009 94.15201 114.79201 133.25601 144.52002 152.80802 169.92801 184.36002 203.97602 221.09601 236.84001 247.048 265.032 274.95204 284.87205 302.92005 311.20805 329.19206 344.93605 360.68003 380.96803 395.4 413.384 424.648 441.768 450.92">were not especially accurate. </tspan></text>
<text fill="#d9d9d9" xml:space="preserve" transform="matrix(.75 0 0 .75 90.36614 21.578742)" font-size="32" font-family="DroidSerif"><tspan y="267.72" x="9 29.896002 50.184003 61.448 93.096 107.528 125.992008 156.20001 173.32 204.968 219.40001 235.14402 245.35202 262.47203 283.11204 294.37605 304.58406 319.01606 330.28007 344.71208 376.36006 395.97605 406.18406 425.80006 457.44807 468.71208 486.69609 504.74406 521.8641 553.5121 563.7201 593.9281 613.5441 632.0081 647.08016 658.3441 676.3281 696.96817 708.2321">But some scientists did take important </tspan></text>
<text fill="#d9d9d9" xml:space="preserve" transform="matrix(.75 0 0 .75 90.36614 21.578742)" font-size="32" font-family="DroidSerif"><tspan y="305.72" x="9 28.616002 48.904 66.024 80.456 91.72 101.928 120.392 141.032 155.464 163.752 178.184 195.304 210.376 220.58402 239.04802 259.33604 273.76805 283.68806 298.88807 308.04008 316.32807 333.89607 352.36006 367.43205 375.72004 392.84004 411.33604 429.32005 459.52806 479.14405 489.06407 506.18406 514.1841 522.4721 550.0241 568.4881 588.7761 598.6961 618.31216">questions seriously. For example, would </tspan></text>
<text fill="#d9d9d9" xml:space="preserve" transform="matrix(.75 0 0 .75 90.36614 21.578742)" font-size="32" font-family="DroidSerif"><tspan y="305.72" x="627.125 638.389 658.677 675.797 690.869 707.989">there </tspan></text>
<text fill="#d9d9d9" xml:space="preserve" transform="matrix(.75 0 0 .75 90.36614 21.578742)" font-size="32" font-family="DroidSerif"><tspan y="343.72" x="9 28.616002 45.736 61.512 71.432 81.64 93.448 110.568 126.344 136.552 157.192 172.968 187.40001 207.016 225 240.744 257.864 273.864 289.64 309.22404 329.51203 346.63203 362.40803 379.78404 399.72004 419.30406 431.04804 446.82405 466.44004 481.51203 499.976 509.544 526.664 542.408 553.672 569.448 589.064 606.184 623.4 641.38406 662.02407 677.80007 688.00808 708.6481">be life in space? The SETI project began in </tspan></text>
<text fill="#d9d9d9" xml:space="preserve" transform="matrix(.75 0 0 .75 90.36614 21.578742)" font-size="32" font-family="DroidSerif"><tspan y="381.72" x="9 26.888 44.776 62.664 80.552 88.552 119.592 137.576 148.84001 179.88 191.14402 211.432 228.552 259.592 284.008 301.992 313.256 323.46403 341.928 362.56803 380.55204 390.47206 421.51206 442.47206 460.45606 480.07206 490.28007 508.74406 539.78408 562.34408 576.77609 588.04006 603.11209 621.57608 642.21609 660.68008 690.88809 708.93606">1961, at the National Radio Astronomy </tspan></text>
<text fill="#d9d9d9" xml:space="preserve" transform="matrix(.75 0 0 .75 90.36614 21.578742)" font-size="32" font-family="DroidSerif"><tspan y="419.72" x="9 32.744005 52.360006 66.79201 83.91201 98.98401 117.51201 135.496 146.76001 165.22402 180.29602 198.34403 206.63202 216.84003 237.48003 245.76802 277.32 294.44 308.872 320.13603 328.424 349.992 360.2 375.272 392.488 402.696 423.33604 433.54405 451.52806">Observatory in West Virginia.</tspan></text>
</g>
</g>
</g>
</svg>
