<?xml version="1.0" encoding="UTF-8" standalone="no"?>
<!DOCTYPE svg PUBLIC "-//W3C//DTD SVG 1.1//EN" "http://www.w3.org/Graphics/SVG/1.1/DTD/svg11.dtd">
<svg xmlns="http://www.w3.org/2000/svg" xmlns:xlink="http://www.w3.org/1999/xlink" version="1.1" width="720pt" height="405pt" viewBox="0 0 720 405">
<g enable-background="new">
<g>
<clipPath id="cp60">
<path transform="matrix(.001968504,0,0,.001968504,0,0)" d="M 0 0 L 365760 0 L 365760 205740 L 0 205740 L 0 0 Z "/>
</clipPath>
<g clip-path="url(#cp60)">
<path transform="matrix(.001968504,0,0,.001968504,0,0)" d="M 0 0 L 365568 0 L 365568 205740 L 0 205740 Z " fill-rule="evenodd"/>
<path transform="matrix(.001968504,0,0,.001968504,0,0)" d="M 45906 10962 L 319662 10962 L 319662 194778 L 45906 194778 Z " fill-opacity="0" fill-rule="evenodd"/>
<text fill="#d9d9d9" xml:space="preserve" transform="matrix(.75 0 0 .75 90.36614 21.578742)" font-size="32" font-family="DroidSerif"><tspan y="77.72" x="9 23.400002 35.144 50.087999 77.64 92.712 111.175998 122.439998 139.56 154.504 174.12 192.584 220.136 240.776 255.72 273.704 283.62403 293.54405 308.48805 319.75205 340.04005 357.16004 372.10404 383.36805 403.65605 413.86405 434.50407 451.72007 466.15208 481.09608 499.14408 517.6081 537.8961 552.84017 573.48019 590.60018 607.72018 627.3362 644.4562 664.0722 679.01626 690.2802 708.7442">&#x201c;I wrote down all the things you needed to </tspan></text>
<text fill="#d9d9d9" xml:space="preserve" transform="matrix(.75 0 0 .75 90.36614 21.578742)" font-size="32" font-family="DroidSerif"><tspan y="115.72" x="9 27.688002 48.328004 66.79201 94.34401 106.88801 118.15201 136.61602 149.16 168.776 183.848 200.968 220.584 230.79199 246.536 257.8 270.344 290.632 309.09599 336.64799 349.192 369.47999 387.464 402.53599 422.15199 434.69599 444.904 456.168 462.6 477.032 489.57603 506.79203 525.25607 535.46408 556.10409 573.32009 585.8641 597.12808 615.59207 628.13607 647.7521 664.8721 677.4161 688.68008 707.14407">know to predict how hard it&#x2019;s going to be to </tspan></text>
<text fill="#d9d9d9" xml:space="preserve" transform="matrix(.75 0 0 .75 90.36614 21.578742)" font-size="32" font-family="DroidSerif"><tspan y="153.72" x="9 28.616002 45.736 57 74.12 89.864009 101.128009 123.01601 140.136 158.632 169.89601 184.32802 202.31201 213.57602 230.69602 245.76802 260.84004 277.96003 292.39204 303.65605 318.72804 328.93605 346.92005 356.84007 378.72807 388.64808 398.85609 410.6641 427.7841 436.9361 458.8241 481.3841 502.0241 521.64016 543.52816 553.4481 571.9121 590.3761 609.0641 619.2721 639.9121 657.1281 679.0161 697.0001 708.2641">detect extraterrestrial life. And looking at </tspan></text>
<text fill="#d9d9d9" xml:space="preserve" transform="matrix(.75 0 0 .75 90.36614 21.578742)" font-size="32" font-family="DroidSerif"><tspan y="191.72" x="9 20.264 40.552003 57.672006 87.880008 107.17601 117.38401 128.64801 147.944 167.56 184.68 200.424 218.40799 248.616 265.736 285.03199 304.64799 319.71998 336.83998 348.10398 359.36799 377.416 396.71199 413.83198 432.36 442.568 462.184 479.304 499.944 511.208 530.504 541.768 562.056 580.04006 591.304 610.60006 620.80807 632.616 651.91207 669.96 688.424 708.71206">them it became pretty evident that if you </tspan></text>
<text fill="#d9d9d9" xml:space="preserve" transform="matrix(.75 0 0 .75 90.36614 21.578742)" font-size="32" font-family="DroidSerif"><tspan y="229.72" x="9 39.208 59.496004 69.416 80.68 90.888 110.504 120.423999 130.63199 147.75199 167.36798 195.01598 212.99997 222.91997 232.83997 260.48799 271.75199 292.03999 309.15998 323.59199 340.71199 368.36 379.624 398.08799 415.304 432.42399 443.688 463.97599 481.09599 496.16798 504.16798 531.816 549.86398 568.32797 588.61599 616.264 633.48 651.944 663.20797 690.85598 708.83999">multiplied all these together, you got a </tspan></text>
<text fill="#d9d9d9" xml:space="preserve" transform="matrix(.75 0 0 .75 90.36614 21.578742)" font-size="32" font-family="DroidSerif"><tspan y="267.72" x="9 29.640002 49.928 80.136 99.752 116.872 131.944 139.944 148.392 172.808 180.808 189.256 216.808 237.096 247.30399 263.04798 283.33598 291.78398 301.99198 316.42399 324.87199 336.136 356.42399 373.54399 381.99198 402.632 422.91999 453.128 472.744 489.86399 504.93598 513.384 531.84799 543.65597 552.10397 571.72 588.83999 600.10397 617.22396 632.96798 644.23196 662.21597 681.832 691.75198 708.87197">number, N, which is the number of detectable </tspan></text>
<text fill="#d9d9d9" xml:space="preserve" transform="matrix(.75 0 0 .75 90.36614 21.578742)" font-size="32" font-family="DroidSerif"><tspan y="305.72" x="9 24.744 34.952 53.480005 63.688005 73.608 83.816 100.168 118.152 129.416 139.624 158.088 178.728 193.16 201.448 211.656 232.296 240.584 259.048 279.336 294.408 302.69599 319.912 337.896 347.816 365.80003 384.29603 399.49604 408.64805 423.04804">civilizations in our galaxy.&#x201d; </tspan></text>
<text fill="#d9d9d9" xml:space="preserve" transform="matrix(.75 0 0 .75 90.36614 21.578742)" font-size="32" font-family="DroidSerif"><tspan y="381.72" x="9 41 49.288003 68.136 82.568 100.552 121.192 139.88 148.168 171.432 185.86402 203.84803 221.89603">&#x2014; Frank Drake</tspan></text>
</g>
</g>
</g>
</svg>
