<?xml version="1.0" encoding="UTF-8" standalone="no"?>
<!DOCTYPE svg PUBLIC "-//W3C//DTD SVG 1.1//EN" "http://www.w3.org/Graphics/SVG/1.1/DTD/svg11.dtd">
<svg xmlns="http://www.w3.org/2000/svg" xmlns:xlink="http://www.w3.org/1999/xlink" version="1.1" width="720pt" height="405pt" viewBox="0 0 720 405">
<g enable-background="new">
<g>
<clipPath id="cp61">
<path transform="matrix(.001968504,0,0,.001968504,0,0)" d="M 0 0 L 365760 0 L 365760 205740 L 0 205740 L 0 0 Z "/>
</clipPath>
<g clip-path="url(#cp61)">
<path transform="matrix(.001968504,0,0,.001968504,0,0)" d="M 0 0 L 365568 0 L 365568 205740 L 0 205740 Z " fill-rule="evenodd"/>
<path transform="matrix(.001968504,0,0,.001968504,0,0)" d="M 45906 10962 L 319662 10962 L 319662 194778 L 45906 194778 Z " fill-opacity="0" fill-rule="evenodd"/>
<text fill="#d9aeae" xml:space="preserve" transform="matrix(.75 0 0 .75 90.36614 21.578742)" font-size="32" font-family="DroidSerif"><tspan y="39.72" x="9 23.400002 48.744005 69.032009 99.240009 117.22401 137.86402 148.07202 159.33603 177.38404 186.69603 201.12804 218.24803 235.36803 265.57603 280.00804 289.32 300.584 319.048 328.36 348.64799 366.632 385.16 402.28 411.59199 429.576 438.88798 458.50398 473.57597 483.78398 500.99998 521.28799 532.55197 541.86398 553.67196 573.95999 585.22396 605.51199 620.584 637.704 645.704 655.016 665.224 674.376 691.496 700.64797 708.64797">&#x201c;Humanity seems to have a bright future, i.e., </tspan></text>
<text fill="#d9aeae" xml:space="preserve" transform="matrix(.75 0 0 .75 90.36614 21.578742)" font-size="32" font-family="DroidSerif"><tspan y="77.72" x="9 26.984002 41.192 61.832 80.296009 100.936008 110.856 122.12 137.192 147.4 165.928 176.13599 194.12 204.04 218.24799 233.99199 254.27999 272.26399 292.904 308.64799 325.76799 339.97599 358.43998 370.248 384.456 401.576 420.072 439.688 457.672 478.312 497.928 508.13603 528.776 545.992 560.2 571.464 589.928 604.136 615.944 626.152 636.07199 645.99197 660.19998 671.4639 691.75198 708.87197">a non-trivial chance of expanding to fill the </tspan></text>
<text fill="#d9aeae" xml:space="preserve" transform="matrix(.75 0 0 .75 90.36614 21.578742)" font-size="32" font-family="DroidSerif"><tspan y="115.72" x="9 29.288 49.928 60.136 78.664 95.784008 110.856 125.288 142.408 159.336 186.888 197.09601 208.36002 228.64801 245.576 255.496 273.48 287.91203 299.17604 309.38404 330.02406 347.24006 364.16807 374.08808 384.29609 396.1041 413.2241 422.3761 439.3041 460.2001 480.4881 491.7521 508.6801 519.9441 540.2321 557.3521 574.28018 586.08816 604.07217 619.81619 631.08016 648.0082 659.27218 679.5602 697.5442 708.80819">universe with lasting life. But the fact that </tspan></text>
<text fill="#d9aeae" xml:space="preserve" transform="matrix(.75 0 0 .75 90.36614 21.578742)" font-size="32" font-family="DroidSerif"><tspan y="153.72" x="9 23.432002 43.048006 61.032007 76.77601 93.89601 108.52001 129.16002 146.28002 164.264 179.33602 193.96 214.248 228.68001 243.304 257.736 274.856 291.97599 322.184 336.616 351.24 370.856 387.97599 405.96 425.576 440.19999 460.84 479.304 506.856 521.48 532.74398 549.86398 559.78396 569.7039 584.1359 598.75997 619.048 633.48 648.104 659.368 679.656 697.64 708.904">space near us seems dead now tells us that </tspan></text>
<text fill="#d9aeae" xml:space="preserve" transform="matrix(.75 0 0 .75 90.36614 21.578742)" font-size="32" font-family="DroidSerif"><tspan y="191.72" x="9 26.984002 46.984 65.032 87.368 104.584 114.792 133.32 150.44 171.08 193.416 213.032 223.23999 240.35999 256.10398 273.22398 295.55998 314.02397 325.83198 348.16798 367.78398 384.90397 402.88798 422.50398 444.83998 475.04798 493.03199 504.296 515.56 532.68 547.752 570.088 581.896 599.88 615.624 632.744 647.176 669.512 687.49606 708.13607">any given piece of dead matter faces an </tspan></text>
<text fill="#d9aeae" xml:space="preserve" transform="matrix(.75 0 0 .75 90.36614 21.578742)" font-size="32" font-family="DroidSerif"><tspan y="229.72" x="9 26.984002 41.416 52.68 67.752 86.216 106.856 125.32001 155.52802 165.73603 181.48003 199.46402 209.38402 219.30402 237.35202 250.44002 260.36003 278.824 306.376 319.464 335.20799 355.49598 373.47999 394.12 409.86399 426.98399 440.07197 458.53596 470.34397 483.43196 503.04795 520.16799 537.384 554.50399 565.76797 577.0319 587.2399 607.87997 625.09597 638.18399 652.61599 672.904 688.648 708.93606">astronomically low chance of begetting such </tspan></text>
<text fill="#d9aeae" xml:space="preserve" transform="matrix(.75 0 0 .75 90.36614 21.578742)" font-size="32" font-family="DroidSerif"><tspan y="267.72" x="9 26.984002 50.344 62.152 82.44 93.704 113.992008 129.06401 146.184 155.336 178.696 198.28 218.568 235.68799 250.76 267.88 291.24 302.504 322.792 343.08 357.512 380.87199 397.99198 416.48799 426.69599 441.128 452.392 466.824 490.184 508.168 531.528 548.744 563.81607 580.93606 598.92007 610.184 633.54409 645.35208 655.56008 665.48007 676.744 693.864 708.93606">a future. There thus exists a great filter </tspan></text>
<text fill="#d9aeae" xml:space="preserve" transform="matrix(.75 0 0 .75 90.36614 21.578742)" font-size="32" font-family="DroidSerif"><tspan y="305.72" x="9 28.616002 45.736 57 84.552 101.672008 118.79201 139.432 160.36 179.976 197.096 215.07999 226.344 246.63199 267.56 285.544 306.18403 325.80003 346.72804 363.84803 382.34403 401.96003 419.94404 440.58406 460.20005 470.40806 491.04808 508.26408 529.1921 539.11209 557.09609 571.5281 582.79208 593.00009 613.6401 630.8561 651.7841 661.7041 671.9121 683.7201 700.8401 708.8401">between death and expanding lasting life, </tspan></text>
<text fill="#d9aeae" xml:space="preserve" transform="matrix(.75 0 0 .75 90.36614 21.578742)" font-size="32" font-family="DroidSerif"><tspan y="343.72" x="9 26.984002 47.624 67.240009 85.83201 106.12001 126.40801 156.61602 174.6 195.24 205.448 216.712 234.76001 253.352 265.16 283.144 298.888 316.008 330.44 349.03199 360.296 380.58399 397.70399 416.29597 434.75996 464.96797 475.17597 495.81599 514.27999 534.568 549 567.59207 587.20809 607.4961 624.6161 639.0481 650.3121 660.5201 678.9841 699.6241 708.8081">and humanity faces the ominous question: </tspan></text>
<text fill="#d9aeae" xml:space="preserve" transform="matrix(.75 0 0 .75 90.36614 21.578742)" font-size="32" font-family="DroidSerif"><tspan y="381.72" x="9 29.288 47.752 75.304 83.592 95.4 113.384 128.45601 136.744 154.728 164.648 183.112 203.752 220.968 229.256 240.52 260.808 271.01603 285.44804 293.73603 305.54405 315.75205 325.67207 336.93608 354.05607 369.12806 377.41606 395.40007 410.47206 427.59205 435.88005 463.43205 480.55204 496.55204 510.95204">how far along this filter are we?&#x201d; </tspan></text>
<text fill="#d9aeae" xml:space="preserve" transform="matrix(.75 0 0 .75 90.36614 21.578742)" font-size="32" font-family="DroidSerif"><tspan y="457.72" x="9 41 49.288003 70.248 88.712009 108.328 118.536 139.17601 147.464 172.80802 190.79203 211.43202 225.86403 244.32804 264.96806 273.25605 284.32804 302.21604 320.10404 337.99205 355.88005">&#x2014; Robin Hanson (1998)</tspan></text>
</g>
</g>
</g>
</svg>
