<?xml version="1.0" encoding="UTF-8" standalone="no"?>
<!DOCTYPE svg PUBLIC "-//W3C//DTD SVG 1.1//EN" "http://www.w3.org/Graphics/SVG/1.1/DTD/svg11.dtd">
<svg xmlns="http://www.w3.org/2000/svg" xmlns:xlink="http://www.w3.org/1999/xlink" version="1.1" width="720pt" height="405pt" viewBox="0 0 720 405">
<g enable-background="new">
<g>
<clipPath id="cp70">
<path transform="matrix(.001968504,0,0,.001968504,0,0)" d="M 0 0 L 365760 0 L 365760 205740 L 0 205740 L 0 0 Z "/>
</clipPath>
<g clip-path="url(#cp70)">
<path transform="matrix(.001968504,0,0,.001968504,0,0)" d="M 0 0 L 365568 0 L 365568 205740 L 0 205740 Z " fill-rule="evenodd"/>
<path transform="matrix(.001968504,0,0,.001968504,0,0)" d="M 45906 10962 L 319662 10962 L 319662 194778 L 45906 194778 Z " fill-opacity="0" fill-rule="evenodd"/>
<text fill="#d94a4a" xml:space="preserve" transform="matrix(.75 0 0 .75 90.36614 21.578742)" font-size="32" font-family="DroidSerif"><tspan y="191.72" x="9 38.984 56.104005 74.088008 94.728008 122.28001 142.56801 152.776 162.696 179.816 187.816 200.10399 211.368 228.48799 244.232 264.52 285.16 303.624 313.544 332.008 349.224 367.272 379.56 409.768 427.752 442.824 458.568 478.856 495.97599 515.592 527.88 546.344 566.984 576.136 588.424 610.984 631.624 651.24008 663.5281 675.33609 693.80007 708.8721">Meanwhile, technology marched on. And for </tspan></text>
<text fill="#d94a4a" xml:space="preserve" transform="matrix(.75 0 0 .75 90.36614 21.578742)" font-size="32" font-family="DroidSerif"><tspan y="229.72" x="9 20.264 40.552003 57.672006 76.13601 87.94401 98.15201 113.22401 127.656009 138.92002 157.384 168.64801 178.85602 209.06403 226.18402 234.18402 252.64801 262.85603 274.12004 292.584 307.01603 324.13603 341.256 371.46403 388.584 408.2 426.664 437.928 458.216 476.2 487.46403 505.928 517.192 534.312 550.056 570.34408 590.9841 609.44808 619.36807 637.83206 655.04806 665.25607 681.00009 698.9841 708.90408">the first time, it seemed that technological </tspan></text>
<text fill="#d94a4a" xml:space="preserve" transform="matrix(.75 0 0 .75 90.36614 21.578742)" font-size="32" font-family="DroidSerif"><tspan y="267.72" x="9 28.616002 43.688005 62.152006 79.368007 94.44 111.560009 125.992008 140.42401 155.016 185.22402 195.432 212.64801 232.936 244.20001 258.792 279.432 297.896 309.16 323.75199 340.968 359.43199 374.02397 392.48796 413.12797 427.71995 439.52796 457.99195 473.06394 490.18394 508.71195 525.832 540.904 548.904 563.49606 583.11209 603.4001 614.66409 629.2561 648.87216 669.16018 679.36819 689.28817 708.9042">progress might not go on forever, but build </tspan></text>
<text fill="#d94a4a" xml:space="preserve" transform="matrix(.75 0 0 .75 90.36614 21.578742)" font-size="32" font-family="DroidSerif"><tspan y="305.72" x="9 20.264 38.728 66.28 84.264 99.336 118.951999 133.384 141.672 159.656 180.296 188.584 208.872 218.79199 230.056 240.264 270.47203 288.45603 299.72004 316.84004 325.12803 340.872 359.336 379.976 395.72 405.64 425.928 440.36003 450.56803 469.032 489.67204">towards an ultimate conclusion.</tspan></text>
</g>
</g>
</g>
</svg>
