<?xml version="1.0" encoding="UTF-8" standalone="no"?>
<!DOCTYPE svg PUBLIC "-//W3C//DTD SVG 1.1//EN" "http://www.w3.org/Graphics/SVG/1.1/DTD/svg11.dtd">
<svg xmlns="http://www.w3.org/2000/svg" xmlns:xlink="http://www.w3.org/1999/xlink" version="1.1" width="720pt" height="405pt" viewBox="0 0 720 405">
<g enable-background="new">
<g>
<clipPath id="cp71">
<path transform="matrix(.001968504,0,0,.001968504,0,0)" d="M 0 0 L 365760 0 L 365760 205740 L 0 205740 L 0 0 Z "/>
</clipPath>
<g clip-path="url(#cp71)">
<path transform="matrix(.001968504,0,0,.001968504,0,0)" d="M 0 0 L 365568 0 L 365568 205740 L 0 205740 Z " fill-rule="evenodd"/>
<path transform="matrix(.001968504,0,0,.001968504,0,0)" d="M 45906 10962 L 319662 10962 L 319662 194778 L 45906 194778 Z " fill-opacity="0" fill-rule="evenodd"/>
<text fill="#d94a4a" xml:space="preserve" transform="matrix(.75 0 0 .75 90.36614 21.578742)" font-size="24" font-family="DroidSerif"><tspan y="32.04" x="9 19.8 34.752 47.592 56.04 67.68 81.168 96.648 108.28801 123.50401 130.94402 139.39202 150.21602 163.70403 171.14403 178.80004 194.28003 202.72803 215.56803 223.00803 230.44803 238.10404 251.01604 263.85606 279.33607 287.78407 299.42408 322.08009 335.56809 347.3761 362.5921 370.2481 385.72813 398.5681 410.20814 424.92015 437.76014 449.40016 464.11216 476.95216 485.80815 493.46415 508.94416 521.7842 536.49618 548.13619 561.62417 572.4481 584.08816 597.5761 609.2161 631.87216 645.3601 657.1681 672.3841 680.0401 695.5201 708.3601">&#x201c;Let an ultra-intelligent machine be defined as a machine </tspan></text>
<text fill="#d94a4a" xml:space="preserve" transform="matrix(.75 0 0 .75 90.36614 21.578742)" font-size="24" font-family="DroidSerif"><tspan y="61.04" x="9 17.448002 32.664 46.152 54.600004 62.544004 74.352008 87.840007 103.32001 111.26401 120.12001 133.60802 144.91202 152.85602 163.68003 178.89603 190.20003 204.91204 218.40004 229.22405 240.04805 247.99205 261.48005 268.92005 276.36006 284.30406 292.75205 307.96806 320.80805 328.75205 336.40806 351.88807 360.33607 373.17607 380.61607 388.05607 400.89607 412.70408 421.15208 436.36808 449.85609 457.29609 465.24009 478.7281 490.5361 498.9841 506.6401 520.53616 528.19216 536.64016 544.29617 557.13619 567.96017 575.9042 589.7522 598.6082 606.55227 620.0402 635.0402 648.57626 656.52029 679.1763 692.66427 708.1442">that can far surpass all the intellectual activities of any man </tspan></text>
<text fill="#d94a4a" xml:space="preserve" transform="matrix(.75 0 0 .75 90.36614 21.578742)" font-size="24" font-family="DroidSerif"><tspan y="90.04" x="9 24.216 38.064 58.728 71.568 85.464008 98.304 109.608 117.048007 128.856 136.296 149.136 163.032 175.872 187.176 194.04 201.48 214.512 222.168 237.648 249.456 262.296 269.736 278.184 293.4 306.24 313.68 328.392 341.232 352.056 359.712 372.624 388.104 395.544 409.392 418.248 425.688 448.344 461.832 473.64 488.85603 496.51203 511.99205 524.83206 535.656 543.096 550.752 561.576 569.016 582.864 598.344 611.184 618.624 632.47207 641.32809 648.76809 657.21609 672.43209 685.2721 696.09609 708.9361">however clever. Since the design of machines is one of these </tspan></text>
<text fill="#d94a4a" xml:space="preserve" transform="matrix(.75 0 0 .75 90.36614 21.578742)" font-size="24" font-family="DroidSerif"><tspan y="119.04" x="9 16.656 32.136 40.584005 53.424005 60.864004 68.304 81.144 92.951999 101.399997 116.616 130.104 137.544 155.85602 169.34403 181.15203 189.60002 197.25603 211.15203 218.80803 227.25603 234.91204 247.75203 258.57603 264.57603 282.88804 296.37605 311.85606 330.16807 345.38407 352.82408 361.27207 372.09605 385.58406 393.02406 400.68006 416.16007 424.60807 437.44807 444.88807 452.32807 459.98408 472.89607 485.73606 501.21607 509.66407 527.9761 550.6321 564.12008 575.92807 591.14407 598.80007 614.28 627.12008 645.43209 657.24008 671.0881 686.3041 693.7441 708.45608">intellectual activities, an ultra-intelligent machine could </tspan></text>
<text fill="#d94a4a" xml:space="preserve" transform="matrix(.75 0 0 .75 90.36614 21.578742)" font-size="24" font-family="DroidSerif"><tspan y="148.04" x="9 23.712002 36.552003 47.376005 55.032007 67.94401 83.42401 117.000019 129.84001 143.73601 156.576 172.056 205.632 220.34401 233.184 241.632 250.08 262.92 274.224 307.8 330.456 343.944 355.752 370.96803 378.62403 394.10404 406.94404 417.76805 423.76805 457.34407 465.79206 481.00807 493.84806 505.15205 517.99209 551.56808 572.23208 586.0801 601.2961 608.7361 623.44808 657.02407 665.47207 680.68807 693.5281 709.00808">design even better machines; there would then </tspan></text>
<text fill="#d94a4a" xml:space="preserve" transform="matrix(.75 0 0 .75 90.36614 21.578742)" font-size="24" font-family="DroidSerif"><tspan y="177.04" x="9 24.216 39.696 54.408 69.624 82.464008 93.28801 101.73601 109.392009 123.240009 138.72 152.20801 166.92002 174.36002 187.89601 206.78401 221.49602 234.33602 253.22402 266.712 282.19203 301.08003 311.88 319.536 335.01603 343.46403 356.30403 363.74403 371.18403 378.84004 391.752 404.592 420.07203 431.88005 444.72004 463.60804 476.44804 490.32005 505.03205 512.47207 526.32009 537.14407 544.80007 558.6481 574.12808 580.12808 590.92807 609.81607 623.304 638.784 653.496 672.384 680.832 696.048 708.888">unquestionably be an &#x201c;intelligence explosion,&#x201d; and the </tspan></text>
<text fill="#d94a4a" xml:space="preserve" transform="matrix(.75 0 0 .75 90.36614 21.578742)" font-size="24" font-family="DroidSerif"><tspan y="206.04" x="9 16.656 32.136 40.584005 53.424005 60.864004 68.304 75.96 88.872 101.712009 117.19201 129.00002 141.84001 151.34401 165.19202 174.04802 183.55202 206.20803 219.69603 235.17603 244.68003 265.34403 279.19203 294.40803 301.84803 316.56004 326.06404 340.77604 353.61604 363.12004 370.56004 383.40003 392.256 400.704 410.208 419.064 432.552 443.85603 453.36003 468.07203 480.91203 496.12803 503.78404 519.26406 533.976 540.84 550.34408 565.03207 580.24807 595.46408 606.288 615.79208 624.24008 639.45608 652.2961 661.8001 670.6561 678.31216 689.61618 700.4401 708.8881">intelligence of man would be left far behind. Thus the first </tspan></text>
<text fill="#d94a4a" xml:space="preserve" transform="matrix(.75 0 0 .75 90.36614 21.578742)" font-size="24" font-family="DroidSerif"><tspan y="235.04" x="9 24.216 31.656 40.104 50.928 64.416 72.072 87.552 96 108.84 116.28 123.72 131.376 144.28801 157.128 172.608 181.056 189.696 212.352 225.84001 237.64801 252.86402 260.52003 276.00004 288.84004 297.48005 305.13606 315.96006 324.60008 333.04808 348.26408 361.10408 369.74409 377.18409 390.6721 401.4961 409.9441 418.5841 426.2401 441.72013 455.61613 468.45613 483.93614 492.38414 500.04014 513.8881 529.3681 538.0081 546.4561 561.6721 575.1601 583.6081 592.2481 614.9041 628.3921 643.8721 652.5121 667.99209 680.8321 693.6721 708.3841">ultraintelligent machine is the last invention that man need </tspan></text>
<text fill="#d94a4a" xml:space="preserve" transform="matrix(.75 0 0 .75 90.36614 21.578742)" font-size="24" font-family="DroidSerif"><tspan y="264.04" x="9 21.84 35.736 48.576 59.88 66.288 88.944 102.432 115.967998 128.808 134.808 141.216 155.92801 167.23201 181.08002 194.97602 202.63202 217.34403 230.18402 244.89603 251.30403 259.75205 274.96806 288.45606 296.90406 303.31205 311.76005 326.97605 339.81605 346.22404 368.88005 382.36805 394.17607 409.39207 417.04808 432.52809 445.36808 451.77607 459.43208 470.25608 476.66407 491.37608 505.22407 517.03207 524.68807 532.12808 544.9681 551.3761 564.2161 579.6961 593.5441 608.76016 621.6721 636.8881 643.29617 651.74417 665.59219 672.0002 680.4482 693.2882 700.7282 708.1682">ever make, provided that the machine is docile enough to tell </tspan></text>
<text fill="#d94a4a" xml:space="preserve" transform="matrix(.75 0 0 .75 90.36614 21.578742)" font-size="24" font-family="DroidSerif"><tspan y="293.04" x="9 24.216 35.04 41.256 56.472 70.32 90.984 97.200008 105.648 119.496 125.712009 139.24802 152.08802 164.92801 179.64002 185.85602 193.51203 201.96002 208.17603 223.39203 238.87203 253.58403 266.42405 277.72804 283.94404 295.75205 309.60005 325.08006 333.52806 344.83204 358.68003 366.12004 372.98405 383.78404">us how to keep it under control.&#x201d; </tspan></text>
<text fill="#d94a4a" xml:space="preserve" transform="matrix(.75 0 0 .75 90.36614 21.578742)" font-size="24" font-family="DroidSerif"><tspan y="351.04" x="9 33 68.712009 77.520008 84.384 92.928 99.792 135.504 152.616 166.464 180.31201 195.02402 201.02402 236.73603 249.76802 264.48 277.32 289.12803 304.34403 311.78404 325.27204 333.72004 341.37605 355.22404 370.70405 381.52806 417.24006 431.95207 445.80006 461.28007 473.08808 485.92808 497.23207 512.71206 520.36807 535.848 548.76 584.47207 592.92007 608.13607 620.9761 656.6881 670.8241 678.4801 689.7841 700.6081 709.0561">&#x2014; I.J. Good, Speculations Concerning the First </tspan></text>
<text fill="#d94a4a" xml:space="preserve" transform="matrix(.75 0 0 .75 90.36614 21.578742)" font-size="24" font-family="DroidSerif"><tspan y="380.04" x="9 26.184 33.624 42.072004 52.896005 66.384 74.04 89.520008 97.968 110.808 118.248 125.688 133.34401 146.25601 159.09601 174.576 183.024 189.24 211.72801 225.21602 237.02402 252.24002 259.89604 275.37605 288.21604 294.43205 302.73603 316.15205 329.56806 342.98408 356.4001 364.7041">Ultraintelligent Machine (1963) </tspan></text>
<text fill="#d94a4a" xml:space="preserve" transform="matrix(.75 0 0 .75 90.36614 21.578742)" font-size="24" font-family="DroidSerif" font-style="italic"><tspan y="438.04" x="9 24.504002 38.4 45.696004 56.808004 68.64 81.816 90.648 105.024 116.856 130.03202 144.40802 158.78403 166.08003 173.37604 182.20804 195.38405 207.04805 220.94405 235.32006 249.21605 256.51206 268.34407 281.52006 288.81605 303.19206 316.36805 325.20005 339.57606 351.40806 364.58406 371.88005 385.77604 396.88804 405.72004 418.89604 430.00804 443.85603 457.63203 466.46403 472.46403 485.64 494.47203 508.24803 521.424 532.632 544.464 558.312 569.52 581.35208 592.46408 604.296 618.672 627.504 640.68008 648.288 662.664 671.496 685.87197 697.07998 708.912">Raise the unlit candle in the last spot, to represent future </tspan></text>
<text fill="#d94a4a" xml:space="preserve" transform="matrix(.75 0 0 .75 90.36614 21.578742)" font-size="24" font-family="DroidSerif" font-style="italic"><tspan y="467.04" x="9 17.832 29.664002 41.328004 55.704004 70.08 83.856 91.152 104.928 118.272 128.784">technology.</tspan></text>
</g>
</g>
</g>
</svg>
