<?xml version="1.0" encoding="UTF-8" standalone="no"?>
<!DOCTYPE svg PUBLIC "-//W3C//DTD SVG 1.1//EN" "http://www.w3.org/Graphics/SVG/1.1/DTD/svg11.dtd">
<svg xmlns="http://www.w3.org/2000/svg" xmlns:xlink="http://www.w3.org/1999/xlink" version="1.1" width="720pt" height="405pt" viewBox="0 0 720 405">
<g enable-background="new">
<g>
<clipPath id="cp72">
<path transform="matrix(.001968504,0,0,.001968504,0,0)" d="M 0 0 L 365760 0 L 365760 205740 L 0 205740 L 0 0 Z "/>
</clipPath>
<g clip-path="url(#cp72)">
<path transform="matrix(.001968504,0,0,.001968504,0,0)" d="M 0 0 L 365568 0 L 365568 205740 L 0 205740 Z " fill-rule="evenodd"/>
<path transform="matrix(.001968504,0,0,.001968504,0,0)" d="M 45906 10962 L 319662 10962 L 319662 194778 L 45906 194778 Z " fill-opacity="0" fill-rule="evenodd"/>
<text fill="#d94a4a" xml:space="preserve" transform="matrix(.75 0 0 .75 90.36614 21.578742)" font-size="25.333334" font-family="DroidSerif"><tspan y="33.32" x="9 24.504002 46.316 60.933336 67.49467 81.78267 95.336009 109.57334 121.50534 132.93068 139.49202 147.34535 161.58269 170.50002 184.05335 195.98535 202.31868 208.88002 226.94269 241.56003 253.49204 269.02137 283.6387 299.9787 306.54005 330.27738 344.8947 359.51206 371.44407 384.9974 391.55876 400.90675 415.14408 439.05876 453.6761 469.73744 481.16276 489.01609 503.30409 509.86543 524.4827 540.0121 551.43746 564.9908 576.9228 591.5908 605.14419 620.6735 627.9442">Two years later, Gordon Moore famously observed: </tspan></text>
<text fill="#d94a4a" xml:space="preserve" transform="matrix(.75 0 0 .75 90.36614 21.578742)" font-size="25.333334" font-family="DroidSerif"><tspan y="93.32" x="9 20.400002 35.904005 51.96534 65.51868 84.94934 97.413349 112.03068 135.94535 151.47467 159.328 172.88134 187.524 195.60533 204.52266 218.81066 238.24134 247.58934 262.20668 274.13868 293.56935 317.484 325.56535 341.90534 349.98667 373.90135 389.96269 413.87736 433.308 445.772 460.38935 484.30403 499.83335 514.4507 530.7907 544.34408 560.6841 569.60147 589.0321 601.4961 616.1134 627.53878 636.4561 647.8815 667.31216 683.3735 697.6108 709.03616">&#x201c;The complexity for minimum component costs has </tspan></text>
<text fill="#d94a4a" xml:space="preserve" transform="matrix(.75 0 0 .75 90.36614 21.578742)" font-size="25.333334" font-family="DroidSerif"><tspan y="123.32" x="9 17.081334 33.421335 45.885335 57.817338 71.370677 85.60801 97.03334 110.58668 126.11601 137.11069 151.34803 160.26535 171.26003 185.49736 196.49204 207.91738 222.15471 231.07204 244.62537 255.62004 270.23738 279.58537 290.58003 302.51203 317.12937 333.1907 346.82005 362.88139 370.7347 385.0227 396.01737 410.2547 421.24937 430.59736 444.8347 457.29869 466.216 480.83335 492.76536 503.76 518.3773 527.72537 538.72006 547.6374 569.4494 584.0667 595.0614 610.59078 624.1441 636.0761 647.0708 661.3588 674.9122 689.1495 701.0815 708.32687">increased at a rate of roughly a factor of two per year. </tspan></text>
<text fill="#d94a4a" xml:space="preserve" transform="matrix(.75 0 0 .75 90.36614 21.578742)" font-size="25.333334" font-family="DroidSerif"><tspan y="153.32" x="9 24.529335 38.08267 50.01467 58.932008 73.16934 81.25068 97.59068 105.444019 119.73202 127.53468 142.15203 156.82003 170.37335 182.30536 190.10803 199.02536 215.0867 228.64003 236.4427 247.86804 263.92939 278.54673 290.47874 299.39607 307.19874 316.11607 329.6694 341.6014 365.51609 373.31877 382.23609 398.29743 406.37876 417.80409 425.60676 437.0321 451.26945 460.18678 473.7401 481.5428 494.00679 508.2441 524.5841 532.3868 547.91616 561.4695 569.27218 582.8255 597.46817 612.9975 626.55087 639.01486 647.9322 661.48556 677.0149 684.81759 693.7349 708.35226">Certainly over the short term this rate can be expected to </tspan></text>
<text fill="#d94a4a" xml:space="preserve" transform="matrix(.75 0 0 .75 90.36614 21.578742)" font-size="25.333334" font-family="DroidSerif"><tspan y="183.32" x="9 21.464 36.081338 52.42134 61.338678 69.42001 85.76002 101.82135 115.37469 121.70802 128.7507 136.83203 146.18004 153.22272 169.56272 184.18006 193.09738 200.14006 209.05739 223.67473 230.7174 238.79874 255.13874 267.60273 279.53474 293.08808 307.3254 318.75074 332.30409 339.5494 346.59208 365.3894 380.0574 393.61076 405.54277 412.58543 421.50276 437.5641 451.11744 458.1601 466.01344 480.63078 496.97077 510.6001 524.15347 536.08547 543.1281 552.0455 565.5988 577.5308 601.4455 607.7788 614.8215 623.73886 639.8002 653.3535 660.3962 671.82156 686.05886 694.9762 708.52957">continue, if not to increase. Over the longer term, the rate </tspan></text>
<text fill="#d94a4a" xml:space="preserve" transform="matrix(.75 0 0 .75 90.36614 21.578742)" font-size="25.333334" font-family="DroidSerif"><tspan y="213.32" x="9 23.617335 32.965337 42.744005 50.825338 67.16534 79.62933 91.56133 105.11467 119.352008 130.77735 144.33068 154.10935 162.19068 173.61602 183.39469 197.63202 207.41069 222.94004 231.02136 239.93869 249.71736 273.63203 288.24937 300.18138 313.7347 323.5134 339.57475 355.91474 368.37873 381.93208 393.86408 402.7814 417.01875 425.10008 441.44007 447.7734 457.5521 471.78944 479.64277 488.5601 504.62144 519.2388 535.3001 548.92947 564.9908 574.7695 583.6868 599.74819 613.3015 625.2335 638.78689 648.56558 656.6469 668.07229 677.85098 694.191 708.8083">of increase is a bit more uncertain, although there is no </tspan></text>
<text fill="#d94a4a" xml:space="preserve" transform="matrix(.75 0 0 .75 90.36614 21.578742)" font-size="25.333334" font-family="DroidSerif"><tspan y="243.32" x="9 20.932002 34.485338 48.72267 60.148008 74.76534 91.10535 98.75601 107.67335 122.29068 129.94136 145.4707 159.02404 166.87737 174.9587 188.51203 203.18003 216.73336 224.38404 232.46537 241.38269 249.03337 270.84538 278.9267 286.78004 294.63337 302.28404 318.62403 333.24137 342.1587 349.80937 361.74137 375.2947 399.20939 413.44673 421.52806 437.86805 445.5187 461.8587 475.41206 489.64939 501.5814 509.43473 523.7227 531.3734 543.8374 558.4547 574.79476 586.2201 595.13748 609.37478 625.7148 634.63217 642.28286 651.63088 666.24819 678.1802 685.8309 700.0682 708.98556">reason to believe it will not remain nearly constant for at </tspan></text>
<text fill="#d94a4a" xml:space="preserve" transform="matrix(.75 0 0 .75 90.36614 21.578742)" font-size="25.333334" font-family="DroidSerif"><tspan y="273.32" x="9 16.853333 30.406666 44.644 56.069337 64.98667 82.340007 96.501338 110.66267 128.016 142.304 155.85733 170.09467 182.02667 193.45201 200.69734 218.05069 233.55469 249.61603 263.85337 272.7707 290.12403 314.0387 327.59205 341.82939 358.16938 369.5947 386.94804 401.9707 416.2587 433.61204 447.77339 461.93473 476.09608 490.25743 496.59077 513.9441 522.86148 538.9228 552.47616 569.82949 586.1695 602.23086 626.1455 641.67489 655.2282 667.1602 684.51358 699.13088 708.4789">least 10 years. That means by 1975, the number of </tspan></text>
<text fill="#d94a4a" xml:space="preserve" transform="matrix(.75 0 0 .75 90.36614 21.578742)" font-size="25.333334" font-family="DroidSerif"><tspan y="303.32" x="9 21.464 36.081338 59.996007 75.525348 90.14268 106.48268 120.03602 136.37602 145.29335 156.71869 165.20537 180.73471 194.28804 206.22005 214.70673 222.78806 239.12805 248.04538 261.59873 275.22807 286.6534 300.89076 309.80809 323.36143 338.89076 347.3774 359.8414 367.92274 379.85475 392.31874 408.38008 416.4614 425.37873 433.8654 443.21339 457.83073 469.76274 478.2494 502.16407 510.2454 526.5854 534.66677 558.5814 574.64279 598.55746 607.0441 619.5081 634.1254 645.5508 654.46817 662.95486 684.76687 692.8482 700.70156 708.5549">components per integrated circuit for minimum cost will </tspan></text>
<text fill="#d94a4a" xml:space="preserve" transform="matrix(.75 0 0 .75 90.36614 21.578742)" font-size="25.333334" font-family="DroidSerif"><tspan y="333.32" x="9 24.529335 38.08267 44.644 58.805337 72.96667 79.3 93.461338 107.622669 121.784 129.02933 140.42932">be 65,000.&#x201d; </tspan></text>
<text fill="#d94a4a" xml:space="preserve" transform="matrix(.75 0 0 .75 90.36614 21.578742)" font-size="25.333334" font-family="DroidSerif"><tspan y="393.32" x="9 34.333337 40.89467 58.957338 73.57467 85.50667 101.036 115.653339 131.99333 138.55467 162.292 176.90935 191.52669 203.4587 217.01203 223.57337 232.3387 246.50003 260.66139 274.82273 288.98408">&#x2014; Gordon Moore (1965)</tspan></text>
<text fill="#d94a4a" xml:space="preserve" transform="matrix(.75 0 0 .75 90.36614 21.578742)" font-size="24" font-family="DroidSerif" font-style="italic"><tspan y="452.04" x="9 26.496 37.608 44.904005 59.280008 72.62401 79.41601 88.24801 102.62401 114.45601 121.24801 128.856 136.15201 143.76001 152.59201 166.96802 173.76003 185.42403 199.32003 213.69603 227.59203 234.88803 246.72003 252.72003 259.51203 279.144 293.52003 300.816 312.48 326.85603 333.648 344.85603 356.68803 370.536 381.74403 393.57603 404.68803 416.52003 430.89604 439.72804 450.84004 457.63203 464.928 479.30403 493.2 507.57603 518.68807 527.52 538.728 546.02407 559.92007 567.21609 574.5121 586.77609 600.67208 609.504 616.80007 630.57608 644.952 650.952 657.744 665.04006 672.33609 685.68008 700.056 708.88809">Using the fifth candle, which represents industrialization, light </tspan></text>
<text fill="#d94a4a" xml:space="preserve" transform="matrix(.75 0 0 .75 90.36614 21.578742)" font-size="24" font-family="DroidSerif" font-style="italic"><tspan y="481.04" x="9 17.832 32.208 44.04 50.256 61.368 68.664 81.744 90.576007 104.952 111.16801 122.83201 136.72801 151.10402 165.00002 172.29602 184.12802 190.34403 199.17603 212.95203 219.16803 230.37604 242.20804 256.05604 267.26405 279.09605 290.20805 302.04005 316.41606 325.24806 331.46406 340.29606 354.67207 366.50407 372.72007 380.01606 394.39207 407.30406 419.13606 433.51206 442.34407 449.64006 463.41606 477.79206 484.00807 497.78407 505.39207 511.60807 523.27206 537.04806 558.528 572.37606 586.752 595.584 607.416 618.624 629.736">the sixth candle to represent the invention of computers.</tspan></text>
</g>
</g>
</g>
</svg>
