<?xml version="1.0" encoding="UTF-8" standalone="no"?>
<!DOCTYPE svg PUBLIC "-//W3C//DTD SVG 1.1//EN" "http://www.w3.org/Graphics/SVG/1.1/DTD/svg11.dtd">
<svg xmlns="http://www.w3.org/2000/svg" xmlns:xlink="http://www.w3.org/1999/xlink" version="1.1" width="720pt" height="405pt" viewBox="0 0 720 405">
<g enable-background="new">
<g>
<clipPath id="cp75">
<path transform="matrix(.001968504,0,0,.001968504,0,0)" d="M 0 0 L 365760 0 L 365760 205740 L 0 205740 L 0 0 Z "/>
</clipPath>
<g clip-path="url(#cp75)">
<path transform="matrix(.001968504,0,0,.001968504,0,0)" d="M 0 0 L 365568 0 L 365568 205740 L 0 205740 Z " fill-rule="evenodd"/>
<path transform="matrix(.001968504,0,0,.001968504,0,0)" d="M 45906 10962 L 319662 10962 L 319662 194778 L 45906 194778 Z " fill-opacity="0" fill-rule="evenodd"/>
<text fill="#d94a4a" xml:space="preserve" transform="matrix(.75 0 0 .75 90.36614 21.578742)" font-size="32" font-family="DroidSerif"><tspan y="77.72" x="9 38.984 56.104005 74.088008 94.728008 122.28001 142.56801 152.776 162.696 179.816 187.816 205.41599 216.68 236.96799 254.08798 271.688 286.75999 305.22398 320.96797 339.01594 356.13594 367.39994 381.83195 399.43196 410.69596 430.98396 448.96797 460.23197 477.83198 498.11997 516.10397 535.72 553.32 565.128 575.336 590.408 604.84 616.104 633.70407 653.32009 670.44009 687.56008 708.2001">Meanwhile, the rockets that had first been </tspan></text>
<text fill="#d94a4a" xml:space="preserve" transform="matrix(.75 0 0 .75 90.36614 21.578742)" font-size="32" font-family="DroidSerif"><tspan y="115.72" x="9 28.616002 45.736 64.264 81.384 91.304 109.768009 129.384 146.504 166.12 211.4 223.208 241.672 256.744 302.024 329.576 347.56 362.632 407.912 435.464 452.58399 467.65599 484.77598 530.05599 541.31997 561.608 576.68 597.32 614.44 634.056 679.33609 690.60006 709.064">developed for war were turned to </tspan></text>
<text fill="#d94a4a" xml:space="preserve" transform="matrix(.75 0 0 .75 90.36614 21.578742)" font-size="32" font-family="DroidSerif"><tspan y="153.72" x="9 26.12 44.616 64.232 74.152 92.616 107.048 125.032 136.296 146.504 164.968 185.608 193.896 211.88 226.31201 234.6 262.152 279.272 289.19203 299.11204 308.29603">exploration as well: </tspan></text>
<text fill="#d94a4a" xml:space="preserve" transform="matrix(.75 0 0 .75 90.36614 21.578742)" font-size="32" font-family="DroidSerif"><tspan y="229.72" x="9 23.400002 48.744005 65.864009 80.936008 98.05601 107.04801 137.25601 154.376 175.016 184.008 195.816 210.888 229.352 259.56 268.552 279.816 300.104 317.224 326.216 345.832 355.752 373.73603 394.37605 411.49604 422.76005 431.75205 451.68806 469.67207 484.74406 496.00807 516.2961 525.2881 537.09609 547.3041 562.3761 576.8081 588.0721 597.0641 611.4961 628.6161 639.88009 648.8721 660.68008 679.14407 697.60806 708.872">&#x201c;Here men from the planet Earth first set foot </tspan></text>
<text fill="#d94a4a" xml:space="preserve" transform="matrix(.75 0 0 .75 90.36614 21.578742)" font-size="32" font-family="DroidSerif"><tspan y="267.72" x="9 29.288 48.904 67.368 88.007999 102.855998 114.119998 134.40799 151.52799 166.37598 196.35999 214.82399 233.288 253.928 268.776 280.168 300.456 310.376 328.424 343.272 361.16 379.048 396.936 414.824 422.824 437.672 460.232 469.384 492.648 501.80003 516.648 548.2 565.32 580.168 595.91207 613.89608 644.10409 661.22409 676.0721 686.2801 706.9201">upon the Moon July 1969, A.D. We came in </tspan></text>
<text fill="#d94a4a" xml:space="preserve" transform="matrix(.75 0 0 .75 90.36614 21.578742)" font-size="32" font-family="DroidSerif"><tspan y="305.72" x="9 28.616002 45.736 63.72 79.464008 96.58401 104.87201 116.68001 135.14402 150.21602 158.50402 176.488 186.408 196.328 204.616 234.824 252.80802 273.44804 292.13603 302.34403 322.98405 342.60005 357.00004">peace for all mankind&#x201d; </tspan></text>
<text fill="#d94a4a" xml:space="preserve" transform="matrix(.75 0 0 .75 90.36614 21.578742)" font-size="32" font-family="DroidSerif"><tspan y="381.72" x="9 41 49.288003 71.84801 91.464008 109.92801 119.84801 129.768 148.23201 156.52 174.408 192.296 200.584 219.912 229.832 247.81601 267.432 287.72 304.84 313.128 324.19999 342.08799 359.97599 377.86399 395.75199">&#x2014; Apollo 11 Plaque (1969)</tspan></text>
</g>
</g>
</g>
</svg>
