<?xml version="1.0" encoding="UTF-8" standalone="no"?>
<!DOCTYPE svg PUBLIC "-//W3C//DTD SVG 1.1//EN" "http://www.w3.org/Graphics/SVG/1.1/DTD/svg11.dtd">
<svg xmlns="http://www.w3.org/2000/svg" xmlns:xlink="http://www.w3.org/1999/xlink" version="1.1" width="720pt" height="405pt" viewBox="0 0 720 405">
<g enable-background="new">
<g>
<clipPath id="cp76">
<path transform="matrix(.001968504,0,0,.001968504,0,0)" d="M 0 0 L 365760 0 L 365760 205740 L 0 205740 L 0 0 Z "/>
</clipPath>
<g clip-path="url(#cp76)">
<path transform="matrix(.001968504,0,0,.001968504,0,0)" d="M 0 0 L 365568 0 L 365568 205740 L 0 205740 Z " fill-rule="evenodd"/>
<path transform="matrix(.001968504,0,0,.001968504,0,0)" d="M 45906 10962 L 319662 10962 L 319662 194778 L 45906 194778 Z " fill-opacity="0" fill-rule="evenodd"/>
<text fill="#d94a4a" xml:space="preserve" transform="matrix(.75 0 0 .75 90.36614 21.578742)" font-size="24" font-family="DroidSerif"><tspan y="32.04" x="9 23.952 36.792 47.616 56.064004 65.01601 85.68001 98.520008 107.47201 116.32801 130.17601 141.48001 154.39202 167.23201 175.68001 184.63202 199.84803 213.69603 234.36003 243.31204 258.02406 265.68006 274.53605 283.39204 291.04804 302.85606 318.07206 325.51206 333.96006 342.91206 357.62406 368.92805 381.76805 396.48005 404.13606 415.94407 424.39207 432.04808 447.52809 460.44007 469.39207 477.84007 493.05607 505.89607 514.8481 523.7041 538.9201 547.3681 562.5841 573.8881 586.72817 595.6802 603.3362 614.16018 620.16018 629.1122 644.3282 657.1682 668.4722 681.31228 690.2643 697.9203 708.74429">Lest we forget how difficult predicting the future is, here is </tspan></text>
<text fill="#d94a4a" xml:space="preserve" transform="matrix(.75 0 0 .75 90.36614 21.578742)" font-size="24" font-family="DroidSerif"><tspan y="61.04" x="9 22.848 38.328004 51.168004 57.384004 72.096 83.4 96.240009 110.952 118.608 130.416 138.864 151.704 166.416 172.632 187.34401 195.00002 205.82402 219.31203 230.13603 238.58403 251.42403 262.72804 268.94404 277.39204 292.60804 306.09605 314.54405 320.76005 335.47206 343.12806 357.84007 364.05607 379.53608 393.38407 401.83207 408.04808 419.85609 433.70408 456.36009 469.20008 475.41609 483.86408 497.71208 503.92808 518.6401 532.12808 542.952 553.776">one predicted disaster that did not come to pass:</tspan></text>
<text fill="#d94a4a" xml:space="preserve" transform="matrix(.75 0 0 .75 90.36614 21.578742)" font-size="24" font-family="DroidSerif"><tspan y="119.04" x="9 19.8 34.488 49.704 62.544 70.896 85.608 99.096 107.544 115.992 123.432 136.272 144.62401 153.072 166.92002 175.27202 184.12802 196.96802 209.80802 224.52002 232.87203 246.36003 253.80004 261.24003 269.592 283.44 292.296 300.64799 315.86399 331.08 353.736 367.224 382.704 390.36003 398.808 412.34403 420.696 428.35203 439.17604 447.528 461.376 475.272 488.112 499.41603 506.28004 514.632 523.44 538.92 547.272 555.72 570.936 583.776 592.128 605.544 618.96 632.37606 645.79208 656.616 664.968 678.456 693.936 708.64797">&#x201c;The battle to feed all of humanity is over. In the 1970s and </tspan></text>
<text fill="#d94a4a" xml:space="preserve" transform="matrix(.75 0 0 .75 90.36614 21.578742)" font-size="24" font-family="DroidSerif"><tspan y="148.04" x="9 22.416 35.832 49.248 62.664 73.48801 82.10401 97.32001 112.53601 128.016 142.72801 154.03202 166.87201 181.58402 192.40802 201.02402 214.87203 223.72803 232.34403 255.00003 262.65605 270.09605 277.53605 285.19206 299.04005 314.52006 325.34407 333.96006 347.80805 356.66404 365.28004 379.99205 392.83204 406.68003 421.39204 428.83204 441.67204 450.28804 470.95204 478.60804 486.04804 493.48805 502.10404 512.92807 521.37606 534.864 546.168 560.064 572.90408 581.5201 589.9681 603.8161 612.4321 627.1441 639.98416 653.4721 661.9201 677.1361 685.75216 693.40817 708.8881">1980s hundreds of millions of people will starve to death in </tspan></text>
<text fill="#d94a4a" xml:space="preserve" transform="matrix(.75 0 0 .75 90.36614 21.578742)" font-size="24" font-family="DroidSerif"><tspan y="177.04" x="9 19.824002 34.536005 42.192 50.640005 63.480005 69.864009 83.712009 92.56801 98.95201 112.44001 127.44001 140.97602 147.36002 159.16802 169.99202 183.48003 194.30403 209.52004 215.90404 230.61605 241.92005 255.76805 268.68006 279.50407 292.99208 315.64808 326.47209 332.85609 345.69609 368.35209 383.0641 396.5521 407.85609 421.39207 434.23207 448.94407 455.32807 470.54408 485.25608 499.10408 514.58407 520.9681 536.44808 550.2961 569.3041 576.1681 582.5521 599.4721 607.9201 614.30416 622.75216 637.96817 645.62417 656.4481 662.83218 670.27218 683.76016 692.2081 705.04818">spite of any crash programs embarked upon now. At this late </tspan></text>
<text fill="#d94a4a" xml:space="preserve" transform="matrix(.75 0 0 .75 90.36614 21.578742)" font-size="24" font-family="DroidSerif"><tspan y="206.04" x="9 23.712002 37.200006 45.648008 58.488008 66.00001 81.48001 95.32801 103.77601 118.992008 126.648 142.128 155.04001 162.55202 174.36002 187.84803 203.32802 210.84003 225.55204 236.85604 249.69603 263.59205 276.43205 291.91206 300.36006 307.87205 321.36006 328.87205 339.69606 354.91206 369.62406 380.44807 388.89607 402.38407 417.86408 426.31208 433.96809 447.4561 454.8961 462.40809 470.0641 485.5441 497.3521 508.65614 521.49618 534.98416 545.8081 558.64816 566.16018 573.81619 589.29617 596.80819 605.25619 620.47219 633.3122 640.8242 661.4882 675.33627 686.64028 694.08029 708.79226">date nothing can prevent a substantial increase in the world </tspan></text>
<text fill="#d94a4a" xml:space="preserve" transform="matrix(.75 0 0 .75 90.36614 21.578742)" font-size="24" font-family="DroidSerif"><tspan y="235.04" x="9 23.712002 36.552003 50.04 58.488004 73.704 88.08001 98.90401 112.392009 120.840007 133.68001 139.68001 154.05602 167.54402 174.98403 183.43202 198.64803 212.49604 227.71204 240.62404 255.84004 270.21604 292.87205 306.36006 321.36006 334.89607 349.27207 356.71208 364.36808 378.26408 391.10408 401.92808 416.30409 428.1121 441.96009 457.1761 464.6161 479.3281 493.7041 508.4161 521.2561 535.6321 546.45608 559.94406 573.84 586.68008 601.392 615.768 624.216 639.432 650.736 664.58407 679.80007 692.71206 707.92807">death rate, although many lives could be saved through </tspan></text>
<text fill="#d94a4a" xml:space="preserve" transform="matrix(.75 0 0 .75 90.36614 21.578742)" font-size="24" font-family="DroidSerif"><tspan y="264.04" x="9 23.712002 34.536005 48.024003 70.68001 84.16801 92.616008 100.272 112.08 121.368007 136.08 147.384 161.23201 174.14402 184.96802 198.45603 221.11203 231.93604 241.22405 249.67205 263.52006 272.80805 283.60804 294.43205 302.88005 314.18403 327.02403 335.47203 347.28004 362.49604 373.29603 382.584 391.032 406.24803 419.088 428.376 440.18403 453.67204 464.976 476.28004 489.81605 497.47206 512.952 525.864 535.15206 546.96 560.448 575.16 588.64797 600.45596 608.11196 616.55996 630.09597 639.384 653.232 662.088 671.37606 679.82406 695.04006 707.88009">dramatic programs to &#x201c;stretch&#x201d; the carrying capacity of the </tspan></text>
<text fill="#d94a4a" xml:space="preserve" transform="matrix(.75 0 0 .75 90.36614 21.578742)" font-size="24" font-family="DroidSerif"><tspan y="293.04" x="9 21.84 35.328004 46.632005 55.080007 70.296009 78.04801 92.28001 105.81601 113.568019 121.224018 136.70401 148.51201 159.81601 172.656 186.14402 196.96802 204.62403 220.10402 233.01602 240.76802 249.62403 263.47203 277.32 292.032 299.78404 314.49604 325.80006 339.64805 354.36006 369.57606 381.38407 389.83207 397.48808 411.33607 426.81608 434.56809 448.0561 463.5361 478.2481 486.00013 500.71214 512.0161 525.86416 539.76016 547.41616 562.1281 569.7841 585.2641 598.1761 605.9281 614.7841 628.63217 639.93618 647.6882 670.3442 684.1922 695.4962 708.33627">earth by increasing food production and providing for more </tspan></text>
<text fill="#d94a4a" xml:space="preserve" transform="matrix(.75 0 0 .75 90.36614 21.578742)" font-size="24" font-family="DroidSerif"><tspan y="322.04" x="9 21.84 36.552003 51.768 59.424005 67.872 81.36 96.072 103.512 116.352008 131.30402 146.01602 153.67203 164.49604 172.94403 184.24803 191.90404 206.61605 221.83205 230.28005 237.93605 251.78406 267.26408 282.21607 296.06407 304.92005 319.87205 340.53605 355.75205 369.24006 377.68806 390.52806 404.42405 417.26405 428.56806 443.52006 452.37605 466.22404 480.07203 494.78404 509.73603 517.392 528.216 543.168 556.656 570.552 584.04 591.696 599.136 612.62399 627.33596 634.77597 647.61599 654.48 669.432 685.104 700.32 708.768">equitable distribution of whatever food is available. But </tspan></text>
<text fill="#d94a4a" xml:space="preserve" transform="matrix(.75 0 0 .75 90.36614 21.578742)" font-size="24" font-family="DroidSerif"><tspan y="351.04" x="9 17.448002 32.664 45.504 56.328004 69.168 77.952 92.664 103.968 117.816 130.728 141.552 155.04001 177.69602 188.52002 197.30402 217.96802 225.62403 233.06403 240.50403 249.28803 263.13603 278.61604 286.05604 299.59205 308.37605 323.08805 334.39204 348.24003 362.13603 369.79203 384.50404 397.34403 406.12803 419.61604 428.40003 439.22404 447.67204 460.68003 474.21604 483.00004 496.84803 505.704 514.48806 527.32809 541.2001 554.0401 565.8481 581.0641 589.5121 597.1681 611.0161 626.4961 635.2801 650.4961 665.9761 673.4161 686.2561 697.0801 707.90408">these programs will only provide a stay of execution unless </tspan></text>
<text fill="#d94a4a" xml:space="preserve" transform="matrix(.75 0 0 .75 90.36614 21.578742)" font-size="24" font-family="DroidSerif"><tspan y="380.04" x="9 17.448002 32.664 45.504 59.04 68.136 81.624 92.928 105.768009 114.864009 128.352 140.16 151.968 165.81601 188.47202 203.18402 216.67203 232.15203 239.80803 252.64803 267.36003 276.45603 290.68803 304.22404 313.32005 328.03205 340.87205 349.32005 362.16004 373.46406 396.12007 403.77607 419.25608 432.09608 446.80809 455.90409 469.3921 484.8721 499.5841 508.6801 519.5041 534.7201 546.5281 558.33609 571.1761 582.00009 592.82406 601.68008 616.89608 624.33609 633.43209 646.2721 655.1281 663.98416 677.83218 689.13619 697.58419 708.40817">they are accompanied by determined and successful efforts </tspan></text>
<text fill="#d94a4a" xml:space="preserve" transform="matrix(.75 0 0 .75 90.36614 21.578742)" font-size="24" font-family="DroidSerif"><tspan y="409.04" x="9 17.448002 31.296002 39.888 53.376 61.824 70.416 85.128 98.976 113.687999 128.90399 136.344 149.832 158.28 165.936 179.78401 195.264 203.85602 215.66402 229.51203 244.99202 253.44002 264.74403 278.592 286.032 292.89604 301.48805 315.98405 329.83204 344.54405 359.76005 367.20005 380.68806 389.13606 396.79206 410.64006 426.12007 434.71208 446.52009 460.36808 475.84809 484.29609 495.6001 509.4481 516.88809 525.48007 533.13607 543.96 552.552 561 576.216 589.056 597.648 609.456 623.304 638.784 649.608 661.41598 669.07199 682.92 698.136 708.95999">to at population control. Population control is the conscious </tspan></text>
<text fill="#d94a4a" xml:space="preserve" transform="matrix(.75 0 0 .75 90.36614 21.578742)" font-size="24" font-family="DroidSerif"><tspan y="438.04" x="9 20.304 33.144 46.056 61.272 68.712 82.2 90.647998 98.30399 112.15199 127.631999 141.43199 155.28 164.136 177.936 186.384 201.6 214.44 228.24 243.72 258.936 281.592 296.30403 309.144 320.448 331.272 345.07203 358.92 367.776 381.57603 396.79203 412.00804 434.66404 448.15205 463.63206 477.43208 492.14408 504.98408 512.6401 528.12008 541.03207 551.856 565.656 574.104 587.952 601.752 624.408 637.24807 650.0881 658.5361 672.33609 680.78408 696.00009 708.8401">regulation of the numbers of human beings to meet the </tspan></text>
<text fill="#d94a4a" xml:space="preserve" transform="matrix(.75 0 0 .75 90.36614 21.578742)" font-size="24" font-family="DroidSerif"><tspan y="467.04" x="9 24.480002 37.32 50.16 64.872 75.696 89.472 104.952 118.8 127.248 141.024 148.2 163.416 174.24 182.688 196.464 210.31201 219.16802 232.94402 240.60002 256.08003 270.79203 278.44804 292.34403 300.00004 314.71205 329.92805 343.41606 350.85606 364.63206 373.48805 386.97605 409.63206 417.28807 424.72807 432.38407 445.22407 456.04808 462.04808 475.82408 490.53608 505.75209 514.2001 527.9761 541.8241 550.6801 564.4561 575.2801 589.1281 600.9361 608.5921 621.4321 629.8801 643.41616 657.19216 670.6801 681.5041 695.2801 708.76809">needs not just of individual families, but of society as a </tspan></text>
<text fill="#d94a4a" xml:space="preserve" transform="matrix(.75 0 0 .75 90.36614 21.578742)" font-size="24" font-family="DroidSerif"><tspan y="496.04" x="9 29.664002 44.88 58.728 66.168 79.007999 85.871997">whole. </tspan></text>
</g>
</g>
</g>
</svg>
