<?xml version="1.0" encoding="UTF-8" standalone="no"?>
<!DOCTYPE svg PUBLIC "-//W3C//DTD SVG 1.1//EN" "http://www.w3.org/Graphics/SVG/1.1/DTD/svg11.dtd">
<svg xmlns="http://www.w3.org/2000/svg" xmlns:xlink="http://www.w3.org/1999/xlink" version="1.1" width="720pt" height="405pt" viewBox="0 0 720 405">
<g enable-background="new">
<g>
<clipPath id="cp77">
<path transform="matrix(.001968504,0,0,.001968504,0,0)" d="M 0 0 L 365760 0 L 365760 205740 L 0 205740 L 0 0 Z "/>
</clipPath>
<g clip-path="url(#cp77)">
<path transform="matrix(.001968504,0,0,.001968504,0,0)" d="M 0 0 L 365568 0 L 365568 205740 L 0 205740 Z " fill-rule="evenodd"/>
<path transform="matrix(.001968504,0,0,.001968504,0,0)" d="M 45906 10962 L 319662 10962 L 319662 194778 L 45906 194778 Z " fill-opacity="0" fill-rule="evenodd"/>
<text fill="#d94a4a" xml:space="preserve" transform="matrix(.75 0 0 .75 90.36614 21.578742)" font-size="24" font-family="DroidSerif"><tspan y="32.04" x="9 19.8 38.112 51.96 60.408 75.624 83.28 98.76 111.672008 119.23201 131.04001 144.88802 160.10402 167.54402 182.25603 189.81603 204.52803 217.36803 224.92803 247.58403 261.43205 272.73603 285.57603 293.13603 315.79203 323.44804 334.27204 341.71205 354.55204 368.04005 382.75205 390.40806 405.88807 418.80006 426.36006 434.80805 448.65605 456.21604 470.06404 485.28004 496.58406 504.14405 515.952 531.168 538.82406 546.26406 560.976 572.28 585.12008 600.60006 608.16006 616.60806 631.82406 645.312 660.792 668.352 682.2 697.416 708.72006">&#x201c;Nothing could be more misleading to our children than our </tspan></text>
<text fill="#d94a4a" xml:space="preserve" transform="matrix(.75 0 0 .75 90.36614 21.578742)" font-size="24" font-family="DroidSerif"><tspan y="61.04" x="9 23.712002 35.016004 47.856004 58.680006 71.520008 87.00001 95.448009 104.40001 117.88801 126.74401 135.6 143.04001 158.25601 171.09601 186.576 195.024 203.97602 214.80002 228.64803 240.45603 248.11203 260.95204 269.40003 280.80006 287.66407 296.61607 311.30406 326.52006 339.36006 352.89607 361.84806 382.51206 390.16807 397.60807 405.04808 414.00007 421.65608 437.13609 452.35209 465.19209 476.4961 484.1521 492.6001 501.5521 515.0401 523.9921 532.4401 546.28817 554.73617 568.2241 575.6641 583.1041 596.64016 605.59219 620.30416 627.96017 636.81619 645.6722 658.5122 669.8162 682.65628 698.1362 706.5842">present affluent society. They will inherit a totally different </tspan></text>
<text fill="#d94a4a" xml:space="preserve" transform="matrix(.75 0 0 .75 90.36614 21.578742)" font-size="24" font-family="DroidSerif"><tspan y="90.04" x="9 29.664002 43.512 54.816 62.256 76.968 82.968 104.06401 117.55201 138.64801 159.31201 173.16002 184.46402 191.90402 206.61603 227.71204 235.36804 250.84804 271.94404 292.60804 307.82405 315.48005 327.28807 342.50407 363.60008 372.04808 387.26408 400.10408 421.20008 432.02409 440.47209 453.96009 469.4401 484.1521 497.6401 508.9441 523.65609 534.48007 540.48007 561.57608 576.288 590.13607 597.57608 605.23208 613.68008 621.33609 633.14407 643.968 665.064 678.552 694.032 708.74398">world, a world in which the standards, politics and </tspan></text>
<text fill="#d94a4a" xml:space="preserve" transform="matrix(.75 0 0 .75 90.36614 21.578742)" font-size="24" font-family="DroidSerif"><tspan y="119.04" x="9 21.84 33.648004 47.496004 62.976007 76.824008 99.48001 107.13601 118.94401 129.768 148.848 162.69602 171.55202 190.63202 199.08002 214.29602 227.13602 246.21602 260.928 274.41603 285.24003 293.68803 312.76805 327.48005 340.32005 352.12806 365.61607 380.32807 393.16807 412.24809 425.73609 437.0401 449.8801 468.9601 483.67213 496.51213 510.00013 524.7121 531.5761 550.6561 567.5761 578.4001 597.4801 605.9281 621.1441 633.98416 653.06417 675.72018 689.5682 700.39218 708.84017">economics of the past decade are dead. As the most </tspan></text>
<text fill="#d94a4a" xml:space="preserve" transform="matrix(.75 0 0 .75 90.36614 21.578742)" font-size="24" font-family="DroidSerif"><tspan y="148.04" x="9 16.656 32.136 40.992006 48.432004 63.648004 76.48801 91.96801 100.41601 108.07201 121.560009 129 148.992 164.472 177.96 186.408 194.06401 207.91202 223.39202 243.38402 251.04003 266.52003 286.51203 294.96003 310.17604 323.01603 343.00804 363.67204 377.52003 388.82405 396.26405 410.97605 430.96806 439.41606 453.26405 467.97605 480.98405 492.38407 498.38407 518.3761 531.8641 547.34408 562.056 582.04806 589.70407 598.15206 608.976 628.968 636.408 649.896 661.2 674.112 686.952 697.776 706.224">influential nation in the world today, and its largest </tspan></text>
<text fill="#d94a4a" xml:space="preserve" transform="matrix(.75 0 0 .75 90.36614 21.578742)" font-size="24" font-family="DroidSerif"><tspan y="177.04" x="9 20.808 34.656003 50.136 60.960004 76.176 98.832 111.672 122.976 128.976 139.824 148.272 163.488 176.328 187.17601 204.36002 219.84001 227.49602 235.94402 248.78401 263.496 274.344 287.376 295.824 309.312 317.76 330.6 341.424 352.272 364.08003 377.56803 393.04804 408.52806 422.37605 430.82405 441.67204 452.49604 460.94404 474.43205 489.91206 504.62406 515.47207 523.12808 533.952 547.80007 555.24008 568.728 577.176 590.01608 604.728 611.59207 622.44009 646.10409 658.9441 669.7921 683.2801 694.5841 707.42416">consumer, the United States cannot stand isolated. We are </tspan></text>
<text fill="#d94a4a" xml:space="preserve" transform="matrix(.75 0 0 .75 90.36614 21.578742)" font-size="24" font-family="DroidSerif"><tspan y="206.04" x="9 17.448002 31.296002 46.008005 59.016004 72.552 93.88801 101.54401 117.02401 130.92002 144.76802 152.20803 166.10402 178.94402 193.65602 214.99202 222.64803 238.12802 259.46403 267.91203 283.12803 295.96803 317.30403 330.144 344.04 356.88 372.36003 380.808 391.63203 412.96803 420.40803 433.24803 446.73603 461.44804 469.10404 484.58406 497.49604 518.83206 527.28 541.12808 562.46408 571.32009 584.80807 607.46408 615.12008 630.60006 643.44009 664.77609 678.26406 693.744 708.456">today involved in the events leading to famine and </tspan></text>
<text fill="#d94a4a" xml:space="preserve" transform="matrix(.75 0 0 .75 90.36614 21.578742)" font-size="24" font-family="DroidSerif"><tspan y="235.04" x="9 21.84 33.648004 47.496004 59.304 72.792 81.24 94.728 105.552 114 125.304 139.15201 153.86402 169.08002 181.92002 187.92002 194.13602 202.58402 216.43202 239.08803 252.93604 264.24006 275.54408 289.39207 310.05607 316.27207 336.93608 349.77607 355.99208 378.64808 391.65608 405.19209 411.40809 426.1201 438.96009 445.1761 459.8881 472.7281 483.5521 492.0001 503.30409 516.6721 530.2081 543.04818 557.76016 563.97616 578.2081 591.74417 597.96017 606.40817 621.62417 634.4642 657.1202 663.9842 674.7842">ecocatastrophe; tomorrow we may be destroyed by them.&#x201d; </tspan></text>
<text fill="#d94a4a" xml:space="preserve" transform="matrix(.75 0 0 .75 90.36614 21.578742)" font-size="24" font-family="DroidSerif"><tspan y="293.04" x="9 33 39.216 53.711999 67.2 82.416 89.856 96.07201 111.02401 126.240009 137.544 144.98401 152.64002 164.44802 179.66402 185.88002 194.18402 207.60002 221.01602 234.43202 247.84803">&#x2014; Paul Ehrlich (1968)</tspan></text>
</g>
</g>
</g>
</svg>
