<?xml version="1.0" encoding="UTF-8" standalone="no"?>
<!DOCTYPE svg PUBLIC "-//W3C//DTD SVG 1.1//EN" "http://www.w3.org/Graphics/SVG/1.1/DTD/svg11.dtd">
<svg xmlns="http://www.w3.org/2000/svg" xmlns:xlink="http://www.w3.org/1999/xlink" version="1.1" width="720pt" height="405pt" viewBox="0 0 720 405">
<g enable-background="new">
<g>
<clipPath id="cp78">
<path transform="matrix(.001968504,0,0,.001968504,0,0)" d="M 0 0 L 365760 0 L 365760 205740 L 0 205740 L 0 0 Z "/>
</clipPath>
<g clip-path="url(#cp78)">
<path transform="matrix(.001968504,0,0,.001968504,0,0)" d="M 0 0 L 365568 0 L 365568 205740 L 0 205740 Z " fill-rule="evenodd"/>
<path transform="matrix(.001968504,0,0,.001968504,0,0)" d="M 16780 10962 L 345820 10962 L 345820 194778 L 16780 194778 Z " fill-opacity="0" fill-rule="evenodd"/>
<text fill="#d93535" xml:space="preserve" transform="matrix(.75 0 0 .75 33.031499 21.578742)" font-size="32" font-family="DroidSerif"><tspan y="39.72" x="9 29.896002 50.184003 61.448 72.808 90.792 105.224 116.584 144.136 161.256 172.616 190.6 210.216 229.832 244.904 263.368 281.35203 297.096 317.384 334.504 354.12 365.47999 376.744 397.03199 414.15199 425.51197 443.39997 461.28797 479.17597 497.06398 511.49598 519.496 530.856 542.12 562.408 579.528 590.88809 602.15206 622.44009 637.5121 654.6321 672.6161 683.88009 695.2401 713.7041 725.5121 736.87216 757.51217 777.8002 793.5442 803.4642 820.58419 838.5682 853.6402">But as we approached the 1980s, the threat of nuclear </tspan></text>
<text fill="#d93535" xml:space="preserve" transform="matrix(.75 0 0 .75 33.031499 21.578742)" font-size="32" font-family="DroidSerif"><tspan y="77.72" x="9 36.552003 54.536005 69.608 77.896 97.51201 114.63201 131.848 149.832 170.472 178.76 190.024 208.488 216.776 226.696 245.16 263.624 293.832 302.12 312.04 330.02403 345.096 362.312 379.432 394.504 402.792 420.776 437.992 455.976 466.18403 486.82405">war began to loom larger again.</tspan></text>
<text fill="#d93535" xml:space="preserve" transform="matrix(.75 0 0 .75 33.031499 21.578742)" font-size="32" font-family="DroidSerif"><tspan y="153.72" x="9 32.744005 53.384004 65.51201 88.77601 105.89601 121.640018 138.76001 168.96802 188.58402 205.70401 220.77602 232.904 250.792 268.68 276.68 288.80799 306.69599 324.58399 342.472 360.36 368.36 380.48799 404.904 425.54399 444.48799 468.23197 480.35997 498.34397 518.98397 539.62399 558.08798 578.376 599.016 614.76 631.88 651.49606 663.6241 683.2401 693.1601 711.1441 731.7841 746.2161 758.3442 769.60818 788.07217 800.2002 819.8162 840.10427 851.3682">On December 12, 1979, NATO announced plans to put </tspan></text>
<text fill="#d93535" xml:space="preserve" transform="matrix(.75 0 0 .75 33.031499 21.578742)" font-size="32" font-family="DroidSerif"><tspan y="191.72" x="9 28.328001 45.448 60.520006 74.952 95.240009 105.448009 126.088008 143.304 153.54399 165.288 177.032 187.27199 207.91199 228.19998 243.94399 253.86399 270.98399 288.968 304.03999 314.27998 344.48799 354.69599 369.128 383.56 393.768 403.68803 420.808 435.24003 445.48 455.68803 476.32804 486.56803 518.12008 535.24008 549.67208 560.93606 571.1761 593.99209 611.11209 626.1841 656.3921 674.3761 694.3761 709.57608 717.57608 727.8161 746.2801 766.9201 776.8401 794.88809 805.1281 819.5601 829.7681 848.2641">Pershing II nuclear missiles in West Germany, only six </tspan></text>
<text fill="#d93535" xml:space="preserve" transform="matrix(.75 0 0 .75 33.031499 21.578742)" font-size="32" font-family="DroidSerif"><tspan y="229.72" x="9 39.208 49.416 70.056 90.344 101.608 118.728008 133.16 141.448 153.256 163.176 173.384 190.6 210.888 222.15201 230.44 242.248 257.32 275.784 305.992 314.28 344.264 362.728 377.16 392.904 411.36799 436.71199">minutes flight from Moscow.</tspan></text>
<text fill="#d93535" xml:space="preserve" transform="matrix(.75 0 0 .75 33.031499 21.578742)" font-size="32" font-family="DroidSerif"><tspan y="305.72" x="9 29 49.288003 64.36 74.568 83.848 106.408008 127.048007 146.664 161.73601 180.20001 199.81601 218.28002 235.24002 243.24002 252.52002 263.78404 284.07203 301.19203 321.83204 331.11204 350.72804 371.01603 389.00004 399.20805 414.28004 444.48805 462.47206 483.11207 492.39207 510.85606 522.66409 531.9441 543.20809 563.4961 580.6161 589.8961 611.6561 634.4721 655.3681 663.3681 672.64816 688.39218 698.31216 716.29617 726.50418 756.71218 773.83218 793.4482 802.7282 813.9922 834.2802 851.4002">Yuri Andropov, then Chairman of the KGB, claimed the </tspan></text>
<text fill="#d93535" xml:space="preserve" transform="matrix(.75 0 0 .75 33.031499 21.578742)" font-size="32" font-family="DroidSerif"><tspan y="343.72" x="9 31.912 49.288003 72.616008 100.16801 118.15201 132.58402 155.91202 170.31201 188.29602 204.04003 215.30403 225.51203 244.04003 261.16004 271.08006 289.12806 312.45606 332.07206 347.14405 364.26405 383.88005 401.86405 416.93605 427.14405 447.78407 465.00007 488.32807 500.13609 518.6001 533.6721 557.0001 577.64016 597.92819 613.6722 623.59219 640.71218 658.69619 673.7682 697.0962 724.6482 742.6322 758.6322 773.0322 796.3602 814.34426 834.98428 854.6003">US was &#x201c;actively preparing for nuclear war&#x201d; and </tspan></text>
<text fill="#d93535" xml:space="preserve" transform="matrix(.75 0 0 .75 33.031499 21.578742)" font-size="32" font-family="DroidSerif"><tspan y="381.72" x="9 27.464 42.536005 62.152006 79.272 94.344 111.464008 131.08 147.624 162.056 181.672 191.88 209 223.432 239.976 251.24 269.704 286.24803 300.648 319.112 334.184 351.4 369.384 390.02403 400.23204 416.584 433.704 450.24803 468.23204 484.77604 500.52003 518.984 539.624 550.888 561.096 581.736 602.02407 620.00808 629.92807 646.47207 674.02407 692.00808 703.27206 719.01608 739.3041">ordered spies to &#x201c;organize a continual watch </tspan></text>
<text fill="#d93535" xml:space="preserve" transform="matrix(.75 0 0 .75 33.031499 21.578742)" font-size="32" font-family="TimesNewRomanPSMT"><tspan y="381.72" x="756.5509">&#x2026;</tspan></text>
<text fill="#d93535" xml:space="preserve" transform="matrix(.75 0 0 .75 33.031499 21.578742)" font-size="32" font-family="DroidSerif"><tspan y="381.72" x="788.5509 805.0949 816.9029 835.3669 850.4389"> for </tspan></text>
<text fill="#d93535" xml:space="preserve" transform="matrix(.75 0 0 .75 33.031499 21.578742)" font-size="32" font-family="DroidSerif"><tspan y="419.72" x="9 19.208 39.848 59.464 69.672 85.416 103.4 114.664 124.872 143.336 163.976 178.408 194.888 213.352 225.16 241.64 259.624 276.10398 295.71998 312.83998 328.58396 338.79197 353.22398 363.43199 381.89598 402.53599 419.01597 438.63197 455.75196 465.95997 486.59999 503.81599 520.296 531.56 549.544 567.592 584.712 605.352 621.83206 633.096 651.56 668.04006 688.32809 702.7601 719.88009 736.3601 757.0001 777.28817 793.03219 802.95217 820.07217 838.05618 853.1282">indications of a decision being taken to use nuclear </tspan></text>
<text fill="#d93535" xml:space="preserve" transform="matrix(.75 0 0 .75 33.031499 21.578742)" font-size="32" font-family="DroidSerif"><tspan y="457.72" x="9 36.552003 53.672006 71.656009 91.272 109.73601 130.376 144.80802 153.09601 171.08002 188.29602 206.28003 216.48804 237.12804 251.56005 262.82405 271.11204 282.37605 302.66404 319.78404 328.07203 350.984 368.36003 385.73603 406.696 415.84803">weapons against the USSR.&#x201d;</tspan></text>
</g>
</g>
</g>
</svg>
