<?xml version="1.0" encoding="UTF-8" standalone="no"?>
<!DOCTYPE svg PUBLIC "-//W3C//DTD SVG 1.1//EN" "http://www.w3.org/Graphics/SVG/1.1/DTD/svg11.dtd">
<svg xmlns="http://www.w3.org/2000/svg" xmlns:xlink="http://www.w3.org/1999/xlink" version="1.1" width="720pt" height="405pt" viewBox="0 0 720 405">
<g enable-background="new">
<g>
<clipPath id="cp79">
<path transform="matrix(.001968504,0,0,.001968504,0,0)" d="M 0 0 L 365760 0 L 365760 205740 L 0 205740 L 0 0 Z "/>
</clipPath>
<g clip-path="url(#cp79)">
<path transform="matrix(.001968504,0,0,.001968504,0,0)" d="M 0 0 L 365568 0 L 365568 205740 L 0 205740 Z " fill-rule="evenodd"/>
<path transform="matrix(.001968504,0,0,.001968504,0,0)" d="M 16780 10962 L 345820 10962 L 345820 194778 L 16780 194778 Z " fill-opacity="0" fill-rule="evenodd"/>
<text fill="#d93535" xml:space="preserve" transform="matrix(.75 0 0 .75 33.031499 21.578742)" font-size="32" font-family="DroidSerif"><tspan y="39.72" x="9 20.744 41.384004 61.544008 79.43201 97.32001 115.20801 133.09601 141.09601 161.256 185.672 206.312 225.256 249 269.16 287.144 297.35203 312.424 332.584 344.39204 362.85603 377.928 393.672 410.792 425.224 445.384 465 482.12 499.336 517.32 537.96 558.12008 588.32809 606.3121 625.00009 635.20809 655.8481 673.0641 693.2241 707.6561 727.94418 742.37619 761.9922 772.2002 787.9442 798.1522 816.6162 836.90426 851.33627">In 1981, NATO air forces began making suspicious </tspan></text>
<text fill="#d93535" xml:space="preserve" transform="matrix(.75 0 0 .75 33.031499 21.578742)" font-size="32" font-family="DroidSerif"><tspan y="77.72" x="9 39.208 57.192 77.832 94.952 115.240009 133.768 150.888 165.96 180.39202 188.68001 198.24802 218.53601 232.96802 244.23203 252.52002 270.984 291.272 302.536 316.96803 327.17604 346.79203 363.91203 372.2 390.664 402.47203 410.76 428.13603 446.6 465.12803 475.33604 492.45603 503.72004 512.00808 529.99209 540.2001 555.2721 569.7041 589.3201 607.30416 623.04818 640.16818">maneuvers just outside of Soviet airspace.</tspan></text>
<text fill="#d93535" xml:space="preserve" transform="matrix(.75 0 0 .75 33.031499 21.578742)" font-size="32" font-family="DroidSerif"><tspan y="153.72" x="9 23.400002 42.984 63.272005 80.392009 98.44 106.728008 126.34401 136.552 156.168 175.528 182.568 193.832 202.12 220.808 241.448 259.912 287.464 295.75199 323.304 343.59199 361.576 372.84 381.128 391.336 402.6 410.888 428.872 438.79203 448.71205 457.00004 487.20805 504.32804 522.312 542.952 554.216 563.368 571.656 594.216 602.504 616.93606 636.55209 656.8401 674.8241 694.4401 709.51217 727.97616 748.61618">&#x201c;They didn't know what it all meant. A squadron </tspan></text>
<text fill="#d93535" xml:space="preserve" transform="matrix(.75 0 0 .75 33.031499 21.578742)" font-size="32" font-family="DroidSerif"><tspan y="153.72" x="757.7031 785.2551 803.7191 824.00717 833.9271 853.54318">would </tspan></text>
<text fill="#d93535" xml:space="preserve" transform="matrix(.75 0 0 .75 33.031499 21.578742)" font-size="32" font-family="DroidSerif"><tspan y="191.72" x="9 20.808 30.728 48.776 60.328004 74.76 86.024 100.456 118.44 128.64801 145.86402 166.15201 177.41602 188.96802 206.95203 218.21604 229.76804 247.14405 265.60804 284.13606 294.34407 311.46406 322.72807 334.28007 352.26408 362.47209 377.54408 391.97608 411.59208 429.57609 445.32008 462.44007 470.44007 481.99208 499.97608 520.6161 540.2321 551.7841 570.2481 581.5121 601.8001 618.9201 633.9921 645.5441 659.97616 677.96017 697.5762 715.5602 730.6322 745.0642 756.6162 784.1682 802.6322 822.9202 832.8402 852.45626">fly straight at Soviet airspace, and other radars would </tspan></text>
<text fill="#d93535" xml:space="preserve" transform="matrix(.75 0 0 .75 33.031499 21.578742)" font-size="32" font-family="DroidSerif"><tspan y="229.72" x="9 18.92 29.128 46.344 66.632 77.896 90.66401 110.95201 130.56801 143.336 161.32 181.96 201.576 214.344 234.63199 255.27199 265.47999 276.744 291.176 303.944 331.496 349.96 370.248 380.168 399.784 412.552 429.768 448.232 461 479.464 500.104 512.872 530.856 540.776 557.896 572.968 584.232 593.384 606.152 625.73599 646.024 663.144 683.784 696.552 714.536 725.8 738.568 749.832 770.12 787.24 800.008 809.928 827.912 842.344 853.608">light up and units would go on alert. Then at the last </tspan></text>
<text fill="#d93535" xml:space="preserve" transform="matrix(.75 0 0 .75 33.031499 21.578742)" font-size="32" font-family="DroidSerif"><tspan y="267.72" x="9 39.208 49.416 70.056 90.344 101.608 118.728008 127.01601 138.28002 158.56801 175.688 183.976 198.408 218.024 238.312 256.296 275.912 290.98399 309.44798 330.08799 338.37599 365.92799 384.39198 404.67997 414.59999 434.21598 442.50398 462.11997 479.23997 496.35997 506.27998 514.568 533.032 544.83999 556.64797 564.936 582.92 603.56 623.176 631.46408 646.5361 663.65609 674.92007 695.20809 710.2801 730.9201 739.2081 759.49618 777.96017 808.16818 825.28817 834.4401">minute the squadron would peel off and return home.&#x201d;</tspan></text>
<text fill="#d93535" xml:space="preserve" transform="matrix(.75 0 0 .75 33.031499 21.578742)" font-size="32" font-family="DroidSerif"><tspan y="343.72" x="9 18.92 28.84 45.864 79.336 89.544 99.464 109.383998 119.591999 137.57599 167.784 184.80799 202.18399 217.928 238.21599 258.856 275.97599 286.184 305.8 322.91999 337.99198 345.99198 363.01597 385.92796 403.30397 420.32795 440.61595 461.25596 480.87196 497.99195 513.06399 527.496 544.61599 560.36 575.432 592.552 603.816 621.8 636.872 654.92 671.94406 690.408 702.216 719.24008 733.67208 744.93606 762.92007 774.184 791.304 808.32809 820.13607 838.60006 853.67208">-- William Schneider, US undersecretary of state for </tspan></text>
<text fill="#d93535" xml:space="preserve" transform="matrix(.75 0 0 .75 33.031499 21.578742)" font-size="32" font-family="DroidSerif"><tspan y="381.72" x="9 39.208 49.416 59.336 69.544 80.808 98.792 113.864 131.912 140.2 158.18399 172.616 187.048 197.25601 211.68802 222.95203 240.93604 261.57606 277.32005 294.44004">military assistance </tspan></text>
</g>
</g>
</g>
</svg>
