<?xml version="1.0" encoding="UTF-8" standalone="no"?>
<!DOCTYPE svg PUBLIC "-//W3C//DTD SVG 1.1//EN" "http://www.w3.org/Graphics/SVG/1.1/DTD/svg11.dtd">
<svg xmlns="http://www.w3.org/2000/svg" xmlns:xlink="http://www.w3.org/1999/xlink" version="1.1" width="720pt" height="405pt" viewBox="0 0 720 405">
<g enable-background="new">
<g>
<clipPath id="cp80">
<path transform="matrix(.001968504,0,0,.001968504,0,0)" d="M 0 0 L 365760 0 L 365760 205740 L 0 205740 L 0 0 Z "/>
</clipPath>
<g clip-path="url(#cp80)">
<path transform="matrix(.001968504,0,0,.001968504,0,0)" d="M 0 0 L 365568 0 L 365568 205740 L 0 205740 Z " fill-rule="evenodd"/>
<path transform="matrix(.001968504,0,0,.001968504,0,0)" d="M 16780 10962 L 345820 10962 L 345820 194778 L 16780 194778 Z " fill-opacity="0" fill-rule="evenodd"/>
<text fill="#d93535" xml:space="preserve" transform="matrix(.75 0 0 .75 33.031499 21.578742)" font-size="32" font-family="DroidSerif"><tspan y="39.72" x="9 32.744005 53.384004 63.976007 81.352008 98.47201 118.08801 129.35202 146.47202 176.68003 196.29602 213.41602 228.48802 239.08002 256.96803 271.40003 282.66404 290.66404 301.256 319.144 337.032 354.92 372.808 380.808 391.4 409.384 419.97599 439.59199 457.576 472.008 486.44 503.56 524.2 541.416 558.536 573.60806 584.2001 602.1841 612.3921 627.4641 647.08016 657.0001 674.98416 695.62417 712.74417 723.3362 740.4562 761.0962 771.68826 786.76028 805.22427 825.51229 836.77627 853.89627">On September 1st, 1983, a passenger airplane en route </tspan></text>
<text fill="#d93535" xml:space="preserve" transform="matrix(.75 0 0 .75 33.031499 21.578742)" font-size="32" font-family="DroidSerif"><tspan y="77.72" x="9 20.808 35.88 54.344 84.552 98.536 121.09601 141.73601 157.48001 177.768 196.23201 210.66402 228.64801 245.86402 262.984 276.96803 288.23204 306.696 320.68003 338.05604 355.17604 373.64 393.928 403.84803 417.80003 437.41603 455.40003 469.83204 484.26405 501.38404 521.00009 534.9521 553.4161 571.9441 589.0641 604.1361 618.1201 635.4961 653.9601 672.4881 682.6961 699.8161 711.0801 725.0321 743.0161 753.2241 768.29617 782.72817 802.3442 820.3282 836.0722 853.1922">from Anchorage to Seoul passed over Soviet airspace </tspan></text>
<text fill="#d93535" xml:space="preserve" transform="matrix(.75 0 0 .75 33.031499 21.578742)" font-size="32" font-family="DroidSerif"><tspan y="115.72" x="9 26.984002 47.624 67.240009 75.52801 103.08001 121.06401 135.49602 143.78401 158.21602 178.50402 196.96802 208.23203 216.52002 236.13602 254.60002 282.15205 302.79206">and was shot down.</tspan></text>
<text fill="#d93535" xml:space="preserve" transform="matrix(.75 0 0 .75 33.031499 21.578742)" font-size="32" font-family="DroidSerif"><tspan y="191.72" x="9 28.584002 48.872 65.992008 86.632 120.87201 143.78401 152.936 170.31201 179.46402 213.70401 233.03202 248.10402 265.22404 279.65605 289.86405 309.48005 326.60005 347.24006 358.50407 392.74406 413.70405 432.16804 452.80805 470.79206 480.71208 500.32807 534.56808 555.5281 572.6481 590.6321 607.8481 625.8321 646.4721 680.71218 696.4562 714.4402 724.36019 734.28018 751.40017 771.0162 805.2562 816.5202 836.8082 853.9282">Then U.S. President Ronald Reagan called the </tspan></text>
<text fill="#d93535" xml:space="preserve" transform="matrix(.75 0 0 .75 33.031499 21.578742)" font-size="32" font-family="DroidSerif"><tspan y="229.72" x="9 28.616002 45.736 60.168 71.432 86.504 106.792 122.536 133.8 144.008 162.472 183.112 205 222.98401 244.87201 259.272 275.016 290.08799 300.296 330.504 347.624 369.512 387.496 404.712 422.696 432.90403 453.54405 467.97605 479.24006 501.12806 521.4161 541.7041 571.9121 589.8961 610.53616 620.74417 632.0081 650.0561 671.9441 683.4001 694.66409 714.9521 732.9361 744.2001 755.68807 777.57608 807.78408 828.0721 842.5041 853.76809">destruction a &#x201c;crime against humanity [that] must </tspan></text>
<text fill="#d93535" xml:space="preserve" transform="matrix(.75 0 0 .75 33.031499 21.578742)" font-size="32" font-family="DroidSerif"><tspan y="267.72" x="9 29.640002 46.760004 65.288 82.408008 97.48 109.96001 129.576 146.696 159.176 170.984 189.448 204.52 221.73601 240.20001 251.46402 262.72804 279.84803 300.48805 308.48805 322.88804 335.368 353.35203 365.832 380.232 398.76 408.96803 427.432 437.35203 455.33604 466.60005 476.80805 495.27204 515.91207 528.3921 539.8481 558.3121 572.9681 584.45608 596.9361 614.0561 632.5841 649.7041 664.7761 682.8241 695.30416 711.04818 729.51217 750.15219 765.8962 783.0162 802.6322 813.8962 826.3762 844.8402 856.6482">never be forgotten,&#x201d; a &#x201c;violation [of] every concept of </tspan></text>
<text fill="#d93535" xml:space="preserve" transform="matrix(.75 0 0 .75 33.031499 21.578742)" font-size="32" font-family="DroidSerif"><tspan y="305.72" x="9 29.288 49.576 79.784008 97.768009 118.408008 147.36801 162.44002 172.64801 189.86402 210.15201 221.41602 235.84803 243.84803 258.24803 287.208 305.19203 325.83204 345.44804 374.40803 392.39204 413.03205 441.99205 459.97605 475.72004 486.98405 515.94406 543.49606 553.70407 564.968 585.25607 614.21609 628.6161 646.6001 666.2161 680.64816 699.1121 709.0321 729.3201 740.5841 757.7041 767.6241 785.67208 814.6321 835.2721 853.7361">human rights,&#x201d; and an act with &#x201c;absolutely no </tspan></text>
<text fill="#d93535" xml:space="preserve" transform="matrix(.75 0 0 .75 33.031499 21.578742)" font-size="32" font-family="DroidSerif"><tspan y="343.72" x="9 18.568 38.856004 53.288003 64.552 74.76 86.568 96.776 112.520008 130.504 141.768 151.97602 170.44002 191.08002 199.08002 207.36801 224.488 234.69602 245.96002 266.24803 283.368 298.44 306.728 316.648 333.768 350.984 368.96803 378.88804 387.17604 405.64 420.712 429 459.208 477.672 492.10398 510.08799 520.008 534.408">justification, either legal or moral&#x201d;.</tspan></text>
<text fill="#d93535" xml:space="preserve" transform="matrix(.75 0 0 .75 33.031499 21.578742)" font-size="32" font-family="DroidSerif"><tspan y="419.72" x="9 26.376002 44.840005 63.368005 73.576007 90.69601 101.96001 112.07201 130.056 150.696 168.68 178.59999 196.648 211.08 222.34401 236.77602 246.88802 261.32 279.30403 306.85603 316.96803 328.23204 348.52003 358.72804 373.16004 383.27204 401.25605 415.68806 425.80006 440.87205 461.16004 478.28004 489.54405 508.00804 523.08 533.288 549.03207 567.01608 576.93606 587.04806 606.66409 621.7361 638.8561 658.4721 676.4561 690.8881 708.87216 720.1361 730.3441 748.8081 769.4481 779.5601 791.3681 809.8321 824.9041 835.0161 853.0001">Soviet analysts saw this as rhetorical preparation for a </tspan></text>
<text fill="#d93535" xml:space="preserve" transform="matrix(.75 0 0 .75 33.031499 21.578742)" font-size="32" font-family="DroidSerif"><tspan y="457.72" x="9 29.640002 49.928 65.672008 75.592 92.712009 110.69601 125.768009 134.056 145.864 156.07199 171.144 185.576 196.84001 205.128 219.56002 230.82402 245.89603 256.10404 274.152 291.272">nuclear first strike.</tspan></text>
</g>
</g>
</g>
</svg>
