<?xml version="1.0" encoding="UTF-8" standalone="no"?>
<!DOCTYPE svg PUBLIC "-//W3C//DTD SVG 1.1//EN" "http://www.w3.org/Graphics/SVG/1.1/DTD/svg11.dtd">
<svg xmlns="http://www.w3.org/2000/svg" xmlns:xlink="http://www.w3.org/1999/xlink" version="1.1" width="720pt" height="405pt" viewBox="0 0 720 405">
<g enable-background="new">
<g>
<clipPath id="cp81">
<path transform="matrix(.001968504,0,0,.001968504,0,0)" d="M 0 0 L 365760 0 L 365760 205740 L 0 205740 L 0 0 Z "/>
</clipPath>
<g clip-path="url(#cp81)">
<path transform="matrix(.001968504,0,0,.001968504,0,0)" d="M 0 0 L 365568 0 L 365568 205740 L 0 205740 Z " fill-rule="evenodd"/>
<path transform="matrix(.001968504,0,0,.001968504,0,0)" d="M 45906 10962 L 319662 10962 L 319662 194778 L 45906 194778 Z " fill-opacity="0" fill-rule="evenodd"/>
<text fill="#d92020" xml:space="preserve" transform="matrix(.75 0 0 .75 90.36614 21.578742)" font-size="32" font-family="DroidSerif"><tspan y="153.72" x="9 40.552003 57.672006 76.80801 97.448009 115.912 143.464 162.6 177.67201 194.792 212.776 228.52 248.808 267.944 279.208 299.496 316.616 335.75199 356.03999 366.248 380.68 391.944 410.408 425.47999 435.688 451.43199 469.416 479.336 498.472 515.592 534.12 551.24 571.88 583.144 602.28 613.544 633.83206 651.81607 663.08 682.21609 692.4241 706.8561">We now reach the historical event that is </tspan></text>
<text fill="#d92020" xml:space="preserve" transform="matrix(.75 0 0 .75 90.36614 21.578742)" font-size="32" font-family="DroidSerif"><tspan y="191.72" x="9 20.264 38.728 58.344 75.688 93.73601 100.16801 114.600009 134.856 155.496 173.48001 203.68802 220.80802 235.24002 253.22403 271.272 288.392 297.576 317.83198 329.09599 349.38398 366.50398 386.75996 406.08796 423.20796 434.47196 449.54396 468.00794 486.53596 506.79194 516.99996 537.63998 553.384 563.592 583.208 600.328 620.968 632.232 641.384 661.64 685.38406 706.02407">today&#x2019;s namesake: the Petrov incident. On </tspan></text>
<text fill="#d92020" xml:space="preserve" transform="matrix(.75 0 0 .75 90.36614 21.578742)" font-size="32" font-family="DroidSerif"><tspan y="229.72" x="9 26.376002 43.496004 63.112005 74.37601 91.49601 121.70401 141.32 158.44 173.51201 184.392 202.28 220.168 228.168 239.04799 256.93598 274.82398 292.71199 310.59999 318.59999 329.47999 346.856 358.12 376.104 396.74403 406.95204 421.38404 431.30406 449.28807 467.81608 478.69609 498.02409 515.1441 526.4081 541.4801 559.9441 578.4721 589.3521 616.9041 634.8881 649.3201 660.20016 671.4641 691.75216 708.87216">September 26, 1983, Stanislav Petrov was the </tspan></text>
<text fill="#d92020" xml:space="preserve" transform="matrix(.75 0 0 .75 90.36614 21.578742)" font-size="32" font-family="DroidSerif"><tspan y="267.72" x="9 28.616002 48.904 60.168 78.216 87.816 106.28 118.088 129.896 140.104 155.848 172.968 188.04001 197.64 215.624 226.888 236.48799 247.752 268.04 285.16 294.76 318.504 336.55198 355.01597 364.61598 385.25599 405.54399 421.28797 431.20799 448.32798 466.31199 481.38398 490.98399 508.10398 526.08798 541.16 551.07998 569.1279 578.72799 606.27999 624.264 639.336 659.976 670.184 690.82406 708.04006">duty officer at the Oko nuclear early warning </tspan></text>
<text fill="#d92020" xml:space="preserve" transform="matrix(.75 0 0 .75 90.36614 21.578742)" font-size="32" font-family="DroidSerif"><tspan y="305.72" x="9 23.432002 41.480005 55.912004 67.176 84.296009 114.504009">system.</tspan></text>
</g>
</g>
</g>
</svg>
