<?xml version="1.0" encoding="UTF-8" standalone="no"?>
<!DOCTYPE svg PUBLIC "-//W3C//DTD SVG 1.1//EN" "http://www.w3.org/Graphics/SVG/1.1/DTD/svg11.dtd">
<svg xmlns="http://www.w3.org/2000/svg" xmlns:xlink="http://www.w3.org/1999/xlink" version="1.1" width="720pt" height="405pt" viewBox="0 0 720 405">
<g enable-background="new">
<g>
<clipPath id="cp82">
<path transform="matrix(.001968504,0,0,.001968504,0,0)" d="M 0 0 L 365760 0 L 365760 205740 L 0 205740 L 0 0 Z "/>
</clipPath>
<g clip-path="url(#cp82)">
<path transform="matrix(.001968504,0,0,.001968504,0,0)" d="M 0 0 L 365568 0 L 365568 205740 L 0 205740 Z " fill-rule="evenodd"/>
<path transform="matrix(.001968504,0,0,.001968504,0,0)" d="M 45906 10962 L 319662 10962 L 319662 194778 L 45906 194778 Z " fill-opacity="0" fill-rule="evenodd"/>
<text fill="#d90000" xml:space="preserve" transform="matrix(.75 0 0 .75 90.36614 21.578742)" font-size="32" font-family="DroidSerif"><tspan y="39.72" x="9 21.192002 43.752004 64.392009 77.06401 95.04801 104.96801 122.95201 138.02402 168.23203 180.90402 198.88803 210.15204 222.82404 234.08805 254.37604 271.49604 284.16804 299.91203 318.376 348.584 378.79203 396.77604 417.41606 437.03205 449.70405 467.68806 488.32807 507.94407 520.616 536.36007 554.82406 575.46408 586.728 601.80007 620.26406 630.184 642.856 662.47207 680.93606 695.36807 706.632">&#x201c;An alarm at the command and control post </tspan></text>
<text fill="#d90000" xml:space="preserve" transform="matrix(.75 0 0 .75 90.36614 21.578742)" font-size="32" font-family="DroidSerif"><tspan y="77.72" x="9 36.552003 53.672006 74.312007 85.576007 108.712009 127.17601 138.98401 150.792 173.92801 201.48001 211.68802 222.95203 243.24002 266.376 281.448 298.568 318.184 341.31999 351.24 361.448 378.664 398.952 410.216 424.648 447.784 467.4 477.32 487.528 508.16804 526.856 537.064 557.70407 574.92007 598.0561 616.5201 637.1601 660.29617 671.5601 691.84817 708.96817">went off with red lights blinking on the </tspan></text>
<text fill="#d90000" xml:space="preserve" transform="matrix(.75 0 0 .75 90.36614 21.578742)" font-size="32" font-family="DroidSerif"><tspan y="115.72" x="9 20.264 37.384004 52.456 82.664 92.872 113.512 131.496 141.416 150.568 172.77599 184.51999 195.784 217.99199 245.54399 263.52799 277.96 300.168 318.152 340.36003 361.00004 378.98405 393.41606 404.68006 422.72807 444.93608 459.36808 479.65608 498.12007 513.8641 532.55209 541.70407 563.91207 583.848 602.37606 619.49606 634.56808 652.616 671.08 691.72006 708.84">terminal. It was a nasty shock. Everyone </tspan></text>
<text fill="#d90000" xml:space="preserve" transform="matrix(.75 0 0 .75 90.36614 21.578742)" font-size="32" font-family="DroidSerif"><tspan y="153.72" x="9 18.568 38.856004 69.064 88.68001 105.80001 125.416019 135.17601 146.98401 162.05602 180.52002 210.72803 220.48802 231.75203 252.04003 269.16004 279.36805 294.44004 304.2 318.63203 335.752 353.73603 365.00004 379.43205 387.43205 397.19203 407.11204 425.57603 444.04 462.728 472.936 493.57603 510.79203 520.552 538.536 549.8 559.56 589.768 606.888 616.04 625.8 659.272 679.56 697.544 708.808">jumped from their seats, looking at me. What </tspan></text>
<text fill="#d90000" xml:space="preserve" transform="matrix(.75 0 0 .75 90.36614 21.578742)" font-size="32" font-family="DroidSerif"><tspan y="191.72" x="9 24.744 43.208 63.496004 73.416 93.032 126.216 137.96 171.144 190.76 209.224 225.224 258.408 277.992 298.28 315.4 330.472 347.59199 380.77598 408.32798 426.31199 440.744 473.92799 491.912 512.552 545.736 564.2 583.81607 600.93606 615.36807 633.35208 644.616 654.82406 673.288 693.92807 708.36007">could I do? There was an operations </tspan></text>
<text fill="#d90000" xml:space="preserve" transform="matrix(.75 0 0 .75 90.36614 21.578742)" font-size="32" font-family="DroidSerif"><tspan y="229.72" x="9 28.616002 43.688005 62.152006 77.896 95.01601 114.632 134.92 149.992 167.112 179.592 190.856 211.144 229.12799 240.392 252.872 264.616 277.09599 297.38398 315.36799 334.98399 347.46397 375.01597 390.08796 400.29597 411.55998 422.82398 439.94398 460.58399 473.06398 503.27198 521.31997 535.75198 552.87197 562.79196 574.5999 583.7519 596.23196 627.78396 644.90396 657.384 677 687.208 706.82406">procedure that I had written myself. We did </tspan></text>
<text fill="#d90000" xml:space="preserve" transform="matrix(.75 0 0 .75 90.36614 21.578742)" font-size="32" font-family="DroidSerif"><tspan y="267.72" x="9 36.552003 56.840005 74.824008 86.088008 94.920009 122.47201 139.59201 148.42401 168.712 186.69602 206.31201 215.14402 226.40802 244.87203 253.70403 273.32005 291.78404 300.93605 309.76805 341.32005 358.44004 367.27204 383.01603 403.30403 420.424 436.168 454.21598 471.33598 490.95198 499.78398 511.04798 531.336 548.456 557.288 575.752 595.36807 612.48806 626.92007 644.90408 656.168 666.37606 684.84 705.48007">what we had to do. We checked the operation </tspan></text>
<text fill="#d90000" xml:space="preserve" transform="matrix(.75 0 0 .75 90.36614 21.578742)" font-size="32" font-family="DroidSerif"><tspan y="305.72" x="9 27.464 39.272005 64.616008 82.600009 92.520008 102.44 127.784008 142.216 160.264 174.69602 185.96002 203.08002 233.28803 247.72003 273.06404 282.98405 308.32804 326.79203 347.43205 372.77604 390.66404 408.55204 433.89604 443.81605 460.93605 479.46406 496.58406 506.50407 520.93606 528.93606 554.2801 572.7441 593.3841 610.5041 635.84817 653.83218 665.64016 676.9041 694.0241 709.0961">of all systems - on 30 levels, one after </tspan></text>
<text fill="#d90000" xml:space="preserve" transform="matrix(.75 0 0 .75 90.36614 21.578742)" font-size="32" font-family="DroidSerif"><tspan y="343.72" x="9 26.984002 47.624 66.088 77.352 97.64 114.76 129.832 138.98401 166.792 187.75202 204.87201 224.488 242.95201 258.02403 269.28804 283.72004 311.528 329.576 346.69599 366.31199 377.576 405.38398 421.12797 439.59196 469.79997 480.00798 500.64799 517.86398 545.672 555.88 576.52 585.70407 613.5121 636.0721 645.99209 655.91207 683.7201 693.9281 708.3601">another. Reports kept coming in: All is </tspan></text>
<text fill="#d90000" xml:space="preserve" transform="matrix(.75 0 0 .75 90.36614 21.578742)" font-size="32" font-family="DroidSerif"><tspan y="381.72" x="9 24.744 43.208 58.28 73.352 90.472 106.216 117.48 125.48 139.59201 150.85602 171.14402 188.264 202.376 221.992 237.06401 255.52802 275.144 293.12803 312.74403 322.95204 332.87205 343.08006 354.34407 372.39207 386.50407 398.31208 416.29609 432.04008 443.30409 461.76808 476.84007 490.95207 501.16007 515.59207 529.70407 540.968 568.52 586.984 596.136 610.248 619.39999 628.55197 637.7039 651.8159 671.3999 691.6879 708.8079">correct; the probability factor is two. ... The </tspan></text>
<text fill="#d90000" xml:space="preserve" transform="matrix(.75 0 0 .75 90.36614 21.578742)" font-size="32" font-family="DroidSerif"><tspan y="419.72" x="9 29.288 39.496004 56.712007 77.00001 94.12001 108.55201 119.81601 128.96802">highest.&#x201d;</tspan></text>
<text fill="#d90000" xml:space="preserve" transform="matrix(.75 0 0 .75 90.36614 21.578742)" font-size="32" font-family="DroidSerif"><tspan y="495.72" x="9 17.288 49.288003 57.576005 74.952 86.216 104.200008 124.840007 135.048 149.48001 159.40001 177.384 195.912 204.2 223.528 240.648 251.912 266.984 285.448"> &#x2014; Stanislav Petrov</tspan></text>
</g>
</g>
</g>
</svg>
