<?xml version="1.0" encoding="UTF-8" standalone="no"?>
<!DOCTYPE svg PUBLIC "-//W3C//DTD SVG 1.1//EN" "http://www.w3.org/Graphics/SVG/1.1/DTD/svg11.dtd">
<svg xmlns="http://www.w3.org/2000/svg" xmlns:xlink="http://www.w3.org/1999/xlink" version="1.1" width="720pt" height="405pt" viewBox="0 0 720 405">
<g enable-background="new">
<g>
<clipPath id="cp83">
<path transform="matrix(.001968504,0,0,.001968504,0,0)" d="M 0 0 L 365760 0 L 365760 205740 L 0 205740 L 0 0 Z "/>
</clipPath>
<g clip-path="url(#cp83)">
<path transform="matrix(.001968504,0,0,.001968504,0,0)" d="M 0 0 L 365568 0 L 365568 205740 L 0 205740 Z " fill-rule="evenodd"/>
<path transform="matrix(.001968504,0,0,.001968504,0,0)" d="M 45906 10962 L 319662 10962 L 319662 194778 L 45906 194778 Z " fill-opacity="0" fill-rule="evenodd"/>
<text fill="#d90000" xml:space="preserve" transform="matrix(.75 0 0 .75 90.36614 21.578742)" font-size="32" font-family="DroidSerif"><tspan y="115.72" x="9 23.400002 35.144 51.239999 61.447999 91.656 109.64 126.856 137.064 157.704 174.82399 194.43999 210.53598 220.74399 232.55199 248.64798 260.39198 268.39198 288.00798 304.10398 322.08799 336.52 350.952 371.24 401.448 418.568 434.664 445.928 466.216 483.336 499.432 514.504 531.624 546.056 565.67208 584.13607 604.77609 619.20809 629.4161 649.0321 659.2401 669.1601 679.3681 690.6321 708.68008">&#x201c;I imagined if I&#x2019;d assume the responsibility </tspan></text>
<text fill="#d90000" xml:space="preserve" transform="matrix(.75 0 0 .75 90.36614 21.578742)" font-size="32" font-family="DroidSerif"><tspan y="153.72" x="9 20.808 39.272005 54.344 69.032009 89.32001 109.96001 119.880008 137 154.98401 169.41602 189.70401 199.91202 220.55202 237.76802 252.45601 263.72 284.008 301.128 315.81599 327.08 347.36799 357.576 372.64799 392.26399 406.95198 438.50395 456.96794 472.03993 481.95994 501.57594 516.2639 548.1679 566.1519 581.22396 595.912 605.832 620.52 638.504 659.14407 678.7601 693.4481 705.19216">for unleashing the third World War - and I </tspan></text>
<text fill="#d90000" xml:space="preserve" transform="matrix(.75 0 0 .75 90.36614 21.578742)" font-size="32" font-family="DroidSerif"><tspan y="191.72" x="9 23.432002 41.416 51.624 71.240009 79.240009 90.408008 111.048007 129.51201 137.51201 148.68001 160.42401 171.59201 199.14402 217.60802 237.89601 247.81601 267.432 288.07203 296.07203 307.33604 316.48805 327.65605 336.80805 345.96006 355.11207 366.28007 378.02406 389.19206 407.17607 417.09608 444.64808 461.99208 480.04008 494.47209 505.64009 516.90408 537.1921 555.65609 575.9441 593.1601 613.4481 624.7121 635.8801 654.3441 666.1521 677.3201 687.52816 698.7921 707.9441">said, no, I wouldn&#x2019;t. ... I always thought of it. </tspan></text>
<text fill="#d90000" xml:space="preserve" transform="matrix(.75 0 0 .75 90.36614 21.578742)" font-size="32" font-family="DroidSerif"><tspan y="229.72" x="9 42.472 62.760004 79.880008 100.520008 117.64001 136.16802 153.28801 168.36002 177.8 189.544 198.984 214.728 232.712 262.92 280.04 289.48 307.944 328.584 338.02403 357.64 377.928 389.19203 404.39204 412.39204 421.83204 433.57603 443.01603 461.00004 470.92005 498.47206 515.81607 533.864 548.296 557.736 572.80807 589.92807 601.736 616.80807 633.92807 648.36007 668.6481 685.76809 705.3841">Whenever I came on duty, I always refreshed </tspan></text>
<text fill="#d90000" xml:space="preserve" transform="matrix(.75 0 0 .75 90.36614 21.578742)" font-size="32" font-family="DroidSerif"><tspan y="267.72" x="9 19.208 30.472 38.760004 48.968004 69.608 77.896 108.104007 126.15201 134.44 164.64801 181.768 211.97602 230.44002 245.51203 260.71205 269.86405 284.26405">it in my memory.&#x201d; </tspan></text>
<text fill="#d90000" xml:space="preserve" transform="matrix(.75 0 0 .75 90.36614 21.578742)" font-size="32" font-family="DroidSerif"><tspan y="343.72" x="9 41 49.288003 66.664 77.928 95.912 116.552 126.76 141.192 151.112 169.09601 187.62401 195.912 215.24 232.36 243.62401 258.696 277.16">&#x2014; Stanislav Petrov</tspan></text>
</g>
</g>
</g>
</svg>
