<?xml version="1.0" encoding="UTF-8" standalone="no"?>
<!DOCTYPE svg PUBLIC "-//W3C//DTD SVG 1.1//EN" "http://www.w3.org/Graphics/SVG/1.1/DTD/svg11.dtd">
<svg xmlns="http://www.w3.org/2000/svg" xmlns:xlink="http://www.w3.org/1999/xlink" version="1.1" width="720pt" height="405pt" viewBox="0 0 720 405">
<g enable-background="new">
<g>
<clipPath id="cp84">
<path transform="matrix(.001968504,0,0,.001968504,0,0)" d="M 0 0 L 365760 0 L 365760 205740 L 0 205740 L 0 0 Z "/>
</clipPath>
<g clip-path="url(#cp84)">
<path transform="matrix(.001968504,0,0,.001968504,0,0)" d="M 0 0 L 365568 0 L 365568 205740 L 0 205740 Z " fill-rule="evenodd"/>
<path transform="matrix(.001968504,0,0,.001968504,0,0)" d="M 45906 10962 L 319662 10962 L 319662 194778 L 45906 194778 Z " fill-opacity="0" fill-rule="evenodd"/>
<text fill="#d90000" xml:space="preserve" transform="matrix(.75 0 0 .75 90.36614 21.578742)" font-size="32" font-family="DroidSerif"><tspan y="115.72" x="9 28.328001 43.4 61.864004 77.608 94.728008 114.34401 134.632 149.70401 166.824 180.648 208.2 226.18399 240.616 254.43999 270.184 280.104 297.224 315.208 330.28 339.464 353.288 368.36 385.47999 405.09599 423.55998 438.63197 449.89598 463.71998 484.00798 503.62397 517.44796 528.7119 548.99996 566.11996 579.944 595.688 615.976 633.96 644.168 664.80807 678.6321 697.09609 708.90408">Procedure was clear: report up the chain of </tspan></text>
<text fill="#d90000" xml:space="preserve" transform="matrix(.75 0 0 .75 90.36614 21.578742)" font-size="32" font-family="DroidSerif"><tspan y="153.72" x="9 24.744 43.208 73.416 103.624 121.608 142.248 161.864 176.68 187.944 208.232 226.216 237.48001 252.296 263.56 283.848 300.968 315.784 338.344 368.552 385.672 400.744 410.952 426.69599 444.68 465.32 479.752 494.56803 514.856 532.84 552.45608 567.2721 577.1921 595.1761 615.4641 636.1041 651.84817 672.13619 689.25619 708.8722">command that the Americans had launched </tspan></text>
<text fill="#d90000" xml:space="preserve" transform="matrix(.75 0 0 .75 90.36614 21.578742)" font-size="32" font-family="DroidSerif"><tspan y="191.72" x="9 39.208 49.416 63.848 78.28 88.488 98.408 115.528 129.96 139.112">missiles. </tspan></text>
<text fill="#d90000" xml:space="preserve" transform="matrix(.75 0 0 .75 90.36614 21.578742)" font-size="32" font-family="DroidSerif"><tspan y="267.72" x="9 28.584002 48.872 59.08 73.512 81.8 97.54401 116.00801 136.296 146.216 165.832 174.12 194.40799 212.392 230.92 248.04 256.328 270.76 287.88 299.144 307.432 325.896 337.704 349.51203 357.80003 375.78404 384.07203 404.71205 425.00004 440.74403 450.66404 467.78404 485.76805 500.84004 509.12803 536.68008 554.66409 569.7361">This could have set off a nuclear war.</tspan></text>
<text fill="#d90000" xml:space="preserve" transform="matrix(.75 0 0 .75 90.36614 21.578742)" font-size="32" font-family="DroidSerif"><tspan y="343.72" x="9 20.744 32.552003 51.144006 62.408006 82.69601 99.81601 118.40801 128.32802 146.31201 166.6 187.24 202.98401 223.272 241.864 269.41603 287.40003 301.83204 320.424 335.496 352.616 370.6 380.52003 388.52003 407.112 418.92 436.90403 447.11204 457.03205 467.24006 487.88008 505.09608 523.6881 534.9521 553.4161 572.0081 587.08016 604.20016 623.81619 642.28018 657.3522 668.61618 687.2082 697.4162 708.6802">If the launch was real, failing to report it </tspan></text>
<text fill="#d90000" xml:space="preserve" transform="matrix(.75 0 0 .75 90.36614 21.578742)" font-size="32" font-family="DroidSerif"><tspan y="381.72" x="9 28.616002 43.688005 62.152006 92.36001 111.97601 123.24001 133.16002 151.20803 159.49602 175.24002 193.70403 213.99202 223.91202 243.52802 251.81601 282.02403 299.144 317.12803 337.76805">promptly could mean </tspan></text>
<text fill="#d90000" xml:space="preserve" transform="matrix(.75 0 0 .75 90.36614 21.578742)" font-size="32" font-family="DroidSerif" font-weight="bold"><tspan y="381.72" x="346.375 357.639 377.22303 392.80705 404.07106 425.38307">losing</tspan></text>
<text fill="#d90000" xml:space="preserve" transform="matrix(.75 0 0 .75 90.36614 21.578742)" font-size="32" font-family="DroidSerif"><tspan y="381.72" x="443.39064 451.67863 469.66264 477.95063 498.59065 518.87869 534.6227 544.54269 561.66268 579.64669 594.7187 603.0067 630.5587 648.5427 663.61477"> a nuclear war.</tspan></text>
</g>
</g>
</g>
</svg>
