<?xml version="1.0" encoding="UTF-8" standalone="no"?>
<!DOCTYPE svg PUBLIC "-//W3C//DTD SVG 1.1//EN" "http://www.w3.org/Graphics/SVG/1.1/DTD/svg11.dtd">
<svg xmlns="http://www.w3.org/2000/svg" xmlns:xlink="http://www.w3.org/1999/xlink" version="1.1" width="720pt" height="405pt" viewBox="0 0 720 405">
<g enable-background="new">
<g>
<clipPath id="cp89">
<path transform="matrix(.001968504,0,0,.001968504,0,0)" d="M 0 0 L 365760 0 L 365760 205740 L 0 205740 L 0 0 Z "/>
</clipPath>
<g clip-path="url(#cp89)">
<path transform="matrix(.001968504,0,0,.001968504,0,0)" d="M 0 0 L 365568 0 L 365568 205740 L 0 205740 Z " fill-opacity=".2577" fill-rule="evenodd"/>
<path transform="matrix(.001968504,0,0,.001968504,0,0)" d="M 45906 10962 L 319662 10962 L 319662 194778 L 45906 194778 Z " fill-opacity="0" fill-rule="evenodd"/>
<text fill="#ffffff" xml:space="preserve" transform="matrix(.75 0 0 .75 90.36614 21.578742)" font-size="32" font-family="DroidSerif"><tspan y="153.72" x="9 20.744 41.384004 55.816 67.08 84.200008 102.184009 121.8 145.992 164.45601 176.264 200.45601 211.72002 228.84001 238.76001 248.68001 258.888 279.528 296.74403 320.936 341.224 351.432 365.864 390.056 404.488 424.776 444.392 461.512 476.58399 486.792 505.25599 520.328 534.76 558.952 586.504 606.79208 624.77609 636.04006 660.23208 671.49606 691.78408 708.90408">Instead of telling his superiors what the </tspan></text>
<text fill="#ffffff" xml:space="preserve" transform="matrix(.75 0 0 .75 90.36614 21.578742)" font-size="32" font-family="DroidSerif"><tspan y="191.72" x="9 23.432002 41.480005 55.912004 67.176 84.296009 114.504009 127.68801 155.24002 173.22403 187.65604 200.84003 215.27204 232.61605 250.66405 260.87205 281.51206 298.72807 306.72807 319.91206 339.24006 356.36006 367.62406 382.69606 401.16004 419.68806 432.87205 444.13606 462.60005 472.52006 492.13606 505.32005 525.60806 535.81607 550.24807 563.43209 577.8641 598.1521 617.7681 634.8881 649.96017 660.16818 678.63217 693.70419 708.13619">system was saying, Petrov told his superiors </tspan></text>
<text fill="#ffffff" xml:space="preserve" transform="matrix(.75 0 0 .75 90.36614 21.578742)" font-size="32" font-family="DroidSerif"><tspan y="229.72" x="9 20.264 40.552003 58.536005 69.8 83.048007 93.256008 104.520008 117.768009 145.32 163.30402 177.73603 190.98403 208.96802 222.21602 234.02402 252.00803 261.92805 276.36006 293.48005 306.72804 324.71205 334.63206 352.61607 367.68806 397.89607 411.14405 421.06407 434.31205 453.92805 471.04804 485.48005 505.09605 515.304 526.568 543.688 556.93606 577.57608 596.04006 607.304 620.55209 635.6241 652.7441 670.7281 680.6481 690.56808 708.616">that it was a false alarm - despite not really </tspan></text>
<text fill="#ffffff" xml:space="preserve" transform="matrix(.75 0 0 .75 90.36614 21.578742)" font-size="32" font-family="DroidSerif"><tspan y="267.72" x="9 27.688002 48.328004 66.79201 94.34401 104.55201 125.19201 142.408 150.696 161.96 182.248 192.456 206.888 215.176 242.728 260.712 275.144 283.432 294.696 314.984 332.104 340.392 356.136 374.12 388.552 405.672 414.824 423.112 431.4 442.472 454.21598 465.47999 473.76799 501.31999 519.30398 533.73599 542.88796">knowing this was the case.  (It was.)</tspan></text>
</g>
</g>
</g>
</svg>
