<?xml version="1.0" encoding="UTF-8" standalone="no"?>
<!DOCTYPE svg PUBLIC "-//W3C//DTD SVG 1.1//EN" "http://www.w3.org/Graphics/SVG/1.1/DTD/svg11.dtd">
<svg xmlns="http://www.w3.org/2000/svg" xmlns:xlink="http://www.w3.org/1999/xlink" version="1.1" width="720pt" height="405pt" viewBox="0 0 720 405">
<g enable-background="new">
<g>
<clipPath id="cp95">
<path transform="matrix(.001968504,0,0,.001968504,0,0)" d="M 0 0 L 365760 0 L 365760 205740 L 0 205740 L 0 0 Z "/>
</clipPath>
<g clip-path="url(#cp95)">
<path transform="matrix(.001968504,0,0,.001968504,0,0)" d="M 0 0 L 365568 0 L 365568 205740 L 0 205740 Z " fill-opacity=".2577" fill-rule="evenodd"/>
<path transform="matrix(.001968504,0,0,.001968504,0,0)" d="M 45906 10962 L 319662 10962 L 319662 194778 L 45906 194778 Z " fill-opacity="0" fill-rule="evenodd"/>
<text fill="#ffffff" xml:space="preserve" transform="matrix(.75 0 0 .75 90.36614 21.578742)" font-size="32" font-family="DroidSerif"><tspan y="153.72" x="9 28.584002 48.872 59.08 79.72 96.936008 111.368007 127.496 144.616 163.144 180.26399 200.90399 212.168 232.456 250.44 260.36003 270.28004 288.32804 304.45603 320.2 338.18403 348.10404 378.31205 395.43205 415.04804 431.17604 450.79203 469.256 496.808 517.448 526.6 542.728 562.312 582.60006 599.72006 615.8481 633.22409 651.68807 670.21609 680.4241 697.54409 708.80807">Things eventually calmed down. The Soviet </tspan></text>
<text fill="#ffffff" xml:space="preserve" transform="matrix(.75 0 0 .75 90.36614 21.578742)" font-size="32" font-family="DroidSerif"><tspan y="191.72" x="9 31.912 52.552003 62.760004 81.224 101.864 125.768009 145.384 155.59201 170.02402 184.45603 202.92003 212.84003 231.36803 248.48802 268.10404 277.25605 301.16004 318.53605 336.52006 348.32807 365.44807 382.66407 402.95207 420.93608 436.00807 455.62406 470.05607 493.96006 521.5121 538.6321 553.7041 570.8241 594.72817 614.3442 634.6322 645.8962 669.80026 688.2642 708.90426">Union dissolved. Safeguards were put on </tspan></text>
<text fill="#ffffff" xml:space="preserve" transform="matrix(.75 0 0 .75 90.36614 21.578742)" font-size="32" font-family="DroidSerif"><tspan y="229.72" x="9 39.208 57.672 72.104007 83.368007 102.088008 120.552 132.36 151.08 162.34401 182.632 199.752 218.472 238.088 256.552 286.76 306.376 320.808 328.808 347.528 358.79203 377.256 395.976 415.592 430.664 447.784 466.312 483.432 504.07203 515.336 534.056 545.32 565.60806 582.728 601.44808 616.5201 626.7281 641.1601 659.8481 678.5681 697.0321 708.8401">most of the bombs, to prevent the risk of </tspan></text>
<text fill="#ffffff" xml:space="preserve" transform="matrix(.75 0 0 .75 90.36614 21.578742)" font-size="32" font-family="DroidSerif"><tspan y="267.72" x="9 26.984002 42.728 58.472 68.68 88.296009 105.41601 126.05601 137.32 155.30402 165.22402 183.75202 194.82402 213.28803 228.36003 246.88803 266.50404 283.62403 293.54405 303.75205 323.36805 340.48805 354.92 372.90403 384.16804 401.28804 419.816 439.432 459.72 470.984 489.512 509.8 530.44 548.424 568.71206 579.976 600.26406 618.728 633.80007 644.00808 660.36007 677.48007 697.09609 708.1681">accidental (or deliberate but unauthorized) </tspan></text>
<text fill="#ffffff" xml:space="preserve" transform="matrix(.75 0 0 .75 90.36614 21.578742)" font-size="32" font-family="DroidSerif"><tspan y="305.72" x="9 28.616002 45.736 57 75.464008 96.104007 114.088008 125.352008 135.56 154.024 174.664">detonation.</tspan></text>
</g>
</g>
</g>
</svg>
