<?xml version="1.0" encoding="UTF-8" standalone="no"?>
<!DOCTYPE svg PUBLIC "-//W3C//DTD SVG 1.1//EN" "http://www.w3.org/Graphics/SVG/1.1/DTD/svg11.dtd">
<svg xmlns="http://www.w3.org/2000/svg" xmlns:xlink="http://www.w3.org/1999/xlink" version="1.1" width="720pt" height="405pt" viewBox="0 0 720 405">
<g enable-background="new">
<g>
<clipPath id="cp96">
<path transform="matrix(.001968504,0,0,.001968504,0,0)" d="M 0 0 L 365760 0 L 365760 205740 L 0 205740 L 0 0 Z "/>
</clipPath>
<g clip-path="url(#cp96)">
<path transform="matrix(.001968504,0,0,.001968504,0,0)" d="M 0 0 L 365568 0 L 365568 205740 L 0 205740 Z " fill-opacity=".2577" fill-rule="evenodd"/>
<path transform="matrix(.001968504,0,0,.001968504,0,0)" d="M 45906 10962 L 319662 10962 L 319662 194778 L 45906 194778 Z " fill-opacity="0" fill-rule="evenodd"/>
<text fill="#ffffff" xml:space="preserve" transform="matrix(.75 0 0 .75 90.36614 21.578742)" font-size="32" font-family="DroidSerif"><tspan y="39.72" x="9 20.744 41.384004 61.832006 79.72 97.608 115.496 133.384 141.384 161.832 173.224 191.688 208.808 229.256 246.824 264.808 279.88 310.088 328.07203 348.71205 356.71205 377.16004 398.05604 413.12803 423.33604 441.32005 461.96006 482.40806 505.22407 523.20809 538.2801 557.8961 568.1041 588.74417 605.86416 620.93618 628.93618 649.38418 667.36819 688.0082 707.6242">In 1985, Joe Farman, Brian Gardiner, and </tspan></text>
<text fill="#ffffff" xml:space="preserve" transform="matrix(.75 0 0 .75 90.36614 21.578742)" font-size="32" font-family="DroidSerif"><tspan y="77.72" x="9 20.392 38.856004 59.496004 77.48 88.744 109.032009 127.01601 147.656 188.64801 206.02402 226.31201 244.29602 264.93605 283.62403 293.54405 303.75205 324.39207 365.38407 395.59208 413.57609 433.19209 450.31208 491.30409 509.2881 550.2801 569.8961 580.1041 594.53616 605.8001 626.08816 641.16018 660.7762 670.9842 691.6242 708.8402">Jonathan Shanklin made a disturbing </tspan></text>
<text fill="#ffffff" xml:space="preserve" transform="matrix(.75 0 0 .75 90.36614 21.578742)" font-size="32" font-family="DroidSerif"><tspan y="115.72" x="9 28.616002 38.824 53.256006 69.00001 87.464008 105.992008 123.11201 138.184 153.384 162.53601 178.632 198.216 218.504 235.624 251.71999 270.184 286.53599 304.99998 325.63999 342.75999 358.856 368.776 386.12 404.168 421.288 436.36 444.36 460.456 471.72 492.008 509.128 525.224 544.84 562.82406 577.89608 589.16006 605.25607 623.72006 635.528 651.624 670.088 690.37606 705.44808">discovery. The ozone layer, the part of our </tspan></text>
<text fill="#ffffff" xml:space="preserve" transform="matrix(.75 0 0 .75 90.36614 21.578742)" font-size="32" font-family="DroidSerif"><tspan y="153.72" x="9 26.984002 38.248 68.456 86.92 101.352 120.968 141.256 158.37599 173.448 190.568 230.344 241.608 261.896 279.88 291.144 330.92 342.72804 352.93605 362.85606 374.12007 391.24006 406.31205 420.74406 460.52006 478.98405 499.27204 510.53605 550.312 580.52 598.984 613.416 624.68 664.456 687.368 708.936">atmosphere that filters out most UV </tspan></text>
<text fill="#ffffff" xml:space="preserve" transform="matrix(.75 0 0 .75 90.36614 21.578742)" font-size="32" font-family="DroidSerif"><tspan y="191.72" x="9 23.432002 41.416 61.032 71.240009 89.22401 100.48801 110.69601 129.16 149.8 157.8 208.808 236.36 254.344 268.776 319.784 339.4 349.608 364.04 382.02403 401.64 421.256 438.376 456.36003 471.432 481.64 502.28004 519.49606 570.504 590.12008 610.4081 627.5281 678.53616 689.8001 708.2641">radiation, was disappearing due to </tspan></text>
<text fill="#ffffff" xml:space="preserve" transform="matrix(.75 0 0 .75 90.36614 21.578742)" font-size="32" font-family="DroidSerif"><tspan y="229.72" x="9 24.744 45.031999 54.951997 73.416 88.488 106.951999 118.759998 128.68 148.96799 167.43199 182.504 200.968 216.712 234.69602 249.76802 269.38404 287.84803 308.48805 322.28004 341.89604 360.36003 370.28004 380.20005 400.48805 411.75205 421.96006 440.42405 461.06407 470.21607 484.00807 495.40007 515.68807 530.12008 541.38406 555.1761 566.44009 593.99209 612.45608 626.2481 644.2961 661.4161 679.4001 694.4721 708.9041">chlorofluorocarbon pollution. Just two years </tspan></text>
<text fill="#ffffff" xml:space="preserve" transform="matrix(.75 0 0 .75 90.36614 21.578742)" font-size="32" font-family="DroidSerif"><tspan y="267.72" x="9 18.92 36.904 48.168 65.288 80.36 94.568 112.552 126.76 138.024 153.09601 170.216 188.20001 199.46402 217.51203 231.72002 259.27204 277.25605 291.68806 305.89607 333.44807 348.52006 358.72807 369.99208 381.25608 398.37608 419.01609 433.2241 444.4881 462.9521 477.1601 496.7761 514.7601 535.4001 549.6081 560.8721 581.1601 598.2801 612.4881 632.7761 647.2081 664.3281 678.53616 697.0001 708.8081">later a treaty was written to ban the use of </tspan></text>
<text fill="#ffffff" xml:space="preserve" transform="matrix(.75 0 0 .75 90.36614 21.578742)" font-size="32" font-family="DroidSerif"><tspan y="305.72" x="9 28.616002 47.464006 67.08 81.512 89.512 99.176 117.16 137.8 157.416 167.08 178.34401 205.89601 224.36002 234.02402 252.07202 269.19203 287.17604 302.24803 316.68003 326.34403 344.32804 356.13606 367.40007 384.52006 399.59205 409.25605 420.52006 440.80805 458.79206 470.05607 478.05607 487.72007 497.92808 518.56808 528.23208 546.12008 564.00808 581.89608 599.78408 607.78408 617.44808 627.65609 638.92007 648.58407 676.13607 694.12008 708.55209">CFCs, and two years after that, in 1989, it was </tspan></text>
<text fill="#ffffff" xml:space="preserve" transform="matrix(.75 0 0 .75 90.36614 21.578742)" font-size="32" font-family="DroidSerif"><tspan y="343.72" x="9 19.208 39.848 56.04 73.16 84.968 96.776 113.896 129.64 140.904 150.056 166.248 188.808 203.24 219.432 237.89601 249.70401 265.896 277.16 295.624 315.24 332.58399 347.784 355.784 371.97599 389.09599 407.624 424.744 439.81599 457.86399 474.05598 489.79997 508.26396 528.55197 549.19198 560.45596 575.52798 593.5759 609.76797 619.97598 640.61599 656.808 668.07199 688.36 705.48">in effect. As of today, every country in the </tspan></text>
<text fill="#ffffff" xml:space="preserve" transform="matrix(.75 0 0 .75 90.36614 21.578742)" font-size="32" font-family="DroidSerif"><tspan y="381.72" x="9 31.912 52.552003 62.760004 74.024 91.144008 110.76001 135.88 160.296 178.28 189.544 199.75202 218.21602 238.85602 253.28803 278.40803 298.696 316.68003 331.11204 356.23204 370.664 388.648 399.91203 410.12004 421.92805 432.13606 449.25605 468.87205 493.99205 505.25605 525.54409 542.66409 567.78408 597.76809 616.23208 636.8721 648.13607 663.20809 680.32809 698.3121 708.23208">United Nations has ratified the Montreal </tspan></text>
<text fill="#ffffff" xml:space="preserve" transform="matrix(.75 0 0 .75 90.36614 21.578742)" font-size="32" font-family="DroidSerif"><tspan y="419.72" x="9 28.616002 43.688005 62.152006 73.41601 91.880008 107.62401 126.08801 136.00801">protocol.</tspan></text>
</g>
</g>
</g>
</svg>
