<?xml version="1.0" encoding="UTF-8" standalone="no"?>
<!DOCTYPE svg PUBLIC "-//W3C//DTD SVG 1.1//EN" "http://www.w3.org/Graphics/SVG/1.1/DTD/svg11.dtd">
<svg xmlns="http://www.w3.org/2000/svg" xmlns:xlink="http://www.w3.org/1999/xlink" version="1.1" width="720pt" height="405pt" viewBox="0 0 720 405">
<g enable-background="new">
<g>
<clipPath id="cp97">
<path transform="matrix(.001968504,0,0,.001968504,0,0)" d="M 0 0 L 365760 0 L 365760 205740 L 0 205740 L 0 0 Z "/>
</clipPath>
<g clip-path="url(#cp97)">
<path transform="matrix(.001968504,0,0,.001968504,0,0)" d="M 0 0 L 365568 0 L 365568 205740 L 0 205740 Z " fill-opacity=".2577" fill-rule="evenodd"/>
<path transform="matrix(.001968504,0,0,.001968504,0,0)" d="M 45906 10962 L 319662 10962 L 319662 194778 L 45906 194778 Z " fill-opacity="0" fill-rule="evenodd"/>
<text fill="#ffffff" xml:space="preserve" transform="matrix(.75 0 0 .75 90.36614 21.578742)" font-size="32" font-family="DroidSerif"><tspan y="115.72" x="9 23.400002 42.984 63.272005 80.392009 99.49601 119.78401 138.24802 148.16802 165.28801 184.392 194.6 215.24 234.344 245.608 265.896 283.016 302.12 320.58399 336.93598 355.39997 376.03999 393.15998 412.26399 422.184 439.52799 457.576 474.69599 489.76799 508.87199 519.07998 533.51199 552.61599 570.6 589.704 608.39199 618.6 639.24 658.856 677.96 696.424 708.232">&#x201c;The hole in the ozone layer is a kind of </tspan></text>
<text fill="#ffffff" xml:space="preserve" transform="matrix(.75 0 0 .75 90.36614 21.578742)" font-size="32" font-family="DroidSerif"><tspan y="153.72" x="9 23.432002 42.120004 60.168004 87.72 102.792 113 124.264 134.472 155.112 172.328 181.48001 192.61602 215.17601 226.44002 237.57602 249.38402 259.592 274.664 289.096 300.36003 311.496 321.704 332.96803 344.104 358.536 375.656 392.776 422.984 440.104 459.72 470.856 482.12 500.58399 511.71998 526.152 545.768 562.888 572.808 582.72799 593.864 612.328 632.616 643.88 655.01608 673.48007 693.76809 708.8401">skywriting. At first it seemed to spell out our </tspan></text>
<text fill="#ffffff" xml:space="preserve" transform="matrix(.75 0 0 .75 90.36614 21.578742)" font-size="32" font-family="DroidSerif"><tspan y="191.72" x="9 24.744 43.208 63.848 75.112 85.32 105.96 126.248 136.456 157.096 174.312 201.99199 217.736 236.2 266.408 286.024 295.944 313.928 329.672 346.792 367.432 383.176 401.224 428.904 448.52 465.63999 477.448 495.912 510.98399 528.104 555.78408 573.76809 601.4481 629.0001 639.2081 650.4721 666.2161 686.50418 692.93618 707.36819">continuing complacency before a witch&#x2019;s </tspan></text>
<text fill="#ffffff" xml:space="preserve" transform="matrix(.75 0 0 .75 90.36614 21.578742)" font-size="32" font-family="DroidSerif"><tspan y="229.72" x="9 28.616002 43.688005 60.808008 88.36001 103.52801 121.992008 133.8 148.968 168.584 185.704 203.68799 223.30399 233.22399 251.27199 266.44 286.056 303.176 318.248 328.456 338.376 352.808 361.96003 377.12803 398.02403 418.312 429.57603 444.74403 464.36003 481.48 496.552 516.84 534.82406 554.44009 568.8721 584.0401 594.2481 605.5121 620.6801 635.75216 652.87216 670.85617 680.7761 690.6961 708.7441">brew of deadly perils. But perhaps it really </tspan></text>
<text fill="#ffffff" xml:space="preserve" transform="matrix(.75 0 0 .75 90.36614 21.578742)" font-size="32" font-family="DroidSerif"><tspan y="267.72" x="9 20.264 37.384004 47.304 57.224 71.656 81.352 99.815998 111.62399 121.31999 139.30399 148.99999 169.63999 186.75998 214.31198 226.11998 244.58399 264.87199 285.512 305.128 314.82398 326.08799 344.072 353.992 371.112 391.752 403.01603 412.712 423.976 442.44 452.136 479.688 498.15199 513.224 531.912 541.60806 552.872 571.336 588.552 605.672 616.936 637.224 654.344 669.416 679.11209 690.37606 708.84">tells of a newfound talent to work together to </tspan></text>
<text fill="#ffffff" xml:space="preserve" transform="matrix(.75 0 0 .75 90.36614 21.578742)" font-size="32" font-family="DroidSerif"><tspan y="305.72" x="9 28.616002 43.688005 62.152006 73.41601 90.53601 106.280017 117.544017 125.832019 137.09603 157.38402 174.50402 182.792 200.00801 209.92801 228.39202 248.00801 265.992 275.91203 284.2 301.32 321.96003 340.48805 350.69606 365.76805 384.23204 404.87205 435.08006 452.20005 472.84007 484.10408 493.25608 507.65608">protect the global environment.&#x201d; </tspan></text>
<text fill="#ffffff" xml:space="preserve" transform="matrix(.75 0 0 .75 90.36614 21.578742)" font-size="32" font-family="DroidSerif"><tspan y="381.72" x="9 41 49.288003 68.90401 86.88801 101.96001 111.880008 120.16801 137.544 155.52802 172.74402 190.72803 211.36803 219.65602 230.72803 248.61603 266.50404 284.39204 302.28004">&#x2014; Carl Sagan (1998)</tspan></text>
</g>
</g>
</g>
</svg>
