<?xml version="1.0" encoding="UTF-8" standalone="no"?>
<!DOCTYPE svg PUBLIC "-//W3C//DTD SVG 1.1//EN" "http://www.w3.org/Graphics/SVG/1.1/DTD/svg11.dtd">
<svg xmlns="http://www.w3.org/2000/svg" xmlns:xlink="http://www.w3.org/1999/xlink" version="1.1" width="720pt" height="405pt" viewBox="0 0 720 405">
<g enable-background="new">
<g>
<clipPath id="cp98">
<path transform="matrix(.001968504,0,0,.001968504,0,0)" d="M 0 0 L 365760 0 L 365760 205740 L 0 205740 L 0 0 Z "/>
</clipPath>
<g clip-path="url(#cp98)">
<path transform="matrix(.001968504,0,0,.001968504,0,0)" d="M 0 0 L 365568 0 L 365568 205740 L 0 205740 Z " fill-opacity=".2577" fill-rule="evenodd"/>
<path transform="matrix(.001968504,0,0,.001968504,0,0)" d="M 45906 10962 L 319662 10962 L 319662 194778 L 45906 194778 Z " fill-opacity="0" fill-rule="evenodd"/>
<text fill="#ffffff" xml:space="preserve" transform="matrix(.75 0 0 .75 90.36614 21.578742)" font-size="32" font-family="DroidSerif"><tspan y="191.72" x="9 29.896002 50.184003 61.448 70.888 91.528 109.992008 121.256008 130.696 147.816 166.344 183.46399 198.536 216.584 226.02399 237.288 257.576 272.64799 289.76799 307.75199 319.016 328.456 339.72 358.184 367.624 387.912 408.19999 438.408 456.392 477.032 487.24003 498.50404 516.552 525.992 536.2 550.632 560.072 578.056 592.48806 601.92807 619.04806 637.03207 651.46408 669.512 678.952 690.216 708.68">But not every threat to humanity is as easy to </tspan></text>
<text fill="#ffffff" xml:space="preserve" transform="matrix(.75 0 0 .75 90.36614 21.578742)" font-size="32" font-family="DroidSerif"><tspan y="229.72" x="9 29.288 49.928 69.54401 86.66401 101.73601 116.16801 127.43201 145.41602 166.05602 185.67201 194.472 212.936 228.00801 236.808 254.79199 274.408 294.024 309.09599 326.21598 340.64799 355.08 363.87998 381.86399 396.296 405.09599 425.736 446.024 461.76799 471.688 488.80799 506.792 521.864 530.66409 558.21609 575.33609 593.32009 612.9361 631.4001 652.0401 666.4721 675.27218 693.73617 708.80819">understand or address as nuclear weapons or </tspan></text>
<text fill="#ffffff" xml:space="preserve" transform="matrix(.75 0 0 .75 90.36614 21.578742)" font-size="32" font-family="DroidSerif"><tspan y="267.72" x="9 20.264 40.552003 57.672006 65.96001 84.42401 100.77602 119.24002 139.88002 157.00002 165.28801 175.20801 192.55202 210.60002 227.72002 242.79203">the ozone layer.</tspan></text>
</g>
</g>
</g>
</svg>
