<?xml version="1.0" encoding="UTF-8" standalone="no"?>
<!DOCTYPE svg PUBLIC "-//W3C//DTD SVG 1.1//EN" "http://www.w3.org/Graphics/SVG/1.1/DTD/svg11.dtd">
<svg xmlns="http://www.w3.org/2000/svg" xmlns:xlink="http://www.w3.org/1999/xlink" version="1.1" width="720pt" height="405pt" viewBox="0 0 720 405">
<g enable-background="new">
<g>
<clipPath id="cp11">
<path transform="matrix(.001968504,0,0,.001968504,0,0)" d="M 0 0 L 365760 0 L 365760 205740 L 0 205740 L 0 0 Z "/>
</clipPath>
<g clip-path="url(#cp11)">
<path transform="matrix(.001968504,0,0,.001968504,0,0)" d="M 0 0 L 365568 0 L 365568 205740 L 0 205740 Z " fill-opacity=".2577" fill-rule="evenodd"/>
<path transform="matrix(.001968504,0,0,.001968504,0,0)" d="M 45906 10962 L 319662 10962 L 319662 194778 L 45906 194778 Z " fill-opacity="0" fill-rule="evenodd"/>
<text fill="#ffffff" xml:space="preserve" transform="matrix(.75 0 0 .75 90.36614 21.578742)" font-size="32" font-family="DroidSerif"><tspan y="77.72" x="9 23.400002 53.384004 71.84801 86.28001 97.54401 109.28801 123.72001 143.33602 160.45601 176.20001 186.40802 203.52802 217.96002 229.70401 249.32 267.784 279.52799 290.792 311.08 328.19999 338.408 353.47999 365.22398 383.68797 411.23997 431.87998 443.62397 460.74397 479.27198 497.73597 507.65599 526.18399 536.39199 557.032 574.248 582.248 593.992 624.2 642.184 660.872 671.08 691.72006 708.93606">&#x201c;Most species do their own evolving, making </tspan></text>
<text fill="#ffffff" xml:space="preserve" transform="matrix(.75 0 0 .75 90.36614 21.578742)" font-size="32" font-family="DroidSerif"><tspan y="115.72" x="9 19.208 30.472 50.504 70.792 90.408008 110.44001 128.42401 142.85602 162.88802 174.15203 194.44002 211.56002 229.60802 249.64002 266.85603 285.32 305.352 323.336 333.256 351.72 372.36003 389.57603 397.57603 417.608 445.16 465.448 475.656 491.4 511.688 531.72006 541.92807 556.36007 576.3921 587.65609 607.9441 625.0641 645.0961 672.64816 689.9921 708.0401">it up as they go along, which is the way </tspan></text>
<text fill="#ffffff" xml:space="preserve" transform="matrix(.75 0 0 .75 90.36614 21.578742)" font-size="32" font-family="DroidSerif"><tspan y="153.72" x="9 33.416 51.4 62.664 82.952 98.024 115.144008 127.272 137.48001 158.12001 169.38402 186.50402 207.14402 226.76001 243.88 263.496 272.648 284.776 307.336 327.976 347.592 359.72 370.984 391.272 401.48 415.91203 428.04 438.24803 452.68003 464.808 482.79203 492.71205 502.63206 514.7601 533.2881 550.4081 565.4801 583.5281 595.6561 616.29617 634.28018 645.5441 665.83218 680.26419 698.24819 708.16818">Nature intended. And this is all very natural </tspan></text>
<text fill="#ffffff" xml:space="preserve" transform="matrix(.75 0 0 .75 90.36614 21.578742)" font-size="32" font-family="DroidSerif"><tspan y="191.72" x="9 26.984002 47.624 67.240009 88.74401 107.20801 122.28001 139.496 157.48001 178.12001 188.328 204.072 225.576 243.56 264.2 283.816 305.32 315.528 336.16804 357.67204 368.93605 389.22404 409.86405 426.98405 448.48805 476.04005 486.24806 497.51206 517.80007 539.3041 569.5121 587.56008 601.99209 613.25607 630.37606 645.44808 655.65609 674.12008 694.4081 708.8401">and organic and in tune with mysterious </tspan></text>
<text fill="#ffffff" xml:space="preserve" transform="matrix(.75 0 0 .75 90.36614 21.578742)" font-size="32" font-family="DroidSerif"><tspan y="229.72" x="9 24.744 42.792 58.536 68.456 85.576007 100.008 121.896 140.36 152.168 174.056 185.32 205.608 222.728 244.616 260.36 278.82398 293.25599 323.464 341.92799 356.36 364.36 386.248 413.8 434.08799 444.296 460.03999 480.32798 502.21598 521.832 538.95199 548.87197 559.07998 576.19998 594.72799 611.84799 626.27999 648.16799 659.43197 679.72 697.704 708.96798">cycles of the cosmos, which believes that </tspan></text>
<text fill="#ffffff" xml:space="preserve" transform="matrix(.75 0 0 .75 90.36614 21.578742)" font-size="32" font-family="DroidSerif"><tspan y="267.72" x="9 20.264 40.552003 57.672006 72.744 89.864009 96.296009 110.728008 120.23201 140.87201 159.33602 170.60002 190.88802 201.09601 221.73601 238.95201 248.45601 258.376 268.584 286.632 303.75199 313.25599 343.464 353.672 363.592 373.51203 383.72004 402.18403 422.82405 437.25605 446.76005 465.22404 477.03205 486.53605 504.58406 521.70407 539.68807 554.7601 569.1921 578.6961 597.1601 608.9681 618.4721 633.5441 650.6641 668.64816 678.5681 688.4881 706.5361">there&#x2019;s nothing like millions of years of really </tspan></text>
<text fill="#ffffff" xml:space="preserve" transform="matrix(.75 0 0 .75 90.36614 21.578742)" font-size="32" font-family="DroidSerif"><tspan y="305.72" x="9 20.808 35.88 56.168 70.6 81.864 96.296 114.28 125.544 135.752 156.392 173.608 189.54399 200.808 215.88 226.08802 244.07202 253.99202 269.92805 287.91206 308.55207 328.16807 344.10408 361.22407 376.29606 391.36805 409.83204 424.90403 440.84004 452.10404 470.56803 486.50404 503.72004 513.92807 532.45608 549.57608 565.5121 583.4961 599.4321 613.86416 633.48019 650.60018 666.3442 676.5522 693.6722 708.1042">frustrating trial and error to give a species </tspan></text>
<text fill="#ffffff" xml:space="preserve" transform="matrix(.75 0 0 .75 90.36614 21.578742)" font-size="32" font-family="DroidSerif"><tspan y="343.72" x="9 39.208 57.672 72.104007 90.088008 100.008 108.296009 120.104007 130.31201 149.92801 167.048 182.12001 190.408 208.392 229.032 248.648 256.648 264.936 275.144 295.78404 304.07203 318.50404 336.96803 367.17604 384.29603 392.584 408.328 426.312 440.74403 457.864 472.29603 480.29603 488.584 508.2 526.184 541.92807 560.616 580.23208 598.69607 619.33609 636.45608 645.60806">moral fiber and, in some cases, backbone.&#x201d;</tspan></text>
<text fill="#ffffff" xml:space="preserve" transform="matrix(.75 0 0 .75 90.36614 21.578742)" font-size="32" font-family="DroidSerif"><tspan y="419.72" x="9 41 49.288003 67.944 85.064 100.136 115.208 133.256 141.54399 160.872 175.304 193.288 204.552 220.296 240.584 257.704 268.96803">&#x2014; Terry Pratchett</tspan></text>
</g>
</g>
</g>
</svg>
