<?xml version="1.0" encoding="UTF-8" standalone="no"?>
<!DOCTYPE svg PUBLIC "-//W3C//DTD SVG 1.1//EN" "http://www.w3.org/Graphics/SVG/1.1/DTD/svg11.dtd">
<svg xmlns="http://www.w3.org/2000/svg" xmlns:xlink="http://www.w3.org/1999/xlink" version="1.1" width="720pt" height="405pt" viewBox="0 0 720 405">
<g enable-background="new">
<g>
<clipPath id="cp99">
<path transform="matrix(.001968504,0,0,.001968504,0,0)" d="M 0 0 L 365760 0 L 365760 205740 L 0 205740 L 0 0 Z "/>
</clipPath>
<g clip-path="url(#cp99)">
<path transform="matrix(.001968504,0,0,.001968504,0,0)" d="M 0 0 L 365568 0 L 365568 205740 L 0 205740 Z " fill-opacity=".2577" fill-rule="evenodd"/>
<path transform="matrix(.001968504,0,0,.001968504,0,0)" d="M 45906 10962 L 319662 10962 L 319662 194778 L 45906 194778 Z " fill-opacity="0" fill-rule="evenodd"/>
<text fill="#ffffff" xml:space="preserve" transform="matrix(.75 0 0 .75 90.36614 21.578742)" font-size="32" font-family="DroidSerif"><tspan y="115.72" x="9 28.584002 56.136 73.256008 93.896 105.16 123.20801 133.128 144.936 163.40001 183.688 198.76001 213.51201 231.56002 248.68001 266.664 281.736 296.168 310.91999 328.904 340.712 351.976 369.096 384.168 398.91999 410.184 430.472 447.59199 462.34397 482.27998 492.48799 509.70399 529.992 541.256 561.544 571.752 581.672 591.592 606.344 627.304 644.424 664.04006 682.504 697.57608 708.84">Twenty-four years after the Lighthill Report </tspan></text>
<text fill="#ffffff" xml:space="preserve" transform="matrix(.75 0 0 .75 90.36614 21.578742)" font-size="32" font-family="DroidSerif"><tspan y="153.72" x="9 28.616002 45.736 61.48 71.4 89.384 104.456 121.576007 141.192 156.36 178.92 190.664 205.832 223.81601 238.98401 250.792 268.776 278.984 288.90403 309.19203 324.264 341.384 349.384 364.552 374.76 395.40003 410.56803 428.45603 446.34403 464.23204 482.12004 497.28804 508.55204 528.84 545.96 561.12808 576.8721 595.33609 625.54409 645.1601 665.4481 676.7121 693.8321 708.9041">declared AI a failure, in 1997 the computer </tspan></text>
<text fill="#ffffff" xml:space="preserve" transform="matrix(.75 0 0 .75 90.36614 21.578742)" font-size="32" font-family="DroidSerif"><tspan y="191.72" x="9 28.616002 43.688005 62.152006 79.368007 93.8 111.784008 141.992 163.368 186.632 203.752 220.872 240.48799 261.86399 282.75999 292.68 312.968 330.08799 351.464 371.08 388.19999 400.008 417.128 435.112 446.376 463.496 483.112 504.488 536.04006 554.504 569.57608 579.49606 599.11209 620.4881 640.1041 660.39218 677.51217 691.94418 706.37619">program Deep Blue defeated World Chess </tspan></text>
<text fill="#ffffff" xml:space="preserve" transform="matrix(.75 0 0 .75 90.36614 21.578742)" font-size="32" font-family="DroidSerif"><tspan y="229.72" x="9 28.616002 48.904 66.888 97.096 116.712009 126.920009 145.384 166.024 186.632 209.448 227.432 242.50402 257.57603 275.62403 296.23204 318.63203 336.61604 351.04804 370.66404 388.64805 403.72004 422.18403 438.50404 447.65605 468.26405 487.88005 508.16804 525.288 539.72006 554.15206 562.15206 582.7601 592.9681 604.23208 624.8401 636.10409 656.3921 671.4641 692.1041 706.53616">Champion Garry Kasparov. Chess, it turns </tspan></text>
<text fill="#ffffff" xml:space="preserve" transform="matrix(.75 0 0 .75 90.36614 21.578742)" font-size="32" font-family="DroidSerif"><tspan y="267.72" x="9 27.464 47.752 59.016 67.016 78.984 106.536 124.520008 138.95201 150.92 171.56 190.024 201.28801 213.256 231.23999 245.672 257.63999 277.25599 287.464 299.272 311.08003 321.28804 337.032 357.32 367.24003 378.50404 390.47203 408.45603 422.88804 434.85603 462.40803 479.528 491.496 502.76 523.04806 541.512 561.80007 579.01608 599.3041 610.56808 619.72006 631.68807 650.5361 670.8241 680.7441 690.66409 708.71206">out, was not as difficult as we thought. Fully </tspan></text>
<text fill="#ffffff" xml:space="preserve" transform="matrix(.75 0 0 .75 90.36614 21.578742)" font-size="32" font-family="DroidSerif"><tspan y="305.72" x="9 26.216002 43.336004 63.976007 81.09601 95.52801 113.51201 123.43201 138.344 148.552 169.192 180.45601 197.576 207.496 217.416 227.624 244.84 261.96 282.6 298.344 315.464 323.464 338.37599 358.66398 377.12797 404.67997 421.79997 440.32798 457.44798 472.51997 480.51997 495.43196 510.50395 527.62399 557.832 575.816 586.024 606.664 623.784 643.4 658.3121 676.77609 697.0641 708.32809">general intelligence, however, remained out </tspan></text>
<text fill="#ffffff" xml:space="preserve" transform="matrix(.75 0 0 .75 90.36614 21.578742)" font-size="32" font-family="DroidSerif"><tspan y="343.72" x="9 27.464 39.272005 47.560007 62.632005 79.75201 97.73601 113.48001 133.768">of reach.</tspan></text>
</g>
</g>
</g>
</svg>
