<?xml version="1.0" encoding="UTF-8" standalone="no"?>
<!DOCTYPE svg PUBLIC "-//W3C//DTD SVG 1.1//EN" "http://www.w3.org/Graphics/SVG/1.1/DTD/svg11.dtd">
<svg xmlns="http://www.w3.org/2000/svg" xmlns:xlink="http://www.w3.org/1999/xlink" version="1.1" width="720pt" height="405pt" viewBox="0 0 720 405">
<g enable-background="new">
<g>
<clipPath id="cp100">
<path transform="matrix(.001968504,0,0,.001968504,0,0)" d="M 0 0 L 365760 0 L 365760 205740 L 0 205740 L 0 0 Z "/>
</clipPath>
<g clip-path="url(#cp100)">
<path transform="matrix(.001968504,0,0,.001968504,0,0)" d="M 0 0 L 365568 0 L 365568 205740 L 0 205740 Z " fill-opacity=".2577" fill-rule="evenodd"/>
<path transform="matrix(.001968504,0,0,.001968504,0,0)" d="M 45906 10962 L 319662 10962 L 319662 194778 L 45906 194778 Z " fill-opacity="0" fill-rule="evenodd"/>
<text fill="#ffffff" xml:space="preserve" transform="matrix(.75 0 0 .75 90.36614 21.578742)" font-size="32" font-family="DroidSerif"><tspan y="115.72" x="9 23.400002 42.984 63.272005 81.73601 102.02401 119.24001 139.52802 151.14402 162.88802 174.50402 202.05602 220.52002 240.80802 250.72801 270.34403 281.96003 302.24803 320.23204 338.76005 355.88005 367.49604 377.41606 387.62406 405.67204 422.79203 442.40803 454.02403 484.23204 502.28004 513.896 529.64 549.92807 567.91207 588.55209 604.2961 621.4161 635.8481 647.4641 657.6721 678.31216 689.92819 707.9122">&#x201c;Though I would have liked my chances in a </tspan></text>
<text fill="#ffffff" xml:space="preserve" transform="matrix(.75 0 0 .75 90.36614 21.578742)" font-size="32" font-family="DroidSerif"><tspan y="153.72" x="9 24.072 41.192 71.4 89.384 100.648 116.392009 136.68001 148.808 159.01599 179.65599 191.78398 209.67198 227.55998 245.44799 263.336 275.464 285.672 297.48 309.608 321.352 333.47999 361.03199 378.15199 393.22398 410.34397 422.47196 442.08796 459.20796 470.47196 481.73597 498.85597 513.928 526.056 545.67208 560.7441 577.8641 597.4801 615.4641 630.53616 647.6561 667.27218 675.27218 687.4002 697.6082 708.8722">rematch in 1998 if I were better prepared, it </tspan></text>
<text fill="#ffffff" xml:space="preserve" transform="matrix(.75 0 0 .75 90.36614 21.578742)" font-size="32" font-family="DroidSerif"><tspan y="191.72" x="9 36.552003 54.536005 68.968 92.232 107.976009 117.896 135.016 153 168.072 191.336 202.6 222.888 240.008 260.648 283.91203 295.17604 315.46403 333.44804 344.71205 367.97605 383.72004 402.18403 432.39204 452.00804 472.29603 483.56004 500.68003 515.752 539.01608 553.44808 573.7361 593.3521 610.4721 625.5441 635.75216 654.2161 669.28817 679.49618 690.76016 708.8081">was clear then that computer superiority </tspan></text>
<text fill="#ffffff" xml:space="preserve" transform="matrix(.75 0 0 .75 90.36614 21.578742)" font-size="32" font-family="DroidSerif"><tspan y="229.72" x="9 27.464 45.992006 63.112009 78.184009 88.42401 108.71201 129.00002 159.20803 177.19202 197.83202 212.26403 222.50402 232.712 253.352 263.592 279.336 299.624 316.744 331.176 345.608 355.848 376.136 394.12 413.736 423.97599 441.96 451.88 479.432 496.776 514.824 529.256 539.49606 559.11209 576.23208 593.35208 613.99209 624.2321 633.8001 654.08816 668.52017 679.7841 690.0242 708.0082">over humans in chess had always been just a </tspan></text>
<text fill="#ffffff" xml:space="preserve" transform="matrix(.75 0 0 .75 90.36614 21.578742)" font-size="32" font-family="DroidSerif"><tspan y="267.72" x="9 39.208 57.192 68.456 79.72 96.840007 111.912 120.200008 138.664 150.472 158.76 170.024 180.232 210.44 227.56 236.712 251.112">matter of time.&#x201d; </tspan></text>
<text fill="#ffffff" xml:space="preserve" transform="matrix(.75 0 0 .75 90.36614 21.578742)" font-size="32" font-family="DroidSerif"><tspan y="343.72" x="9 41 58.728006 81.54401 99.52801 114.600009 129.67201 147.72002 165.44802 187.84803 205.83203 220.26404 239.88004 257.86405 272.93605 291.40003 308.36006 316.36006 334.08805 361.64006 380.10404 395.17604 405.09605 424.71205 442.44004 462.05604 482.34403 499.46403 513.896 528.328 546.056 561.80007 582.0881 600.0721 630.2801 649.8961 660.1041 678.5681 699.2081 707.2081">&#x2014; Garry Kasparov, world Chess champion, </tspan></text>
<text fill="#ffffff" xml:space="preserve" transform="matrix(.75 0 0 .75 90.36614 21.578742)" font-size="32" font-family="DroidSerif"><tspan y="381.72" x="9 26.984002 38.792 50.056 67.176 82.248 90.536 100.456 118.92 133.352 143.56 164.2 181.416 189.704 200.968 219.432 227.72 239.464 260.36003 290.34403 296.77604 311.20805 319.49604 342.76005 359.88005 377.00004 396.61604 404.90403 425.80003 435.72004 456.00804">after losing to IBM&#x2019;s Deep Blue</tspan></text>
</g>
</g>
</g>
</svg>
