<?xml version="1.0" encoding="UTF-8" standalone="no"?>
<!DOCTYPE svg PUBLIC "-//W3C//DTD SVG 1.1//EN" "http://www.w3.org/Graphics/SVG/1.1/DTD/svg11.dtd">
<svg xmlns="http://www.w3.org/2000/svg" xmlns:xlink="http://www.w3.org/1999/xlink" version="1.1" width="720pt" height="405pt" viewBox="0 0 720 405">
<g enable-background="new">
<g>
<clipPath id="cp103">
<path transform="matrix(.001968504,0,0,.001968504,0,0)" d="M 0 0 L 365760 0 L 365760 205740 L 0 205740 L 0 0 Z "/>
</clipPath>
<g clip-path="url(#cp103)">
<path transform="matrix(.001968504,0,0,.001968504,0,0)" d="M 0 0 L 365568 0 L 365568 205740 L 0 205740 Z " fill-opacity=".2577" fill-rule="evenodd"/>
<path transform="matrix(.001968504,0,0,.001968504,0,0)" d="M 45906 10962 L 319662 10962 L 319662 194778 L 45906 194778 Z " fill-opacity=".6275" fill-rule="evenodd"/>
<text fill="#ffffff" xml:space="preserve" transform="matrix(.75 0 0 .75 90.36614 21.578742)" font-size="24" font-family="DroidSerif"><tspan y="32.04" x="9 18.144 35.064004 50.544008 58.608007 73.824008 89.30401 103.44001 114.74401 122.40001 135.24 150.72 165.432 172.87201 186.408 194.47202 211.39202 220.20001 228.26403 248.92803 256.584 265.032 280.24803 288.312 310.96803 324.816 332.256 345.096 356.90403 372.12004 379.56004 393.04804 404.35206 412.41606 427.89607 441.38407 456.86408 470.71208 479.16007 492.00007 503.80809 519.02407 534.504 548.35208 555.79208 569.6401 582.55209 596.0881 604.1521 612.4561 626.30416 637.60818 645.6722 659.5202 667.9682 683.1842 696.02426 707.32827">&#x201c;An unFriendly AI with molecular nanotechnology (or other </tspan></text>
<text fill="#ffffff" xml:space="preserve" transform="matrix(.75 0 0 .75 90.36614 21.578742)" font-size="24" font-family="DroidSerif"><tspan y="61.04" x="9 19.824002 33.312005 48.024007 55.680009 70.392009 80.78401 88.44001 103.92001 112.77602 123.60001 137.08802 147.91202 156.36002 167.66402 182.88002 194.68802 203.13602 218.35202 229.65602 242.49602 250.80002 261.19203 276.67204 289.51203 302.35203 317.06404 327.45603 342.93605 356.78404 365.23204 375.62403 390.33604 404.18403 412.63203 427.84803 440.68803 451.992 462.384 483.048 490.704 499.152 514.368 524.76 547.416 560.904 572.208 584.016 599.232 606.888 622.368 635.27999 645.672 656.976 670.82406 685.536 699.38406 707.83206">rapid infrastructure) need not bother with marching robot </tspan></text>
<text fill="#ffffff" xml:space="preserve" transform="matrix(.75 0 0 .75 90.36614 21.578742)" font-size="24" font-family="DroidSerif"><tspan y="90.04" x="9 22.488 33.792 56.448 64.104007 76.944 87.768009 106.41601 120.26401 131.56801 150.21602 164.92803 172.36803 185.85604 197.66403 211.68004 234.33605 247.82405 255.48006 262.92005 281.56806 295.41606 306.72004 325.36805 336.19206 351.40806 366.12007 374.56806 382.00807 394.84806 413.49607 426.33607 438.14408 451.99208 467.47209 481.32008 503.97608 511.63209 523.44009 542.0881 553.89608 567.7441 580.5841 591.8881 603.6961 611.3521 625.20016 640.6801 647.5441 666.19216 680.8801 696.0961 708.93618">armies or blackmail or subtle economic coercion. The </tspan></text>
<text fill="#ffffff" xml:space="preserve" transform="matrix(.75 0 0 .75 90.36614 21.578742)" font-size="24" font-family="DroidSerif"><tspan y="119.04" x="9 24.216 39.696 53.832 65.136 72.792 85.632 101.11201 115.824008 123.26401 136.8 146.88 163.8 172.608 182.688 197.904 211.39202 222.21602 232.29602 240.74402 255.96002 268.80003 278.88005 292.36805 307.08006 314.73606 322.17607 329.83207 338.28007 351.81608 361.8961 370.3441 384.19209 394.2721 405.5761 418.4161 433.1281 446.61613 455.06413 463.51213 476.3521 487.65614 503.13615 513.2161 526.7041 534.1441 541.5841 551.6641 574.3201 587.8081 596.2561 604.7041 617.5441 628.84817 638.92819 646.58419 662.06417 672.14419 680.59219 695.80819 708.6482">unFriendly AI has the ability to repattern all matter in the </tspan></text>
<text fill="#ffffff" xml:space="preserve" transform="matrix(.75 0 0 .75 90.36614 21.578742)" font-size="24" font-family="DroidSerif"><tspan y="148.04" x="9 19.824002 33.672 41.112 54.6 65.904 72.840007 83.664 97.200008 108.024 116.472 129.312 151.968 158.904 172.39202 184.20001 196.00801 209.85602 221.16002 235.87203 243.52803 259.00804 271.92 278.85603 287.30403 301.152 308.088 315.74403 324.19203 335.01603 341.95204 355.80003 370.51203 378.96003 386.61604 409.27204 416.92805 429.19206 442.68006 451.12806 458.78407 472.63206 488.11207 495.04808 503.49607 516.9841 528.2881 541.2001 554.0401 562.4881 569.3521 576.2881 590.9761 606.1921 613.8481 624.67208 631.60806 639.26406 650.088 657.024 665.88 679.368 687.816 701.30398 708.74398">solar system according to its optimization target. This is fatal </tspan></text>
<text fill="#ffffff" xml:space="preserve" transform="matrix(.75 0 0 .75 90.36614 21.578742)" font-size="24" font-family="DroidSerif"><tspan y="177.04" x="9 17.856 31.704003 43.008005 51.432004 66.648 77.472 85.896 93.552 102.408008 110.83201 119.28001 134.496 147.336 155.76001 172.68001 181.488 189.91202 204.62403 218.47203 231.31203 242.13603 250.56003 266.04005 279.88804 288.33604 296.76005 308.56806 323.78407 337.63206 351.48005 362.30406 375.14405 383.56806 394.39207 409.10408 421.94407 433.75209 441.40809 450.26408 457.92008 469.7281 483.2161 490.6561 498.0961 511.6321 520.0561 533.54409 545.35208 557.16006 571.00808 582.3121 597.02407 604.68008 620.16006 633.072 641.49606 649.94406 663.79208 672.21609 680.66409 695.88009 708.7201">for us if the AI does not choose specifically according to the </tspan></text>
<text fill="#ffffff" xml:space="preserve" transform="matrix(.75 0 0 .75 90.36614 21.578742)" font-size="24" font-family="DroidSerif"><tspan y="206.04" x="9 20.808 32.112 39.767999 48.216 61.056 72.36 80.016 93.864 109.344 116.424 130.272 139.128 146.20801 161.42401 175.27202 195.93602 203.01602 211.46402 226.68003 234.33603 245.16004 252.24004 260.68806 271.51206 285.00007 300.48008 311.30409 320.16007 334.00807 345.31208 367.96809 381.4561 389.90409 397.5601 411.40809 426.8881 433.9681 447.45613 456.3121 465.1681 478.0081 489.8161 498.2641 509.0881 516.1681 529.0081 542.8801 550.53616 561.3601 569.8081 577.4641 592.9441 605.8561 612.9361 627.6481 641.13607 649.58407 658.03207 670.8721 682.1761 697.65609 708.48007">criterion of how this transformation affects existing patterns </tspan></text>
<text fill="#ffffff" xml:space="preserve" transform="matrix(.75 0 0 .75 90.36614 21.578742)" font-size="24" font-family="DroidSerif"><tspan y="235.04" x="9 19.824002 35.04 46.848 62.064 72.408 85.895999 96.72 107.064 121.776 129.432 143.28002 150.72002 164.56803 177.48003 191.01602 201.36003 214.84804 230.32804 245.04004 255.38405 270.09605 282.93605 296.78404 311.49604 318.93605 331.77604 338.64006 348.98405 363.67204 378.88804 391.72804 402.07203 418.99205 427.80006 438.14405 452.85606 466.70405 479.54405 490.36805 500.71205 516.192 530.04006 538.48806 548.83206 564.04806 577.536 585.984 598.82406 609.168 622.70407 636.55209 651.76809 657.76809 668.11209 683.59207 697.44009 708.7441">such as biology and people. The AI does not hate you, nor </tspan></text>
<text fill="#ffffff" xml:space="preserve" transform="matrix(.75 0 0 .75 90.36614 21.578742)" font-size="24" font-family="DroidSerif"><tspan y="264.04" x="9 23.712002 37.56 50.4 61.224004 68.568 76.224 84.672 92.016 99.456 113.304 127.200008 140.04001 147.38402 160.92002 174.76802 189.98403 195.98403 203.32804 218.04004 233.25605 241.70404 249.04805 262.58406 276.43205 291.64805 298.99205 312.48005 323.78407 336.62406 343.96806 366.62406 380.11207 394.82408 407.66407 415.00807 428.85606 444.07206 452.52006 459.86405 473.71205 482.56803 489.91203 503.40003 511.84803 525.69607 548.35208 559.176 566.52 587.184 602.4 610.056 621.864 637.08 644.424 652.08 660.528 667.872 679.68 693.16799 708.64797">does it love you, but you are made out of atoms which it can </tspan></text>
<text fill="#ffffff" xml:space="preserve" transform="matrix(.75 0 0 .75 90.36614 21.578742)" font-size="24" font-family="DroidSerif"><tspan y="293.04" x="9 24.216 35.04 47.88 56.208 65.064 78.912 90.216 98.54401 109.36801 123.21601 145.87201 158.712 167.16 182.376 190.03202 205.51201 218.42401 226.75202 239.59201 247.03202 257.85603 270.696 277.56004 285.88804 300.57603 315.79203 328.63203 336.96003 353.88005 362.68806 371.01606 382.32008 397.53608 413.01609 423.8401 432.1681 446.01609 461.4961 469.8241 483.3121 491.6401 506.3521 514.0081 522.86416 531.72018 544.5602 555.8642 568.7042 584.1842 592.6322 600.9602 609.4082 617.0642 639.7202 652.56027 663.3842 675.1922 688.6802 696.1202 708.9602">use for something else. The AI runs on a different timescale </tspan></text>
<text fill="#ffffff" xml:space="preserve" transform="matrix(.75 0 0 .75 90.36614 21.578742)" font-size="24" font-family="DroidSerif"><tspan y="322.04" x="9 17.448002 32.664 46.152 61.632005 72.19201 85.72801 99.57601 114.79201 125.35201 140.06401 153.91202 159.91202 170.47202 184.70403 198.24002 208.80002 217.24802 232.46402 245.30402 255.86402 264.312 271.96803 294.62403 307.46403 318.02403 331.56004 345.40803 360.62403 371.92805 382.48805 397.96806 410.80805 426.02406 437.32807 451.17607 466.65608 477.48008 488.04008 496.89607 504.55207 520.03207 527.68807 538.512 553.728 564.288 572.736 587.952 595.60806 611.088 625.104 632.76 648.24 661.152 671.712 680.16 695.376 708.216">than you do; by the time your neurons finish thinking the </tspan></text>
<text fill="#ffffff" xml:space="preserve" transform="matrix(.75 0 0 .75 90.36614 21.578742)" font-size="24" font-family="DroidSerif"><tspan y="351.04" x="9 29.664002 43.512 54.816 69.528 80.352008 86.56801 97.36801 106.17601 112.39201 123.21602 138.43202 152.28003 167.49604 174.93604 189.64804 195.86405 210.57605 224.42406 230.64006 241.46407 255.31208 277.96809 290.80809 299.25608 314.47209 322.12809 337.6081 350.52009 361.32008 367.53608 381.07209 394.92008 410.13609 416.35209 431.56809 445.0561 458.9521 471.79209 478.0081 491.4961 498.9361 510.2401 523.08016 536.5681 551.2801 564.8161 571.0321 578.4721 592.3201 603.1441 611.5921 622.3921">words &#x201c;I should do something&#x201d; you have already lost&#x201d; </tspan></text>
<text fill="#ffffff" xml:space="preserve" transform="matrix(.75 0 0 .75 90.36614 21.578742)" font-size="24" font-family="DroidSerif"><tspan y="409.04" x="9 33 39.528 54.48 61.92 69.576 82.416 94.68 107.520008 118.824008 125.352008 140.352 155.56801 170.28002 183.81603 197.66403 218.32804 229.15204 243.16805 254.56804 260.56806 267.09608 284.01609 295.32008 303.76808 311.42408 320.28007 327.93608 339.74409 347.4001 360.8881 368.3281 374.8561 383.66413 399.14414 407.59214 420.43214 427.87214 435.31214 442.96815 455.88014 468.72013 484.20014 496.00816 508.84815 515.37619 528.86416 539.6881 546.2161 559.7041 566.2321 580.7281 594.5761 605.4001 613.0561 621.5041 629.1601 643.0561 655.8961 662.42416 675.9121 691.3921 706.10409">&#x2014; Eliezer Yudkowsky, Artificial Intelligence as a Positive and </tspan></text>
<text fill="#ffffff" xml:space="preserve" transform="matrix(.75 0 0 .75 90.36614 21.578742)" font-size="24" font-family="DroidSerif"><tspan y="438.04" x="9 27.312 40.152 53.064004 66.552 75 82.656 96.552 109.392 115.608 128.784 142.272 154.08 162.528 176.376 187.68001 193.89601 201.55202 217.03202 223.24802 240.36002 247.80002 261.648 276.36003 289.84803 297.28804 303.50404 319.22404 326.88005 337.70405 351.72004 357.93605 366.24006 379.65608 393.07209 406.4881 419.9041">Negative Factor in Global Risk (2006)</tspan></text>
</g>
</g>
</g>
</svg>
