<?xml version="1.0" encoding="UTF-8" standalone="no"?>
<!DOCTYPE svg PUBLIC "-//W3C//DTD SVG 1.1//EN" "http://www.w3.org/Graphics/SVG/1.1/DTD/svg11.dtd">
<svg xmlns="http://www.w3.org/2000/svg" xmlns:xlink="http://www.w3.org/1999/xlink" version="1.1" width="720pt" height="405pt" viewBox="0 0 720 405">
<g enable-background="new">
<g>
<clipPath id="cp104">
<path transform="matrix(.001968504,0,0,.001968504,0,0)" d="M 0 0 L 365760 0 L 365760 205740 L 0 205740 L 0 0 Z "/>
</clipPath>
<g clip-path="url(#cp104)">
<path transform="matrix(.001968504,0,0,.001968504,0,0)" d="M 0 0 L 365568 0 L 365568 205740 L 0 205740 Z " fill-opacity=".2577" fill-rule="evenodd"/>
<path transform="matrix(.001968504,0,0,.001968504,0,0)" d="M 45906 10962 L 319662 10962 L 319662 194778 L 45906 194778 Z " fill-opacity=".4431" fill-rule="evenodd"/>
<text fill="#ffffff" xml:space="preserve" transform="matrix(.75 0 0 .75 90.36614 21.578742)" font-size="25.333334" font-family="DroidSerif"><tspan y="33.32" x="9 20.400002 46.898668 62.96 77.197338 86.11467 98.32533 120.13734 133.69068 145.90135 161.4307 176.04804 188.25872 204.32006 218.55739 233.22539 246.77872 258.98939 267.9067 283.96806 297.5214 309.73207 325.26139 339.87873 361.69075 375.24409 387.1761 399.38676 408.30409 422.92143 435.13209 449.36943 458.7174 468.0654 481.61875 494.08274 503.00007 515.21078 523.9761 532.89346 547.51077 559.72146 581.53347 597.5948 611.8321 620.74948 632.96017 646.5135 661.1561 670.0735 683.62686 699.96688 708.8842">&#x201c;What we do have the power to affect (to what extent </tspan></text>
<text fill="#ffffff" xml:space="preserve" transform="matrix(.75 0 0 .75 90.36614 21.578742)" font-size="25.333334" font-family="DroidSerif"><tspan y="63.32" x="9 24.529335 38.08267 53.612005 67.16534 83.50534 99.034679 110.46001 133.31067 147.92801 164.268 187.11869 203.18003 217.79737 239.60936 262.46003 284.27204 297.82539 320.67607 336.20539 349.75874 359.10673 367.18806 383.52806 397.0814 419.93208 431.33207 453.14408 466.69743 478.0974 486.86274 509.7134 517.79476 529.2201 552.07077 560.9881 577.04946 590.6028 613.4534 624.8788 639.1161 648.03347 661.5868 684.43746 699.05477 708.4028">depends on how we define &#x201c;we&#x201d;) is the rate of </tspan></text>
<text fill="#ffffff" xml:space="preserve" transform="matrix(.75 0 0 .75 90.36614 21.578742)" font-size="25.333334" font-family="DroidSerif"><tspan y="93.32" x="9 24.529335 38.08267 52.75067 66.30401 74.15734 88.77467 104.30401 128.21868 141.772 158.112 167.02933 177.21334 191.83068 201.17868 211.36269 226.03069 240.26802 252.20003 260.28138 274.8987 290.96006 302.38539 312.5694 321.48674 335.04008 347.50407 363.5654 379.9054 394.52275 402.37608 416.9934 430.62275 438.70408 452.25743 463.68275 473.86677 488.1041 504.4441 519.97348 530.1575 545.6868 560.30416 569.2215 582.77487 599.11489 608.0322 616.1136 630.3509 638.2042 646.05758 660.3456 670.5296 679.44699 695.5083 709.06167">development of various technologies and potentially the </tspan></text>
<text fill="#ffffff" xml:space="preserve" transform="matrix(.75 0 0 .75 90.36614 21.578742)" font-size="25.333334" font-family="DroidSerif"><tspan y="123.32" x="9 20.425335 33.97867 49.508005 65.569339 79.12267 95.46268 107.92668 121.48002 134.78002 142.86135 159.20134 172.50135 194.31334 210.37468 218.45601 230.92002 246.98136 260.28138 269.62937 283.1827 297.42005 308.84538 316.9267 332.45603 340.30937 353.8627 367.16273 376.08006 389.6334 402.09739 418.15873 434.49873 449.11607 456.9694 471.58674 485.21607 493.2974 506.85075 518.27609 531.57608 545.81338 557.74539 571.2987 584.5987 600.12808 613.6814 628.3494 641.9028 649.7561 664.3734 679.9028 693.4561 708.9855">sequence in which feasible technologies are developed </tspan></text>
<text fill="#ffffff" xml:space="preserve" transform="matrix(.75 0 0 .75 90.36614 21.578742)" font-size="25.333334" font-family="DroidSerif"><tspan y="153.32" x="9 23.237336 39.57734 55.106676 62.934675 71.01601 94.93068 110.460018 118.31335 131.86669 155.78136 169.33469 185.67469 194.59201 208.14534 223.67469 230.92002 238.74802 257.54536 273.6067 285.5387 293.3667 302.7147 317.33204 329.79603 345.85737 357.28269 365.1107 376.536 392.59736 407.2147 423.27604 431.12937 446.6587 454.4867 470.01603 483.56938 491.39738 506.0147 522.35476 530.18276 551.99478 568.0561 582.2934 591.21078 599.03878 608.3361 616.1641 637.97616 652.21347 668.55349 677.4708 685.2988 694.2162 708.8335">and implemented. Our focus should be on what I want to </tspan></text>
<text fill="#ffffff" xml:space="preserve" transform="matrix(.75 0 0 .75 90.36614 21.578742)" font-size="25.333334" font-family="DroidSerif"><tspan y="183.32" x="9 21.464 35.701337 43.55467 51.408 71.041339 86.57067 94.65201 104.00001 113.34801 126.901348 138.83335 152.38668 168.72667 177.644 185.72533 199.96266 207.816 227.44934 236.36667 249.92 262.384 278.44535 294.78535 309.40269 317.256 331.87336 345.5027 353.584 366.048 380.28535 388.13868 407.772 423.30134 436.85469 451.52268 465.07603 472.92936 487.5467 503.07603 526.99069 540.544 556.88406 565.8014 573.0721 592.70547 601.6228 613.5548 627.84286 635.9242 652.2642 665.89358 685.5269 694.4443 709.0616">call differential technological development: trying to </tspan></text>
<text fill="#ffffff" xml:space="preserve" transform="matrix(.75 0 0 .75 90.36614 21.578742)" font-size="25.333334" font-family="DroidSerif"><tspan y="213.32" x="9 20.932002 34.485338 43.40267 57.640008 69.57201 85.10134 92.270679 101.18801 117.249347 130.80268 137.97202 146.05335 169.96802 185.49735 193.35068 206.904 230.81868 244.37201 260.712 269.62934 283.86668 292.784 300.86534 315.48268 331.82267 338.992 353.60935 362.95735 370.12669 385.656 399.89335 416.23335 429.86268 443.41603 455.34803 469.96537 486.0267 497.45204 504.62138 513.5387 527.09207 539.556 555.6174 571.9574 586.5747 594.42807 609.04537 622.6747 630.75607 644.3094 655.73477 662.90408 677.14138 693.4814 709.01077">retard the implementation of dangerous technologies and </tspan></text>
<text fill="#ffffff" xml:space="preserve" transform="matrix(.75 0 0 .75 90.36614 21.578742)" font-size="25.333334" font-family="DroidSerif"><tspan y="243.32" x="9 23.237336 35.701337 48.165338 61.71867 69.57201 83.12534 94.550678 108.78801 117.705348 131.25868 152.03203 160.11336 184.02803 199.55738 207.4107 220.96404 244.87871 258.43205 274.77204 283.68937 297.9267 306.84403 314.92536 329.5427 345.8827 366.65605 381.27339 390.62138 411.3947 426.92405 440.4774 456.81739 470.37074 479.71873 487.80006 500.26405 508.34538 522.5827 530.43606 551.20938 560.1267 573.68008 586.14407 602.2054 618.5454 633.1627 641.01608 655.63339 669.2627 677.34408 690.8974 702.32278 708.65609">accelerate implementation of beneficial technologies, </tspan></text>
<text fill="#ffffff" xml:space="preserve" transform="matrix(.75 0 0 .75 90.36614 21.578742)" font-size="25.333334" font-family="DroidSerif"><tspan y="273.32" x="9 22.553334 33.97867 49.508005 63.061338 75.52534 83.606678 97.84401 105.69734 113.550678 127.83868 142.43068 151.348 167.40935 182.02669 193.45203 207.00536 221.59737 230.5147 246.57604 260.81336 269.73069 284.3227 298.56004 322.4747 336.02806 343.88139 351.9627 366.58006 378.0054 392.24275 401.16007 414.7134 429.30543 438.22276 454.2841 467.83744 482.42945 498.49079 512.7281 525.6734 539.9107 551.8427 567.3721 578.7974 593.3894 608.91879 623.5361 634.9614 648.5148 664.0441 678.6361 693.6588 707.94686">especially those that ameliorate the hazards posed by </tspan></text>
<text fill="#ffffff" xml:space="preserve" transform="matrix(.75 0 0 .75 90.36614 21.578742)" font-size="25.333334" font-family="DroidSerif"><tspan y="303.32" x="9 23.617335 32.534669 48.596 62.149335 74.08134 80.64267 89.560009 103.11334 115.57735 131.63869 147.97869 162.59603 170.44936 185.0667 198.69603 206.77736 220.33069 231.75603 239.00136 250.40135">other technologies.&#x201d; </tspan></text>
<text fill="#ffffff" xml:space="preserve" transform="matrix(.75 0 0 .75 90.36614 21.578742)" font-size="25.333334" font-family="DroidSerif"><tspan y="363.32" x="9 34.333337 40.89467 60.224004 68.305339 80.76933 95.564 102.125339 118.66801 133.28534 144.71068 153.628 165.56002 180.17736 204.09203 210.65337 219.4187 233.58003 247.74137 261.9027 276.06407">&#x2014; Nick Bostrom (2002)</tspan></text>
</g>
</g>
</g>
</svg>
