<?xml version="1.0" encoding="UTF-8" standalone="no"?>
<!DOCTYPE svg PUBLIC "-//W3C//DTD SVG 1.1//EN" "http://www.w3.org/Graphics/SVG/1.1/DTD/svg11.dtd">
<svg xmlns="http://www.w3.org/2000/svg" xmlns:xlink="http://www.w3.org/1999/xlink" version="1.1" width="720pt" height="405pt" viewBox="0 0 720 405">
<g enable-background="new">
<g>
<clipPath id="cp105">
<path transform="matrix(.001968504,0,0,.001968504,0,0)" d="M 0 0 L 365760 0 L 365760 205740 L 0 205740 L 0 0 Z "/>
</clipPath>
<g clip-path="url(#cp105)">
<path transform="matrix(.001968504,0,0,.001968504,0,0)" d="M 0 0 L 365568 0 L 365568 205740 L 0 205740 Z " fill-opacity=".2577" fill-rule="evenodd"/>
<path transform="matrix(.001968504,0,0,.001968504,0,0)" d="M 8620 10962 L 356548 10962 L 356548 70794 L 8620 70794 Z " fill-opacity="0" fill-rule="evenodd"/>
<text fill="#ffffff" xml:space="preserve" transform="matrix(.75 0 0 .75 16.968504 21.578742)" font-size="24" font-family="DroidSerif" font-style="italic"><tspan y="32.04" x="12.000763 31.008765 44.784765 52.080766 65.97677 72.19277 81.02477 95.40077 107.23277 113.44878 124.560779 131.85678 144.93679 153.76879 168.14479 174.3608 186.0248 199.92079 214.2968 228.1928 235.4888 247.3208 253.5368 267.3128 274.9208 281.1368 292.8008 306.5768 328.05683 341.90483 356.28083 365.11283 376.94483 388.15284 399.26484 405.48085 412.77684 427.15284 433.36885 446.85685 458.68885 467.52085 487.15284 498.98484 510.81684 525.1928 531.4088 540.24087 554.6168 566.44888 572.66488 583.77688 595.6089 608.5209 620.3529 634.7289 643.5609 657.9369 664.1529 678.0489 692.42489 706.32089 712.53689 724.3689 731.6649 745.0089 759.3849 768.2169 782.5929 788.8089 800.4729 814.3689 828.7449 842.64089 849.9369 861.7689 872.8809 879.0969 892.8729 900.4809">Hold the sixth candle of computers in between the seventh and eighth candles of </tspan></text>
<text fill="#ffffff" xml:space="preserve" transform="matrix(.75 0 0 .75 16.968504 21.578742)" font-size="24" font-family="DroidSerif" font-style="italic"><tspan y="61.04" x="127.13162 140.61963 154.51563 168.41162 174.62763 188.52362 202.89963 216.79563 223.01163 236.35562 250.13162 263.90763 277.80363 284.01963 297.79563 312.17164 321.00364 332.66764 346.44364 367.92366 379.75566 390.86766 396.86766 403.08366 411.91566 426.29167 438.12367 452.49967 458.71568 472.56367 486.93968 500.71568 509.54768 523.32369 536.66769 547.3957 561.2917 575.1397 589.5157 595.7317 608.3797 622.1557 636.5317 647.7397 658.8517 670.6837 677.97976 685.5877 691.8037 705.6997 719.4757 726.7717 741.1477 754.4917 760.7077 771.8197">bad and good outcomes, then photograph yourself doing so</tspan></text>
<path transform="matrix(.001968504,0,0,.001968504,0,0)" d="M 79734 39139 L 286026 39139 L 286026 193711 L 79734 193711 Z " fill-opacity="0" fill-rule="evenodd"/>
<path transform="matrix(.001968504,0,0,.001968504,0,0)" stroke-width="381" stroke-linecap="butt" stroke-linejoin="round" fill="none" stroke="#980000" d="M 79734 39139 L 286026 39139 L 286026 193711 L 79734 193711 Z "/>
</g>
</g>
</g>
</svg>
