<?xml version="1.0" encoding="UTF-8" standalone="no"?>
<!DOCTYPE svg PUBLIC "-//W3C//DTD SVG 1.1//EN" "http://www.w3.org/Graphics/SVG/1.1/DTD/svg11.dtd">
<svg xmlns="http://www.w3.org/2000/svg" xmlns:xlink="http://www.w3.org/1999/xlink" version="1.1" width="720pt" height="405pt" viewBox="0 0 720 405">
<g enable-background="new">
<g>
<clipPath id="cp106">
<path transform="matrix(.001968504,0,0,.001968504,0,0)" d="M 0 0 L 365760 0 L 365760 205740 L 0 205740 L 0 0 Z "/>
</clipPath>
<g clip-path="url(#cp106)">
<path transform="matrix(.001968504,0,0,.001968504,0,0)" d="M 0 0 L 365568 0 L 365568 205740 L 0 205740 Z " fill-opacity=".2577" fill-rule="evenodd"/>
<path transform="matrix(.001968504,0,0,.001968504,0,0)" d="M 45906 10962 L 319662 10962 L 319662 194778 L 45906 194778 Z " fill-opacity=".6275" fill-rule="evenodd"/>
<text fill="#ffffff" xml:space="preserve" transform="matrix(.75 0 0 .75 90.36614 21.578742)" font-size="24" font-family="DroidSerif"><tspan y="32.04" x="9 19.8 35.52 48.36 60.168 73.007999 88.488 96.936 104.376 115.776 121.776 134.04001 144.86402 157.70401 171.6 184.44 195.264 208.75202 216.19202 228.45603 239.28003 251.08803 258.74403 271.584 287.06404 295.51203 303.16804 312.02403 319.68003 331.48805 343.75205 355.05604 367.89604 378.72004 391.56004 405.04804 416.35206 428.16007 443.37608 455.64009 464.08808 476.92808 490.41609 513.0721 523.89608 536.16006 551.37606 564.864 578.76 591.60006 603.864 617.352 629.16 644.376 652.032 664.872 678.768 691.60806 706.32">&#x201c;Recently, several scientific research teams have achieved </tspan></text>
<text fill="#ffffff" xml:space="preserve" transform="matrix(.75 0 0 .75 90.36614 21.578742)" font-size="24" font-family="DroidSerif"><tspan y="61.04" x="9 19.824002 33.672 56.328004 69.168 81 91.824008 107.04001 118.84801 130.656 143.496 154.32 165.14402 176.97602 184.63202 200.11202 211.94402 234.60002 248.44803 263.16004 270.81605 279.67204 293.20805 300.86405 316.34407 329.25605 341.08805 348.74406 364.22407 373.08006 380.52006 395.73606 408.57606 424.05607 436.32008 449.80809 461.64009 478.5601 485.47209 504.48008 517.89608 536.20809 549.6241 561.4561 575.3521 583.0081 594.31216 609.52816 620.3521 633.19216 644.0161 655.84817 666.6721 681.8881 693.6961 708.9121">some success in modifying influenza A/H5N1 viruses such </tspan></text>
<text fill="#ffffff" xml:space="preserve" transform="matrix(.75 0 0 .75 90.36614 21.578742)" font-size="24" font-family="DroidSerif"><tspan y="90.04" x="9 17.448002 32.664 46.152 54.600004 61.704004 70.152 85.368 98.20799 111.743999 118.848 132.336 143.64 156.48 163.584 179.064 192.912 213.576 220.68001 229.128 239.95201 253.44002 268.92 279.74403 302.40003 310.05604 318.50404 326.95204 339.79203 354.50404 361.60804 374.44804 383.30403 392.16 399.816 411.62403 419.28004 432.12004 447.60005 456.04804 463.48805 477.02406 484.12806 498.84007 511.68006 520.12808 540.79208 553.6321 566.4721 581.9521 589.0561 611.7121 625.2001 647.8561 670.5121 684.00009 691.44009 702.26406 708.26406">that they are now transmitted efficiently between mammals, </tspan></text>
<text fill="#ffffff" xml:space="preserve" transform="matrix(.75 0 0 .75 90.36614 21.578742)" font-size="24" font-family="DroidSerif"><tspan y="119.04" x="9 16.656 32.136 42.096 55.944 71.424 84.26401 94.224018 101.88001 117.360019 128.18402 136.63202 150.12003 165.60002 177.40802 190.24802 200.20803 220.87203 228.52803 236.97603 252.19203 262.152 284.808 298.29603 305.95204 321.43205 329.88005 342.72004 358.20005 371.68806 387.16807 398.97608 411.81608 421.77607 435.62406 444.48005 454.44004 469.65605 477.31205 490.22404 505.44004 515.4 530.112 543.6 552.048 567.264 581.112 594.024 606.864 622.344 630 641.808 649.464 657.912 669.312 676.176 686.13607 693.00009 699.8641 706.7281">in one instance with maintenance of high pathogenicity. ... </tspan></text>
<text fill="#ffffff" xml:space="preserve" transform="matrix(.75 0 0 .75 90.36614 21.578742)" font-size="24" font-family="DroidSerif"><tspan y="148.04" x="9 23.688002 38.904 51.744 68.568 86.880008 99.432 116.352008 132.024 147.696 164.52 185.184 198.67201 209.49602 226.32003 241.53603 257.01603 270.50404 285.98405 293.64006 316.29606 330.14405 345.36006 356.18406 373.00807 381.45606 396.67207 410.16007 418.60807 435.43208 447.24009 461.08808 483.74409 506.4001 521.6161 537.09609 544.7521 556.56008 570.04806 578.49606 586.15206 600.00009 615.48007 632.304 646.15206 655.00808 671.83206 680.28 695.49606 708.33609">The NSABB was unanimous that communication of the </tspan></text>
<text fill="#ffffff" xml:space="preserve" transform="matrix(.75 0 0 .75 90.36614 21.578742)" font-size="24" font-family="DroidSerif"><tspan y="177.04" x="9 20.304 33.144 43.968004 59.184003 66.624 75.072 85.895999 93.696 101.352 116.832 124.632 133.08 148.296 161.136 168.936 177.384 198.048 211.89601 219.69602 242.35202 255.84003 271.32005 286.53605 297.36006 309.16807 320.47206 328.12806 342.84007 351.28807 362.11207 369.91209 377.56809 386.01609 393.8161 405.12013 417.9601 431.8561 439.51213 452.3521 473.0161 485.8561 500.5681 508.36814 519.19216 534.40817 548.25619 563.47219 570.9122 585.62417 593.42416 608.1361 620.97616 628.7761 641.6881 652.9921 665.83218 679.3201 687.7681 695.2081 708.74417">results in the two manuscripts it reviewed should be greatly </tspan></text>
<text fill="#ffffff" xml:space="preserve" transform="matrix(.75 0 0 .75 90.36614 21.578742)" font-size="24" font-family="DroidSerif"><tspan y="206.04" x="9 16.44 24.096 46.752004 54.408006 62.856008 75.69601 90.408008 98.28001 105.936008 121.41601 129.28801 137.73601 150.576 161.88 184.53601 195.36002 203.23203 217.08003 225.93604 233.80805 242.25605 257.47206 270.31205 278.18406 291.02406 304.89607 319.60807 332.44807 343.75209 351.40809 374.0641 386.90409 402.3841 410.8321 424.3201 431.7601 439.6321 454.34413 467.1841 475.6321 489.12013 496.77613 504.21614 515.0401 522.9121 536.4001 551.88009 566.59207 574.46408 585.76809 598.6081 609.43209 624.6481 632.0881 640.5361 651.36007 658.22409 666.09609 680.78408 696.00009 708.8401">limited in terms of the experimental details and results. The </tspan></text>
<text fill="#ffffff" xml:space="preserve" transform="matrix(.75 0 0 .75 90.36614 21.578742)" font-size="24" font-family="DroidSerif"><tspan y="235.04" x="9 16.44 24.096 32.952005 45.792005 57.144006 67.968 79.776 87.432 100.272 115.75201 127.560009 140.40001 151.22402 162.57602 177.79203 191.28003 205.17603 218.01602 229.36803 240.67203 253.51203 267.00004 278.80805 294.02406 306.86405 321.57606 332.92805 346.41606 357.76805 369.57606 380.88008 394.72807 405.55207 416.37608 423.81608 435.12007 448.96806 462.45606 477.16807 487.99208 494.85609 506.20808 520.89608 536.11209 548.9521 560.3041 575.01608 582.67208 593.9761 606.8161 618.6241 627.0721 634.7281 648.5761 664.0561 675.4081 696.0721 708.9121">life sciences have reached a cross-roads. The direction we </tspan></text>
<text fill="#ffffff" xml:space="preserve" transform="matrix(.75 0 0 .75 90.36614 21.578742)" font-size="24" font-family="DroidSerif"><tspan y="264.04" x="9 20.808 36.024003 49.872 63.72 74.54401 87.384 96.72001 110.20801 125.68801 140.40001 149.73601 158.184 173.40001 186.24 195.576 210.28801 221.59201 235.44002 247.24802 260.088 270.91203 281.73603 291.07203 305.30403 318.84004 328.17604 348.84004 364.05604 371.71205 383.52006 398.73606 408.07206 428.73606 441.57606 450.91206 464.40007 475.70405 487.00807 494.66407 508.56007 521.4001 530.7361 544.22409 552.67208 562.00808 570.45608 585.67208 593.32809 604.15206 613.48806 628.2 641.04006 652.848 660.504 671.328 678.984 692.83206 708.312">choose and the process by which we arrive at this decision </tspan></text>
<text fill="#ffffff" xml:space="preserve" transform="matrix(.75 0 0 .75 90.36614 21.578742)" font-size="24" font-family="DroidSerif"><tspan y="293.04" x="9 31.656002 46.872 57.696004 66.144008 77.42401 92.13601 104.97601 116.25602 131.47202 146.95201 161.66402 174.50402 185.80802 194.25601 207.74402 221.28003 234.12003 249.60002 260.88005 274.36805 285.19206 296.47206 309.96006 321.24006 333.04808 346.89607 369.55207 392.20808 407.42408 422.90409 430.5601 439.0081 452.5441 463.8241 477.3121 492.7921 507.50413 518.7841 534.2641 548.1121 556.5601 567.84017 579.14419 591.9842 599.4242 612.2642 625.1762 638.6642 647.1122 659.9522 674.6642 685.9442 694.3922 708.24026">must be undertaken as a community and not relegated to </tspan></text>
<text fill="#ffffff" xml:space="preserve" transform="matrix(.75 0 0 .75 90.36614 21.578742)" font-size="24" font-family="DroidSerif"><tspan y="322.04" x="9 19.824002 42.480005 55.968004 63.408 70.848 80.4 91.224 104.063999 116.976 139.632 152.472 167.952 176.4 187.224 196.776 210.62401 219.48001 229.03202 241.94402 255.79203 269.68803 282.528 293.83204 309.31205 331.96806 344.80805 360.28807 368.73606 374.73606 384.28807 392.73606 407.95207 420.79206 430.34407 441.16807 452.97608 460.63209 473.47209 488.9521 497.4001 505.0561 513.9121 521.5681 533.3761 542.9281 554.7361 568.5841 591.2401 613.8961 629.1121 644.5921 652.2481 660.6961 674.2321 683.7841 697.63217 708.93618">small segments of government, the scientific community or </tspan></text>
<text fill="#ffffff" xml:space="preserve" transform="matrix(.75 0 0 .75 90.36614 21.578742)" font-size="24" font-family="DroidSerif"><tspan y="351.04" x="9 19.824002 33.672 45.480005 53.136 65.976 74.423999 85.824 92.687999 100.368 114.864 129.6 143.136 153.96 161.61602 173.42401 181.08002 191.90402 200.35202 211.17603 218.85604 227.71204 241.20005 253.00804 265.84806 280.56007 288.24006 301.72807 309.40806 320.23207 327.88807 350.54408 358.20008 365.64009 379.12809 390.43208 398.11207 408.93608 416.59208 425.04008 440.25608 453.74409 462.19209 469.84809 483.69609 499.1761 506.85609 514.5121 529.99209 537.67208 546.12008 561.33609 574.1761 581.8561 595.2721 608.6881 622.1041 635.52017 646.3441 654.0241 674.6881 682.3441 690.7921 706.0081">society. Physicists faced a similar situation in the 1940s with </tspan></text>
<text fill="#ffffff" xml:space="preserve" transform="matrix(.75 0 0 .75 90.36614 21.578742)" font-size="24" font-family="DroidSerif"><tspan y="380.04" x="9 24.480002 39.696 51.503999 58.943998 71.784 85.271999 96.576 109.68 130.344 143.18399 156.672 171.384 185.23201 200.712 211.53601 224.64002 235.94402 248.78401 259.608 272.448 285.936 297.24 309.048 324.264 330.264 343.368 356.85603 372.33604 387.04804 400.15205 407.80805 416.25605 429.36006 437.01606 447.84007 460.94407 468.60008 484.08009 496.92008 510.81608 518.47207 526.92007 540.408 555.12 562.56 575.4 588.504 596.952 612.168 625.656 634.104 647.208 661.056 669.504 684.72006 697.56008 708.8641">nuclear weapons research, and it is inevitable that other </tspan></text>
<text fill="#ffffff" xml:space="preserve" transform="matrix(.75 0 0 .75 90.36614 21.578742)" font-size="24" font-family="DroidSerif"><tspan y="409.04" x="9 19.824002 31.632002 39.288003 52.128004 67.608 76.056 83.712 92.568 100.224 112.032 118.248 132.96 140.61602 151.44002 163.24802 170.90402 185.61603 193.05603 200.71204 216.19203 229.03203 239.85604 246.07204 266.73603 274.39204 281.83204 289.27204 295.48805 308.97605 316.41606 327.24006 341.08805 347.30406 362.01606 375.86405 382.08006 392.90406 406.75205 413.61607 424.41606">scientific disciplines will also do so.&#x201d; </tspan></text>
<text fill="#ffffff" xml:space="preserve" transform="matrix(.75 0 0 .75 90.36614 21.578742)" font-size="24" font-family="DroidSerif"><tspan y="467.04" x="9 33 39.216 57.528 71.016 79.464 86.904 93.768 99.984 113.01601 125.856 137.664 152.88 164.184 171.84001 180.28801 193.824 200.04001 216.48001 231.19202 245.08802 252.74402 263.56803 277.41603 288.72004 302.25605 308.47206 324.14405 337.99205 351.48005 362.78407 377.49607 383.71208 392.56806 406.41606 417.72004 423.93605 439.60804 447.26405 461.11204 471.93605 484.77604 496.58406 511.80006 523.10409 530.7601 539.20809 550.6081 556.6081 562.8241 571.1281 584.5441 597.96017 611.37619 624.7922">&#x2014; Natl. Security Advisory Board for Biosecurity, (2012)</tspan></text>
</g>
</g>
</g>
</svg>
