<?xml version="1.0" encoding="UTF-8" standalone="no"?>
<!DOCTYPE svg PUBLIC "-//W3C//DTD SVG 1.1//EN" "http://www.w3.org/Graphics/SVG/1.1/DTD/svg11.dtd">
<svg xmlns="http://www.w3.org/2000/svg" xmlns:xlink="http://www.w3.org/1999/xlink" version="1.1" width="720pt" height="405pt" viewBox="0 0 720 405">
<g enable-background="new">
<g>
<clipPath id="cp107">
<path transform="matrix(.001968504,0,0,.001968504,0,0)" d="M 0 0 L 365760 0 L 365760 205740 L 0 205740 L 0 0 Z "/>
</clipPath>
<g clip-path="url(#cp107)">
<path transform="matrix(.001968504,0,0,.001968504,0,0)" d="M 0 0 L 365568 0 L 365568 205740 L 0 205740 Z " fill-opacity=".2577" fill-rule="evenodd"/>
<path transform="matrix(.001968504,0,0,.001968504,0,0)" d="M 45906 10962 L 319662 10962 L 319662 194778 L 45906 194778 Z " fill-opacity="0" fill-rule="evenodd"/>
<text fill="#ffffff" xml:space="preserve" transform="matrix(.75 0 0 .75 90.36614 21.578742)" font-size="32" font-family="DroidSerif"><tspan y="191.72" x="9 31.560002 43.368005 54.632005 71.75201 86.824008 117.54401 131.97602 149.09601 167.62401 184.744 199.17601 217.16 227.08 257.8 288.008 306.472 327.112 338.376 358.664 373.096 381.096 411.816 423.08003 443.368 460.488 491.208 510.824 527.94406 543.68807 553.89608 568.32809 578.5361 597.00009 617.6401 648.3601 675.9121 693.8961 708.3281">After several months, the decision was </tspan></text>
<text fill="#ffffff" xml:space="preserve" transform="matrix(.75 0 0 .75 90.36614 21.578742)" font-size="32" font-family="DroidSerif"><tspan y="229.72" x="9 24.072 41.192 59.72 76.840007 91.912 106.344 123.464008 143.08 151.08 159.752 177.736 198.37599 217.99199 226.66399 244.64798 253.31998 268.39198 285.51197 304.03999 314.248 328.68 345.8 365.416 374.08799 392.616 409.736 424.80799 439.24 449.448 467.912 488.552 497.224 515.688 527.496 536.16799 547.43197 567.72 584.83999 593.51199 613.128 623.336 638.408 658.02407 666.69607 678.504 688.424 708.71206">reversed, and a revised version of the bird flu </tspan></text>
<text fill="#ffffff" xml:space="preserve" transform="matrix(.75 0 0 .75 90.36614 21.578742)" font-size="32" font-family="DroidSerif"><tspan y="267.72" x="9 28.616002 46.600004 66.216 83.336009 98.408008 118.632 146.184 164.168 178.6 198.824 216.80802 236.42401 256.04 271.112 289.576 308.104 325.224 344.84 365.064 376.872 395.336 410.408 430.632 450.248 470.53599 490.15199 500.072 510.28 526.024 544.008 555.272 565.48 583.944 604.584 612.584 632.808 651.784 669.832 690.05599 708.04">paper was approved for publication, by a </tspan></text>
<text fill="#ffffff" xml:space="preserve" transform="matrix(.75 0 0 .75 90.36614 21.578742)" font-size="32" font-family="DroidSerif"><tspan y="305.72" x="9 27.528002 45.992006 57.256006 74.37601 82.66401 101.128009 112.936008 121.22401 139.112 157 165.288 176.552 195.016 203.304">vote of 12 to 6</tspan></text>
</g>
</g>
</g>
</svg>
