<?xml version="1.0" encoding="UTF-8" standalone="no"?>
<!DOCTYPE svg PUBLIC "-//W3C//DTD SVG 1.1//EN" "http://www.w3.org/Graphics/SVG/1.1/DTD/svg11.dtd">
<svg xmlns="http://www.w3.org/2000/svg" xmlns:xlink="http://www.w3.org/1999/xlink" version="1.1" width="720pt" height="405pt" viewBox="0 0 720 405">
<g enable-background="new">
<g>
<clipPath id="cp108">
<path transform="matrix(.001968504,0,0,.001968504,0,0)" d="M 0 0 L 365760 0 L 365760 205740 L 0 205740 L 0 0 Z "/>
</clipPath>
<g clip-path="url(#cp108)">
<path transform="matrix(.001968504,0,0,.001968504,0,0)" d="M 0 0 L 365568 0 L 365568 205740 L 0 205740 Z " fill-opacity=".2577" fill-rule="evenodd"/>
<path transform="matrix(.001968504,0,0,.001968504,0,0)" d="M 45906 25686 L 319662 25686 L 319662 180054 L 45906 180054 Z " fill-opacity="0" fill-rule="evenodd"/>
<text fill="#ffffff" xml:space="preserve" transform="matrix(.75 0 0 .75 90.36614 50.56299)" font-size="32" font-family="DroidSerif"><tspan y="39.72" x="9 29.896002 50.184003 61.448 93.608 113.224 130.344 148.328 167.944 177.864 195.912 228.07199 248.71199 265.832 293.384 325.544 345.16 355.368 369.80003 386.92 404.90403 419.33604 436.45603 450.88804 483.04804 503.68806 520.80807 537.92807 557.54409 589.7041 610.3441 628.8081 640.0721 672.2321 691.84817 708.96817">But deadly new diseases need not be </tspan></text>
<text fill="#ffffff" xml:space="preserve" transform="matrix(.75 0 0 .75 90.36614 50.56299)" font-size="32" font-family="DroidSerif"><tspan y="77.72" x="9 26.984002 42.056 53.32 63.528 75.336 85.544 101.288 111.496 129.48001 139.40001 148.552 164.2 179.84799 191.592 212.232 227.87999 251.144 268.264 284.008 301.128 331.336 350.952 368.072 383.14399 398.79197 417.25596 429.06398 444.71195 462.59996 480.48796 498.37596 516.2639 531.9119 542.11996 562.75997 578.40798 598.024 618.312 628.52 649.16006 667.14407 675.14407 690.79208 708.77609">artificial.  In December of 2019 in China, a </tspan></text>
<text fill="#ffffff" xml:space="preserve" transform="matrix(.75 0 0 .75 90.36614 50.56299)" font-size="32" font-family="DroidSerif"><tspan y="115.72" x="9 29.640002 46.760004 74.312007 104.104007 123.72 140.84 158.824 178.44 188.36 206.408 236.2 256.488 276.776 306.984 324.96803 345.60804 355.52806 365.73606 386.37608 398.18409 415.30409 431.04808 442.31208 452.52009 473.1601 490.3761 520.1681 539.7841 558.2481 573.3201 591.7841 612.42416 630.40817 648.93618 659.14419 674.2162 694.5042 708.9362">new deadly human-infecting Coronavirus </tspan></text>
<text fill="#ffffff" xml:space="preserve" transform="matrix(.75 0 0 .75 90.36614 50.56299)" font-size="32" font-family="DroidSerif"><tspan y="153.72" x="9 36.552003 54.536005 68.968 77.256008 87.464008 107.08 124.200008 144.84001 156.10402 166.31201 178.12001 188.328 205.448 225.064 233.35199 251.336 271.976 291.592 299.88 320.52003 338.50404 368.71205 385.83204 405.44804 413.73603 429.48 447.944 466.47203 476.68003 496.29603 506.21604 524.104 541.992">was identified and named covid-19.</tspan></text>
<text fill="#ffffff" xml:space="preserve" transform="matrix(.75 0 0 .75 90.36614 50.56299)" font-size="32" font-family="DroidSerif"><tspan y="229.72" x="9 29.256003 47.304 70.952 88.520008 105.64001 125.25601 140.32802 160.61602 178.6 193.67201 211.72002 235.36801 253.83202 265.64 289.28804 307.17604 325.06404 342.95204 360.84004 384.48805 395.75205 416.04005 433.16004 448.23204 465.35203 489 516.552 533.672 548.744 565.864 589.512 600.776 617.896 638.536 652.968 676.616 695.08 706.888">By February of 2020 there were tens of </tspan></text>
<text fill="#ffffff" xml:space="preserve" transform="matrix(.75 0 0 .75 90.36614 50.56299)" font-size="32" font-family="DroidSerif"><tspan y="267.72" x="9 20.264 40.552003 59.016004 79.304 93.736 111.72 132.36 151.976 166.408 177.992 196.45601 208.264 219.848 235.59201 254.05602 274.696 286.50404 296.71205 311.78404 341.99205 359.11204 378.72804 390.312 406.056 424.04 438.47203 455.592 470.02403 481.608 499.592 520.232 539.848 551.43209 562.69607 582.9841 601.44808 621.7361 636.1681 654.1521 674.7921 694.40817 708.84017">thousands of confirmed cases and thousands </tspan></text>
<text fill="#ffffff" xml:space="preserve" transform="matrix(.75 0 0 .75 90.36614 50.56299)" font-size="32" font-family="DroidSerif"><tspan y="305.72" x="9 27.464 39.272005 67.11201 86.72801 103.848018 121.832019 133.09603 153.38402 167.81603 176.96802 204.80802 232.64801 255.20801 275.84803 295.46403 323.30403 341.28804 361.92805 389.76805 406.88804 425.38404 445.00004 463.46403 484.10404 501.22404 521.864 533.128 543.336 561.32 571.24 599.08 616.296 631.36807 649.83206 677.38406 688.648 708.93606">of deaths.  And an exponential growth </tspan></text>
<text fill="#ffffff" xml:space="preserve" transform="matrix(.75 0 0 .75 90.36614 50.56299)" font-size="32" font-family="DroidSerif"><tspan y="343.72" x="9 28.616002 46.600004 57.864004 69.128009 86.24801 101.32001 121.96001 135.08 146.34401 166.632 184.616 195.88 209 223.432 243.72 262.184 289.736 306.856 326.472 339.59199 360.232 378.69599 391.81599 406.248 416.456 433.672 454.312 468.74403 481.864 500.328 512.136 525.256 539.688 550.95199 569.41598 589.032 608.648 618.856 639.49606 656.71206 669.83206 688.296 708.93606">pattern that showed no signs of stopping on </tspan></text>
<text fill="#ffffff" xml:space="preserve" transform="matrix(.75 0 0 .75 90.36614 50.56299)" font-size="32" font-family="DroidSerif"><tspan y="381.72" x="9 19.208 30.472 44.904 53.192 71.656009 99.20801 119.84801">its own.</tspan></text>
</g>
</g>
</g>
</svg>
