<?xml version="1.0" encoding="UTF-8" standalone="no"?>
<!DOCTYPE svg PUBLIC "-//W3C//DTD SVG 1.1//EN" "http://www.w3.org/Graphics/SVG/1.1/DTD/svg11.dtd">
<svg xmlns="http://www.w3.org/2000/svg" xmlns:xlink="http://www.w3.org/1999/xlink" version="1.1" width="720pt" height="405pt" viewBox="0 0 720 405">
<g enable-background="new">
<g>
<clipPath id="cp109">
<path transform="matrix(.001968504,0,0,.001968504,0,0)" d="M 0 0 L 365760 0 L 365760 205740 L 0 205740 L 0 0 Z "/>
</clipPath>
<g clip-path="url(#cp109)">
<path transform="matrix(.001968504,0,0,.001968504,0,0)" d="M 0 0 L 365568 0 L 365568 205740 L 0 205740 Z " fill-opacity=".2577" fill-rule="evenodd"/>
<path transform="matrix(.001968504,0,0,.001968504,0,0)" d="M 17292 17322 L 348468 17322 L 348468 188418 L 17292 188418 Z " fill-opacity="0" fill-rule="evenodd"/>
<text fill="#ffffff" xml:space="preserve" transform="matrix(.75 0 0 .75 34.039369 34.098424)" font-size="32" font-family="DroidSerif"><tspan y="39.72" x="9 29.256003 47.304 61.704004 91.688 109.672008 124.744 140.488 160.776 168.776 183.176 194.44 214.728 231.84799 246.24799 265.86399 276.072 290.504 307.624 325.608 340.04 357.16 371.56 391.848 409.832 429.448 443.848 458.28 477.896 492.968 510.08799 528.07199 547.688 562.088 573.352 591.816 606.216 636.424 654.408 674.408 692.456 706.856 722.60006 741.064 761.35208 781.99209 793.25607 808.32809 818.5361 835.65609 850.0881 858.0881">By March, the disease had spread to many countries, </tspan></text>
<text fill="#ffffff" xml:space="preserve" transform="matrix(.75 0 0 .75 34.039369 34.098424)" font-size="32" font-family="DroidSerif"><tspan y="77.72" x="9 19.208 39.848 55.592 65.512 85.8 105.416 115.624 136.264 153.48001 174.056 185.32 205.608 222.728 243.30399 266.21598 286.856 297.064 308.328 325.448 345.064 365.63999 383.016 394.28 412.264 423.528 440.648 455.08003 464.23204 484.808 505.384 526.28 546.56808 557.83206 578.4081 589.67208 609.9601 627.0801 647.6561 670.5681 691.2081 701.41616 712.6801 729.8001 749.41616 769.9922 787.36819 798.63217 816.61618 827.8801 845.0001 859.4321">including the United States.  But the United States </tspan></text>
<text fill="#ffffff" xml:space="preserve" transform="matrix(.75 0 0 .75 34.039369 34.098424)" font-size="32" font-family="DroidSerif"><tspan y="115.72" x="9 26.216002 44.68 63.208 80.328 95.4 116.04 146.248 163.368 184.008 195.272 209.896 221.704 240.168 255.24 274.85603 292.84004 312.45603 329.57603 344.2 362.18403 372.10404 382.02406 396.64805 407.91206 425.03205 439.46406 450.72807 460.93608 481.57609 498.79209 513.4161 527.8481 545.8321 564.3601 581.4801 596.1041 607.9121 626.3761 641.4481 656.07217 675.6882 693.6722 704.93618 715.14419 732.26419 752.9042 764.16818 778.60018 793.2242 820.7762 841.0642 859.5282">government forbade all testing save for patients who </tspan></text>
<text fill="#ffffff" xml:space="preserve" transform="matrix(.75 0 0 .75 34.039369 34.098424)" font-size="32" font-family="DroidSerif"><tspan y="153.72" x="9 29.288 47.272005 66.888 75.624 95.240009 112.36001 129.48001 150.12001 158.856 170.12001 188.58402 197.32 216.936 237.224 247.432 268.07203 286.05604 295.20805 303.94404 312.68003 336.424 348.23204 360.04005 370.24806 385.99205 396.20005 414.18406 424.10408 434.02409 449.2241 457.2241 465.96009 477.2241 497.5121 514.6321 523.3681 534.6321 551.7521 566.1841 577.44808 586.1841 613.7361 631.7201 646.1521 654.8881 675.52816 693.9921 705.2561 713.9921 732.52017 750.50418 760.42416 770.63217 790.24819 808.2322 819.49618 836.61618 856.2322">had been to China.  Officially, the test was not validated </tspan></text>
<text fill="#ffffff" xml:space="preserve" transform="matrix(.75 0 0 .75 34.039369 34.098424)" font-size="32" font-family="DroidSerif"><tspan y="191.72" x="9 26.984002 44.200006 62.184007 72.392009 93.032009 107.464008 118.728008 127.01601 142.76001 161.22402 179.75202 189.96002 209.57602">against covid </tspan></text>
<text fill="#ffffff" xml:space="preserve" transform="matrix(.75 0 0 .75 34.039369 34.098424)" font-size="32" font-family="DroidSerif" font-weight="bold"><tspan y="191.72" x="218.07813 234.91013 254.49413 275.80613 288.73414 304.79814 323.96614 340.79814 353.72615 371.96614 392.70213 400.9901 428.3501 439.6141 452.5421 473.85414 485.11814 506.43016 514.71817 527.6461 548.9581 567.1981 575.48617 599.39016 620.70217 631.9661 644.8941 663.1341 683.8701 692.15817 710.8782 723.80618 742.9742 755.90219 774.14218">contracted within the United States</tspan></text>
<text fill="#ffffff" xml:space="preserve" transform="matrix(.75 0 0 .75 34.039369 34.098424)" font-size="32" font-family="DroidSerif"><tspan y="191.72" x="790.53128">.</tspan></text>
<text fill="#ffffff" xml:space="preserve" transform="matrix(.75 0 0 .75 34.039369 34.098424)" font-size="32" font-family="DroidSerif"><tspan y="267.72" x="9 32.264 42.472 62.088 73.736 85 105.288 122.408008 140.45601 152.104 179.656 197.64002 218.28002 229.54402 241.19202 252.45603 272.74403 289.864 301.512 321.128 331.336 345.768 362.888 380.872 395.30403 412.424 424.072 435.336 453.8 465.44798 476.71199 496.99998 512.07199 522.27999 540.808 557.928 573.928 585.576 597.224 620.488 630.696 650.312 661.96 673.224 693.512 710.632 728.68 740.328 767.88 785.864 806.504 817.768 829.416 840.68 859.144">Did they want the disease to thrive?  Did they want to </tspan></text>
<text fill="#ffffff" xml:space="preserve" transform="matrix(.75 0 0 .75 34.039369 34.098424)" font-size="32" font-family="DroidSerif"><tspan y="305.72" x="9 20.808 31.016 48.232004 68.520008 79.784008 91.656009 102.920009 123.20801 140.328 152.2 171.816 188.93599 204.008 219.752 236.872 256.488 267.752 277.96003 296.424 317.06404 328.93605 347.40003 359.20805 371.08006 390.69606 400.90406 415.33607 432.45606 450.44007 464.87208 481.99208 489.99208 501.86408 522.1521 540.1361 558.6641 568.87216 589.51217 606.72817 618.60018 630.40817 648.87216 663.94418 681.16018 699.62417 710.8881 722.1521 739.2721 759.9121 771.7841 789.7681 809.38418 827.84817 848.13619 859.40017">fight the perception of disease, having forgotten about </tspan></text>
<text fill="#ffffff" xml:space="preserve" transform="matrix(.75 0 0 .75 34.039369 34.098424)" font-size="32" font-family="DroidSerif"><tspan y="343.72" x="9 24.072 41.192 59.176004 69.096 79.304 90.568 108.616 124.616 145.896 167.176 198.728 215.84799 230.92 248.04 269.32 280.584 300.872 317.992 336.04 357.32 371.752 381.96003 412.16804 431.78404 441.70405 459.75205 481.03205 492.84007 511.30406 521.22409 531.14407 549.60806 577.16006 587.36807 608.00808 625.22409 646.5041 661.5761 681.86416 691.7841 708.9041 723.3361 731.3361 752.61618 772.9042 790.8882 809.4162 819.6242 840.2642 857.4802">reality?  Were they simply following rules, having </tspan></text>
<text fill="#ffffff" xml:space="preserve" transform="matrix(.75 0 0 .75 34.039369 34.098424)" font-size="32" font-family="DroidSerif"><tspan y="381.72" x="9 20.808 39.272005 54.344 71.560009 90.024 101.288 112.552 129.672 150.312 166.18399 184.168 203.784 222.248 242.536 253.8 269.67204 286.88804 305.35203 323.33604 333.25605 343.17607 361.64006 376.71205 386.92005 404.04005 424.68006 435.94407 453.06407 472.68006 488.55207 508.16807 525.2881 545.5761 563.5601 582.08816 592.29617 610.76016 625.83218 641.70419 658.82418 679.4642 690.72817 700.93618 716.0082 733.1282 743.04818 761.0961 777.0961 792.96817 808.84017 840.39218 857.51217">forgotten about goal-oriented behavior entirely?  We </tspan></text>
<text fill="#ffffff" xml:space="preserve" transform="matrix(.75 0 0 .75 34.039369 34.098424)" font-size="32" font-family="DroidSerif"><tspan y="419.72" x="9 36.552003 46.760004 56.68 66.6 74.888 84.808 95.016 113.064 130.184 140.104 158.15201 166.44 187.08 204.2 222.728 239.84799 254.92 263.208 281.896 302.536 321 346.344">will likely never know.</tspan></text>
</g>
</g>
</g>
</svg>
