<?xml version="1.0" encoding="UTF-8" standalone="no"?>
<!DOCTYPE svg PUBLIC "-//W3C//DTD SVG 1.1//EN" "http://www.w3.org/Graphics/SVG/1.1/DTD/svg11.dtd">
<svg xmlns="http://www.w3.org/2000/svg" xmlns:xlink="http://www.w3.org/1999/xlink" version="1.1" width="720pt" height="405pt" viewBox="0 0 720 405">
<g enable-background="new">
<g>
<clipPath id="cp113">
<path transform="matrix(.001968504,0,0,.001968504,0,0)" d="M 0 0 L 365760 0 L 365760 205740 L 0 205740 L 0 0 Z "/>
</clipPath>
<g clip-path="url(#cp113)">
<path transform="matrix(.001968504,0,0,.001968504,0,0)" d="M 0 0 L 365568 0 L 365568 205740 L 0 205740 Z " fill-opacity=".2577" fill-rule="evenodd"/>
<path transform="matrix(.001968504,0,0,.001968504,0,0)" d="M 17292 17322 L 348468 17322 L 348468 188418 L 17292 188418 Z " fill-opacity="0" fill-rule="evenodd"/>
<text fill="#ffffff" xml:space="preserve" transform="matrix(.75 0 0 .75 34.039369 34.098424)" font-size="32" font-family="DroidSerif"><tspan y="39.72" x="9 31.560002 41.480005 59.944005 80.58401 97.80001 134.40802 161.96002 172.16803 183.43204 203.72003 240.32804 260.61604 277.73603 292.808 311.272 321.48 337.224 373.832 393.448 410.568 422.376 432.584 450.56803 471.20805 486.95204 504.07203 512.072 548.68008 559.94406 580.23208 597.35208 612.4241 629.54409 666.1521 693.7041 711.6881 726.1201 762.72817 783.0162 800.13619 815.2082 833.6722 843.8802 859.6242">Along with heroic defiance, there was heroic </tspan></text>
<text fill="#ffffff" xml:space="preserve" transform="matrix(.75 0 0 .75 34.039369 34.098424)" font-size="32" font-family="DroidSerif"><tspan y="77.72" x="9 24.744 43.208 61.672 81.288 98.408008 112.840007 130.824 142.08802 152.29602 170.76003 191.40003">cooperation.</tspan></text>
<text fill="#ffffff" xml:space="preserve" transform="matrix(.75 0 0 .75 34.039369 34.098424)" font-size="32" font-family="DroidSerif"><tspan y="153.72" x="9 28.936 47.464006 64.58401 85.22401 103.36801 130.92002 151.20801 168.328 188.968 207.112 217.32 228.58402 246.72801 274.28004 292.26405 306.69606 324.84004 336.10404 356.39204 374.85603 395.144 412.36003 432.648 443.91203 462.056 473.32 493.608 511.592 522.856 541.00009 571.20809 589.1921 603.6241 622.3121 636.7441 654.8881 673.3521 693.9921 703.9121 721.9601 740.1041 759.72018 769.64016 788.1041 803.84817 821.8961 839.0161 858.63217">Even when it was thought that masks only blocked </tspan></text>
<text fill="#ffffff" xml:space="preserve" transform="matrix(.75 0 0 .75 34.039369 34.098424)" font-size="32" font-family="DroidSerif"><tspan y="191.72" x="9 27.464 47.752 59.016 78.632 97.09601 117.38401 138.02402 157.64002 177.544 188.80802 203.24002 221.22403 241.86403 256.29603 286.50404 296.71205 311.14405 325.57606 335.78407 354.24806 374.88807 382.88807 402.79206 422.40806 439.52806 457.99205 477.60804 487.52806 504.64805 524.55209 552.10409 570.56808 585.6401 602.7601 622.6641 652.87216 670.85617 685.28817 703.97616 718.40817 727.5601 747.4642 767.3682 800.8402 821.12826 838.2482 858.88827">outbound transmission, people wore masks.  When </tspan></text>
<text fill="#ffffff" xml:space="preserve" transform="matrix(.75 0 0 .75 34.039369 34.098424)" font-size="32" font-family="DroidSerif"><tspan y="229.72" x="9 20.264 40.552003 57.672006 75.72 99.304 115.048007 133.51201 153.8 163.72 183.336 206.92 227.56 246.024 257.288 280.87199 300.48799 320.77598 338.82398 362.40797 373.67198 393.95997 411.07997 441.28797 449.28797 472.87196 484.13597 504.42396 521.54397 539.5919 563.17599 593.384 611.368 630.984 648.104 671.68807 682.952 703.24008 720.36007 750.56808 759.72006 783.3041 806.8881 824.4561 842.9201 857.9921">they could not buy them, they made them.  For </tspan></text>
<text fill="#ffffff" xml:space="preserve" transform="matrix(.75 0 0 .75 34.039369 34.098424)" font-size="32" font-family="DroidSerif"><tspan y="267.72" x="9 20.264 40.552003 57.672006 87.880008 102.312007 119.43201 129.352 147.88 165 179.432 187.72 205.70401 226.34401 245.96 254.248 266.056 284.52 299.59199 307.87998 326.34397 337.60798 357.89598 375.01597 390.08796 404.51997">themselves and for others.</tspan></text>
<text fill="#ffffff" xml:space="preserve" transform="matrix(.75 0 0 .75 34.039369 34.098424)" font-size="32" font-family="DroidSerif"><tspan y="343.72" x="9 31.560002 52.200006 71.81601 87.752017 115.304019 135.59201 152.712 173.352 189.288 209.57599 228.04 242.472 262.088 272.29603 283.56004 301.54405 311.46406 325.89607 341.83207 356.26405 374.24806 394.88807 410.82408 420.74409 439.20808 466.76008 482.69609 501.16007 521.80007 537.7361 549.54409 567.5281 583.2721 600.3921 616.3281 630.76016 651.04818 661.25619 678.37619 688.29617 707.9122 722.3442 730.3442 746.2802 764.2642 780.20028 790.12026 808.5842 827.0482 841.4802 858.6002">And when hospitals ran low on face shields, a loose </tspan></text>
<text fill="#ffffff" xml:space="preserve" transform="matrix(.75 0 0 .75 34.039369 34.098424)" font-size="32" font-family="DroidSerif"><tspan y="381.72" x="9 24.744 43.208 63.848 78.28 96.744 111.816 123.08 133.288 153.57599 183.784 210.88799 229.35199 241.15999 268.26399 286.15199 305.76799 315.688 335.304 350.37599 360.58399 381.224 392.488 402.696 423.33604 440.55204 467.65605 484.77604 505.41606 516.68008 536.9681 557.2561 571.6881 581.8961 599.8801 614.31216 625.5761 640.0081 667.1121 684.3281 702.31216 713.5761 733.86416 750.98416 766.05618 783.17617 802.7922 829.8962 841.16018 859.62417">consortium of 3d-printing enthusiasts gathered to </tspan></text>
<text fill="#ffffff" xml:space="preserve" transform="matrix(.75 0 0 .75 34.039369 34.098424)" font-size="32" font-family="DroidSerif"><tspan y="419.72" x="9 28.616002 43.688005 62.152006 81.768009 102.05601 117.80001 134.92002 143.20801 154.47202 174.76001 191.88 222.08802 230.376 249.352 267.4 275.688 286.952 307.24 324.36 332.64799 362.856 373.064 382.984 392.90403 403.11204 421.57603 442.21604 456.64805">produce them by the millions.</tspan></text>
</g>
</g>
</g>
</svg>
