<?xml version="1.0" encoding="UTF-8" standalone="no"?>
<!DOCTYPE svg PUBLIC "-//W3C//DTD SVG 1.1//EN" "http://www.w3.org/Graphics/SVG/1.1/DTD/svg11.dtd">
<svg xmlns="http://www.w3.org/2000/svg" xmlns:xlink="http://www.w3.org/1999/xlink" version="1.1" width="720pt" height="405pt" viewBox="0 0 720 405">
<g enable-background="new">
<g>
<clipPath id="cp114">
<path transform="matrix(.001968504,0,0,.001968504,0,0)" d="M 0 0 L 365760 0 L 365760 205740 L 0 205740 L 0 0 Z "/>
</clipPath>
<g clip-path="url(#cp114)">
<path transform="matrix(.001968504,0,0,.001968504,0,0)" d="M 0 0 L 365568 0 L 365568 205740 L 0 205740 Z " fill-opacity=".2577" fill-rule="evenodd"/>
<path transform="matrix(.001968504,0,0,.001968504,0,0)" d="M 45906 40662 L 319662 40662 L 319662 165078 L 45906 165078 Z " fill-opacity="0" fill-rule="evenodd"/>
<text fill="#ffffff" xml:space="preserve" transform="matrix(.75 0 0 .75 90.36614 80.043308)" font-size="32" font-family="DroidSerif"><tspan y="39.72" x="9 31.560002 52.200006 71.81601 99.40001 113.83201 132.296 159.88 187.432 204.552 232.136 247.20801 264.328 282.312 298.056 318.344 345.92799 357.192 377.47999 394.59999 422.18397 441.79997 456.87196 473.99195 488.42396 505.54396 526.18399 537.44796 565.032 579.464 589.672 600.936 621.224 639.208 650.472 660.68 679.144 699.784 708.968">And so we reach the present situation: </tspan></text>
<text fill="#ffffff" xml:space="preserve" transform="matrix(.75 0 0 .75 90.36614 80.043308)" font-size="32" font-family="DroidSerif"><tspan y="77.72" x="9 29.640002 46.760004 56.968004 68.232 88.520008 105.64001 120.712009 129.8 149.416 166.536 184.51999 204.13599 213.22399 233.86399 252.32799 267.4 276.48799 287.75199 302.82398 313.03199 333.31999 363.52799 383.14399 403.43199 421.416 442.056 453.32 462.47203 471.56 480.64799 503.20799 523.84799 543.464 552.552 573.192 591.656 602.92 612.008 622.216 642.856 651.94406 669.92807 689.92807 707.976">neither dead nor triumphant.  And not in any </tspan></text>
<text fill="#ffffff" xml:space="preserve" transform="matrix(.75 0 0 .75 90.36614 80.043308)" font-size="32" font-family="DroidSerif"><tspan y="115.72" x="9 27.688002 37.896005 58.536005 78.15201 86.44001 104.90401 116.712009 125.00001 139.432 150.69602 168.68003 188.29602 198.21602 215.33602 223.62401 238.05602 249.32003 267.30403 278.56803 295.68803">kind of stable state.</tspan></text>
<text fill="#ffffff" xml:space="preserve" transform="matrix(.75 0 0 .75 90.36614 80.043308)" font-size="32" font-family="DroidSerif"><tspan y="191.72" x="9 28.584002 48.872 65.992008 81.256008 100.87201 115.94401 133.06401 147.49602 164.61602 185.25601 196.52002 211.78401 231.40001 248.744 263.944 273.096 288.36003 303.62403 328.04005 345.16004 355.36805 366.63206 386.92005 404.04005 419.11204 434.37605 445.64006 465.92805 483.04804 498.31205 517.92807 535.91207 550.34408 561.60806 569.60806 584.8721 612.4241 622.6321 633.89608 654.1841 669.4481 679.6561 690.9201 705.3521">The present day.  Neither the past, with its </tspan></text>
<text fill="#ffffff" xml:space="preserve" transform="matrix(.75 0 0 .75 90.36614 80.043308)" font-size="32" font-family="DroidSerif"><tspan y="229.72" x="9 24.744 34.664 52.648004 67.72 77.928 89.192 104.392009 112.392009 123.27201 143.91202 162.37602 177.44803 188.32802 199.59203 219.88002 237.00002 247.88 259.68803 279.976 291.24003 311.528 326.6 343.72 351.72 362.6 390.152 400.36003 411.62403 431.91203 442.79203 453.00004 464.26405 478.69606 489.57606 517.12808 535.59207 556.23208 575.8481 592.9681 608.0401 622.4721 631.6241 642.5041 653.3841 674.2801 694.5681 705.8321">clarity, nor the future, with its wonders.  But </tspan></text>
<text fill="#ffffff" xml:space="preserve" transform="matrix(.75 0 0 .75 90.36614 80.043308)" font-size="32" font-family="DroidSerif"><tspan y="267.72" x="9 36.552003 46.760004 58.024003 78.312007 87.656009 97.864009 109.128009 123.560009 132.904 151.36801 178.92002 199.56002 208.904 229.192 249.832 260.04 279.656 299.944 317.064 326.408 343.624 353.832 365.64 376.90403 386.088 395.432 406.696 426.984 444.96803 456.23204 465.57603 493.12803 510.24803 519.59207 529.512 539.432 548.77609 560.04006 580.32809 597.44808 606.7921 626.40817 643.52816 661.9921 681.60818 691.52816 708.64816">with its own unique gift: that we -- the people </tspan></text>
<text fill="#ffffff" xml:space="preserve" transform="matrix(.75 0 0 .75 90.36614 80.043308)" font-size="32" font-family="DroidSerif"><tspan y="305.72" x="9 26.216002 44.200006 55.464006 75.75201 92.87201 107.94401 125.06401 144.68001 152.968 173.256 190.37599 205.448 222.568 230.85599 240.77599 250.69599 258.98399 274.72798 292.71199 313.352 321.63999 339.624 355.36799 366.632 374.91999 385.128 405.768 414.056 424.264 435.528">gathered here -- can act in it.</tspan></text>
</g>
</g>
</g>
</svg>
