<?xml version="1.0" encoding="UTF-8" standalone="no"?>
<!DOCTYPE svg PUBLIC "-//W3C//DTD SVG 1.1//EN" "http://www.w3.org/Graphics/SVG/1.1/DTD/svg11.dtd">
<svg xmlns="http://www.w3.org/2000/svg" xmlns:xlink="http://www.w3.org/1999/xlink" version="1.1" width="720pt" height="405pt" viewBox="0 0 720 405">
<g enable-background="new">
<g>
<clipPath id="cp116">
<path transform="matrix(.001968504,0,0,.001968504,0,0)" d="M 0 0 L 365760 0 L 365760 205740 L 0 205740 L 0 0 Z "/>
</clipPath>
<g clip-path="url(#cp116)">
<path transform="matrix(.001968504,0,0,.001968504,0,0)" d="M 0 0 L 365568 0 L 365568 205740 L 0 205740 Z " fill-opacity=".2577" fill-rule="evenodd"/>
<path transform="matrix(.001968504,0,0,.001968504,0,0)" d="M 37506 52716 L 328254 52716 L 328254 153024 L 37506 153024 Z " fill-opacity="0" fill-rule="evenodd"/>
<text fill="#ffffff" xml:space="preserve" transform="matrix(.75 0 0 .75 73.83071 103.77165)" font-size="32" font-family="DroidSerif"><tspan y="39.72" x="9 20.744 29.032 44.776 62.760004 83.4 91.688 109.672008 125.41601 136.68001">I can act.</tspan></text>
<text fill="#ffffff" xml:space="preserve" transform="matrix(.75 0 0 .75 73.83071 103.77165)" font-size="32" font-family="DroidSerif"><tspan y="115.72" x="9 29.256003 47.304 60.424005 71.688 91.976009 109.09601 122.21601 141.83202 160.29602 187.84803 204.96802 220.04003 233.16002 251.62403 263.43205 276.55204 288.36006 298.56806 313.64006 330.76005 338.76005 351.88005 379.43205 396.55204 409.67204 429.28804 446.40803 462.152 480.616 510.824 527.94406 541.064 552.872 567.94406 585.064 602.184 615.304 627.112 642.184 660.648 690.856 703.976 715.24 735.528 752.648">By the power of fire, we become free from the </tspan></text>
<text fill="#ffffff" xml:space="preserve" transform="matrix(.75 0 0 .75 73.83071 103.77165)" font-size="32" font-family="DroidSerif"><tspan y="153.72" x="9 24.744 42.792 58.536 68.456 85.576007 99.72001 118.184009 129.992 144.136 163.752 181.096 199.144 213.288 231.272 251.912 271.528 285.672 306.312 316.52003 333.73603 354.02403 365.28804 373.28804 387.432 399.24003 414.312 431.432 448.552 462.69599 474.504 489.576 508.03999 538.248 552.392 564.2 581.32 599.304 614.37606 628.5201 646.9841 658.79208 672.9361 693.5761 703.7841 721.0001 741.28817 752.5521">cycle of day and night, free from fear of night </tspan></text>
<text fill="#ffffff" xml:space="preserve" transform="matrix(.75 0 0 .75 73.83071 103.77165)" font-size="32" font-family="DroidSerif"><tspan y="191.72" x="9 28.616002 43.688005 60.808008 80.42401 98.40801 109.67201 128.13602 143.20803 157.64003 165.64003 175.75203 193.73603 214.37602 233.99202 244.10402 255.91202 270.984 288.104 305.224 315.336 326.6 345.064 355.176 370.91999 388.904 403.97599 421.09599 431.20799 449.192 468.80799 487.27198 507.55998 518.824 528.936 540.19998 560.488 577.608 587.72 599.52798 619.816 631.07998 651.368 666.44 683.56 692.712 702.824 734.376 751.496">predators, and free to care about the future. We </tspan></text>
<text fill="#ffffff" xml:space="preserve" transform="matrix(.75 0 0 .75 73.83071 103.77165)" font-size="32" font-family="DroidSerif"><tspan y="229.72" x="9 24.744 42.728 63.368005 71.656009 101.864009 119.84801 137.89601 155.016 163.304 173.224 183.432 200.64801 220.936 232.20001 240.20001 248.488 265.608 284.13603 301.256 321.89604 330.18403 340.39204 361.03205 369.32005 380.58406 400.87205 417.99205 426.28004 445.89604 463.88005 478.95204 497 514.12 528.552 539.816 548.104 567.72006 577.64 595.624 611.36807 628.48806 642.92007">can make light, even in the darkest places.</tspan></text>
</g>
</g>
</g>
</svg>
