<?xml version="1.0" encoding="UTF-8" standalone="no"?>
<!DOCTYPE svg PUBLIC "-//W3C//DTD SVG 1.1//EN" "http://www.w3.org/Graphics/SVG/1.1/DTD/svg11.dtd">
<svg xmlns="http://www.w3.org/2000/svg" xmlns:xlink="http://www.w3.org/1999/xlink" version="1.1" width="720pt" height="405pt" viewBox="0 0 720 405">
<g enable-background="new">
<g>
<clipPath id="cp118">
<path transform="matrix(.001968504,0,0,.001968504,0,0)" d="M 0 0 L 365760 0 L 365760 205740 L 0 205740 L 0 0 Z "/>
</clipPath>
<g clip-path="url(#cp118)">
<path transform="matrix(.001968504,0,0,.001968504,0,0)" d="M 0 0 L 365568 0 L 365568 205740 L 0 205740 Z " fill-opacity=".2577" fill-rule="evenodd"/>
<path transform="matrix(.001968504,0,0,.001968504,0,0)" d="M 37506 52716 L 328254 52716 L 328254 153024 L 37506 153024 Z " fill-opacity="0" fill-rule="evenodd"/>
<text fill="#ffffff" xml:space="preserve" transform="matrix(.75 0 0 .75 73.83071 103.77165)" font-size="32" font-family="DroidSerif"><tspan y="39.72" x="9 20.744 29.032 44.776 62.760004 83.4 91.688 109.672008 125.41601 136.68001">I can act.</tspan></text>
<text fill="#ffffff" xml:space="preserve" transform="matrix(.75 0 0 .75 73.83071 103.77165)" font-size="32" font-family="DroidSerif"><tspan y="115.72" x="9 29.256003 47.304 56.616 67.880008 88.16801 105.28801 114.60001 134.21602 152.68003 180.23203 197.35202 212.42403 221.73603 240.20003 252.00803 261.32 288.872 303.944 314.152 325.41603 335.62403 356.26405 373.48005 381.48005 390.79203 402.536 411.848 423.112 441.096 459.14399 476.26399 485.57597 504.03996 524.67996 533.99197 545.2559 565.54397 582.66397 591.97598 619.52798 629.73599 644.16799 663.784 682.248 712.456 721.768 740.232 752.04">By the power of writing, I take on the wisdom of </tspan></text>
<text fill="#ffffff" xml:space="preserve" transform="matrix(.75 0 0 .75 73.83071 103.77165)" font-size="32" font-family="DroidSerif"><tspan y="153.72" x="9 20.264 40.552003 59.016004 73.448009 90.56801 107.62401 135.17601 155.464 173.92801 190.98401 206.72801 224.712 254.92002 272.04 289.096 308.712 325.832 337.64 356.104 371.176 388.296 405.352 435.56 452.68 461.832 478.888 490.632 507.688 522.12 533.384 551.368 572.008 591.624 608.68008 628.9681 648.5841 667.0481 687.6881 704.74417 716.0081 736.29617 753.41616">those who came before me. I stand upon the </tspan></text>
<text fill="#ffffff" xml:space="preserve" transform="matrix(.75 0 0 .75 73.83071 103.77165)" font-size="32" font-family="DroidSerif"><tspan y="191.72" x="9 23.432002 43.72 62.184003 82.472 92.392 112.007999 129.12799 144.2 158.632 169 187.464 199.272 209.64 226.856 237.064 255.048 275.68803 286.95204 301.38404 309.38404 319.752 337.73603 358.37605 377.99205 388.36003 400.104 410.472 424.904 442.024 459.14399 469.51197 481.31999 499.304 514.376 524.744 534.664 544.584 554.952 573.416 585.224 596.488 613.608 634.248 644.616 656.424 674.408 689.48007 700.744 721.03207 738.15206 753.22409">shoulders of giants, and I see far -- often farther </tspan></text>
<text fill="#ffffff" xml:space="preserve" transform="matrix(.75 0 0 .75 73.83071 103.77165)" font-size="32" font-family="DroidSerif"><tspan y="229.72" x="9 20.264 40.552003 58.536005 79.176 87.464008 98.728008 119.01601 136.136 154.184 162.472 182.088 192.29599 211.91199 219.91199 228.19998 239.46399 259.75199 278.21598 298.50398 315.71998 336.00798 344.29597 356.03996 364.32795 382.31196 412.51997 420.80796 441.44798 459.91197 471.17597 479.46397 497.44798 505.73597 522.95199 533.16 551.144 571.784 583.048 591.336 621.544 639.592 654.024 671.144 681.06399 692.87197">than they did, though I am not a giant myself.</tspan></text>
</g>
</g>
</g>
</svg>
