<?xml version="1.0" encoding="UTF-8" standalone="no"?>
<!DOCTYPE svg PUBLIC "-//W3C//DTD SVG 1.1//EN" "http://www.w3.org/Graphics/SVG/1.1/DTD/svg11.dtd">
<svg xmlns="http://www.w3.org/2000/svg" xmlns:xlink="http://www.w3.org/1999/xlink" version="1.1" width="720pt" height="405pt" viewBox="0 0 720 405">
<g enable-background="new">
<g>
<clipPath id="cp119">
<path transform="matrix(.001968504,0,0,.001968504,0,0)" d="M 0 0 L 365760 0 L 365760 205740 L 0 205740 L 0 0 Z "/>
</clipPath>
<g clip-path="url(#cp119)">
<path transform="matrix(.001968504,0,0,.001968504,0,0)" d="M 0 0 L 365568 0 L 365568 205740 L 0 205740 Z " fill-opacity=".2577" fill-rule="evenodd"/>
<path transform="matrix(.001968504,0,0,.001968504,0,0)" d="M 37506 52716 L 328254 52716 L 328254 153024 L 37506 153024 Z " fill-opacity="0" fill-rule="evenodd"/>
<text fill="#ffffff" xml:space="preserve" transform="matrix(.75 0 0 .75 73.83071 103.77165)" font-size="32" font-family="DroidSerif"><tspan y="39.72" x="9 20.744 29.032 44.776 62.760004 83.4 91.688 109.672008 125.41601 136.68001">I can act.</tspan></text>
<text fill="#ffffff" xml:space="preserve" transform="matrix(.75 0 0 .75 73.83071 103.77165)" font-size="32" font-family="DroidSerif"><tspan y="115.72" x="9 29.256003 47.304 57.640005 68.90401 89.19201 106.31201 116.64801 136.264 154.72801 182.28002 199.40001 214.47202 224.80802 243.27202 255.08002 265.41603 282.79203 298.536 308.74403 325.864 346.50404 362.24803 379.368 387.368 397.704 415.68803 436.32804 455.94404 466.28004 484.74403 496.55204 506.88804 526.216 541.288 551.49606 572.13607 583.4 593.60806 614.24807 631.46408 639.46408 649.80007 661.54409 671.88009 681.80007 698.92007 716.90408 731.9761 752.6161">By the power of Science, and of Printing, I learn </tspan></text>
<text fill="#ffffff" xml:space="preserve" transform="matrix(.75 0 0 .75 73.83071 103.77165)" font-size="32" font-family="DroidSerif"><tspan y="153.72" x="9 20.264 40.552003 58.536005 69.8 87.976009 99.240009 114.312007 134.6 145.86402 166.15201 184.328 194.53601 208.96802 227.14402 247.78401 266.24803 277.51203 295.68803 306.95204 327.24003 344.36003 362.536 382.152 397.224 415.688 434.216 444.424 465.06404 480.808 497.928 516.104 534.568 546.376 564.552 578.984 597.448 627.656 644.776 662.952 677.38406 707.59207 725.57608 735.49606 745.416 753.416">that truth is not the province of some small, </tspan></text>
<text fill="#ffffff" xml:space="preserve" transform="matrix(.75 0 0 .75 73.83071 103.77165)" font-size="32" font-family="DroidSerif"><tspan y="191.72" x="9 24.744 45.031999 63.496 77.928 95.048007 115.688 128.104 145.224 155.144 165.35199 176.616 193.736 202.888 215.304 227.048 238.31201 250.72801 260.936 275.368 287.784 299.048 319.336 336.456 348.87199 368.48799 378.69599 393.76799 405.03199 425.31999 440.39198 450.59999 467.81599 488.10398 499.36799 511.78398 530.248 542.05599 554.472 572.456 582.376 592.29598 604.712 632.264 652.552 671.016 683.432 703.04806 721.03207 736.10409 753.22409">chosen elite. It is the birthright of all who dare </tspan></text>
<text fill="#ffffff" xml:space="preserve" transform="matrix(.75 0 0 .75 73.83071 103.77165)" font-size="32" font-family="DroidSerif"><tspan y="229.72" x="9 20.264 38.728 54.984 69.416 86.536 103.656009 122.34401 138.6 148.80802 160.07202 169.22403 185.48003 202.85604 221.32004 237.57604 248.84004 267.30406 285.76805 302.02403 312.23204 326.66404 342.92 357.35203 375.33604 393.86405 404.07206 424.71208 441.92808 458.18406 469.44807 489.73606 506.85606 523.11209 550.66409 569.12808 584.2001 594.12008 613.7361 621.7361 637.9921 658.63217 677.0961 688.3601 704.61618 715.8801 736.16818 753.28817">to seek it. So too is saving the world, not the </tspan></text>
<text fill="#ffffff" xml:space="preserve" transform="matrix(.75 0 0 .75 73.83071 103.77165)" font-size="32" font-family="DroidSerif"><tspan y="267.72" x="9 28.616002 43.688005 62.152006 80.68001 90.88801 111.52801 127.27201 144.39202 161.992 180.45601 192.264 209.864 228.552 238.76001 259.40003 276.61604 291.04804 299.04804 316.64805 336.26405 351.33604 361.54405 378.66404 393.09605 404.36006 418.79206 436.39207 454.37608 475.01609 494.63209 512.23208 529.44808 546.56808 567.20809 577.4161 597.7041 612.1361 629.2561 643.6881 661.28817 679.27218 689.19216 707.6561 728.29617 745.41616 753.41616">province of kings, priests and geniuses alone, </tspan></text>
<text fill="#ffffff" xml:space="preserve" transform="matrix(.75 0 0 .75 73.83071 103.77165)" font-size="32" font-family="DroidSerif"><tspan y="305.72" x="9 28.616002 48.904 60.168 68.456 86.92 98.728 107.016 125 145 163.048 171.336 198.888 219.176 237.64 245.928 260.36 277.47999 287.688 304.03999 321.15998 329.44798 347.43199 368.072 376.36 394.82398 414.43998 434.05598 452.51997 467.59196 478.85597 499.14396 519.78396 529.99197 541.2559 556.4559">but of any who seize an opportunity.</tspan></text>
</g>
</g>
</g>
</svg>
