<?xml version="1.0" encoding="UTF-8" standalone="no"?>
<!DOCTYPE svg PUBLIC "-//W3C//DTD SVG 1.1//EN" "http://www.w3.org/Graphics/SVG/1.1/DTD/svg11.dtd">
<svg xmlns="http://www.w3.org/2000/svg" xmlns:xlink="http://www.w3.org/1999/xlink" version="1.1" width="720pt" height="405pt" viewBox="0 0 720 405">
<g enable-background="new">
<g>
<clipPath id="cp120">
<path transform="matrix(.001968504,0,0,.001968504,0,0)" d="M 0 0 L 365760 0 L 365760 205740 L 0 205740 L 0 0 Z "/>
</clipPath>
<g clip-path="url(#cp120)">
<path transform="matrix(.001968504,0,0,.001968504,0,0)" d="M 0 0 L 365568 0 L 365568 205740 L 0 205740 Z " fill-opacity=".2577" fill-rule="evenodd"/>
<path transform="matrix(.001968504,0,0,.001968504,0,0)" d="M 37506 52716 L 328254 52716 L 328254 153024 L 37506 153024 Z " fill-opacity="0" fill-rule="evenodd"/>
<text fill="#ffffff" xml:space="preserve" transform="matrix(.75 0 0 .75 73.83071 103.77165)" font-size="32" font-family="DroidSerif"><tspan y="39.72" x="9 20.744 29.032 44.776 62.760004 83.4 91.688 109.672008 125.41601 136.68001">I can act.</tspan></text>
<text fill="#ffffff" xml:space="preserve" transform="matrix(.75 0 0 .75 73.83071 103.77165)" font-size="32" font-family="DroidSerif"><tspan y="115.72" x="9 29.256003 47.304 70.312007 81.576007 101.864009 118.98401 141.992 161.608 180.072 207.62401 224.744 239.81601 262.824 281.288 293.096 316.104 327.848 348.488 368.104 388.392 402.824 414.088 429.16 439.368 457.35203 467.27204 477.48005 493.83204 511.81605 523.08 533.288 551.752 572.392 580.392 603.4 633.60806 651.656 674.664 694.28 712.26406 726.69607 736.90408 752.6481">By the power of Industrialization, my basic </tspan></text>
<text fill="#ffffff" xml:space="preserve" transform="matrix(.75 0 0 .75 73.83071 103.77165)" font-size="32" font-family="DroidSerif"><tspan y="153.72" x="9 29.640002 46.760004 63.880006 83.496 97.928 106.408008 124.392009 139.464 156.584 165.064 182.18399 200.168 214.6 224.80802 234.72801 252.77602 261.256 291.46403 308.584 319.84803 329.00004 337.48 361.896 380.36 388.83998 398.75999 417.22398 437.86399 455.08 472.19999 487.27198 495.75196 513.73599 528.808 545.928 554.408 584.616 603.08 617.512 628.776 637.25607 649.064 667.04806 678.312 695.432 715.04806 723.5281 734.79208 753.25607">needs are easily met. No longer are most fated to </tspan></text>
<text fill="#ffffff" xml:space="preserve" transform="matrix(.75 0 0 .75 73.83071 103.77165)" font-size="32" font-family="DroidSerif"><tspan y="191.72" x="9 20.264 38.728 48.936 58.856004 76.968 87.176 107.816 125.928 137.192 157.48 174.59999 192.71199 204.51999 214.728 231.84799 241.76799 261.384 275.816 284.96803 303.08003 322.66404 342.95204 360.07203 375.144 392.264 410.376 420.584 435.01603 453.12803 467.56004 487.17604 504.29603 520.04006 530.24807 548.23208 558.15206 568.36007 584.71206 602.69607 613.96 624.168 642.632 663.27206 672.424 690.536 713.096 733.736 753.35208">toil in the fields. There is specialization. And </tspan></text>
<text fill="#ffffff" xml:space="preserve" transform="matrix(.75 0 0 .75 73.83071 103.77165)" font-size="32" font-family="DroidSerif"><tspan y="229.72" x="9 20.264 40.552003 57.672006 72.744 89.864009 106.72801 116.93601 131.36801 148.23201 162.66402 182.95201 198.02402 217.64002 227.56002 247.848 262.28 270.28 287.14399 298.952 314.024 331.14399 348.26399 358.472 379.112 396.328 413.192 443.4 460.52 477.38398 489.192 504.26399 522.72799 552.936 569.8 581.06399 599.52798 616.39199 636.008 654.472 671.336 689.8 701.06399 721.352 738.472 753.544">there is surplus, freeing me from to do other </tspan></text>
<text fill="#ffffff" xml:space="preserve" transform="matrix(.75 0 0 .75 73.83071 103.77165)" font-size="32" font-family="DroidSerif"><tspan y="267.72" x="9 20.264 40.552003 58.536005 79.176 87.464008 115.01601 135.304 153.288 164.552 172.84 184.584 192.872 223.08 243.368 257.8 269.064">than what I must.</tspan></text>
</g>
</g>
</g>
</svg>
