<?xml version="1.0" encoding="UTF-8" standalone="no"?>
<!DOCTYPE svg PUBLIC "-//W3C//DTD SVG 1.1//EN" "http://www.w3.org/Graphics/SVG/1.1/DTD/svg11.dtd">
<svg xmlns="http://www.w3.org/2000/svg" xmlns:xlink="http://www.w3.org/1999/xlink" version="1.1" width="720pt" height="405pt" viewBox="0 0 720 405">
<g enable-background="new">
<g>
<clipPath id="cp0">
<path transform="matrix(.001968504,0,0,.001968504,0,0)" d="M 0 0 L 365760 0 L 365760 205740 L 0 205740 L 0 0 Z "/>
</clipPath>
<g clip-path="url(#cp0)">
<path transform="matrix(.001968504,0,0,.001968504,0,0)" d="M 12468 2955 L 353292 2955 L 353292 37983 L 12468 37983 Z " fill-opacity="0" fill-rule="evenodd"/>
<text fill="#ffff00" xml:space="preserve" transform="matrix(.75 0 0 .75 24.543309 5.8169295)" font-size="69.333339" font-family="ArialMT"><tspan y="66.497" x="275.8171 321.9931 360.54246 379.74778 402.8358 441.38514 476.0518 495.2571 545.3158 583.8651">Petrov Day</tspan></text>
<path transform="matrix(.001968504,0,0,.001968504,0,0)" d="M 33065 40938 L 321725 40938 L 321725 191046 L 33065 191046 Z " fill-opacity=".2157" fill-rule="evenodd"/>
<text fill="#ffffff" xml:space="preserve" transform="matrix(.75 0 0 .75 65.08858 80.58662)" font-size="24" font-family="ArialMT"><tspan y="32.04" x="9 23.64 36.984 42.312 54.312 60.96 66.288 78.288 84.936008 98.28001 104.92801 122.25601 135.6 140.92801 147.576 152.904 166.24802 179.59201 186.24 199.58402 212.92801 226.272 239.616 246.26399 252.91199 266.25599 274.248 280.896 294.24 306.24 319.58399 327.576 339.576 352.91999 366.26399 379.60798 386.25599 392.904 406.248 412.896 426.24 439.58399 446.232 452.88 464.88 478.224 491.568 504.912 518.256 530.256 536.904 550.248 563.592">This is a waiting page for everyone to get connected.</tspan></text>
<text fill="#ffffff" xml:space="preserve" transform="matrix(.75 0 0 .75 65.08858 80.58662)" font-size="24" font-family="ArialMT"><tspan y="90.04" x="9 24.984002 30.312003 43.656007 57.000009 69.00001 82.34401 88.99201 108.98401 122.32801 134.328 147.672 154.31999 166.31999 179.664 187.656 201">Please make sure:</tspan></text>
<text fill="#ffffff" xml:space="preserve" transform="matrix(.75 0 0 .75 65.08858 80.58662)" font-size="24" font-family="ArialMT"><tspan y="119.04" x="18.503907">&#x25cf;</tspan></text>
<text fill="#ffffff" xml:space="preserve" transform="matrix(.75 0 0 .75 65.08858 80.58662)" font-size="24" font-family="ArialMT"><tspan y="119.04" x="57 70.8 84.144008 97.48801 105.48 112.128009 125.47201 138.81601 152.16 157.488 170.832 177.48 194.808 208.15201 216.14402 228.14402">Your audio works</tspan></text>
<text fill="#ffffff" xml:space="preserve" transform="matrix(.75 0 0 .75 65.08858 80.58662)" font-size="24" font-family="ArialMT"><tspan y="148.04" x="18.503907">&#x25cf;</tspan></text>
<text fill="#ffffff" xml:space="preserve" transform="matrix(.75 0 0 .75 65.08858 80.58662)" font-size="24" font-family="ArialMT"><tspan y="148.04" x="57 70.8 84.144008 97.48801 104.13601 116.13601 129.48001 142.824 149.472 156.12 169.46399 181.46399 194.80799 201.45598 214.79999 221.44799 233.44799 246.79199 252.12 258.768 264.096">You can take a selfie</tspan></text>
<text fill="#ffffff" xml:space="preserve" transform="matrix(.75 0 0 .75 65.08858 80.58662)" font-size="24" font-family="ArialMT"><tspan y="177.04" x="18.503907">&#x25cf;</tspan></text>
<text fill="#ffffff" xml:space="preserve" transform="matrix(.75 0 0 .75 65.08858 80.58662)" font-size="24" font-family="ArialMT"><tspan y="177.04" x="57 63.648 70.296 76.944 88.944 102.288 115.632 122.28001 135.62401 143.61602 156.96002 163.60802 176.95203 188.95203 194.28003 207.62403 220.96802 227.61602 239.61602 252.96002 266.30403 279.648 287.64 300.984 307.63203 320.976 327.62403 340.96803 354.312 366.312 371.64 383.64 396.984 408.984 415.63203 422.28004 435.62403 443.61604 450.26405 462.26405 475.60804 480.93605 487.58406 492.91206 506.25605 518.25607 524.90408 538.24807 551.59207 564.93606 571.58407 584.92807 592.92007 598.24807 618.24008 631.58407 639.57608 651.57608">If you are using separate devices for selfies and primary </tspan></text>
<text fill="#ffffff" xml:space="preserve" transform="matrix(.75 0 0 .75 65.08858 80.58662)" font-size="24" font-family="ArialMT"><tspan y="206.04" x="57 62.328 75.672 82.32 95.664 103.656 117 129 135.648 140.976 154.32 167.664 174.312 180.95999 187.60799 200.952 214.29599 220.94399 227.59198 234.23998 247.58399 260.92799 272.92799 279.576 292.91999 300.912 314.25599 320.904 326.232 339.576 352.91999 366.26399 379.60798 392.95198 399.59999 412.94398 426.28797 432.93598 446.27998 458.27998 464.92799 471.576 484.91999 498.26399 504.912 516.912 530.256 550.248 563.592 570.24 583.584 603.576 616.92 622.248 627.576 634.224 647.568 660.912 674.256 680.904 687.552 700.896 714.24 720.888">interaction, that they are logged on as the same email and that </tspan></text>
<text fill="#ffffff" xml:space="preserve" transform="matrix(.75 0 0 .75 65.08858 80.58662)" font-size="24" font-family="ArialMT"><tspan y="235.04" x="57 70.344 83.688 89.01601 101.01601 107.66401 121.00801 134.35202 147.69602 154.34401 167.68802 174.33602 180.98401 187.632 200.97602 214.32 234.31201 240.96 246.28801 258.28804 264.93605 278.28004 291.62403 296.95204 310.29603 323.64 330.28804 343.63203 356.976 370.32 375.648">only one of them is doing audio</tspan></text>
<text fill="#ffffff" xml:space="preserve" transform="matrix(.75 0 0 .75 65.08858 80.58662)" font-size="24" font-family="ArialMT"><tspan y="264.04" x="18.503907">&#x25cf;</tspan></text>
<text fill="#ffffff" xml:space="preserve" transform="matrix(.75 0 0 .75 65.08858 80.58662)" font-size="24" font-family="ArialMT"><tspan y="264.04" x="57 71.64 84.984 98.328 104.976009 111.62401 123.62401 136.96802 150.31201 156.96 170.30402 183.64801 195.64801 208.992">That you have:</tspan></text>
<text fill="#ffffff" xml:space="preserve" transform="matrix(.75 0 0 .75 65.08858 80.58662)" font-size="24" font-family="ArialMT"><tspan y="293.04" x="66.50391">&#x25cb;</tspan></text>
<text fill="#ffffff" xml:space="preserve" transform="matrix(.75 0 0 .75 65.08858 80.58662)" font-size="24" font-family="ArialMT"><tspan y="293.04" x="105 120.984 126.312007 139.656 153 159.648 166.29599 174.288 187.63199 200.97599 206.30399 211.63199 218.27999 226.27199 232.91999 244.91999 258.26399 271.60798 284.95198 290.27998 303.62397">Eight (unlit) candles</tspan></text>
<text fill="#ffffff" xml:space="preserve" transform="matrix(.75 0 0 .75 65.08858 80.58662)" font-size="24" font-family="ArialMT"><tspan y="322.04" x="66.50391">&#x25cb;</tspan></text>
<text fill="#ffffff" xml:space="preserve" transform="matrix(.75 0 0 .75 65.08858 80.58662)" font-size="24" font-family="ArialMT"><tspan y="322.04" x="105 124.992008 138.336 151.68 165.02399 177.02399 183.67198 197.01599 203.66399 210.31198 215.63999 220.96799 234.31198 247.65598 254.30397 259.63197 272.97596 286.31996 292.96797 299.61598 312.95997 326.30397">Means of lighting them</tspan></text>
<text fill="#ffffff" xml:space="preserve" transform="matrix(.75 0 0 .75 65.08858 80.58662)" font-size="24" font-family="ArialMT"><tspan y="351.04" x="66.50391">&#x25cb;</tspan></text>
<text fill="#ffffff" xml:space="preserve" transform="matrix(.75 0 0 .75 65.08858 80.58662)" font-size="24" font-family="ArialMT"><tspan y="351.04" x="105 120.984 140.976 154.32 162.31201 175.656 189 202.344 214.344 226.344 232.99199 239.63999 244.96799 252.95999 266.304 272.952 286.296 298.296 304.944 310.272 323.616 336.96 350.304 355.632 367.632 380.97599 400.968 414.31199 427.65599 434.304 440.952 452.952 466.296 479.63999 492.98399 498.31199 503.63999 516.984">Emergency fire extinguishment supplies</tspan></text>
<text fill="#ffffff" xml:space="preserve" transform="matrix(.75 0 0 .75 65.08858 80.58662)" font-size="24" font-family="ArialMT"><tspan y="380.04" x="66.50391">&#x25cb;</tspan></text>
<text fill="#ffffff" xml:space="preserve" transform="matrix(.75 0 0 .75 65.08858 80.58662)" font-size="24" font-family="ArialMT"><tspan y="380.04" x="105 122.328 130.32 135.64801 148.992 160.992 166.32 179.664 193.008 199.65599 216.984 230.328 236.976 250.32">Drinking water</tspan></text>
<path transform="matrix(.001968504,0,0,.001968504,0,0)" stroke-width="381" stroke-linecap="butt" stroke-linejoin="round" fill="none" stroke="#0000ff" d="M 176752 67027 L 309896 67027 L 309896 75943 L 176752 75943 Z "/>
</g>
</g>
</g>
</svg>
